<svg width="200" height="200" viewBox="0 0 35.645 34.498" xmlns="http://www.w3.org/2000/svg"><g transform="translate(-139.73 -98.022)" display="none"><g transform="matrix(.90466 0 0 .90466 105.52 2.0966)" display="inline" stroke-linejoin="round" stroke-width="1.1054"><g transform="matrix(.099287 0 0 .082979 46.492 107.8)" fill="#ccc" stroke="#f9f9f9"><rect x="16.769" y="131.01" width="188.08" height="187.9" ry="9.0821" stroke-linejoin="bevel" stroke-width=".80563"/><path d="m113.19 131.48-0.55574 109.66 91.846-0.25448" stroke-linejoin="miter" stroke-width=".78574"/><path d="m112.86 241.14-95.814-0.15617" stroke-linejoin="miter" stroke-width=".78513"/></g><g transform="matrix(.11017 0 0 .073315 42.527 85.699)" fill="none" stroke-linejoin="bevel" stroke-width="5.9946"><path d="m60.531 562.9 11.112-55.271 10.243 55.271h10.474l7.456-13.545 7.6522 13.545 11.681-103.99 9.3542 103.99h13.13l11.581-31.13 11.105 31.13h22.965l12.488-42.148 14.112 42.148" stroke="#59f"/><path d="m60.531 562.9 10.982-40.493 10.373 40.493h10.474l7.5699-20.384 7.5383 20.384 11.268-58.219 9.768 58.219h13.13l11.794-24.783 10.893 24.783h22.965l12.25-67.913 14.35 67.913" stroke="#d4aa00"/><path d="m60.97 562.91 10.367-6.7424 11.007 6.7424h26.708l9.7122-14.011 9.0295 14.011h14.011l11.255-14.011 11.053 14.011 11.211-20.907 11.857 20.907 12.47-54.099 14.464 54.099" stroke="#a00"/></g><g transform="matrix(.10067 0 0 .073315 46.155 109.36)" stroke-width="8.3616"><g transform="translate(.8207 -7.8364)"><g transform="translate(-1.5847,4.8822)" stroke-width="8.3616"><g transform="translate(1.5875)" stroke-width="8.3616"><g fill="none" stroke-linejoin="bevel"><path d="m27.086 307.58 10.346 2.7302 19.127-2.7302h0.16115l6.9419 0.65143 7.1245-0.65143 10.876 5.3911 20.725-5.3911h0.20937l10.783 1.5275 10.339-1.5275h0.79536" stroke="#59f" stroke-width="6.2712"/><path d="m27.086 307.58 10.225 1.994 19.471-1.994h-0.06166l7.0479 0.99224 7.0184-0.99224 10.491 2.8771 20.944-2.8771h0.37514l10.98 1.2114 10.142-1.2114h0.36552" stroke="#d4aa00" stroke-width="4.1808"/><path d="m28.274 304.14 10.346-21.553 19.408 21.553h-0.12003l6.9419-5.2669 7.1245 5.2669 10.876-42.4 20.946 42.4h-0.0117l10.783-12.13 10.339 12.13h0.26656" stroke="#59f" stroke-width="6.2712"/><path d="m28.274 304.14 10.225-15.786 19.35 15.786h0.05981l7.0479-7.9371 7.0184 7.9371 10.491-22.704 21.397 22.704h-0.0781l10.98-9.6542 10.142 9.6542h0.12979" stroke="#d4aa00" stroke-width="6.2712"/></g><rect x="24.208" y="304.83" width="177.26" height=".43028" fill="#999" stroke="#fff" stroke-width="2.0904"/><rect x="21.626" y="304.5" width="180.19" height="1.8896" ry="0" fill="#fff" stroke="#999" stroke-width=".83616"/><path d="m27.086 307.55 15.425 22.127 14.049-22.127h0.16115l8.9801 8.4487 5.0862-8.4487 14.608 29.925 16.992-29.925h0.20937l17.641 19.656 3.4812-19.656h0.79536l40.601 18.325 34.928-15.989" fill="none" stroke="#000" stroke-linejoin="bevel" stroke-width="4.1808"/><rect x="20.309" y="302.79" width="3.1295" height="4.8028" fill="#ccc"/><rect x="200.27" y="302.79" width="3.1295" height="4.8028" fill="#ccc"/></g></g><rect x="-46.606" y="347.67" width="249.3" height="0" ry="0" fill="none" stroke="#333" stroke-linejoin="bevel" stroke-width=".83616"/></g></g><g font-family="sans-serif" font-size="2.2926px" font-weight="bold" letter-spacing="0px" stroke-width="1.6871" word-spacing="0px"><text x="61.321953" y="121.32294" fill="#aa0000" style="line-height:1.25" xml:space="preserve"><tspan x="61.321953" y="121.32294" fill="#aa0000" font-family="sans-serif" font-size="2.2926px" font-weight="bold" stroke-width="1.6871">U</tspan></text><text x="52.305805" y="121.33414" fill="#d4aa00" style="line-height:1.25" xml:space="preserve"><tspan x="52.305805" y="121.33414" fill="#d4aa00" font-family="sans-serif" font-size="2.2926px" font-weight="bold" stroke-width="1.6871">M</tspan></text><text x="49.554718" y="121.3347" fill="#5599ff" style="line-height:1.25" xml:space="preserve"><tspan x="49.554718" y="121.3347" fill="#5599ff" font-family="sans-serif" font-size="2.2926px" font-weight="bold" stroke-width="1.6871">S</tspan></text><text x="61.27758" y="130.10129" fill="#000000" style="line-height:1.25" xml:space="preserve"><tspan x="61.27758" y="130.10129" fill="#000000" font-family="sans-serif" font-size="2.2926px" font-weight="bold" stroke-width="1.6871">R</tspan></text></g><text transform="scale(.97342 1.0273)" x="52.633606" y="115.57661" fill="#808080" font-family="Chandas" font-size="3.5096px" letter-spacing="0px" stroke-width="1.3959" word-spacing="0px" style="line-height:1.25" xml:space="preserve"><tspan x="52.633606" y="115.57661" fill="#808080" font-family="Chandas" font-size="3.5096px" stroke-width="1.3959">coalispr</tspan></text></g></g><g transform="translate(9.3527 8.1638)" display="none"><g transform="matrix(.90466 0 0 .90466 -43.566 -104.09)" display="inline" stroke-linejoin="round" stroke-width="1.1054"><g transform="matrix(.099287 0 0 .082979 46.492 107.8)" fill="#f9f9f9"><rect x="16.769" y="131.01" width="188.08" height="187.9" ry="9.0821" stroke="#666" stroke-linejoin="bevel" stroke-width=".80563"/><path d="m113.19 131.48-0.55574 109.66 91.846-0.25448" stroke="#999" stroke-linejoin="miter" stroke-width=".78574"/><path d="m112.86 241.14-95.814-0.15617" stroke="#999" stroke-linejoin="miter" stroke-width=".78513"/></g><g transform="matrix(.11017 0 0 .073315 42.527 85.699)" fill="none" stroke-linejoin="bevel" stroke-width="5.9946"><path d="m60.531 562.9 11.112-55.271 10.243 55.271h10.474l7.456-13.545 7.6522 13.545 11.681-103.99 9.3542 103.99h13.13l11.581-31.13 11.105 31.13h22.965l12.488-42.148 14.112 42.148" stroke="#59f"/><path d="m60.531 562.9 10.982-40.493 10.373 40.493h10.474l7.5699-20.384 7.5383 20.384 11.268-58.219 9.768 58.219h13.13l11.794-24.783 10.893 24.783h22.965l12.25-67.913 14.35 67.913" stroke="#d4aa00"/><path d="m60.97 562.91 10.367-6.7424 11.007 6.7424h26.708l9.7122-14.011 9.0295 14.011h14.011l11.255-14.011 11.053 14.011 11.211-20.907 11.857 20.907 12.47-54.099 14.464 54.099" stroke="#a00"/></g><g transform="matrix(.10067 0 0 .073315 46.155 109.36)" stroke-width="8.3616"><g transform="translate(.8207 -7.8364)"><g transform="translate(-1.5847,4.8822)" stroke-width="8.3616"><g transform="translate(1.5875)" stroke-width="8.3616"><g fill="none" stroke-linejoin="bevel"><path d="m27.086 307.58 10.346 2.7302 19.127-2.7302h0.16115l6.9419 0.65143 7.1245-0.65143 10.876 5.3911 20.725-5.3911h0.20937l10.783 1.5275 10.339-1.5275h0.79536" stroke="#59f" stroke-width="6.2712"/><path d="m27.086 307.58 10.225 1.994 19.471-1.994h-0.06166l7.0479 0.99224 7.0184-0.99224 10.491 2.8771 20.944-2.8771h0.37514l10.98 1.2114 10.142-1.2114h0.36552" stroke="#d4aa00" stroke-width="4.1808"/><path d="m28.274 304.14 10.346-21.553 19.408 21.553h-0.12003l6.9419-5.2669 7.1245 5.2669 10.876-42.4 20.946 42.4h-0.0117l10.783-12.13 10.339 12.13h0.26656" stroke="#59f" stroke-width="6.2712"/><path d="m28.274 304.14 10.225-15.786 19.35 15.786h0.05981l7.0479-7.9371 7.0184 7.9371 10.491-22.704 21.397 22.704h-0.0781l10.98-9.6542 10.142 9.6542h0.12979" stroke="#d4aa00" stroke-width="6.2712"/></g><rect x="24.208" y="304.83" width="177.26" height=".43028" fill="#999" stroke="#fff" stroke-width="2.0904"/><rect x="21.626" y="304.5" width="180.19" height="1.8896" ry="0" fill="#fff" stroke="#999" stroke-width=".83616"/><path d="m27.086 307.55 15.425 22.127 14.049-22.127h0.16115l8.9801 8.4487 5.0862-8.4487 14.608 29.925 16.992-29.925h0.20937l17.641 19.656 3.4812-19.656h0.79536l40.601 18.325 34.928-15.989" fill="none" stroke="#000" stroke-linejoin="bevel" stroke-width="4.1808"/><rect x="20.309" y="302.79" width="3.1295" height="4.8028" fill="#fff"/><rect x="200.27" y="302.79" width="3.1295" height="4.8028" fill="#fff"/></g></g><rect x="-46.606" y="347.67" width="249.3" height="0" ry="0" fill="none" stroke="#333" stroke-linejoin="bevel" stroke-width=".83616"/></g></g><g font-family="sans-serif" font-size="2.2926px" font-weight="bold" letter-spacing="0px" stroke-width="1.6871" word-spacing="0px"><text x="61.321953" y="121.32294" fill="#aa0000" style="line-height:1.25" xml:space="preserve"><tspan x="61.321953" y="121.32294" fill="#aa0000" font-family="sans-serif" font-size="2.2926px" font-weight="bold" stroke-width="1.6871">U</tspan></text><text x="52.305805" y="121.33414" fill="#d4aa00" style="line-height:1.25" xml:space="preserve"><tspan x="52.305805" y="121.33414" fill="#d4aa00" font-family="sans-serif" font-size="2.2926px" font-weight="bold" stroke-width="1.6871">M</tspan></text><text x="49.554718" y="121.3347" fill="#5599ff" style="line-height:1.25" xml:space="preserve"><tspan x="49.554718" y="121.3347" fill="#5599ff" font-family="sans-serif" font-size="2.2926px" font-weight="bold" stroke-width="1.6871">S</tspan></text><text x="61.27758" y="130.10129" fill="#000000" style="line-height:1.25" xml:space="preserve"><tspan x="61.27758" y="130.10129" fill="#000000" font-family="sans-serif" font-size="2.2926px" font-weight="bold" stroke-width="1.6871">R</tspan></text></g><text transform="scale(.97342 1.0273)" x="52.633606" y="115.57661" fill="#808080" font-family="Chandas" font-size="3.5096px" letter-spacing="0px" stroke-width="1.3959" word-spacing="0px" style="line-height:1.25" xml:space="preserve"><tspan x="52.633606" y="115.57661" fill="#808080" font-family="Chandas" font-size="3.5096px" stroke-width="1.3959">coalispr</tspan></text></g></g><g transform="translate(9.3158 8.8789)"><g transform="matrix(2 0 0 2 -8.5068 -8.3699)"><rect x="-.35449" y="-.20451" width="17.723" height="17.149" ry="0" fill="#2980b9" stroke="#f9f9f9" stroke-width=".1"/><g transform="matrix(.90466 0 0 .90466 -43.529 -104.8)" stroke-linejoin="round" stroke-width="1.1054"><g transform="matrix(.099287 0 0 .082979 46.492 107.8)" fill="#f9f9f9"><rect x="16.769" y="131.01" width="188.08" height="187.9" ry="9.0821" stroke="#666" stroke-linejoin="bevel" stroke-width=".80563"/><path d="m113.19 131.48-0.55574 109.66 91.846-0.25448" stroke="#999" stroke-linejoin="miter" stroke-width=".78574"/><path d="m112.86 241.14-95.814-0.15617" stroke="#999" stroke-linejoin="miter" stroke-width=".78513"/></g><g transform="matrix(.11017 0 0 .073315 42.527 85.699)" fill="none" stroke-linejoin="bevel" stroke-width="5.9946"><path d="m60.531 562.9 11.112-55.271 10.243 55.271h10.474l7.456-13.545 7.6522 13.545 11.681-103.99 1.3968 15.528 7.9574 88.462h13.13l11.581-31.13 11.105 31.13h22.965l12.488-42.148 14.112 42.148" fill="none" stroke="#2980b9"/><path d="m60.531 562.9 10.982-40.493 10.373 40.493h10.474l7.5699-20.384 7.5383 20.384 11.268-58.219 9.768 58.219h13.13l11.794-24.783 10.893 24.783h22.965l12.25-67.913 14.35 67.913" stroke="#d4aa00"/><path d="m60.97 562.91 10.367-6.7424 11.007 6.7424h26.708l9.7122-14.011 9.0295 14.011h14.011l11.255-14.011 11.053 14.011 11.211-20.907 11.857 20.907 12.47-54.099 14.464 54.099" stroke="#a00"/></g><g transform="matrix(.10067 0 0 .073315 46.155 109.36)" stroke-width="8.3616"><g transform="translate(.8207 -7.8364)"><g transform="translate(-1.5847,4.8822)" stroke-width="8.3616"><g transform="translate(1.5875)" stroke-width="8.3616"><g fill="none" stroke-linejoin="bevel"><path d="m27.086 307.58 10.346 2.7302 19.127-2.7302h0.16115l6.9419 0.65143 7.1245-0.65143 10.876 5.3911 20.725-5.3911h0.20937l10.783 1.5275 10.339-1.5275h0.79536" stroke="#2980b9" stroke-width="6.2712"/><path d="m27.086 307.58 10.225 1.994 19.471-1.994h-0.06166l7.0479 0.99224 7.0184-0.99224 10.491 2.8771 20.944-2.8771h0.37514l10.98 1.2114 10.142-1.2114h0.36552" stroke="#d4aa00" stroke-width="4.1808"/><path d="m28.274 304.14 10.346-21.553 19.408 21.553h-0.12003l6.9419-5.2669 7.1245 5.2669 10.876-42.4 20.946 42.4h-0.0117l10.783-12.13 10.339 12.13h0.26656" stroke="#2980b9" stroke-width="6.2712"/><path d="m28.274 304.14 10.225-15.786 19.35 15.786h0.05981l7.0479-7.9371 7.0184 7.9371 10.491-22.704 21.397 22.704h-0.0781l10.98-9.6542 10.142 9.6542h0.12979" stroke="#d4aa00" stroke-width="6.2712"/></g><rect x="24.208" y="304.83" width="177.26" height=".43028" fill="#999" stroke="#fff" stroke-width="2.0904"/><g fill="#fff"><rect x="21.626" y="304.5" width="180.19" height="1.8896" ry="0" stroke="#999" stroke-width=".83616"/><rect x="20.309" y="302.79" width="3.1295" height="4.8028"/><rect x="200.27" y="302.79" width="3.1295" height="4.8028"/></g><path d="m27.086 307.55 15.425 22.127 14.049-22.127h0.16115l8.9801 8.4487 5.0862-8.4487 14.608 29.925 16.992-29.925h0.20937l17.641 19.656 3.4812-19.656h0.79536l40.601 18.325 34.928-15.989" fill="none" stroke="#000" stroke-linejoin="bevel" stroke-width="4.1808"/></g></g><rect x="-46.606" y="347.67" width="249.3" height="0" ry="0" fill="none" stroke="#333" stroke-linejoin="bevel" stroke-width=".83616"/></g></g><g font-family="sans-serif" font-size="2.2926px" font-weight="bold" letter-spacing="0px" stroke-width="1.6871" word-spacing="0px"><text x="61.321953" y="121.32294" fill="#aa0000" style="line-height:1.25" xml:space="preserve"><tspan x="61.321953" y="121.32294" fill="#aa0000" font-family="sans-serif" font-size="2.2926px" font-weight="bold" stroke-width="1.6871">U</tspan></text><text x="52.305805" y="121.33414" fill="#d4aa00" style="line-height:1.25" xml:space="preserve"><tspan x="52.305805" y="121.33414" fill="#d4aa00" font-family="sans-serif" font-size="2.2926px" font-weight="bold" stroke-width="1.6871">M</tspan></text><text x="49.554718" y="121.3347" fill="#2980b9" style="line-height:1.25" xml:space="preserve"><tspan x="49.554718" y="121.3347" fill="#2980b9" font-family="sans-serif" font-size="2.2926px" font-weight="bold" stroke-width="1.6871">S</tspan></text><text x="61.27758" y="130.10129" fill="#000000" style="line-height:1.25" xml:space="preserve"><tspan x="61.27758" y="130.10129" fill="#000000" font-family="sans-serif" font-size="2.2926px" font-weight="bold" stroke-width="1.6871">R</tspan></text></g><text transform="scale(.97342 1.0273)" x="52.633606" y="115.57661" fill="#000000" font-family="Chandas" font-size="3.5096px" letter-spacing="0px" stroke-width="1.3959" word-spacing="0px" style="line-height:1.25" xml:space="preserve"><tspan x="52.633606" y="115.57661" fill="#000000" font-family="Chandas" font-size="3.5096px" stroke-width="1.3959">coalispr</tspan></text></g></g></g><g transform="translate(9.3158 8.8789)" display="none"><image x="40.85" y="-76.613" width="19.315" height="41.54" preserveAspectRatio="none" /></g></svg>
