<?xml version="1.0" encoding="UTF-8" standalone="no"?>
<!-- Created with Inkscape (http://www.inkscape.org/) -->

<svg
   xmlns:dc="http://purl.org/dc/elements/1.1/"
   xmlns:cc="http://creativecommons.org/ns#"
   xmlns:rdf="http://www.w3.org/1999/02/22-rdf-syntax-ns#"
   xmlns:svg="http://www.w3.org/2000/svg"
   xmlns="http://www.w3.org/2000/svg"
   xmlns:sodipodi="http://sodipodi.sourceforge.net/DTD/sodipodi-0.dtd"
   xmlns:inkscape="http://www.inkscape.org/namespaces/inkscape"
   width="96"
   height="96"
   viewBox="0 0 25.399999 25.399999"
   version="1.1"
   id="svg820"
   inkscape:version="0.92.3 (2405546, 2018-03-11)"
   sodipodi:docname="config.svg">
  <defs
     id="defs814" />
  <sodipodi:namedview
     id="base"
     pagecolor="#ffffff"
     bordercolor="#666666"
     borderopacity="1.0"
     inkscape:pageopacity="0.0"
     inkscape:pageshadow="2"
     inkscape:zoom="3.959798"
     inkscape:cx="24.186239"
     inkscape:cy="26.888787"
     inkscape:document-units="px"
     inkscape:current-layer="layer1"
     showgrid="false"
     units="px"
     inkscape:pagecheckerboard="true"
     inkscape:window-width="1920"
     inkscape:window-height="1051"
     inkscape:window-x="0"
     inkscape:window-y="0"
     inkscape:window-maximized="1" />
  <metadata
     id="metadata817">
    <rdf:RDF>
      <cc:Work
         rdf:about="">
        <dc:format>image/svg+xml</dc:format>
        <dc:type
           rdf:resource="http://purl.org/dc/dcmitype/StillImage" />
        <dc:title />
      </cc:Work>
    </rdf:RDF>
  </metadata>
  <g
     inkscape:label="Layer 1"
     inkscape:groupmode="layer"
     id="layer1"
     transform="translate(0,-271.60001)">
    <path
       style="opacity:1;vector-effect:none;fill:#4c4c4c;fill-opacity:1;stroke:#4c4c4c;stroke-width:0.52916664;stroke-linecap:butt;stroke-linejoin:miter;stroke-miterlimit:4;stroke-dasharray:none;stroke-dashoffset:0;stroke-opacity:1"
       d="m 2.1979575,274.36938 a 6.2040476,6.202009 0 0 1 8.7742185,0 6.2040476,6.202009 0 0 1 1.770147,5.0883 l 10.805023,10.80148 c 0.551756,0.55157 0.551756,1.43967 0,1.99124 l -3.462483,3.46135 c -0.551757,0.55157 -1.440145,0.55157 -1.991901,0 L 7.2931262,284.91546 A 6.2040476,6.202009 0 0 1 2.1979575,283.1407 6.2040476,6.202009 0 0 1 1.3530856,282.07832 H 6.5299527 V 275.9153 H 1.0781614 a 6.2040476,6.202009 0 0 1 1.1197961,-1.54592 z"
       id="path1365"
       inkscape:connector-curvature="0" />
  </g>
</svg>
