<svg version="1.0" viewBox="0 0 289.6 462.08" xmlns="http://www.w3.org/2000/svg"><g transform="translate(-.91283 -1.1024)"><rect x=".91283" y="1.1024" width="289.6" height="462.08" ry="13.343" fill="#f9f9f9" stroke-linecap="round" stroke-linejoin="round" stroke-width=".51188"/><g fill="none" stroke="#000" stroke-width="1.44"><path d="m95.062 442.57h3.888"/><path d="m95.062 435.01h3.888"/><path d="m95.062 427.45h3.888"/></g><path d="m87.969 417.19h18.075v5.385h-18.075z" fill="#ffd8d8"/><path d="m95.062 419.89h3.888" fill="none" stroke="#000" stroke-width="1.44"/><path d="m85.449 283.52 18.249-0.637 0.194 5.582-18.248 0.637z" fill="#d7efc5"/><path d="m92.727 286.06 3.8857-0.136" fill="none" stroke="#000" stroke-width="1.44"/><path d="m85.185 275.96 18.248-0.637 0.195 5.582-18.248 0.637z" fill="#ffd8d8"/><path d="m92.464 278.5 3.8856-0.136" fill="none" stroke="#000" stroke-width="1.44"/><path d="m84.921 268.41 18.248-0.637 0.195 5.582-18.248 0.637z" fill="#ffd8d8"/><path d="m92.2 270.95 3.8856-0.135" fill="none" stroke="#000" stroke-width="1.44"/><path d="m84.657 260.85 18.248-0.637 0.195 5.582-18.248 0.637z" fill="#ffd8d8"/><path d="m91.936 263.39 3.8857-0.136" fill="none" stroke="#000" stroke-width="1.44"/><path d="m84.394 253.29 18.248-0.637 0.1948 5.582-18.248 0.637z" fill="#ffd8d8"/><path d="m91.672 255.84 3.8856-0.136" fill="none" stroke="#000" stroke-width="1.44"/><path d="m91.409 248.28 3.8856-0.135" fill="none" stroke="#000" stroke-width="1.44"/><path d="m83.866 238.18 18.248-0.637 0.1949 5.582-18.248 0.637z" fill="#ffd8d8"/><g fill="none" stroke="#000" stroke-width="1.44"><path d="m91.145 240.72 3.8857-0.136"/><path d="m90.881 233.17 3.8856-0.135"/><path d="m90.618 225.61 3.8856-0.136"/><path d="m90.354 218.06 3.8857-0.136"/><path d="m90.09 210.5 3.8856-0.135"/><path d="m89.826 202.95 3.8857-0.136"/><path d="m89.563 195.39 3.8856-0.135"/></g><path d="m82.02 185.3 18.248-0.637 0.1948 5.582-18.248 0.637z" fill="#d7efc5"/><path d="m89.299 187.84 3.8856-0.136" fill="none" stroke="#000" stroke-width="1.44"/><path d="m81.756 177.74 18.248-0.637 0.1949 5.582-18.248 0.637z" fill="#d7efc5"/><g fill="none" stroke="#000" stroke-width="1.44"><path d="m89.035 180.28 3.8857-0.136"/><path d="m88.771 172.73 3.8856-0.135"/><path d="m88.508 165.17 3.8856-0.136"/></g><path d="m80.965 155.07 18.248-0.637 0.1949 5.582-18.248 0.637z" fill="#d7efc5"/><g fill="none" stroke="#000" stroke-width="1.44"><path d="m88.244 157.61 3.8857-0.135"/><path d="m87.98 150.06 3.8856-0.136"/><path d="m87.716 142.5 3.8856-0.136"/></g><path d="m80.174 132.41 18.248-0.637 0.1949 5.582-18.248 0.637z" fill="#d7efc5"/><g fill="none" stroke="#000" stroke-width="1.44"><path d="m87.453 134.95 3.8857-0.135"/><path d="m87.189 127.39 3.8856-0.136"/><path d="m86.925 119.84 3.8856-0.135"/><path d="m86.661 112.28 3.8857-0.136"/></g><path d="m79.119 102.19 18.248-0.637 0.1948 5.582-18.248 0.637z" fill="#ffd8d8"/><g fill="none" stroke="#000" stroke-width="1.44"><path d="m86.398 104.73 3.8856-0.136"/><path d="m86.134 97.171 3.8857-0.135"/><path d="m85.87 89.616 3.8856-0.1357"/></g><path d="m78.328 79.52 18.248-0.637 0.1948 5.5819-18.248 0.637z" fill="#d7efc5"/><g fill="none" stroke="#000" stroke-width="1.44"><path d="m85.607 82.061 3.8856-0.1357"/><path d="m85.343 74.505 3.8857-0.1357"/><path d="m85.079 66.95 3.8856-0.1357"/><path d="m84.815 59.394 3.8856-0.1357"/><path d="m84.552 51.839 3.8857-0.1356"/><path d="m84.288 44.284 3.8856-0.1356"/><path d="m84.024 36.728 3.8856-0.1356"/><path d="m83.76 29.173 3.8857-0.1356"/></g><path d="m164.2 330.79 3.445 18.291-6.201 1.168-3.444-18.291z" fill="#c8d8fa"/><path d="m162.46 338.61 0.719 3.821" fill="none" stroke="#000" stroke-width="1.44"/><path d="m171.63 329.39 3.445 18.29-6.201 1.168-3.445-18.29z" fill="#c8d8fa"/><path d="m169.89 337.21 0.72 3.821" fill="none" stroke="#000" stroke-width="1.44"/><path d="m179.06 327.99 3.445 18.29-6.201 1.168-3.445-18.29z" fill="#d7efc5"/><path d="m177.32 335.81 0.72 3.82" fill="none" stroke="#000" stroke-width="1.44"/><path d="m186.49 326.6 3.445 18.29-6.201 1.168-3.445-18.291z" fill="#ffd8d8"/><path d="m184.75 334.41 0.719 3.821" fill="none" stroke="#000" stroke-width="1.44"/><path d="m193.91 325.2 3.445 18.291-6.201 1.168-3.445-18.291z" fill="#d7efc5"/><path d="m192.18 333.01 0.72 3.821" fill="none" stroke="#000" stroke-width="1.44"/><path d="m201.34 323.8 3.445 18.29-6.201 1.168-3.445-18.29z" fill="#d7efc5"/><path d="m199.61 331.62 0.719 3.821" fill="none" stroke="#000" stroke-width="1.44"/><path d="m208.77 322.4 3.445 18.29-6.201 1.168-3.445-18.29z" fill="#d7efc5"/><path d="m207.04 330.22 0.72 3.821" fill="none" stroke="#000" stroke-width="1.44"/><path d="m223.13 319.73 3.445 18.291-6.201 1.168-3.445-18.291z" fill="#ffd8d8"/><path d="m221.2 327.86 0.72 3.821" fill="none" stroke="#000" stroke-width="1.44"/><path d="m230.37 318.64 3.445 18.29-6.201 1.168-3.444-18.29z" fill="#c8d8fa"/><path d="m228.63 326.46 0.719 3.821" fill="none" stroke="#000" stroke-width="1.44"/><path d="m237.8 317.24 3.445 18.29-6.201 1.168-3.445-18.29z" fill="#ffd8d8"/><path d="m236.06 325.06 0.72 3.82" fill="none" stroke="#000" stroke-width="1.44"/><path d="m245.23 315.84 3.445 18.29-6.201 1.168-3.445-18.291z" fill="#c8d8fa"/><path d="m243.49 323.66 0.72 3.821" fill="none" stroke="#000" stroke-width="1.44"/><path d="m252.66 314.44 3.444 18.291-6.2 1.168-3.445-18.291z" fill="#c8d8fa"/><g fill="none"><path d="m250.92 322.26 0.719 3.821" stroke="#000" stroke-width="1.44"/><g stroke="#5c5c5c" stroke-width=".5"/></g><g fill="#d90000" stroke="#000" stroke-width=".72"><path d="m27.618 447.91a2.5575 2.5575 0 0 1-5.115 0 2.5575 2.5575 0 0 1 5.115 0z"/><path d="m35.178 447.91a2.5575 2.5575 0 0 1-5.115 0 2.5575 2.5575 0 0 1 5.115 0z"/><path d="m42.738 447.91a2.5575 2.5575 0 0 1-5.115 0 2.5575 2.5575 0 0 1 5.115 0z"/></g><text x="45.239525" y="450.60425"><tspan x="45.239525" y="450.60425" fill="#807b88" font-family="'Bitstream Vera Sans'" font-size="7.5px">A</tspan></text><text x="52.593224" y="450.60425"><tspan x="52.593224" y="450.60425" fill="#807b88" font-family="'Bitstream Vera Sans'" font-size="7.5px">R</tspan></text><text x="60.359425" y="450.60425"><tspan x="60.359425" y="450.60425" fill="#807b88" font-family="'Bitstream Vera Sans'" font-size="7.5px">A</tspan></text><text x="67.713226" y="450.60425"><tspan x="67.713226" y="450.60425" fill="#807b88" font-family="'Bitstream Vera Sans'" font-size="7.5px">R</tspan></text><text x="75.479424" y="450.60425"><tspan x="75.479424" y="450.60425" fill="#807b88" font-family="'Bitstream Vera Sans'" font-size="7.5px">A</tspan></text><path d="m88.098 447.91a2.5575 2.5575 0 0 1-5.115 0 2.5575 2.5575 0 0 1 5.115 0z" fill="#d90000" stroke="#000" stroke-width=".72"/><text x="87.968925" y="445.25925"><tspan x="87.968925" y="445.25925" fill="#000000" font-family="'Bitstream Vera Sans'" font-size="7.5px">G</tspan></text><text x="88.385223" y="437.69925"><tspan x="88.385223" y="437.69925" fill="#000000" font-family="'Bitstream Vera Sans'" font-size="7.5px">A</tspan></text><text x="88.178925" y="430.13925"><tspan x="88.178925" y="430.13925" fill="#d90000" font-family="'Bitstream Vera Sans'" font-size="7.5px">U</tspan></text><text x="87.968925" y="422.57925"><tspan x="87.968925" y="422.57925" fill="#d90000" font-family="'Bitstream Vera Sans'" font-size="7.5px">G</tspan></text><text x="80.907127" y="421.46924"><tspan x="80.907127" y="421.46924" fill="#d90000" font-family="'Bitstream Vera Sans'" font-size="7.5px">A</tspan></text><text x="73.394722" y="419.52625"><tspan x="73.394722" y="419.52625" fill="#807b88" font-family="'Bitstream Vera Sans'" font-size="7.5px">C</tspan></text><text x="66.558922" y="416.77625"><tspan x="66.558922" y="416.77625" fill="#807b88" font-family="'Bitstream Vera Sans'" font-size="7.5px">A</tspan></text><text x="59.870125" y="413.25323"><tspan x="59.870125" y="413.25323" fill="#807b88" font-family="'Bitstream Vera Sans'" font-size="7.5px">Y</tspan></text><text x="53.619022" y="409.00125"><tspan x="53.619022" y="409.00125" fill="#000000" font-family="'Bitstream Vera Sans'" font-size="7.5px">Y</tspan></text><text x="47.678326" y="404.07526"><tspan x="47.678326" y="404.07526" fill="#000000" font-family="'Bitstream Vera Sans'" font-size="7.5px">C</tspan></text><text x="42.533222" y="398.53625"><tspan x="42.533222" y="398.53625" fill="#807b88" font-family="'Bitstream Vera Sans'" font-size="7.5px">C</tspan></text><path d="m43.307 389.76a2.5575 2.5575 0 0 1-5.115 0 2.5575 2.5575 0 0 1 5.115 0z" fill="#d90000" stroke="#000" stroke-width=".72"/><text x="34.468422" y="385.90726"><tspan x="34.468422" y="385.90726" fill="#807b88" font-family="'Bitstream Vera Sans'" font-size="7.5px">Y</tspan></text><text x="31.030922" y="378.97723"><tspan x="31.030922" y="378.97723" fill="#000000" font-family="'Bitstream Vera Sans'" font-size="7.5px">G</tspan></text><text x="28.806622" y="371.75125"><tspan x="28.806622" y="371.75125" fill="#000000" font-family="'Bitstream Vera Sans'" font-size="7.5px">G</tspan></text><text x="27.823622" y="364.32224"><tspan x="27.823622" y="364.32224" fill="#000000" font-family="'Bitstream Vera Sans'" font-size="7.5px">Y</tspan></text><text x="27.267021" y="356.78323"><tspan x="27.267021" y="356.78323" fill="#807b88" font-family="'Bitstream Vera Sans'" font-size="7.5px">Y</tspan></text><text x="27.144022" y="349.22824"><tspan x="27.144022" y="349.22824" fill="#d90000" font-family="'Bitstream Vera Sans'" font-size="7.5px">G</tspan></text><text x="28.493221" y="341.75525"><tspan x="28.493221" y="341.75525" fill="#000000" font-family="'Bitstream Vera Sans'" font-size="7.5px">C</tspan></text><text x="30.670422" y="334.45624"><tspan x="30.670422" y="334.45624" fill="#000000" font-family="'Bitstream Vera Sans'" font-size="7.5px">A</tspan></text><text x="33.241821" y="327.42523"><tspan x="33.241821" y="327.42523" fill="#000000" font-family="'Bitstream Vera Sans'" font-size="7.5px">R</tspan></text><text x="36.791122" y="320.75024"><tspan x="36.791122" y="320.75024" fill="#807b88" font-family="'Bitstream Vera Sans'" font-size="7.5px">R</tspan></text><g fill="#d90000" stroke="#000" stroke-width=".72"><path d="m46.332 311.82a2.5575 2.5575 0 0 1-5.115 0 2.5575 2.5575 0 0 1 5.115 0z"/><path d="m51.281 306.11a2.5575 2.5575 0 0 1-5.115 0 2.5575 2.5575 0 0 1 5.115 0z"/><path d="m56.84 300.98a2.5575 2.5575 0 0 1-5.115 0 2.5575 2.5575 0 0 1 5.115 0z"/><path d="m62.939 296.52a2.5575 2.5575 0 0 1-5.115 0 2.5575 2.5575 0 0 1 5.115 0z"/></g><text x="64.442123" y="295.45523"><tspan x="64.442123" y="295.45523" fill="#000000" font-family="'Bitstream Vera Sans'" font-size="7.5px">Y</tspan></text><text x="70.967621" y="292.46124"><tspan x="70.967621" y="292.46124" fill="#d90000" font-family="'Bitstream Vera Sans'" font-size="7.5px">G</tspan></text><text x="78.617928" y="290.26523"><tspan x="78.617928" y="290.26523" fill="#000000" font-family="'Bitstream Vera Sans'" font-size="7.5px">A</tspan></text><g fill="#fff" stroke-width=".72"><path d="m91.111 286.2a2.5575 2.5575 0 0 1-5.115 0 2.5575 2.5575 0 0 1 5.115 0z" stroke="#000"/><g stroke="#666"><path d="m90.848 278.65a2.5575 2.5575 0 0 1-5.115 0 2.5575 2.5575 0 0 1 5.115 0z"/><path d="m90.584 271.09a2.5575 2.5575 0 0 1-5.115 0 2.5575 2.5575 0 0 1 5.115 0z"/><path d="m90.32 263.54a2.5575 2.5575 0 0 1-5.115 0 2.5575 2.5575 0 0 1 5.115 0z"/><path d="m90.056 255.98a2.5575 2.5575 0 0 1-5.115 0 2.5575 2.5575 0 0 1 5.115 0z"/><path d="m89.793 248.43a2.5575 2.5575 0 0 1-5.115 0 2.5575 2.5575 0 0 1 5.115 0z"/><path d="m89.529 240.87a2.5575 2.5575 0 0 1-5.115 0 2.5575 2.5575 0 0 1 5.115 0z"/><path d="m89.265 233.31a2.5575 2.5575 0 0 1-5.115 0 2.5575 2.5575 0 0 1 5.115 0z"/></g><path d="m89.002 225.76a2.5575 2.5575 0 0 1-5.115 0 2.5575 2.5575 0 0 1 5.115 0z" stroke="#000"/><path d="m88.738 218.2a2.5575 2.5575 0 0 1-5.115 0 2.5575 2.5575 0 0 1 5.115 0z" stroke="#000"/></g><path d="m88.474 210.65a2.5575 2.5575 0 0 1-5.115 0 2.5575 2.5575 0 0 1 5.115 0z" fill="#807b88" stroke="#000" stroke-width=".72"/><g fill="#fff" stroke-width=".72"><path d="m88.21 203.09a2.5575 2.5575 0 0 1-5.115 0 2.5575 2.5575 0 0 1 5.115 0z" stroke="#666"/><path d="m87.947 195.54a2.5575 2.5575 0 0 1-5.115 0 2.5575 2.5575 0 0 1 5.115 0z" stroke="#666"/><path d="m87.683 187.98a2.5575 2.5575 0 0 1-5.115 0 2.5575 2.5575 0 0 1 5.115 0z" stroke="#000"/></g><path d="m87.419 180.43a2.5575 2.5575 0 0 1-5.115 0 2.5575 2.5575 0 0 1 5.115 0z" fill="#807b88" stroke="#000" stroke-width=".72"/><g fill="#fff" stroke-width=".72"><path d="m87.155 172.87a2.5575 2.5575 0 0 1-5.115 0 2.5575 2.5575 0 0 1 5.115 0z" stroke="#000"/><path d="m86.892 165.32a2.5575 2.5575 0 0 1-5.115 0 2.5575 2.5575 0 0 1 5.115 0z" stroke="#000"/><g stroke="#666"><path d="m86.628 157.76a2.5575 2.5575 0 0 1-5.115 0 2.5575 2.5575 0 0 1 5.115 0z"/><path d="m86.364 150.21a2.5575 2.5575 0 0 1-5.115 0 2.5575 2.5575 0 0 1 5.115 0z"/><path d="m86.1 142.65a2.5575 2.5575 0 0 1-5.115 0 2.5575 2.5575 0 0 1 5.115 0z"/><path d="m85.837 135.09a2.5575 2.5575 0 0 1-5.115 0 2.5575 2.5575 0 0 1 5.115 0z"/><path d="m85.573 127.54a2.5575 2.5575 0 0 1-5.115 0 2.5575 2.5575 0 0 1 5.115 0z"/><path d="m85.309 119.98a2.5575 2.5575 0 0 1-5.115 0 2.5575 2.5575 0 0 1 5.115 0z"/><path d="m85.046 112.43a2.5575 2.5575 0 0 1-5.115 0 2.5575 2.5575 0 0 1 5.115 0z"/><path d="m84.782 104.87a2.5575 2.5575 0 0 1-5.115 0 2.5575 2.5575 0 0 1 5.115 0z"/><path d="m84.518 97.317a2.5575 2.5575 0 0 1-5.115 0 2.5575 2.5575 0 0 1 5.115 0z"/><path d="m84.254 89.762a2.5575 2.5575 0 0 1-5.115 0 2.5575 2.5575 0 0 1 5.115 0z"/><path d="m83.991 82.206a2.5575 2.5575 0 0 1-5.115 0 2.5575 2.5575 0 0 1 5.115 0z"/><path d="m83.727 74.651a2.5575 2.5575 0 0 1-5.115 0 2.5575 2.5575 0 0 1 5.115 0z"/><path d="m83.463 67.096a2.5575 2.5575 0 0 1-5.115 0 2.5575 2.5575 0 0 1 5.115 0z"/></g><path d="m83.199 59.54a2.5575 2.5575 0 0 1-5.115 0 2.5575 2.5575 0 0 1 5.115 0z" stroke="#000"/><path d="m82.936 51.985a2.5575 2.5575 0 0 1-5.115 0 2.5575 2.5575 0 0 1 5.115 0z" stroke="#000"/></g><path d="m82.672 44.429a2.5575 2.5575 0 0 1-5.115 0 2.5575 2.5575 0 0 1 5.115 0z" stroke="#000" stroke-width=".72"/><text x="77.349426" y="39.566452"><tspan x="77.349426" y="39.566452" fill="#807b88" font-family="'Bitstream Vera Sans'" font-size="7.5px">Y</tspan></text><path d="m82.144 29.319a2.5575 2.5575 0 0 1-5.115 0 2.5575 2.5575 0 0 1 5.115 0z" fill="#fff" stroke="#666" stroke-width=".72"/><g stroke="#000" stroke-width=".72"><path d="m79.72 22.158a2.5575 2.5575 0 0 1-5.115 0 2.5575 2.5575 0 0 1 5.115 0z" fill="#fff"/><path d="m84.019 15.938a2.5575 2.5575 0 0 1-5.115 0 2.5575 2.5575 0 0 1 5.115 0z" fill="#d90000"/><path d="m91.574 15.675a2.5575 2.5575 0 0 1-5.115 0 2.5575 2.5575 0 0 1 5.115 0z" fill="#d90000"/><path d="m96.296 21.579a2.5575 2.5575 0 0 1-5.115 0 2.5575 2.5575 0 0 1 5.115 0z" fill="#fff"/></g><g stroke-width=".72"><path d="m94.377 28.892a2.5575 2.5575 0 0 1-5.115 0 2.5575 2.5575 0 0 1 5.115 0z" fill="#fff" stroke="#666"/><path d="m94.641 36.447a2.5575 2.5575 0 0 1-5.115 0 2.5575 2.5575 0 0 1 5.115 0z" fill="#807b88" stroke="#000"/><path d="m94.904 44.002a2.5575 2.5575 0 0 1-5.115 0 2.5575 2.5575 0 0 1 5.115 0z" fill="#807b88" stroke="#000"/></g><g fill="#fff" stroke-width=".72"><path d="m95.168 51.558a2.5575 2.5575 0 0 1-5.115 0 2.5575 2.5575 0 0 1 5.115 0z" stroke="#000"/><path d="m95.432 59.113a2.5575 2.5575 0 0 1-5.115 0 2.5575 2.5575 0 0 1 5.115 0z" stroke="#000"/><g stroke="#666"><path d="m95.696 66.669a2.5575 2.5575 0 0 1-5.115 0 2.5575 2.5575 0 0 1 5.115 0z"/><path d="m95.959 74.224a2.5575 2.5575 0 0 1-5.115 0 2.5575 2.5575 0 0 1 5.115 0z"/><path d="m96.223 81.779a2.5575 2.5575 0 0 1-5.115 0 2.5575 2.5575 0 0 1 5.115 0z"/><path d="m96.487 89.335a2.5575 2.5575 0 0 1-5.115 0 2.5575 2.5575 0 0 1 5.115 0z"/><path d="m96.751 96.89a2.5575 2.5575 0 0 1-5.115 0 2.5575 2.5575 0 0 1 5.115 0z"/><path d="m97.014 104.45a2.5575 2.5575 0 0 1-5.115 0 2.5575 2.5575 0 0 1 5.115 0z"/><path d="m97.278 112a2.5575 2.5575 0 0 1-5.115 0 2.5575 2.5575 0 0 1 5.115 0z"/><path d="m97.542 119.56a2.5575 2.5575 0 0 1-5.115 0 2.5575 2.5575 0 0 1 5.115 0z"/><path d="m97.806 127.11a2.5575 2.5575 0 0 1-5.115 0 2.5575 2.5575 0 0 1 5.115 0z"/><path d="m98.069 134.67a2.5575 2.5575 0 0 1-5.115 0 2.5575 2.5575 0 0 1 5.115 0z"/><path d="m98.333 142.22a2.5575 2.5575 0 0 1-5.115 0 2.5575 2.5575 0 0 1 5.115 0z"/><path d="m98.597 149.78a2.5575 2.5575 0 0 1-5.115 0 2.5575 2.5575 0 0 1 5.115 0z"/></g></g><g stroke-width=".72"><path d="m106.15 149.51a2.5576 2.5576 0 0 1-5.1151 0 2.5576 2.5576 0 0 1 5.1151 0z" fill="#807b88" stroke="#000"/><path d="m106.42 157.07a2.5577 2.5577 0 0 1-5.1154 0 2.5577 2.5577 0 0 1 5.1154 0z" fill="#807b88" stroke="#000"/><path d="m98.86 157.33a2.5575 2.5575 0 0 1-5.115 0 2.5575 2.5575 0 0 1 5.115 0z" fill="#fff" stroke="#666"/></g><g stroke="#000" stroke-width=".72"><path d="m99.124 164.89a2.5575 2.5575 0 0 1-5.115 0 2.5575 2.5575 0 0 1 5.115 0z" fill="#fff"/><path d="m99.388 172.44a2.5575 2.5575 0 0 1-5.115 0 2.5575 2.5575 0 0 1 5.115 0z" fill="#807b88"/><path d="m99.652 180a2.5575 2.5575 0 0 1-5.115 0 2.5575 2.5575 0 0 1 5.115 0z" fill="#807b88"/></g><g fill="#fff" stroke-width=".72"><path d="m99.915 187.56a2.5575 2.5575 0 0 1-5.115 0 2.5575 2.5575 0 0 1 5.115 0z" stroke="#000"/><path d="m100.18 195.11a2.5575 2.5575 0 0 1-5.115 0 2.5575 2.5575 0 0 1 5.115 0z" stroke="#666"/><path d="m100.44 202.67a2.5575 2.5575 0 0 1-5.115 0 2.5575 2.5575 0 0 1 5.115 0z" stroke="#000"/></g><path d="m100.71 210.22a2.5575 2.5575 0 0 1-5.115 0 2.5575 2.5575 0 0 1 5.115 0z" fill="#807b88" stroke="#000" stroke-width=".72"/><path d="m100.97 217.78a2.5575 2.5575 0 0 1-5.115 0 2.5575 2.5575 0 0 1 5.115 0z" fill="#807b88" stroke="#000" stroke-width=".72"/><g fill="#fff" stroke-width=".72"><path d="m101.23 225.33a2.5575 2.5575 0 0 1-5.115 0 2.5575 2.5575 0 0 1 5.115 0z" stroke="#000"/><path d="m101.5 232.89a2.5575 2.5575 0 0 1-5.115 0 2.5575 2.5575 0 0 1 5.115 0z" stroke="#666"/><path d="m108.17 236.44a2.5575 2.5575 0 0 1-5.115 0 2.5575 2.5575 0 0 1 5.115 0z" stroke="#000"/><g stroke="#666"><path d="m101.76 240.44a2.5575 2.5575 0 0 1-5.115 0 2.5575 2.5575 0 0 1 5.115 0z"/><path d="m102.03 248a2.5575 2.5575 0 0 1-5.115 0 2.5575 2.5575 0 0 1 5.115 0z"/><path d="m102.29 255.55a2.5575 2.5575 0 0 1-5.115 0 2.5575 2.5575 0 0 1 5.115 0z"/><path d="m102.55 263.11a2.5575 2.5575 0 0 1-5.115 0 2.5575 2.5575 0 0 1 5.115 0z"/><path d="m102.82 270.66a2.5575 2.5575 0 0 1-5.115 0 2.5575 2.5575 0 0 1 5.115 0z"/><path d="m103.08 278.22a2.5575 2.5575 0 0 1-5.115 0 2.5575 2.5575 0 0 1 5.115 0z"/></g><path d="m103.34 285.78a2.5576 2.5576 0 0 1-5.1153 0 2.5576 2.5576 0 0 1 5.1153 0z" stroke="#000"/></g><g fill="#d90000" stroke="#000" stroke-width=".72"><path d="m110.86 286.62a2.5575 2.5575 0 0 1-5.115 0 2.5575 2.5575 0 0 1 5.115 0z"/><path d="m118.23 288.31a2.5575 2.5575 0 0 1-5.115 0 2.5575 2.5575 0 0 1 5.115 0z"/><path d="m125.36 290.81a2.5575 2.5575 0 0 1-5.115 0 2.5575 2.5575 0 0 1 5.115 0z"/></g><text x="126.69222" y="296.79324"><tspan x="126.69222" y="296.79324" fill="#d90000" font-family="'Bitstream Vera Sans'" font-size="7.5px">G</tspan></text><text x="133.50423" y="300.82425"><tspan x="133.50423" y="300.82425" fill="#d90000" font-family="'Bitstream Vera Sans'" font-size="7.5px">A</tspan></text><text x="139.40622" y="305.54724"><tspan x="139.40622" y="305.54724" fill="#000000" font-family="'Bitstream Vera Sans'" font-size="7.5px">Y</tspan></text><text x="144.74222" y="310.90424"><tspan x="144.74222" y="310.90424" fill="#807b88" font-family="'Bitstream Vera Sans'" font-size="7.5px">A</tspan></text><text x="149.23622" y="316.82526"><tspan x="149.23622" y="316.82526" fill="#807b88" font-family="'Bitstream Vera Sans'" font-size="7.5px">U</tspan></text><text x="153.24222" y="323.23624"><tspan x="153.24222" y="323.23624" fill="#807b88" font-family="'Bitstream Vera Sans'" font-size="7.5px">C</tspan></text><text x="156.50322" y="330.05624"><tspan x="156.50322" y="330.05624" fill="#807b88" font-family="'Bitstream Vera Sans'" font-size="7.5px">U</tspan></text><text x="158.76822" y="337.20026"><tspan x="158.76822" y="337.20026" fill="#d90000" font-family="'Bitstream Vera Sans'" font-size="7.5px">G</tspan></text><text x="166.40822" y="335.80023"><tspan x="166.40822" y="335.80023" fill="#807b88" font-family="'Bitstream Vera Sans'" font-size="7.5px">C</tspan></text><text x="173.83722" y="334.40125"><tspan x="173.83722" y="334.40125" fill="#000000" font-family="'Bitstream Vera Sans'" font-size="7.5px">C</tspan></text><text x="181.05623" y="333.00223"><tspan x="181.05623" y="333.00223" fill="#d90000" font-family="'Bitstream Vera Sans'" font-size="7.5px">G</tspan></text><text x="188.90222" y="331.60324"><tspan x="188.90222" y="331.60324" fill="#d90000" font-family="'Bitstream Vera Sans'" font-size="7.5px">Y</tspan></text><text x="196.12523" y="330.20325"><tspan x="196.12523" y="330.20325" fill="#807b88" font-family="'Bitstream Vera Sans'" font-size="7.5px">C</tspan></text><text x="203.76123" y="328.80423"><tspan x="203.76123" y="328.80423" fill="#d90000" font-family="'Bitstream Vera Sans'" font-size="7.5px">Y</tspan></text><text x="217.51038" y="326.44971"><tspan x="217.51038" y="326.44971" fill="#d90000" font-family="'Bitstream Vera Sans'" font-size="7.5px">G</tspan></text><text x="224.93936" y="325.05072"><tspan x="224.93936" y="325.05072" fill="#000000" font-family="'Bitstream Vera Sans'" font-size="7.5px">G</tspan></text><text x="232.57938" y="323.6507"><tspan x="232.57938" y="323.6507" fill="#d90000" font-family="'Bitstream Vera Sans'" font-size="7.5px">C</tspan></text><text x="240.00836" y="322.25171"><tspan x="240.00836" y="322.25171" fill="#000000" font-family="'Bitstream Vera Sans'" font-size="7.5px">R</tspan></text><text x="247.22737" y="320.85269"><tspan x="247.22737" y="320.85269" fill="#807b88" font-family="'Bitstream Vera Sans'" font-size="7.5px">G</tspan></text><text x="251.25436" y="314.32672"><tspan x="251.25436" y="314.32672" fill="#000000" font-family="'Bitstream Vera Sans'" font-size="7.5px">C</tspan></text><text x="257.8804" y="310.6857"><tspan x="257.8804" y="310.6857" fill="#d90000" font-family="'Bitstream Vera Sans'" font-size="7.5px">C</tspan></text><text x="265.64139" y="310.96371"><tspan x="265.64139" y="310.96371" fill="#807b88" font-family="'Bitstream Vera Sans'" font-size="7.5px">A</tspan></text><g fill="#d90000" stroke="#000" stroke-width=".72"><path d="m277.04 312.39a2.5575 2.5575 0 0 1-5.115 0 2.5575 2.5575 0 0 1 5.115 0z"/><path d="m280.37 319.18a2.5575 2.5575 0 0 1-5.115 0 2.5575 2.5575 0 0 1 5.115 0z"/><path d="m279.74 326.71a2.5575 2.5575 0 0 1-5.115 0 2.5575 2.5575 0 0 1 5.115 0z"/></g><text x="270.06439" y="335.54471"><tspan x="270.06439" y="335.54471" fill="#807b88" font-family="'Bitstream Vera Sans'" font-size="7.5px">U</tspan></text><text x="263.12839" y="338.5517"><tspan x="263.12839" y="338.5517" fill="#d90000" font-family="'Bitstream Vera Sans'" font-size="7.5px">C</tspan></text><text x="255.63237" y="337.57071"><tspan x="255.63237" y="337.57071" fill="#d90000" font-family="'Bitstream Vera Sans'" font-size="7.5px">C</tspan></text><text x="249.70337" y="332.88071"><tspan x="249.70337" y="332.88071" fill="#d90000" font-family="'Bitstream Vera Sans'" font-size="7.5px">U</tspan></text><text x="242.27338" y="334.27969"><tspan x="242.27338" y="334.27969" fill="#d90000" font-family="'Bitstream Vera Sans'" font-size="7.5px">U</tspan></text><text x="234.63437" y="335.67972"><tspan x="234.63437" y="335.67972" fill="#d90000" font-family="'Bitstream Vera Sans'" font-size="7.5px">G</tspan></text><text x="227.41537" y="337.0787"><tspan x="227.41537" y="337.0787" fill="#d90000" font-family="'Bitstream Vera Sans'" font-size="7.5px">U</tspan></text><text x="219.98537" y="338.47769"><tspan x="219.98537" y="338.47769" fill="#d90000" font-family="'Bitstream Vera Sans'" font-size="7.5px">U</tspan></text><text x="223.79678" y="345.57132"><tspan x="223.79678" y="345.57132" fill="#000000" font-family="'Bitstream Vera Sans'" font-size="7.5px">A</tspan></text><text x="226.46478" y="352.64432"><tspan x="226.46478" y="352.64432" fill="#807b88" font-family="'Bitstream Vera Sans'" font-size="7.5px">Y</tspan></text><g stroke="#000" stroke-width=".72"><path d="m229.02 357.09a2.5575 2.5575 0 0 1-5.115 0 2.5575 2.5575 0 0 1 5.115 0z" fill="#d90000"/><path d="m222.52 360.94a2.5575 2.5575 0 0 1-5.115 0 2.5575 2.5575 0 0 1 5.115 0z" fill="#807b88"/><path d="m215.06 359.72a2.5575 2.5575 0 0 1-5.115 0 2.5575 2.5575 0 0 1 5.115 0z"/></g><text x="205.07278" y="356.67331"><tspan x="205.07278" y="356.67331" fill="#000000" font-family="'Bitstream Vera Sans'" font-size="7.5px">A</tspan></text><text x="204.56879" y="349.11432"><tspan x="204.56879" y="349.11432" fill="#d90000" font-family="'Bitstream Vera Sans'" font-size="7.5px">G</tspan></text><text x="205.61023" y="340.83325"><tspan x="205.61023" y="340.83325" fill="#000000" font-family="'Bitstream Vera Sans'" font-size="7.5px">G</tspan></text><text x="198.18123" y="342.23224"><tspan x="198.18123" y="342.23224" fill="#000000" font-family="'Bitstream Vera Sans'" font-size="7.5px">G</tspan></text><text x="190.96123" y="343.63126"><tspan x="190.96123" y="343.63126" fill="#d90000" font-family="'Bitstream Vera Sans'" font-size="7.5px">R</tspan></text><text x="183.53223" y="345.03024"><tspan x="183.53223" y="345.03024" fill="#d90000" font-family="'Bitstream Vera Sans'" font-size="7.5px">C</tspan></text><text x="175.89223" y="346.43024"><tspan x="175.89223" y="346.43024" fill="#000000" font-family="'Bitstream Vera Sans'" font-size="7.5px">G</tspan></text><text x="168.46323" y="347.82925"><tspan x="168.46323" y="347.82925" fill="#d90000" font-family="'Bitstream Vera Sans'" font-size="7.5px">G</tspan></text><text x="161.24422" y="349.22824"><tspan x="161.24422" y="349.22824" fill="#807b88" font-family="'Bitstream Vera Sans'" font-size="7.5px">C</tspan></text><path d="m166.8 354.09a2.5575 2.5575 0 0 1-5.115 0 2.5575 2.5575 0 0 1 5.115 0z" stroke="#000" stroke-width=".72"/><path d="m166.25 361.63a2.5575 2.5575 0 0 1-5.115 0 2.5575 2.5575 0 0 1 5.115 0z" fill="#d90000" stroke="#000" stroke-width=".72"/><g fill="#807b88" stroke="#000" stroke-width=".72"><path d="m164.85 369.06a2.5575 2.5575 0 0 1-5.115 0 2.5575 2.5575 0 0 1 5.115 0z"/><path d="m162.62 376.28a2.5575 2.5575 0 0 1-5.115 0 2.5575 2.5575 0 0 1 5.115 0z"/><path d="m159.6 383.21a2.5575 2.5575 0 0 1-5.115 0 2.5575 2.5575 0 0 1 5.115 0z"/></g><g stroke="#000" stroke-width=".72"><path d="m155.82 389.76a2.5575 2.5575 0 0 1-5.115 0 2.5575 2.5575 0 0 1 5.115 0z" fill="#fff"/><path d="m151.33 395.84a2.5575 2.5575 0 0 1-5.115 0 2.5575 2.5575 0 0 1 5.115 0z" fill="#fff"/><path d="m146.18 401.38a2.5575 2.5575 0 0 1-5.115 0 2.5575 2.5575 0 0 1 5.115 0z"/></g><text x="135.39122" y="409.00125"><tspan x="135.39122" y="409.00125" fill="#807b88" font-family="'Bitstream Vera Sans'" font-size="7.5px">A</tspan></text><text x="129.14021" y="413.25323"><tspan x="129.14021" y="413.25323" fill="#807b88" font-family="'Bitstream Vera Sans'" font-size="7.5px">Y</tspan></text><text x="122.03522" y="416.77625"><tspan x="122.03522" y="416.77625" fill="#d90000" font-family="'Bitstream Vera Sans'" font-size="7.5px">G</tspan></text><text x="114.99323" y="419.52625"><tspan x="114.99323" y="419.52625" fill="#d90000" font-family="'Bitstream Vera Sans'" font-size="7.5px">G</tspan></text><text x="107.89722" y="421.46924"><tspan x="107.89722" y="421.46924" fill="#000000" font-family="'Bitstream Vera Sans'" font-size="7.5px">U</tspan></text><text x="100.41892" y="422.57925"><tspan x="100.41892" y="422.57925" fill="#d90000" font-family="'Bitstream Vera Sans'" font-size="7.5px">C</tspan></text><text x="100.41892" y="430.13925"><tspan x="100.41892" y="430.13925" fill="#d90000" font-family="'Bitstream Vera Sans'" font-size="7.5px">U</tspan></text><text x="100.20892" y="437.69925"><tspan x="100.20892" y="437.69925" fill="#d90000" font-family="'Bitstream Vera Sans'" font-size="7.5px">G</tspan></text><text x="100.62522" y="445.25925"><tspan x="100.62522" y="445.25925" fill="#d90000" font-family="'Bitstream Vera Sans'" font-size="7.5px">A</tspan></text><text x="105.97122" y="450.60425"><tspan x="105.97122" y="450.60425" fill="#807b88" font-family="'Bitstream Vera Sans'" font-size="7.5px">Y</tspan></text><text x="113.53123" y="450.60425"><tspan x="113.53123" y="450.60425" fill="#000000" font-family="'Bitstream Vera Sans'" font-size="7.5px">Y</tspan></text><g stroke="#000" stroke-width=".72"><path d="m126.15 447.91a2.5575 2.5575 0 0 1-5.115 0 2.5575 2.5575 0 0 1 5.115 0z" fill="#d90000"/><path d="m133.71 447.91a2.5575 2.5575 0 0 1-5.115 0 2.5575 2.5575 0 0 1 5.115 0z"/><path d="m141.27 447.91a2.5575 2.5575 0 0 1-5.115 0 2.5575 2.5575 0 0 1 5.115 0z" fill="#807b88"/><path d="m17.501 447.91h3.78" fill="none"/></g><text x="10.398223" y="450.60425"><tspan x="10.398223" y="450.60425" fill="#000000" font-family="'Bitstream Vera Sans'" font-size="7.5px">5'</tspan></text></g></svg>
