<svg width="196.79mm" height="203.1mm" version="1.1" viewBox="0 0 196.79 203.1" xmlns="http://www.w3.org/2000/svg"><g transform="translate(25.45 -7.7127)"><rect x="-25.45" y="7.7127" width="196.79" height="203.1" ry="16.848" fill="#f9f9f9" stroke-linecap="round" stroke-linejoin="round" stroke-width=".25"/><g transform="matrix(4 0 0 4 -81.35 -203.73)"><ellipse cx="44.98" cy="93.583" rx=".56829" ry=".59809" fill="#e9afaf"/><text x="40.516388" y="93.461868" font-family="sans-serif" font-size="1.4111px" stroke-width=".26458" word-spacing="0px" style="line-height:1.25" xml:space="preserve"><tspan x="40.516388" y="93.461868" font-size="1.4111px" stroke-width=".26458">Nop2</tspan></text></g><g transform="matrix(4 0 0 4 -159.55 -244.77)"><ellipse cx="44.98" cy="93.583" rx=".56829" ry=".59809" fill="#e9afaf"/><text x="41.210499" y="95.306557" font-family="sans-serif" font-size="1.4111px" stroke-width=".26458" word-spacing="0px" style="line-height:1.25" xml:space="preserve"><tspan x="41.210499" y="95.306557" font-size="1.4111px" stroke-width=".26458">Rcm1</tspan></text></g><g transform="matrix(4 0 0 4 -25.249 -135.11)" fill="#000000" font-family="'Myriad Pro'" font-size=".92604px" stroke-width=".26458"><text x="2.9893148" y="49.915615">A</text><text x="2.1476753" y="50.429169">C</text><text x="2.1476753" y="51.175823">G</text><text x="2.1476753" y="51.921684">C</text><text x="2.1476753" y="52.667545">A</text><text x="2.1476753" y="53.4142">A</text><text x="2.1476753" y="54.160061">U</text><text x="2.1476753" y="54.905918">G</text><text x="2.1476753" y="55.652046">U</text><text x="3.1430378" y="56.220371">G</text><text x="3.8896921" y="56.966228">A</text><text x="4.9467025" y="57.15276">U</text><text x="5.6928272" y="57.526089">U</text><text x="6.4384232" y="57.526089">U</text><text x="7.184813" y="57.526089">C</text><text x="7.3713441" y="56.717785">U</text><text x="7.3089023" y="55.763962">G</text><text x="7.3089023" y="55.017838">C</text><text x="7.3089023" y="54.272243">C</text><text x="6.5424042" y="54.031471">C</text><text x="6.5424042" y="53.227669">A</text><text x="7.3089023" y="52.986633">G</text><text x="7.3089023" y="51.992062">U</text><text x="7.2676272" y="50.454834">G</text><text x="7.2676272" y="49.708973">C</text><text x="9.7549753" y="49.708973">G</text><text x="9.7549753" y="50.454834">U</text><text x="10.565394" y="50.767838">A</text><text x="10.589206" y="51.6362">A</text><text x="9.7959862" y="51.992062">A</text><text x="9.7959862" y="52.986633">C</text><text x="9.7959862" y="54.272243">G</text><text x="9.7959862" y="55.017838">G</text><text x="9.7959862" y="55.763962">C</text><text x="10.024586" y="56.945328">G</text><text x="10.398177" y="56.29948">G</text><text x="10.770975" y="55.653103">G</text><text x="11.144302" y="55.006725">A</text><text x="11.517365" y="54.361141">G</text><text x="11.890427" y="53.7145">U</text><text x="12.081721" y="52.994041">A</text><text x="12.607713" y="52.465668">A</text><text x="13.327644" y="52.271198">C</text><text x="14.048104" y="52.464607">U</text><text x="14.575419" y="52.991924">A</text><text x="14.767771" y="53.71265">U</text><text x="14.573038" y="54.432316">G</text><text x="14.0444" y="54.958572">A</text><text x="13.670809" y="55.604683">C</text><text x="13.297746" y="56.25053">U</text><text x="12.924948" y="56.897175">C</text><text x="12.551886" y="57.542755">U</text><text x="12.178823" y="58.188869">C</text><text x="11.989646" y="59.17947">U</text><text x="12.828904" y="59.712872">U</text><text x="13.010144" y="60.691032">A</text><text x="12.419065" y="61.490341">A</text><text x="11.430581" y="61.603054">G</text><text x="11.009894" y="62.516129">G</text><text x="10.072475" y="62.68705">U</text><text x="10.445538" y="63.433704">A</text><text x="10.072475" y="64.179565">G</text><text x="9.9835749" y="66.047256">C</text><text x="11.033706" y="66.494141">C</text><text x="11.876669" y="67.56041">A</text><text x="13.051684" y="67.046593">A</text><text x="14.297606" y="67.348213">A</text><text x="15.107231" y="68.341728">U</text><text x="15.150359" y="69.622841">G</text><text x="14.237017" y="70.749168">C</text><text x="12.813029" y="70.473473">C</text><text x="11.876669" y="70.048027">U</text><text x="11.301994" y="71.269867">C</text><text x="10.085969" y="71.595573">G</text><text x="10.085969" y="72.342224">U</text><text x="10.085969" y="73.088089">C</text><text x="10.085969" y="73.833946">A</text><text x="10.085969" y="74.580605">U</text><text x="10.459031" y="75.326462">C</text><text x="10.686044" y="76.318115">U</text><text x="10.093642" y="77.646065">A</text><text x="8.6421375" y="77.734436">A</text><text x="7.6912255" y="77.283585">U</text><text x="7.1575608" y="76.376854">U</text><text x="7.2255588" y="75.326462">A</text><text x="7.5983567" y="74.580605">G</text><text x="7.5983567" y="73.833946">U</text><text x="7.5983567" y="73.088089">G</text><text x="7.5983567" y="72.342224">A</text><text x="7.5983567" y="71.595573">C</text><text x="6.6283941" y="69.937691">G</text><text x="6.6061692" y="67.890083">C</text><text x="7.4964919" y="66.047256">G</text><text x="6.8395314" y="65.523384">C</text><text x="6.8514376" y="64.683594">A</text><text x="7.5848627" y="64.179565">U</text><text x="7.2118001" y="63.433704">G</text><text x="7.5848627" y="62.68705">A</text><text x="6.9802899" y="61.846207">A</text><text x="7.1697316" y="60.904289">U</text><text x="7.184813" y="60.012905">G</text><text x="6.4384232" y="60.012905">G</text><text x="5.6928272" y="60.012905">A</text><text x="4.9467025" y="60.385971">U</text><text x="4.1384001" y="60.075085">U</text><text x="3.6325171" y="60.866451">A</text><text x="2.9969878" y="61.498013">A</text><text x="2.2207003" y="61.943306">C</text><text x="2.2207003" y="62.938404">G</text><text x="3.091444" y="63.435291">A</text><text x="2.303515" y="64.306038">G</text><text x="2.303515" y="65.052162">A</text><text x="2.303515" y="65.798019">U</text><text x="2.303515" y="66.544144">U</text><text x="2.303515" y="67.290535">C</text><text x="2.303515" y="68.0364">C</text><text x="2.303515" y="68.782524">C</text><text x="2.3175378" y="69.746132">A</text><text x="2.3805087" y="70.914536">C</text><text x="1.9153712" y="71.858299">U</text><text x="11.725063" y="83.224541">G</text><text x="12.93024" y="82.978477">G</text><text x="13.427392" y="82.116463">G</text><text x="13.924544" y="81.254982">G</text><text x="14.191244" y="79.90799">A</text><text x="15.218886" y="78.997559">A</text><text x="15.646981" y="78.386101">A</text><text x="16.064493" y="76.485863">G</text><text x="16.14863" y="73.800873">A</text><text x="17.015142" y="71.38073">A</text><text x="18.620897" y="69.579979">G</text><text x="19.81258" y="68.719818">A</text><text x="19.811789" y="67.90728">C</text><text x="19.811789" y="67.161423">C</text><text x="19.811789" y="66.414764">C</text><text x="19.811789" y="65.668907">U</text><text x="19.811789" y="64.923042">G</text><text x="18.984699" y="64.385147">U</text><text x="19.802263" y="63.832962">U</text><text x="19.802263" y="63.086838">G</text><text x="19.862589" y="61.030231">A</text><text x="19.862589" y="60.283577">G</text><text x="19.862059" y="59.537453">C</text><text x="19.862059" y="58.791855">U</text><text x="19.862059" y="58.045464">U</text><text x="19.014069" y="56.44315">G</text><text x="19.684788" y="54.833954">A</text><text x="19.684788" y="54.087563">C</text><text x="19.684788" y="53.341175">U</text><text x="19.684788" y="52.595314">C</text><text x="19.684788" y="51.848923">U</text><text x="18.92358" y="50.861763">A</text><text x="18.807693" y="49.654205">G</text><text x="23.185225" y="50.082829">G</text><text x="22.958477" y="51.109413">G</text><text x="22.171606" y="51.848923">G</text><text x="22.171606" y="52.595314">G</text><text x="22.171606" y="53.341175">A</text><text x="22.171606" y="54.087563">G</text><text x="22.171606" y="54.833954">U</text><text x="23.582893" y="54.760136">U</text><text x="24.966135" y="54.479675">U</text><text x="26.261801" y="53.921143">G</text><text x="25.78211" y="52.618862">G</text><text x="25.588434" y="51.897606">C</text><text x="25.395554" y="51.177147">U</text><text x="25.051861" y="50.322544">G</text><text x="27.668854" y="49.621662">C</text><text x="27.797972" y="50.533417">G</text><text x="27.990852" y="51.254406">G</text><text x="28.184526" y="51.974335">C</text><text x="28.920862" y="52.388409">A</text><text x="28.674801" y="53.318951">C</text><text x="30.121012" y="53.164169">A</text><text x="30.121012" y="52.418308">U</text><text x="30.121012" y="51.67218">C</text><text x="30.121012" y="50.925793">U</text><text x="30.121012" y="50.179932">G</text><text x="32.608624" y="50.179668">C</text><text x="32.608624" y="50.925529">A</text><text x="32.608624" y="51.67218">G</text><text x="32.608624" y="52.418041">A</text><text x="32.608624" y="53.163902">U</text><text x="33.893177" y="53.153851">G</text><text x="35.591274" y="53.173958">U</text><text x="36.732948" y="53.143265">C</text><text x="37.479076" y="53.143265">C</text><text x="38.090263" y="52.321735">U</text><text x="38.7033" y="51.723778">A</text><text x="39.468475" y="51.25705">A</text><text x="39.468475" y="50.511192">G</text><text x="39.468475" y="49.765064">G</text><text x="41.955826" y="49.765064">C</text><text x="41.955826" y="50.511192">U</text><text x="41.955826" y="51.25705">U</text><text x="42.812546" y="51.761612">G</text><text x="43.358379" y="52.369358">A</text><text x="43.779598" y="53.143002">U</text><text x="44.525723" y="53.143002">U</text><text x="45.271847" y="53.143002">U</text><text x="45.271847" y="55.630085">A</text><text x="44.525723" y="55.630085">A</text><text x="43.779598" y="55.630085">A</text><text x="43.072102" y="56.707733">C</text><text x="41.976463" y="57.329769">C</text><text x="41.976463" y="58.076424">A</text><text x="41.976463" y="58.822281">U</text><text x="41.717701" y="59.521839">G</text><text x="41.106247" y="59.948879">A</text><text x="40.359592" y="59.948879">A</text><text x="39.748142" y="59.521839">A</text><text x="39.489113" y="58.822281">G</text><text x="39.489113" y="58.076424">U</text><text x="39.489113" y="57.329769">G</text><text x="38.365692" y="56.728371">U</text><text x="37.479076" y="55.630348">G</text><text x="36.732948" y="55.630348">G</text><text x="35.830193" y="55.630085">C</text><text x="35.953224" y="56.62492">C</text><text x="36.016193" y="57.627422">U</text><text x="35.907452" y="58.620403">A</text><text x="34.95945" y="59.145866">U</text><text x="33.97176" y="58.626492">C</text><text x="33.966732" y="57.563396">G</text><text x="33.878361" y="56.566975">A</text><text x="33.674629" y="55.645958">U</text><text x="32.670536" y="55.651516">C</text><text x="32.24588" y="56.573322">C</text><text x="32.24588" y="57.31945">U</text><text x="32.24588" y="58.066105">U</text><text x="32.24588" y="58.811962">U</text><text x="32.24588" y="59.557823">A</text><text x="32.24588" y="60.304214">G</text><text x="32.993858" y="60.596844">U</text><text x="32.99968" y="61.39959">C</text><text x="32.256199" y="61.703594">C</text><text x="32.256199" y="62.449455">C</text><text x="32.256199" y="63.195316">U</text><text x="32.256199" y="63.941971">C</text><text x="32.628735" y="64.777527">G</text><text x="32.492737" y="65.682137">G</text><text x="31.89081" y="66.370583">A</text><text x="31.012394" y="66.627487">A</text><text x="30.134771" y="66.370583">U</text><text x="29.532845" y="65.682137">U</text><text x="29.396849" y="64.777527">U</text><text x="29.769117" y="63.941971">G</text><text x="29.769117" y="63.195316">A</text><text x="29.769117" y="62.449455">G</text><text x="29.769117" y="61.703594">G</text><text x="29.759062" y="60.304214">C</text><text x="29.759062" y="59.557823">U</text><text x="29.759062" y="58.811962">A</text><text x="29.759062" y="58.066105">G</text><text x="29.759062" y="57.31945">A</text><text x="29.759062" y="56.573322">G</text><text x="28.504936" y="57.226845">G</text><text x="28.111238" y="57.848087">U</text><text x="27.551115" y="58.428848">G</text><text x="26.826422" y="58.842918">C</text><text x="25.976049" y="59.070992">C</text><text x="25.126472" y="59.050087">A</text><text x="24.339338" y="58.697929">G</text><text x="23.779478" y="58.263218">A</text><text x="23.157972" y="57.558369">A</text><text x="22.348877" y="58.0452">A</text><text x="22.348877" y="58.791592">A</text><text x="22.348877" y="59.537186">G</text><text x="22.349405" y="60.28331">U</text><text x="22.349405" y="61.029964">U</text><text x="23.109024" y="61.605171">A</text><text x="23.081509" y="62.55714">C</text><text x="22.28961" y="63.087101">C</text><text x="22.28961" y="63.833225">A</text><text x="22.299135" y="64.923042">C</text><text x="22.299135" y="65.668907">A</text><text x="22.299135" y="66.414764">G</text><text x="22.299135" y="67.161423">G</text><text x="22.299135" y="67.90728">G</text><text x="23.341595" y="67.917336">A</text><text x="24.262608" y="68.031105">U</text><text x="25.229132" y="68.090637">A</text><text x="26.161259" y="68.374802">A</text><text x="27.011101" y="68.937569">C</text><text x="27.824429" y="69.461182">U</text><text x="28.585106" y="70.028442">G</text><text x="29.218519" y="70.781448">G</text><text x="29.67757" y="70.085327">C</text><text x="30.510479" y="70.035591">U</text><text x="30.903385" y="69.084938">U</text><text x="31.729416" y="68.473221">G</text><text x="32.753086" y="68.374008">U</text><text x="33.586262" y="68.32373">G</text><text x="34.232372" y="67.950935">G</text><text x="34.87875" y="67.57814">C</text><text x="35.524597" y="67.205078">A</text><text x="36.170712" y="66.831749">G</text><text x="36.817085" y="66.45842">U</text><text x="36.953083" y="65.487137">C</text><text x="37.605808" y="64.756355">A</text><text x="38.555927" y="64.511879">A</text><text x="39.480648" y="64.837318">G</text><text x="40.127026" y="64.464256">C</text><text x="40.653015" y="63.935356">G</text><text x="41.372948" y="63.741413">U</text><text x="42.093407" y="63.932976">U</text><text x="42.620987" y="64.460556">C</text><text x="42.814133" y="65.180748">A</text><text x="42.61993" y="65.901207">U</text><text x="42.09129" y="66.4272">A</text><text x="41.370831" y="66.618759">G</text><text x="40.72419" y="66.991554">C</text><text x="40.523636" y="67.912308">G</text><text x="39.877522" y="68.5989">A</text><text x="38.970531" y="68.857399">C</text><text x="38.060364" y="68.612656">A</text><text x="37.414516" y="68.985458">U</text><text x="36.768139" y="69.358521">U</text><text x="36.122028" y="69.731583">G</text><text x="35.475651" y="70.104912">C</text><text x="34.830067" y="70.478233">U</text><text x="34.37022" y="71.174088">U</text><text x="34.135536" y="72.053833">U</text><text x="33.429626" y="72.629036">U</text><text x="32.520782" y="72.680367">U</text><text x="31.754286" y="72.189034">G</text><text x="31.294439" y="72.885155">A</text><text x="30.461531" y="72.935684">U</text><text x="30.603876" y="73.727318">U</text><text x="30.708918" y="74.521599">C</text><text x="30.776121" y="75.346306">U</text><text x="30.749397" y="76.113861">U</text><text x="30.611284" y="76.76844">C</text><text x="30.405439" y="77.505569">G</text><text x="30.121542" y="78.097443">A</text><text x="29.93845" y="78.851242">U</text><text x="29.434155" y="79.421684">G</text><text x="29.054743" y="79.970955">U</text><text x="29.381502" y="80.67263">C</text><text x="30.208855" y="81.198097">G</text><text x="30.855495" y="81.571419">G</text><text x="31.501608" y="81.944748">C</text><text x="32.14719" y="82.31781">U</text><text x="33.852959" y="83.256554">C</text><text x="35.501579" y="84.213554">U</text><text x="30.257801" y="84.09819">G</text><text x="29.611425" y="83.725128">C</text><text x="28.965841" y="83.352333">U</text><text x="28.241941" y="83.475098">G</text><text x="27.783154" y="82.57737">G</text><text x="27.005808" y="81.759804">G</text><text x="26.354139" y="82.200073">U</text><text x="25.520702" y="82.444283">U</text><text x="24.650751" y="82.649864">U</text><text x="23.842714" y="82.742729">A</text><text x="22.902651" y="82.919739">G</text><text x="22.902651" y="83.665863">A</text><text x="20.415567" y="83.665863">U</text><text x="20.415567" y="82.919739">U</text><text x="20.458958" y="82.024124">A</text><text x="19.687963" y="81.673553">G</text><text x="18.911674" y="81.219528">U</text><text x="18.24519" y="80.610191">U</text><text x="17.684008" y="79.813004">U</text><text x="17.256178" y="80.423927">U</text><text x="17.440063" y="81.354462">A</text><text x="16.97175" y="82.179169">C</text><text x="16.078781" y="82.49852">C</text><text x="15.581629" y="83.360008">C</text><text x="15.083684" y="84.221489">U</text></g><g transform="matrix(4 0 0 4 -187.56 -345.91)" font-family="'Myriad Pro'" stroke-width=".26458"><text x="44.26799" y="134.09161" fill="#fcc595" font-size="5.7626px">0</text><g fill="#0d72b9" font-size="1.4552px"><text x="44.372765" y="118.85453">64</text><text x="42.847443" y="111.29962">67</text><text x="55.187344" y="109.84282">69</text><text x="49.543781" y="132.96555">71</text><text x="50.061043" y="135.5881">73</text><text x="58.15147" y="114.86673">74</text><text x="68.115944" y="107.7079">80</text><text x="76.240242" y="103.48568">82</text><text x="83.825317" y="112.68259">87</text><text x="74.533676" y="115.94253">88</text><text x="79.533775" y="123.51702">89</text><text x="77.306511" y="135.5881">90</text><text x="54.16473" y="115.53956">70</text></g><g fill="#7f141d" font-size=".92789px"><text x="45.168633" y="120.62777">2330</text><text x="44.124321" y="105.19859">2180</text><text x="45.803101" y="108.01587">2190</text><text x="45.541958" y="103.24014">2200</text><text x="52.407631" y="102.30722">2240</text><text x="52.481979" y="103.85583">2250</text><text x="56.997093" y="105.21738">2260</text><text x="55.579193" y="113.27711">2270</text><text x="44.982628" y="116.78416">2310</text><text x="52.966961" y="117.56786">2280</text><text x="52.92992" y="125.70195">2290</text><text x="44.945057" y="127.00793">2300</text><text x="44.982628" y="115.12046">2320</text><text x="58.191158" y="136.44826">2980</text><text x="53.377331" y="129.13464">2400</text><text x="56.399929" y="117.008">2410</text><text x="65.13118" y="115.70255">2810</text><text x="57.593994" y="107.71742">2420</text><text x="64.011726" y="105.55313">2610</text><text x="74.571251" y="104.50856">2650</text><text x="76.81015" y="101.59814">2660</text><text x="84.608215" y="101.63571">2710</text><text x="85.391647" y="109.91849">2740</text><text x="86.884163" y="103.24041">2720</text><text x="77.780113" y="111.8219">2750</text><text x="68.004288" y="112.86674">2790</text><text x="75.130844" y="112.97866">2770</text><text x="69.608727" y="120.62777">2780</text><text x="64.944382" y="112.97866">2800</text><text x="67.220856" y="119.02333">2820</text><text x="74.533676" y="118.63122">2830</text><text x="79.123405" y="115.10538">2840</text><text x="83.227356" y="121.22467">2850</text><text x="76.511436" y="125.86837">2860</text><text x="73.41449" y="130.03053">2870</text><text x="73.377182" y="132.97826">2880</text></g></g><g transform="matrix(4 0 0 4 -287.16 -389.39)" fill="none" stroke="#211e1f" stroke-linejoin="round" stroke-miterlimit="10" stroke-width=".066146"><line x1="68.315" x2="69.249" y1="114.35" y2="115.15"/><line x1="71.606" x2="71.612" y1="120.05" y2="119.26"/><line x1="71.851" x2="72.652" y1="114.38" y2="114.98"/><line x1="76.139" x2="76.854" y1="112.87" y2="112.86"/><line x1="77.158" x2="76.22" y1="114.99" y2="119.07"/><line x1="81.146" x2="81.773" y1="116.62" y2="116.27"/><line x1="79.46" x2="80.175" y1="123.83" y2="123.83"/><line x1="78.919" x2="78.926" y1="129.67" y2="128.89"/><line x1="76.624" x2="77.34" y1="136.24" y2="136.24"/><line x1="72.035" x2="72.75" y1="137.64" y2="137.64"/><line x1="72.147" x2="73.065" y1="127.31" y2="127.3"/><line x1="69.714" x2="70.146" y1="124.49" y2="125.2"/><line x1="68.781" x2="69.699" y1="131.17" y2="131.16"/><line x1="80.478" x2="81.396" y1="139.66" y2="139.65"/><line x1="83.426" x2="84.344" y1="127.5" y2="127.49"/><line x1="84.541" x2="85.169" y1="117.85" y2="117.51"/><line x1="88.608" x2="89.235" y1="117.1" y2="116.76"/><line x1="98.858" x2="99.284" y1="116.06" y2="115.49"/><line x1="104.03" x2="104.75" y1="112.27" y2="112.26"/><line x1="108.3" x2="109.02" y1="112.16" y2="112.15"/><line x1="112.69" x2="112.69" y1="114.56" y2="115.39"/><line x1="109.76" x2="110.17" y1="119.37" y2="120.02"/><line x1="104.45" x2="104.88" y1="121.88" y2="121.31"/><line x1="99.288" x2="99.601" y1="122.4" y2="122.13"/><line x1="98.561" x2="99.706" y1="123.32" y2="123.3"/><line x1="96.47" x2="96.897" y1="130.8" y2="130.23"/><line x1="90.212" x2="90.617" y1="122.45" y2="123.09"/><line x1="88.711" x2="89.556" y1="126.32" y2="126.31"/><line x1="94.866" x2="95.292" y1="122.96" y2="122.39"/><line x1="92.191" x2="92.443" y1="130.92" y2="130.25"/><line x1="99.579" x2="99.971" y1="130.85" y2="129.81"/><line x1="105.29" x2="105.69" y1="126.38" y2="127.03"/><line x1="107.02" x2="107.69" y1="131.3" y2="131.67"/><line x1="100.49" x2="101.16" y1="135.52" y2="135.88"/><line x1="97.017" x2="97.768" y1="140.03" y2="140.17"/><line x1="98.291" x2="98.657" y1="144.9" y2="144.19"/><line x1="83.871" x2="83.692" y1="146.48" y2="143.56"/></g><text x="-13.238246" y="45.507114" fill="#231f20" font-family="AdvP47D4A3" font-size="4.449px" stroke-width=".37214" xml:space="preserve"><tspan x="-13.238246 -10.368663 -7.7304029 -5.0921431 -2.4538982 1.6569874 4.5266008 7.1648607 9.7096758 11.422536 15.453328 17.998144 19.804434 22.83956 25.295401 27.933661 32.37595 35.338963 37.883854 40.522068 43.253788 46.279514 49.242588 51.787418 53.362339 55.9072 59.423679 63.636875 66.181679 67.75663 70.070107 71.226814 73.865089 76.596779 79.141609 80.854469 83.918495 86.881538 89.426338 91.00132 93.54612 97.041237 100.23566" y="45.507114">SunnySharma*,JunYang,PeterWatzinger,PeterKo</tspan><tspan x="101.02757" y="45.401707">¨</tspan><tspan x="102.96867 104.54362 106.11854 108.66337 112.1674 114.71223 117.3505 121.87244 125.06684 127.61167 129.32452 130.48123 132.28754 135.57535 136.73212 139.27692 140.85187 143.3967 146.91586 149.78546 152.42371 153.99866 155.1554 157.70023 160.3385" y="45.507114">tterandKarl-DieterEntian*</tspan></text><g font-family="sans-serif"><text x="-14.246379" y="16.38843" font-size="5.6444px" stroke-width="1.0583" word-spacing="0px" style="line-height:1.25" xml:space="preserve"><tspan x="-14.246379" y="16.38843" font-size="5.6444px" stroke-width="1.0583">doi:10.1093/nar/gkt679</tspan></text><text x="-14.682612" y="28.613375" fill="#231f20" font-size="7.053px" font-weight="bold" stroke-width=".35397" xml:space="preserve"><tspan x="-14.682612 -9.9853163 -5.9510145 -1.9166973 1.8989766 7.23174 12.443898 16.77442 21.104925 27.841253 31.875586 36.057957 43.213261 48.277256 52.311588 58.701603 65.428078 71.818031 75.852333 78.349098 82.531532 86.199074 88.032845 92.067177 94.563911 101.47019 106.68235 110.5756 114.46885 118.3621 125.0702 129.10449 133.28693 140.46191 145.67407 149.56732 153.46057 157.35382" y="28.613375">YeastNop2andRcm1methylateC2870andC2278</tspan><tspan x="-14.682612 -10.352046 -5.1906843 -2.6939342 1.4884694 8.3552599 12.248509 16.141775 23.526236 26.241659 31.3057 36.517857 41.363255 46.18256 48.897953 52.932255 56.747929 61.078465 65.112801 69.147072 71.643837 73.477577 77.145149 81.179451 83.013222" y="36.359653">ofthe25SrRNA,respectively</tspan></text><text x="74.16993" y="16.38843" font-size="5.6444px" stroke-width="1.0583" word-spacing="0px" style="line-height:1.25" xml:space="preserve"><tspan x="74.16993" y="16.38843" font-size="5.6444px" stroke-width="1.0583">NucleicAcidsResearch,2013,Vol.41</tspan></text></g></g></svg>
