<?xml version="1.0" encoding="UTF-8"?>
<svg width="429.49mm" height="115.87mm" version="1.1" viewBox="0 0 429.49 115.87" xml:space="preserve" xmlns="http://www.w3.org/2000/svg"><defs><style type="text/css">*{stroke-linejoin: round; stroke-linecap: butt}</style><clipPath id="p3a32fcd08d"><rect x="89.28" y="42.077" width="186" height="123.84"/></clipPath><clipPath id="pa4e68108b1"><rect x="349.68" y="42.077" width="186" height="123.84"/></clipPath><clipPath id="p3a32fcd08d-7"><rect x="89.28" y="42.077" width="186" height="123.84"/></clipPath><clipPath id="p3a32fcd08d-3"><rect x="89.28" y="42.077" width="186" height="123.84"/></clipPath><clipPath id="p3a32fcd08d-32"><rect x="89.28" y="42.077" width="186" height="123.84"/></clipPath><clipPath id="p3a32fcd08d-5"><rect x="89.28" y="42.077" width="186" height="123.84"/></clipPath><clipPath id="clipPath9"><g transform="translate(3.6919e-5)"><rect transform="matrix(0,-1,-1,0,0,0)" x="-179.68" y="-306.91" width="13.661" height="41.054" stroke-width=".74482"/></g></clipPath><clipPath id="pa4e68108b1-3"><rect x="349.68" y="42.077" width="186" height="123.84"/></clipPath><clipPath id="clipPath60"><g transform="translate(3.6919e-5)"><rect transform="matrix(0,-1,-1,0,0,0)" x="-179.68" y="-192.97" width="49.459" height="41.054" stroke-width=".74482"/></g></clipPath></defs><g transform="translate(2.7857 -7.2742)"><g transform="matrix(5.7677 0 0 5.7677 -199.19 -657.16)" stroke-linejoin="round" stroke-width="1.1054"><g transform="matrix(.099287 0 0 .082979 46.492 107.8)" fill="#f9f9f9"><rect x="16.769" y="131.03" width="190.41" height="110.62" rx="5.3703" ry="5.3703" stroke="#666" stroke-width=".80608"/><path d="m113.19 131.48-0.55574 109.66" stroke="#999" stroke-width=".78574"/></g><g transform="matrix(.11017 0 0 .073315 42.527 85.699)" stroke-linejoin="round" stroke-width="5.9946"><path d="m119.18 455.92a2.9976 2.9976 0 0 0-3.0117 2.6602l-10.646 94.787-3.0977-5.4824a2.9976 2.9976 0 0 0-5.2363 0.0293l-6.6016 11.992h-6.209l-9.7891-52.82a2.9976 2.9976 0 0 0-5.8848-0.043l-11.113 55.27 5.877 1.1816 8.0547-40.057 7.416 40.012a2.9976 2.9976 0 0 0 2.9473 2.4512h10.473a2.9976 2.9976 0 0 0 2.627-1.5508l4.8633-8.8379 5.0098 8.8672a2.9976 2.9976 0 0 0 5.5879-1.1406l8.3711-74.539 6.6992 74.473a2.9976 2.9976 0 0 0 2.9863 2.7285h13.129a2.9976 2.9976 0 0 0 2.8106-1.9512l8.7109-23.42 8.3418 23.381a2.9976 2.9976 0 0 0 2.8242 1.9902h22.965a2.9976 2.9976 0 0 0 2.873-2.1445l9.7891-33.037 11.096 33.137 5.6836-1.9023-14.111-42.148a2.9976 2.9976 0 0 0-5.7168 0.0996l-11.852 40.002h-18.615l-10.395-29.139a2.9976 2.9976 0 0 0-5.6328-0.0391l-10.854 29.178h-8.3066l-9.1094-101.26a2.9976 2.9976 0 0 0-2.9531-2.7246z" color="#000000" fill="#59f" style="-inkscape-stroke:none"/><path d="m199.49 491.99a2.9976 2.9976 0 0 0-2.9062 2.4629l-11.805 65.447h-18.504l-10.105-22.992a2.9976 2.9976 0 0 0-5.4492-0.082l-10.982 23.074h-8.6992l-9.3496-55.717a2.9976 2.9976 0 0 0-5.8984-0.0742l-9.2305 47.697-3.8223-10.332a2.9976 2.9976 0 0 0-5.6211-4e-3l-6.8438 18.43h-6.0625l-9.7969-38.238a2.9976 2.9976 0 0 0-5.7949-0.041l-10.982 40.492 5.7852 1.5684 8.0059-29.52 7.5527 29.48a2.9976 2.9976 0 0 0 2.9043 2.252h10.473a2.9976 2.9976 0 0 0 2.8105-1.9531l4.7539-12.803 4.7324 12.799a2.9976 2.9976 0 0 0 5.7539-0.4707l8.1152-41.926 7.0234 41.854a2.9976 2.9976 0 0 0 2.9551 2.5h13.131a2.9976 2.9976 0 0 0 2.7051-1.709l8.9805-18.869 8.2578 18.787a2.9976 2.9976 0 0 0 2.7422 1.791h22.967a2.9976 2.9976 0 0 0 2.9492-2.4648l9.5312-52.846 11.186 52.934 5.8652-1.2383-14.35-67.914a2.9976 2.9976 0 0 0-2.9766-2.375z" color="#000000" fill="#d4aa00" style="-inkscape-stroke:none"/><path d="m199.6 505.81a2.9976 2.9976 0 0 0-2.8691 2.3242l-10.74 46.596-8.0586-14.211a2.9976 2.9976 0 0 0-5.25 0.0625l-9.0488 16.875-8.2207-10.418a2.9976 2.9976 0 0 0-4.6894-0.0215l-10.355 12.891h-10.939l-8.1445-12.637a2.9976 2.9976 0 0 0-4.9824-0.084l-8.8184 12.721h-24.293l-10.287-6.3008a2.9976 2.9976 0 0 0-3.1992 0.043l-10.367 6.7422 3.2676 5.0254 8.7812-5.7109 9.3945 5.7559a2.9976 2.9976 0 0 0 1.5645 0.4414h26.709a2.9976 2.9976 0 0 0 2.4629-1.291l7.1582-10.324 6.5996 10.24a2.9976 2.9976 0 0 0 2.5195 1.375h14.012a2.9976 2.9976 0 0 0 2.3359-1.1211l8.8984-11.076 8.7207 11.055a2.9976 2.9976 0 0 0 4.9941-0.43945l8.6426-16.117 9.1777 16.18a2.9976 2.9976 0 0 0 5.5273-0.80469l9.7656-42.361 11.352 42.461 5.791-1.5469-14.463-54.1a2.9976 2.9976 0 0 0-2.9473-2.2227z" color="#000000" fill="#a00" style="-inkscape-stroke:none"/></g><g font-family="sans-serif" font-size="1.9144px" font-weight="bold" letter-spacing="0px" stroke-width="1.6871" word-spacing="0px"><text x="61.321953" y="121.32294" fill="#aa0000" style="line-height:1.25" xml:space="preserve"><tspan x="61.321953" y="121.32294" fill="#aa0000" font-family="sans-serif" font-size="1.9144px" font-weight="bold" stroke-width="1.6871">U</tspan></text><text x="52.305805" y="121.33414" fill="#d4aa00" style="line-height:1.25" xml:space="preserve"><tspan x="52.305805" y="121.33414" fill="#d4aa00" font-family="sans-serif" font-size="1.9144px" font-weight="bold" stroke-width="1.6871">M</tspan></text><text x="49.554718" y="121.3347" fill="#5599ff" style="line-height:1.25" xml:space="preserve"><tspan x="49.554718" y="121.3347" fill="#5599ff" font-family="sans-serif" font-size="1.9144px" font-weight="bold" stroke-width="1.6871">S</tspan></text></g><g transform="matrix(.099287 0 0 .082979 46.492 107.8)" fill="#f9f9f9"><rect x="15.55" y="257.47" width="191.63" height="20.668" rx="5.3703" ry="5.3703" stroke="#666" stroke-width=".80608"/><path d="m112.74 258.12-0.0802 19.601" stroke="#999" stroke-linejoin="round" stroke-width=".78574"/><g transform="translate(0 1.9819)" fill="#59f" stroke-linejoin="round"><path d="m30.293 265.75c4.335-0.13814 15.712 0.21294 15.712 0.21294h0.04134" color="#000000" style="-inkscape-stroke:none"/><path d="m30.271 265.08 0.04297 1.3359c4.2617-0.13581 15.67 0.21289 15.67 0.21289a0.66862 0.66862 0 0 0 0.02148 0h0.04102v-1.3359h-0.04101c-0.02806-8.7e-4 -11.332-0.35319-15.734-0.21289z" color="#000000" style="-inkscape-stroke:none"/><g fill-rule="evenodd"><path d="m49.904 265.96-5.783 3.3428v-6.6855z" color="#000000" style="-inkscape-stroke:none"/><path d="m43.787 262.04a0.66862 0.66862 0 0 0-0.33398 0.58007v6.6856a0.66862 0.66862 0 0 0 1.002 0.57813l5.7832-3.3438a0.66862 0.66862 0 0 0 0-1.1562l-5.7832-3.3438a0.66862 0.66862 0 0 0-0.66797 0zm1.002 1.7383 3.7793 2.1836-3.7793 2.1836z" color="#000000" style="-inkscape-stroke:none"/><path d="m26.437 265.87 5.6736-3.5252 0.21293 6.6821z" color="#000000" style="-inkscape-stroke:none"/><path d="m32.426 261.76a0.66862 0.66862 0 0 0-0.66797 0.0215l-5.6738 3.5254a0.66862 0.66862 0 0 0 0.03711 1.1582l5.8867 3.1562a0.66862 0.66862 0 0 0 0.98438-0.61133l-0.21289-6.6816a0.66862 0.66862 0 0 0-0.35352-0.56836zm-0.94531 1.7695 0.13867 4.3652-3.8457-2.0625z" color="#000000" style="-inkscape-stroke:none"/></g></g><g transform="translate(0 1.9661)" fill="#59f" stroke-linejoin="round"><path d="m65.222 265.75c8.8327-0.13814 32.015 0.21294 32.015 0.21294h0.08423" color="#000000" style="-inkscape-stroke:none"/><path d="m65.211 265.08 0.02148 1.3359c8.7967-0.13758 31.994 0.21289 31.994 0.21289a0.66862 0.66862 0 0 0 0.0098 0h0.08398v-1.3359h-0.08399c-0.01694-2.6e-4 -23.16-0.35154-32.025-0.21289z" color="#000000" style="-inkscape-stroke:none"/><g fill-rule="evenodd"><path d="m101.18 265.96-5.783 3.3428v-6.6855z" color="#000000" style="-inkscape-stroke:none"/><path d="m95.062 262.04a0.66862 0.66862 0 0 0-0.33594 0.58007v6.6856a0.66862 0.66862 0 0 0 1.0039 0.57813l5.7832-3.3438a0.66862 0.66862 0 0 0 0-1.1562l-5.7832-3.3438a0.66862 0.66862 0 0 0-0.66797 0zm1.002 1.7383 3.7793 2.1836-3.7793 2.1836z" color="#000000" style="-inkscape-stroke:none"/><path d="m61.365 265.81 5.73-3.4328 0.10455 6.6847z" color="#000000" style="-inkscape-stroke:none"/><path d="m67.42 261.79a0.66862 0.66862 0 0 0-0.66797 0.0117l-5.7305 3.4316a0.66862 0.66862 0 0 0 0.01758 1.1582l5.834 3.252a0.66862 0.66862 0 0 0 0.99414-0.59375l-0.10352-6.6855a0.66862 0.66862 0 0 0-0.34375-0.57422zm-0.97656 1.7539 0.07031 4.3672-3.8125-2.123z" color="#000000" style="-inkscape-stroke:none"/></g></g><g transform="translate(0 1.9798)" fill="#a00" stroke-linejoin="round"><path d="m175.58 265.75c4.5097-0.13814 16.346 0.21294 16.346 0.21294h0.043" color="#000000" style="-inkscape-stroke:none"/><path d="m175.56 265.08 0.041 1.3359c4.4393-0.13598 16.307 0.21289 16.307 0.21289a0.66862 0.66862 0 0 0 0.0195 0h0.043v-1.3359h-0.0429c-0.0281-8.4e-4 -11.793-0.35302-16.367-0.21289z" color="#000000" style="-inkscape-stroke:none"/><g fill-rule="evenodd"><path d="m195.83 265.96-5.783 3.3428v-6.6855z" color="#000000" style="-inkscape-stroke:none"/><path d="m189.71 262.04a0.66862 0.66862 0 0 0-0.33398 0.58007v6.6856a0.66862 0.66862 0 0 0 1.0039 0.57813l5.7812-3.3438a0.66862 0.66862 0 0 0 0-1.1562l-5.7812-3.3438a0.66862 0.66862 0 0 0-0.66993 0zm1.0039 1.7383 3.7793 2.1836-3.7793 2.1836z" color="#000000" style="-inkscape-stroke:none"/><path d="m171.72 265.87 5.6779-3.5182 0.20469 6.6824z" color="#000000" style="-inkscape-stroke:none"/><path d="m177.72 261.76a0.66862 0.66862 0 0 0-0.66797 0.0195l-5.6777 3.5195a0.66862 0.66862 0 0 0 0.0351 1.1562l5.8828 3.1641a0.66862 0.66862 0 0 0 0.98437-0.60937l-0.20508-6.6816a0.66862 0.66862 0 0 0-0.35156-0.56836zm-0.94922 1.7656 0.13477 4.3672-3.8457-2.0684z" color="#000000" style="-inkscape-stroke:none"/></g></g><g transform="translate(0 1.9943)" fill="#a00" stroke-linejoin="round"><path d="m149.73 265.75c3-0.13814 10.874 0.21294 10.874 0.21294h0.0286" color="#000000" style="-inkscape-stroke:none"/><path d="m149.7 265.08 0.0625 1.3359c2.8943-0.13327 10.812 0.21289 10.812 0.21289a0.66862 0.66862 0 0 0 0.0293 0h0.0293v-1.3359h-0.0293c-0.0417-2e-3 -7.8069-0.35551-10.904-0.21289z" color="#000000" style="-inkscape-stroke:none"/><g fill-rule="evenodd"><path d="m164.49 265.96-5.783 3.3428v-6.6855z" color="#000000" style="-inkscape-stroke:none"/><path d="m158.37 262.04a0.66862 0.66862 0 0 0-0.33399 0.58007v6.6856a0.66862 0.66862 0 0 0 1.002 0.57813l5.7832-3.3438a0.66862 0.66862 0 0 0 0-1.1562l-5.7832-3.3438a0.66862 0.66862 0 0 0-0.66797 0zm1.002 1.7363 3.7812 2.1856-3.7812 2.1856z" color="#000000" style="-inkscape-stroke:none"/><path d="m145.88 265.93 5.6231-3.6052 0.30752 6.6784z" color="#000000" style="-inkscape-stroke:none"/><path d="m151.81 261.73a0.66862 0.66862 0 0 0-0.66797 0.0312l-5.623 3.6055a0.66862 0.66862 0 0 0 0.0527 1.1562l5.9316 3.0723a0.66862 0.66862 0 0 0 0.97461-0.62305l-0.30664-6.6797a0.66862 0.66862 0 0 0-0.36133-0.5625zm-0.92187 1.7812 0.20117 4.3633-3.875-2.0059z" color="#000000" style="-inkscape-stroke:none"/></g></g><g transform="translate(0 1.9934)" fill="#a00" stroke-linejoin="round"><path d="m124.4 265.75c3.0772-0.13814 11.154 0.21294 11.154 0.21294h0.0293" color="#000000" style="-inkscape-stroke:none"/><path d="m124.37 265.08 0.0605 1.3359c2.9741-0.13351 11.096 0.21289 11.096 0.21289a0.66862 0.66862 0 0 0 0.0293 0h0.0293v-1.3359h-0.0293c-0.0418-2e-3 -8.0136-0.35528-11.186-0.21289z" color="#000000" style="-inkscape-stroke:none"/><g fill-rule="evenodd"><path d="m139.44 265.96-5.783 3.3428v-6.6855z" color="#000000" style="-inkscape-stroke:none"/><path d="m133.32 262.04a0.66862 0.66862 0 0 0-0.33399 0.58007v6.6856a0.66862 0.66862 0 0 0 1.002 0.57813l5.7832-3.3438a0.66862 0.66862 0 0 0 0-1.1562l-5.7832-3.3438a0.66862 0.66862 0 0 0-0.66797 0zm1.002 1.7383 3.7793 2.1836-3.7793 2.1836z" color="#000000" style="-inkscape-stroke:none"/><path d="m120.55 265.92 5.6272-3.5987 0.29982 6.6788z" color="#000000" style="-inkscape-stroke:none"/><path d="m126.48 261.73a0.66862 0.66862 0 0 0-0.66797 0.0312l-5.627 3.5976a0.66862 0.66862 0 0 0 0.0527 1.1562l5.9277 3.0801a0.66862 0.66862 0 0 0 0.97461-0.62304l-0.29883-6.6777a0.66862 0.66862 0 0 0-0.36133-0.56445zm-0.92188 1.7812 0.19336 4.3633-3.8711-2.0117z" color="#000000" style="-inkscape-stroke:none"/></g></g></g></g><g transform="matrix(.30313 0 0 .30351 174.53 36.084)" stroke-width=".74482"><path d="m284.79-2.0909-0.0949 205.52" fill="#f9f9f9" stroke="#666" stroke-linejoin="round" stroke-width="1.6632"/><rect x="72.259" y="-28.657" width="425.61" height="231.77" rx="8.3831" ry="8.3782" fill="#f9f9f9" stroke="#666" stroke-linejoin="round" stroke-width="1.3913"/><path d="m89.28 165.92h186v-123.84h-186z" fill="#fff" stroke-width="1.163"/><g stroke-width="1.163"><g stroke-width="1.163"><path d="m89.28 165.92v-123.84" clip-path="url(#p3a32fcd08d)" fill="none" stroke="#d8dcd6" stroke-linecap="round" stroke-opacity=".33" stroke-width=".93043"/><path d="m129.2 42.08v123.84h0.92969v-123.84z" color="#000000" fill="#d8dcd6" fill-opacity=".33" stroke-linejoin="round" style="-inkscape-stroke:none"/><path d="m169.57 42.08v123.84h0.93164v-123.84z" color="#000000" fill="#d8dcd6" fill-opacity=".33" stroke-linejoin="round" style="-inkscape-stroke:none"/><path d="m209.96 42.08v123.84h0.92969v-123.84z" color="#000000" fill="#d8dcd6" fill-opacity=".33" stroke-linejoin="round" style="-inkscape-stroke:none"/><path d="m250.33 42.08v123.84h0.93164v-123.84z" color="#000000" fill="#d8dcd6" fill-opacity=".33" stroke-linejoin="round" style="-inkscape-stroke:none"/></g></g><text x="150.12639" y="190.40668" fill="#000000" font-family="Arial" font-size="16.283px" stroke-linejoin="round" stroke-width="13.847" xml:space="preserve"><tspan x="150.12639" y="190.40668" font-size="16.283px" stroke-width="13.847">Counts</tspan></text><text x="93.893227" y="-3.9405289" fill="#000000" font-family="Arial" font-size="16.283px" stroke-linejoin="round" stroke-width="13.847" xml:space="preserve"><tspan x="93.893227" y="-3.9405289" font-size="16.283px" stroke-width="13.847">Positive samples</tspan></text><text x="297.73843" y="-3.9405289" fill="#000000" font-family="Arial" font-size="16.283px" stroke-linejoin="round" stroke-width="13.847" xml:space="preserve"><tspan x="297.73843" y="-3.9405289" font-size="16.283px" stroke-width="13.847">Negative controls</tspan></text><g fill="#d8dcd6" fill-opacity=".33" stroke-linejoin="round" stroke-width="1.163"><path d="m89.279 57.092v0.92969h186v-0.92969z" color="#000000" style="-inkscape-stroke:none"/><path d="m89.279 88.053v0.92969h186v-0.92969z" color="#000000" style="-inkscape-stroke:none"/><path d="m89.279 119.02v0.92968h186v-0.92968z" color="#000000" style="-inkscape-stroke:none"/><path d="m89.279 149.97v0.92969h186v-0.92969z" color="#000000" style="-inkscape-stroke:none"/></g><path d="m89.28 49.817h86.712v15.48h-86.712z" clip-path="url(#p3a32fcd08d)" fill="#59f" opacity=".8" stroke="#fff" stroke-width="1.163"/><path d="m89.28 80.777h112.89v15.48h-112.89z" clip-path="url(#p3a32fcd08d)" fill="#59f" opacity=".8" stroke="#fff" stroke-width="1.163"/><path d="m89.28 111.74h32.819v15.48h-32.819z" clip-path="url(#p3a32fcd08d)" fill="#d4aa00" opacity=".8" stroke="#fff" stroke-width="1.163"/><path d="m89.28 142.7h42.514v15.48h-42.514z" clip-path="url(#p3a32fcd08d)" fill="#d4aa00" opacity=".8" stroke="#fff" stroke-width="1.163"/><path d="m175.99 49.817h50.711v15.48h-50.711z" clip-path="url(#p3a32fcd08d)" fill="#a00" opacity=".8" stroke="#fff" stroke-width="1.163"/><path d="m202.17 80.777h64.255v15.48h-64.255z" clip-path="url(#p3a32fcd08d)" fill="#a00" opacity=".8" stroke="#fff" stroke-width="1.163"/><path d="m122.1 111.74h29.15v15.48h-29.15z" clip-path="url(#p3a32fcd08d)" fill="#a00" opacity=".8" stroke="#fff" stroke-width="1.163"/><path d="m131.79 142.7h34.892v15.48h-34.892z" clip-path="url(#p3a32fcd08d)" fill="#a00" opacity=".8" stroke="#fff" stroke-width="1.163"/><path d="m89.28 165.92v-123.84" fill="none" stroke="#070d0d" stroke-linecap="square" stroke-width=".93043"/><path d="m275.28 165.92v-123.84" fill="none" stroke="#d8dcd6" stroke-linecap="square" stroke-width=".93043"/><path d="m89.28 165.92h186" fill="none" stroke="#070d0d" stroke-linecap="square" stroke-width=".93043"/><path d="m89.28 42.077h186" fill="none" stroke="#d8dcd6" stroke-linecap="square" stroke-width=".93043"/><g transform="translate(-55.5)"><g stroke-width="1.163"><path d="m349.68 165.92h186v-123.84h-186z" fill="#fff"/><path d="m349.68 165.92v-123.84" clip-path="url(#pa4e68108b1)" fill="none" stroke="#d8dcd6" stroke-linecap="round" stroke-opacity=".33" stroke-width=".93043"/><path d="m389.6 42.08v123.84h0.92969v-123.84z" color="#000000" fill="#d8dcd6" fill-opacity=".33" stroke-linejoin="round" style="-inkscape-stroke:none"/><path d="m429.97 42.08v123.84h0.92969v-123.84z" color="#000000" fill="#d8dcd6" fill-opacity=".33" stroke-linejoin="round" style="-inkscape-stroke:none"/><path d="m470.36 42.08v123.84h0.92969v-123.84z" color="#000000" fill="#d8dcd6" fill-opacity=".33" stroke-linejoin="round" style="-inkscape-stroke:none"/><path d="m510.73 42.08v123.84h0.93165v-123.84z" color="#000000" fill="#d8dcd6" fill-opacity=".33" stroke-linejoin="round" style="-inkscape-stroke:none"/></g><text x="401.81152" y="189.7563" fill="#000000" font-family="Arial" font-size="16.283px" stroke-width="13.847" xml:space="preserve"><tspan x="401.81152" y="189.7563" font-size="16.283px" stroke-width="13.847">Counts</tspan></text><path d="m349.68 57.092v0.92969h186v-0.92969z" color="#000000" fill="#d8dcd6" fill-opacity=".33" stroke-linejoin="round" style="-inkscape-stroke:none"/><path d="m349.68 88.053v0.92969h186v-0.92969z" color="#000000" fill="#d8dcd6" fill-opacity=".33" stroke-linejoin="round" style="-inkscape-stroke:none"/><path d="m349.68 119.02v0.92968h186v-0.92968z" color="#000000" fill="#d8dcd6" fill-opacity=".33" stroke-linejoin="round" style="-inkscape-stroke:none"/><path d="m349.68 149.97v0.92969h186v-0.92969z" color="#000000" fill="#d8dcd6" fill-opacity=".33" stroke-linejoin="round" style="-inkscape-stroke:none"/><g stroke="#fff" stroke-width="1.163"><path d="m349.68 49.817h1.0935v15.48h-1.0935z" clip-path="url(#pa4e68108b1)" fill="#4878d0" opacity=".8"/><path d="m349.68 80.777h0.84315v15.48h-0.84315z" clip-path="url(#pa4e68108b1)" fill="#4878d0" opacity=".8"/><path d="m349.68 111.74h2.2629v15.48h-2.2629z" clip-path="url(#pa4e68108b1)" fill="#d4aa00" opacity=".8"/><path d="m349.68 142.7h1.3927v15.48h-1.3927z" clip-path="url(#pa4e68108b1)" fill="#4878d0" opacity=".8"/></g><g transform="matrix(2.1454,0,0,1,-403.71,0)" stroke-width=".79405"><path d="m350.77 49.817h25.938v15.48h-25.938z" clip-path="url(#pa4e68108b1)" fill="#a00" opacity=".8" stroke="#fff" stroke-width=".79405"/></g><g transform="translate(-1.9244)" stroke-width="1.163"><path transform="matrix(2.9979,0,0,1,-700.31,0)" d="m350.52 80.777h25.026v15.48h-25.026z" clip-path="url(#pa4e68108b1)" fill="#a00" opacity=".8" stroke="#fff" stroke-width=".67172"/></g><g transform="translate(-1.847)" stroke-width="1.163"><path transform="translate(-.57401)" d="m351.94 111.74h56.942v15.48h-56.942z" clip-path="url(#pa4e68108b1)" fill="#a00" opacity=".8" stroke="#fff" stroke-width="1.163"/></g><g transform="translate(-1.9244)" stroke-width="1.163"><path d="m351.07 142.7h48.687v15.48h-48.687z" clip-path="url(#pa4e68108b1)" fill="#a00" opacity=".8" stroke="#fff" stroke-width="1.163"/></g><g fill="none" stroke-linecap="square" stroke-width=".93043"><path d="m349.68 165.92v-123.84" stroke="#070d0d"/><path d="m535.68 165.92v-123.84" stroke="#d8dcd6"/><path d="m349.68 165.92h186" stroke="#070d0d"/><path d="m349.68 42.077h186" stroke="#d8dcd6"/></g><g transform="matrix(15.911,0,0,15.911,-639.14,-1895.9)" font-family="sans-serif" font-size="2.2926px" font-weight="bold" letter-spacing="0px" stroke-linejoin="round" stroke-width=".31626" word-spacing="0px"><text x="62.45327" y="121.32294" fill="#aa0000" style="line-height:1.25" xml:space="preserve"><tspan x="62.45327" y="121.32294" fill="#aa0000" font-family="sans-serif" font-size="2.2926px" font-weight="bold" stroke-width=".31626">U</tspan></text><text x="52.305805" y="121.33414" fill="#d4aa00" style="line-height:1.25" xml:space="preserve"><tspan x="52.305805" y="121.33414" fill="#d4aa00" font-family="sans-serif" font-size="2.2926px" font-weight="bold" stroke-width=".31626">M</tspan></text><text x="49.554718" y="121.3347" fill="#5599ff" style="line-height:1.25" xml:space="preserve"><tspan x="49.554718" y="121.3347" fill="#5599ff" font-family="sans-serif" font-size="2.2926px" font-weight="bold" stroke-width=".31626">S</tspan></text></g></g></g><text x="132.71402" y="22.057837" fill="#000000" font-family="Arial" font-size="7.7611px" stroke-linejoin="round" stroke-width=".422" text-align="center" text-anchor="middle" style="inline-size:93.0679;white-space:pre" xml:space="preserve"><tspan x="132.71402" y="22.057837">Coverage</tspan></text><text x="248.59352" y="22.482464" fill="#000000" font-family="Arial" font-size="7.7611px" stroke-linejoin="round" stroke-width=".422" xml:space="preserve"><tspan x="248.59352" y="22.482464" fill="#000000" font-family="Arial" font-size="7.7611px" stroke-width=".422">Counts</tspan></text><text x="132.68181" y="108.53905" fill="#000000" font-family="Arial" font-size="7.7611px" stroke-linejoin="round" stroke-width=".422" text-align="center" text-anchor="middle" xml:space="preserve"><tspan x="132.68181" y="108.53905" fill="#000000" font-family="Arial" font-size="7.7611px" stroke-width=".422">Coordinates</tspan></text><rect x="3.8663" y="27.328" width="65.173" height="70.464" rx="3.0753" ry="2.5702" fill="#f9f9f9" stroke="#666" stroke-linejoin="round" stroke-width=".422"/><text x="7.4543328" y="78.331146" fill="#aa0000" font-size="7.0556px" stroke-linejoin="round" stroke-width="5.7677" style="line-height:1.25" xml:space="preserve"><tspan x="7.4543328" y="78.331146" fill="#aa0000" font-family="sans-serif" font-size="7.0556px" font-weight="bold" stroke-width="9.7307">Unspecific</tspan></text><text x="7.4061012" y="57.378162" fill="#d4aa00" font-size="7.0556px" stroke-linejoin="round" stroke-width="5.7677" style="line-height:1.25" xml:space="preserve"><tspan x="0.053741504" y="-1.058297"><tspan x="7.4061012" y="57.378162" fill="#d4aa00" font-family="sans-serif" font-size="7.0556px" font-weight="bold" stroke-width="9.7307"/></tspan><tspan x="7.4061012" y="57.378162"><tspan x="7.4061012" y="57.378162" fill="#d4aa00" font-family="sans-serif" font-size="7.0556px" font-weight="bold" stroke-width="9.7307">Mutant</tspan></tspan></text><text x="7.6748204" y="40.623981" fill="#5599ff" font-size="7.0556px" stroke-linejoin="round" stroke-width="5.7677" style="line-height:1.25" xml:space="preserve"><tspan x="7.6748204" y="40.623981" fill="#5599ff" font-family="sans-serif" font-size="7.0556px" font-weight="bold" stroke-width="9.7307">Specific</tspan></text><text x="7.4729381" y="47.27528" fill="#1a1a1a" font-family="Arial" font-size="4.9389px" stroke-width=".422" xml:space="preserve"><tspan x="7.4729381" y="47.27528" fill="#1a1a1a" font-family="Arial" font-size="4.9389px" stroke-width=".422">Positive controls</tspan></text><text x="7.4729381" y="84.751671" fill="#000000" font-family="Arial" font-size="4.9389px" stroke-width=".422" xml:space="preserve"><tspan x="7.4729381" y="84.751671" fill="#000000" font-family="Arial" stroke-width=".422">Negative controls</tspan></text><text x="7.6538062" y="63.679459" fill="#1a1a1a" font-family="Arial" font-size="4.9389px" stroke-width=".422" xml:space="preserve"><tspan x="7.6538062" y="63.679459" fill="#1a1a1a" font-family="Arial" font-size="4.9389px" stroke-width=".422">Strains, conditions to test</tspan></text><text x="35.164124" y="22.057837" fill="#000000" font-family="Arial" font-size="7.7611px" stroke-linejoin="round" stroke-width=".422" text-align="center" text-anchor="middle" xml:space="preserve"><tspan x="35.164124" y="22.057837" fill="#000000" font-family="Arial" font-size="7.7611px" stroke-width=".422">Read categories</tspan></text><g transform="matrix(.30313 0 0 .30351 312.36 36.084)" stroke-width=".74482"><rect x="72.259" y="-28.657" width="280.65" height="231.77" rx="8.3831" ry="8.3782" fill="#f9f9f9" stroke="#666" stroke-linejoin="round" stroke-width="1.3913"/><text x="189.00404" y="189.60188" fill="#000000" font-family="Arial" font-size="16.283px" stroke-linejoin="round" stroke-width="13.847" xml:space="preserve"><tspan x="189.00404" y="189.60188" font-size="16.283px" stroke-width="13.847">Length</tspan></text><text transform="matrix(0 -.99876 1.0012 0 0 0)" x="-126.2651" y="100.2959" fill="#000000" font-family="Arial" font-size="16.283px" stroke-width="13.847" xml:space="preserve"><tspan x="-126.2651" y="100.2959" font-size="16.283px" stroke-width="13.847">% Counts</tspan></text><g transform="translate(0 .72301)"><g transform="matrix(0 -.42754 -1.6503 0 387.1 229.82)" stroke-width="1.3846"><path d="m349.68 165.92h186v-123.84h-186z" fill="#fff" stroke-width="1.3846"/></g><g transform="matrix(0 -.42754 -1.0012 0 359.78 229.82)" stroke-width="1.7776"><g stroke-width="1.7776"><path d="m348.97 42.08v123.84h1.4219v-123.84z" color="#000000" fill="#d8dcd6" fill-opacity=".33" stroke-linejoin="round" style="-inkscape-stroke:none"/></g></g><g transform="matrix(0 -.42754 -1.6441 0 386.83 229.82)" stroke-width="1.3872"><g fill="#d8dcd6" fill-opacity=".33" stroke-linejoin="round" stroke-width="1.3872"><path d="m389.51 42.08v124.53h1.1094v-124.53z" color="#000000" style="-inkscape-stroke:none"/><path d="m429.88 42.08v124.53h1.1094v-124.53z" color="#000000" style="-inkscape-stroke:none"/><path d="m470.27 42.08v124.53h1.1094v-124.53z" color="#000000" style="-inkscape-stroke:none"/><path d="m510.64 42.08v124.53h1.1113v-124.53z" color="#000000" style="-inkscape-stroke:none"/></g></g><g transform="matrix(0 -.42754 -1.0012 0 359.78 229.82)" stroke-width="1.7776"><g clip-path="url(#pa4e68108b1)" opacity=".8" stroke-linejoin="round"><path d="m349.68 49.817h1.0935v15.48h-1.0935z" color="#000000" fill="#4878d0" style="-inkscape-stroke:none"/><path d="m349.68 48.928a0.88889 0.88889 0 0 0-0.88867 0.88867v15.48a0.88889 0.88889 0 0 0 0.88867 0.88867h1.0938a0.88889 0.88889 0 0 0 0.88867-0.88867v-15.48a0.88889 0.88889 0 0 0-0.88867-0.88867z" color="#000000" fill="#fff" style="-inkscape-stroke:none"/><path d="m349.68 80.777h0.84315v15.48h-0.84315z" color="#000000" fill="#4878d0" style="-inkscape-stroke:none"/><path d="m349.68 79.889a0.88889 0.88889 0 0 0-0.88867 0.88867v15.48a0.88889 0.88889 0 0 0 0.88867 0.88867h0.84375a0.88889 0.88889 0 0 0 0.88867-0.88867v-15.48a0.88889 0.88889 0 0 0-0.88867-0.88867z" color="#000000" fill="#fff" style="-inkscape-stroke:none"/><path d="m349.68 111.74h2.2629v15.48h-2.2629z" color="#000000" fill="#d4aa00" style="-inkscape-stroke:none"/><path d="m349.68 110.85a0.88889 0.88889 0 0 0-0.88867 0.88867v15.48a0.88889 0.88889 0 0 0 0.88867 0.88867h2.2637a0.88889 0.88889 0 0 0 0.88867-0.88867v-15.48a0.88889 0.88889 0 0 0-0.88867-0.88867zm0.88867 1.7774h0.48633v13.703h-0.48633z" color="#000000" fill="#fff" style="-inkscape-stroke:none"/><path d="m349.68 142.7h1.3927v15.48h-1.3927z" color="#000000" fill="#4878d0" style="-inkscape-stroke:none"/><path d="m349.68 141.81a0.88889 0.88889 0 0 0-0.88867 0.88867v15.48a0.88889 0.88889 0 0 0 0.88867 0.88867h1.3926a0.88889 0.88889 0 0 0 0.88867-0.88867v-15.48a0.88889 0.88889 0 0 0-0.88867-0.88867z" color="#000000" fill="#fff" style="-inkscape-stroke:none"/></g></g><g transform="matrix(0 -.42754 -1.6441 0 386.83 229.82)" stroke-width="1.3872"><path d="m535.12 42.08v124.53h1.1094v-124.53z" color="#000000" fill="#d8dcd6" stroke-linejoin="round" style="-inkscape-stroke:none"/></g><g transform="matrix(0 -.42754 -1.0012 0 359.78 229.82)" stroke-width="1.7776"><path d="m349.68 41.365v1.4219h186v-1.4219z" color="#000000" fill="#d8dcd6" stroke-linejoin="round" style="-inkscape-stroke:none"/></g></g><text x="230.15398" y="51.41927" fill="#aa0000" font-family="sans-serif" font-size="36.478px" font-weight="bold" letter-spacing="0px" stroke-width="5.032" word-spacing="0px" style="line-height:1.25" xml:space="preserve"><tspan x="230.15398" y="51.41927" fill="#aa0000" font-family="sans-serif" font-size="36.478px" font-weight="bold" stroke-width="5.032">U</tspan></text><text x="262.84656" y="145.26117" fill="#d4aa00" font-family="sans-serif" font-size="36.478px" font-weight="bold" letter-spacing="0px" stroke-width="5.032" word-spacing="0px" style="line-height:1.25" xml:space="preserve"><tspan x="262.84656" y="145.26117" fill="#d4aa00" font-family="sans-serif" font-size="36.478px" font-weight="bold" stroke-width="5.032"/></text><g transform="matrix(0 -1.3986 -.40674 0 325.98 570.1)" fill="#a00" stroke="#fff" stroke-width=".43711"><g transform="matrix(.349 0 0 1 228.28 0)" clip-path="url(#pa4e68108b1)" opacity=".8" stroke="none"><path d="m350.77 49.817h25.938v15.48h-25.938z" color="#000000" fill="#a00" style="-inkscape-stroke:none"/><path d="m350.77 49.447a0.36999 0.36999 0 0 0-0.36914 0.36914v15.48a0.36999 0.36999 0 0 0 0.36914 0.36914h25.938a0.36999 0.36999 0 0 0 0.37109-0.36914v-15.48a0.36999 0.36999 0 0 0-0.37109-0.36914zm0.37109 0.74023h25.197v14.74h-25.197z" color="#000000" fill="#fff" style="-inkscape-stroke:none"/></g></g><g transform="matrix(0 -.16738 -.35963 0 302.98 138.16)" fill="#a00" stroke="#fff" stroke-width="1.3438"><g transform="matrix(2.9979 0 0 1.1317 -701.06 -12.68)" clip-path="url(#pa4e68108b1)" opacity=".8" stroke="none"><path d="m350.52 80.777h25.026v15.48h-25.026z" color="#000000" fill="#a00" style="-inkscape-stroke:none"/><path d="m350.52 80.412a0.3648 0.3648 0 0 0-0.36523 0.36524v15.48a0.3648 0.3648 0 0 0 0.36523 0.36328h25.027a0.3648 0.3648 0 0 0 0.36329-0.36328v-15.48a0.3648 0.3648 0 0 0-0.36329-0.36524zm0.36524 0.73047h24.297v14.75h-24.297z" color="#000000" fill="#fff" style="-inkscape-stroke:none"/></g></g><g transform="matrix(0 -.16738 -.39356 0 287.66 138.29)" fill="#a00" stroke="#fff" stroke-width="1.2845"><g transform="translate(-1.8019)" clip-path="url(#pa4e68108b1)" opacity=".8" stroke="none"><path d="m351.94 111.74h56.942v15.48h-56.942z" color="#000000" fill="#a00" style="-inkscape-stroke:none"/><path d="m351.94 111.1a0.64232 0.64232 0 0 0-0.64258 0.64257v15.48a0.64232 0.64232 0 0 0 0.64258 0.64063h56.943a0.64232 0.64232 0 0 0 0.64063-0.64063v-15.48a0.64232 0.64232 0 0 0-0.64063-0.64257zm0.64258 1.2852h55.658v14.195h-55.658z" color="#000000" fill="#fff" style="-inkscape-stroke:none"/></g></g><g transform="matrix(0 -.16738 -.39356 0 268.85 138.24)" fill="#a00" stroke="#fff" stroke-width="1.2845"><g transform="translate(-1.2306)" clip-path="url(#pa4e68108b1)" opacity=".8" stroke="none"><path d="m351.07 142.7h48.687v15.48h-48.687z" color="#000000" fill="#a00" style="-inkscape-stroke:none"/><path d="m351.07 142.06a0.64232 0.64232 0 0 0-0.64258 0.64063v15.48a0.64232 0.64232 0 0 0 0.64258 0.64258h48.688a0.64232 0.64232 0 0 0 0.64063-0.64258v-15.48a0.64232 0.64232 0 0 0-0.64063-0.64063zm0.64258 1.2832h47.402v14.195h-47.402z" color="#000000" fill="#fff" style="-inkscape-stroke:none"/></g></g><g transform="matrix(0 -.16131 -.40666 0 214.3 136.03)" fill="#a00" stroke="#fff" stroke-width="1.2872"><g transform="matrix(2.9979 0 0 1 -701.13 0)" clip-path="url(#pa4e68108b1)" opacity=".8" stroke="none"><path d="m350.52 80.777h25.026v15.48h-25.026z" color="#000000" fill="#a00" style="-inkscape-stroke:none"/><path d="m350.52 80.406a0.37176 0.37176 0 0 0-0.37109 0.37109v15.48a0.37176 0.37176 0 0 0 0.37109 0.37109h25.027a0.37176 0.37176 0 0 0 0.3711-0.37109v-15.48a0.37176 0.37176 0 0 0-0.3711-0.37109zm0.37305 0.74219h24.281v14.736h-24.281z" color="#000000" fill="#fff" style="-inkscape-stroke:none"/></g></g><g transform="matrix(0 -.66461 -.40946 0 335.97 160.73)" clip-path="url(#p3a32fcd08d-7)" opacity=".8" stroke-linejoin="round"><path d="m122.1 111.74h29.15v15.48h-29.15z" color="#000000" fill="#a00" style="-inkscape-stroke:none"/><path d="m122.1 111.42a0.31602 0.31602 0 0 0-0.31641 0.3164v15.48a0.31602 0.31602 0 0 0 0.31641 0.31446h29.15a0.31602 0.31602 0 0 0 0.31641-0.31446v-15.48a0.31602 0.31602 0 0 0-0.31641-0.3164zm0.31641 0.63281h28.518v14.848h-28.518z" color="#000000" fill="#fff" style="-inkscape-stroke:none"/></g><g transform="matrix(0 -.24876 -.39915 0 278.94 123.45)" clip-path="url(#p3a32fcd08d)" opacity=".8" stroke-linejoin="round"><path d="m175.99 49.817h50.711v15.48h-50.711z" color="#000000" fill="#a00" style="-inkscape-stroke:none"/><path d="m175.99 49.293a0.52318 0.52318 0 0 0-0.52343 0.52344v15.48a0.52318 0.52318 0 0 0 0.52343 0.52344h50.711a0.52318 0.52318 0 0 0 0.52344-0.52344v-15.48a0.52318 0.52318 0 0 0-0.52344-0.52344zm0.52344 1.0469h49.664v14.434h-49.664z" color="#000000" fill="#fff" style="-inkscape-stroke:none"/></g><g transform="matrix(0 -.3591 -.4036 0 248.06 205.45)" fill="#a00" stroke="#fff" stroke-width=".866"><g transform="translate(-.43539)" clip-path="url(#pa4e68108b1)" opacity=".8" stroke="none"><path d="m350.77 49.817h25.938v15.48h-25.938z" color="#000000" fill="#a00" style="-inkscape-stroke:none"/><path d="m350.77 49.385a0.43304 0.43304 0 0 0-0.43164 0.43164v15.48a0.43304 0.43304 0 0 0 0.43164 0.43359h25.938a0.43304 0.43304 0 0 0 0.43359-0.43359v-15.48a0.43304 0.43304 0 0 0-0.43359-0.43164zm0.43359 0.86523h25.072v14.613h-25.072z" color="#000000" fill="#fff" style="-inkscape-stroke:none"/></g></g><g transform="matrix(0 -.31344 -.40203 0 254.48 120.96)" clip-path="url(#p3a32fcd08d-3)" opacity=".8" stroke-linejoin="round"><path d="m131.79 142.7h34.892v15.48h-34.892z" color="#000000" fill="#a00" style="-inkscape-stroke:none"/><path d="m131.79 142.24a0.46442 0.46442 0 0 0-0.46289 0.46289v15.48a0.46442 0.46442 0 0 0 0.46289 0.46484h34.893a0.46442 0.46442 0 0 0 0.46484-0.46484v-15.48a0.46442 0.46442 0 0 0-0.46484-0.46289zm0.46485 0.92773h33.963v14.551h-33.963z" color="#000000" fill="#fff" style="-inkscape-stroke:none"/></g><g transform="matrix(0 -.42754 -.40542 0 211.26 131.83)" clip-path="url(#p3a32fcd08d-32)" opacity=".8" stroke-linejoin="round"><path d="m122.1 111.74h29.15v15.48h-29.15z" color="#000000" fill="#a00" style="-inkscape-stroke:none"/><path d="m122.1 111.34a0.39598 0.39598 0 0 0-0.39648 0.39648v15.48a0.39598 0.39598 0 0 0 0.39648 0.39453h29.15a0.39598 0.39598 0 0 0 0.39648-0.39453v-15.48a0.39598 0.39598 0 0 0-0.39648-0.39648zm0.39648 0.79297h28.357v14.688h-28.357z" color="#000000" fill="#fff" style="-inkscape-stroke:none"/></g><g transform="matrix(0 -.19616 -.39586 0 166.79 119.34)" clip-path="url(#p3a32fcd08d-5)" opacity=".8" stroke-linejoin="round"><path d="m202.17 80.777h64.255v15.48h-64.255z" color="#000000" fill="#a00" style="-inkscape-stroke:none"/><path d="m202.17 80.186a0.59161 0.59161 0 0 0-0.5918 0.5918v15.48a0.59161 0.59161 0 0 0 0.5918 0.58984h64.256a0.59161 0.59161 0 0 0 0.58984-0.58984v-15.48a0.59161 0.59161 0 0 0-0.58984-0.5918zm0.5918 1.1836h63.072v14.297h-63.072z" color="#000000" fill="#fff" style="-inkscape-stroke:none"/></g><g transform="matrix(0 -.31344 -.40203 0 208 120.96)" clip-path="url(#p3a32fcd08d-3)" opacity=".8" stroke-linejoin="round"><path d="m131.79 142.7h34.892v15.48h-34.892z" color="#000000" fill="#a00" style="-inkscape-stroke:none"/><path d="m131.79 142.24a0.46442 0.46442 0 0 0-0.46289 0.46289v15.48a0.46442 0.46442 0 0 0 0.46289 0.46484h34.893a0.46442 0.46442 0 0 0 0.46484-0.46484v-15.48a0.46442 0.46442 0 0 0-0.46484-0.46289zm0.46485 0.92773h33.963v14.551h-33.963z" color="#000000" fill="#fff" style="-inkscape-stroke:none"/></g><g transform="translate(-54.314 -104.75)" fill="none" stroke="#070d0d" stroke-linejoin="round" stroke-width="1.1638"><path d="m167.2 185.79 0.13886-80.212"/><path d="m167.72 185.21h203.61"/></g><g transform="translate(-.096779 -12.113)"><path d="m112.88 180.57v-79.523h204.38v79.523z" fill="#fff" stroke-width="1.163"/><g transform="matrix(0 -.42754 -1.0012 0 359.4 218.75)" stroke-width="1.7776"><g stroke-width="1.7776"><path d="m88.568 42.08v123.84h1.4219v-123.84z" color="#000000" fill="#d8dcd6" fill-opacity=".33" stroke-linejoin="round" style="-inkscape-stroke:none"/></g></g><g transform="matrix(0 -.42754 -1.6441 0 386.21 218.75)" stroke-width="1.3872"><g fill="#d8dcd6" fill-opacity=".33" stroke-linejoin="round" stroke-width="1.3872"><path d="m129.11 42.08v123.84h1.1094v-123.84z" color="#000000" style="-inkscape-stroke:none"/><path d="m169.48 42.08v123.84h1.1113v-123.84z" color="#000000" style="-inkscape-stroke:none"/><path d="m209.87 42.08v123.84h1.1094v-123.84z" color="#000000" style="-inkscape-stroke:none"/><path d="m250.24 42.08v123.84h1.1113v-123.84z" color="#000000" style="-inkscape-stroke:none"/></g></g><path d="m113.41 100.58v0.93165h203.61v-0.93165z" color="#000000" fill="#d8dcd6" stroke-linejoin="round" style="-inkscape-stroke:none"/><path d="m112.39 100.67-0.084 80.488h1.1641l0.084-80.486z" color="#000000" fill="#070d0d" stroke-linejoin="round" style="-inkscape-stroke:none"/><path d="m316.8 101.05v79.523h0.92968v-79.523z" color="#000000" fill="#d8dcd6" stroke-linejoin="round" style="-inkscape-stroke:none"/><path d="m113.41 179.99v1.1641h203.61v-1.1641z" color="#000000" fill="#070d0d" stroke-linejoin="round" style="-inkscape-stroke:none"/><g transform="matrix(0 -.26591 -.40002 0 229.29 203.42)" clip-path="url(#p3a32fcd08d)" opacity=".8" stroke-width="1.0109"><g stroke-linejoin="round"><path d="m89.28 80.777h112.89v15.48h-112.89z" color="#000000" fill="#59f" style="-inkscape-stroke:none"/><path d="m89.279 80.271a0.50548 0.50548 0 0 0-0.50391 0.50586v15.48a0.50548 0.50548 0 0 0 0.50391 0.50391h112.89a0.50548 0.50548 0 0 0 0.50586-0.50391v-15.48a0.50548 0.50548 0 0 0-0.50586-0.50586zm0.50586 1.0117h111.88v14.469h-111.88z" color="#000000" fill="#fff" style="-inkscape-stroke:none"/></g></g><g transform="matrix(0 -.19886 -.40002 0 182.34 197.43)" clip-path="url(#p3a32fcd08d)" opacity=".8" stroke-width="1.1689"><g stroke-linejoin="round"><path d="m89.28 80.777h112.89v15.48h-112.89z" color="#000000" fill="#59f" style="-inkscape-stroke:none"/><path d="m89.279 80.193a0.58452 0.58452 0 0 0-0.58398 0.58398v15.48a0.58452 0.58452 0 0 0 0.58398 0.58398h112.89a0.58452 0.58452 0 0 0 0.58399-0.58398v-15.48a0.58452 0.58452 0 0 0-0.58399-0.58398zm0.58594 1.168h111.72v14.311h-111.72z" color="#000000" fill="#fff" style="-inkscape-stroke:none"/></g></g><g transform="matrix(1.2147 0 0 1 -235.33 0)" clip-path="url(#clipPath9)" opacity=".8" stroke-linejoin="round"><path d="m304.34 179.68v-6.3687h-5.1318v6.3687z" color="#000000" fill="#59f" style="-inkscape-stroke:none"/><path d="m299.21 173.16a0.14958 0.14958 0 0 0-0.15039 0.14844v6.3691a0.14958 0.14958 0 0 0 0.15039 0.15039h5.1309a0.14958 0.14958 0 0 0 0.15039-0.15039v-6.3691a0.14958 0.14958 0 0 0-0.15039-0.14844zm0.14844 0.29883h4.832v6.0684h-4.832z" color="#000000" fill="#fff" style="-inkscape-stroke:none"/></g><g transform="matrix(1.2147 0 0 1 -141.66 0)" clip-path="url(#clipPath9)" opacity=".8" stroke-linejoin="round"><path d="m304.34 179.68v-5.5486h-5.1318v5.5486z" color="#000000" fill="#59f" style="-inkscape-stroke:none"/><path d="m299.21 173.98a0.14958 0.14958 0 0 0-0.15039 0.14843v5.5488a0.14958 0.14958 0 0 0 0.15039 0.15039h5.1309a0.14958 0.14958 0 0 0 0.15039-0.15039v-5.5488a0.14958 0.14958 0 0 0-0.15039-0.14843zm0.14844 0.29882h4.832v5.248h-4.832z" color="#000000" fill="#fff" style="-inkscape-stroke:none"/></g><g transform="matrix(1.2147 0 0 1 -126.23 0)" clip-path="url(#clipPath9)" opacity=".8" stroke-linejoin="round"><path d="m304.34 179.68v-6.3687h-5.1318v6.3687z" color="#000000" fill="#59f" style="-inkscape-stroke:none"/><path d="m299.21 173.16a0.14958 0.14958 0 0 0-0.15039 0.14844v6.3691a0.14958 0.14958 0 0 0 0.15039 0.15039h5.1309a0.14958 0.14958 0 0 0 0.15039-0.15039v-6.3691a0.14958 0.14958 0 0 0-0.15039-0.14844zm0.14844 0.29883h4.832v6.0684h-4.832z" color="#000000" fill="#fff" style="-inkscape-stroke:none"/></g><g transform="matrix(1.2147 0 0 1 -110.66 0)" clip-path="url(#clipPath9)" opacity=".8" stroke-linejoin="round"><path d="m304.34 179.68v-4.6252h-5.1318v4.6252z" color="#000000" fill="#59f" style="-inkscape-stroke:none"/><path d="m299.21 174.9a0.14958 0.14958 0 0 0-0.15039 0.15039v4.625a0.14958 0.14958 0 0 0 0.15039 0.15039h5.1309a0.14958 0.14958 0 0 0 0.15039-0.15039v-4.625a0.14958 0.14958 0 0 0-0.15039-0.15039zm0.14844 0.30078h4.832v4.3242h-4.832z" color="#000000" fill="#fff" style="-inkscape-stroke:none"/></g><g transform="matrix(1.2147 0 0 1 -95.231 0)" clip-path="url(#clipPath9)" opacity=".8" stroke-linejoin="round"><path d="m304.34 179.68v-6.3687h-5.1318v6.3687z" color="#000000" fill="#59f" style="-inkscape-stroke:none"/><path d="m299.21 173.16a0.14958 0.14958 0 0 0-0.15039 0.14844v6.3691a0.14958 0.14958 0 0 0 0.15039 0.15039h5.1309a0.14958 0.14958 0 0 0 0.15039-0.15039v-6.3691a0.14958 0.14958 0 0 0-0.15039-0.14844zm0.14844 0.29883h4.832v6.0684h-4.832z" color="#000000" fill="#fff" style="-inkscape-stroke:none"/></g><g transform="matrix(0 -.48811 -.40674 0 310.17 350.71)" clip-path="url(#pa4e68108b1-3)" opacity=".8" stroke-linejoin="round"><path d="m350.77 49.817h18.794v15.48h-18.794z" color="#000000" fill="#77adff" style="-inkscape-stroke:none"/><path d="m350.77 49.447a0.36999 0.36999 0 0 0-0.36914 0.36914v15.48a0.36999 0.36999 0 0 0 0.36914 0.36914h18.795a0.36999 0.36999 0 0 0 0.36914-0.36914v-15.48a0.36999 0.36999 0 0 0-0.36914-0.36914zm0.37109 0.74023h18.053v14.74h-18.053z" color="#000000" fill="#fff" style="-inkscape-stroke:none"/></g><g transform="matrix(1.2147 0 0 1 -64.233 0)" clip-path="url(#clipPath9)" opacity=".8" stroke-linejoin="round"><path d="m304.34 179.68v-6.3687h-5.1318v6.3687z" color="#000000" fill="#59f" style="-inkscape-stroke:none"/><path d="m299.21 173.16a0.14958 0.14958 0 0 0-0.15039 0.14844v6.3691a0.14958 0.14958 0 0 0 0.15039 0.15039h5.1309a0.14958 0.14958 0 0 0 0.15039-0.15039v-6.3691a0.14958 0.14958 0 0 0-0.15039-0.14844zm0.14844 0.29883h4.832v6.0684h-4.832z" color="#000000" fill="#fff" style="-inkscape-stroke:none"/></g><g transform="matrix(1.2147 0 0 1 -157.23 0)" clip-path="url(#clipPath9)" opacity=".8" stroke-linejoin="round"><path d="m304.34 179.68v-6.3687h-5.1318v6.3687z" color="#000000" fill="#59f" style="-inkscape-stroke:none"/><path d="m299.21 173.16a0.14958 0.14958 0 0 0-0.15039 0.14844v6.3691a0.14958 0.14958 0 0 0 0.15039 0.15039h5.1309a0.14958 0.14958 0 0 0 0.15039-0.15039v-6.3691a0.14958 0.14958 0 0 0-0.15039-0.14844zm0.14844 0.29883h4.832v6.0684h-4.832z" color="#000000" fill="#fff" style="-inkscape-stroke:none"/></g><g transform="matrix(1.2271 0 0 1.4852 -39.753 -87.183)" clip-path="url(#clipPath60)" opacity=".8" stroke-linejoin="round"><path d="m180.14 179.68v-49.197h-5.1318v49.197z" color="#000000" fill="#59f" style="-inkscape-stroke:none"/><path d="m175.01 130.36a0.12211 0.12211 0 0 0-0.12305 0.1211v49.197a0.12211 0.12211 0 0 0 0.12305 0.12305h5.1309a0.12211 0.12211 0 0 0 0.12304-0.12305v-49.197a0.12211 0.12211 0 0 0-0.12304-0.1211zm0.12109 0.24414h4.8887v48.953h-4.8887z" color="#000000" fill="#fff" style="-inkscape-stroke:none"/></g><g transform="matrix(1.2271 0 0 1.2319 -55.766 -41.67)" clip-path="url(#clipPath60)" opacity=".8" stroke-linejoin="round"><path d="m180.14 179.68v-49.197h-5.1318v49.197z" color="#000000" fill="#59f" style="-inkscape-stroke:none"/><path d="m175.01 130.35a0.13408 0.13408 0 0 0-0.13477 0.13282v49.197a0.13408 0.13408 0 0 0 0.13477 0.13477h5.1309a0.13408 0.13408 0 0 0 0.13476-0.13477v-49.197a0.13408 0.13408 0 0 0-0.13476-0.13282zm0.13281 0.26758h4.8633v48.928h-4.8633z" color="#000000" fill="#fff" style="-inkscape-stroke:none"/></g></g><text x="231.2939" y="145.27016" fill="#5599ff" font-family="sans-serif" font-size="36.478px" font-weight="bold" letter-spacing="0px" stroke-width="5.032" word-spacing="0px" style="line-height:1.25" xml:space="preserve"><tspan x="231.2939" y="145.27016" fill="#5599ff" font-family="sans-serif" font-size="36.478px" font-weight="bold" stroke-width="5.032">S</tspan></text></g><text x="376.62247" y="22.482464" fill="#000000" font-family="Arial" font-size="7.7611px" stroke-linejoin="round" stroke-width=".422" text-align="center" text-anchor="middle" xml:space="preserve"><tspan x="376.62247" y="22.482464" fill="#000000" font-family="Arial" font-size="7.7611px" stroke-width=".422">Reads</tspan></text><text x="164.74937" y="85.462807" fill="#000000" font-family="Arial" font-size="4.9389px" stroke-linejoin="bevel" stroke-width=".7" xml:space="preserve"><tspan x="164.74937" y="85.462807" font-family="Arial" font-size="4.9389px" stroke-width=".7">ncRNA?</tspan></text><text x="6.9228382" y="104.11532" fill="#000000" font-family="Arial" font-size="4.9389px" stroke-linejoin="bevel" stroke-width=".7" xml:space="preserve"><tspan x="6.9228382" y="104.11532" stroke-width=".7">Samples</tspan></text></g></svg>
