<?xml version="1.0" encoding="utf-8" standalone="no"?>
<!DOCTYPE svg PUBLIC "-//W3C//DTD SVG 1.1//EN"
  "http://www.w3.org/Graphics/SVG/1.1/DTD/svg11.dtd">
<svg xmlns:xlink="http://www.w3.org/1999/xlink" width="792pt" height="576pt" viewBox="0 0 792 576" xmlns="http://www.w3.org/2000/svg" version="1.1">
 <metadata>
  <rdf:RDF xmlns:dc="http://purl.org/dc/elements/1.1/" xmlns:cc="http://creativecommons.org/ns#" xmlns:rdf="http://www.w3.org/1999/02/22-rdf-syntax-ns#">
   <cc:Work>
    <dc:type rdf:resource="http://purl.org/dc/dcmitype/StillImage"/>
    <dc:date>2024-10-12T02:09:36.524394</dc:date>
    <dc:format>image/svg+xml</dc:format>
    <dc:creator>
     <cc:Agent>
      <dc:title>Matplotlib v3.9.2, https://matplotlib.org/</dc:title>
     </cc:Agent>
    </dc:creator>
   </cc:Work>
  </rdf:RDF>
 </metadata>
 <defs>
  <style type="text/css">*{stroke-linejoin: round; stroke-linecap: butt}</style>
 </defs>
 <g id="figure_1">
  <g id="patch_1">
   <path d="M 0 576 
L 792 576 
L 792 0 
L 0 0 
z
" style="fill: #ffffff"/>
  </g>
  <g id="axes_1">
   <g id="matplotlib.axis_1"/>
   <g id="matplotlib.axis_2"/>
   <g id="patch_2">
    <path d="M 136.702642 62.324389 
C 133.963727 57.580448 130.395244 53.366529 126.16732 49.883528 
C 121.939396 46.400528 117.120305 43.70469 111.939794 41.924538 
C 106.759283 40.144387 101.301008 39.308667 95.825192 39.457222 
C 90.349376 39.605778 84.944442 40.736209 79.868069 42.794623 
C 74.791696 44.853038 70.125858 47.806195 66.092997 51.513306 
C 62.060136 55.220416 58.725376 59.621616 56.2477 64.507079 
C 53.770024 69.392543 52.189442 74.683379 51.581308 80.127349 
C 50.973174 85.571318 51.347308 91.080512 52.685873 96.392279 
C 54.024438 101.704047 56.30582 106.732614 59.421253 111.238245 
C 62.536686 115.743875 66.435863 119.653812 70.932891 122.78165 
C 75.429919 125.909489 80.45218 128.204719 85.760238 129.557918 
C 91.068297 130.911117 96.576438 131.300432 102.022063 130.707303 
C 107.467688 130.114174 112.76286 128.548178 117.655133 126.083975 
C 122.547406 123.619772 126.957779 120.297154 130.675989 116.274524 
C 134.394199 112.251895 137.360204 107.594213 139.4326 102.523532 
C 141.504997 97.452851 142.650319 92.051053 142.813964 86.575666 
L 97.066392 85.208389 
z
" style="fill: #1f77b4; stroke: #ffffff; stroke-linejoin: miter"/>
   </g>
   <g id="patch_3">
    <path d="M 147.252016 85.457273 
C 147.378344 81.230511 146.918275 77.006561 145.88496 72.906106 
C 144.851646 68.80565 143.255018 64.868114 141.140693 61.205997 
L 101.504443 84.09 
z
" style="fill: #ff7f0e; stroke: #ffffff; stroke-linejoin: miter"/>
   </g>
   <g id="text_1">
    <!-- Yes -->
    <g style="fill: #262626" transform="translate(32.102509 100.270043) scale(0.1 -0.1)">
     <defs>
      <path id="DejaVuSans-59" d="M -13 4666 
L 666 4666 
L 1959 2747 
L 3244 4666 
L 3922 4666 
L 2272 2222 
L 2272 0 
L 1638 0 
L 1638 2222 
L -13 4666 
z
" transform="scale(0.015625)"/>
      <path id="DejaVuSans-65" d="M 3597 1894 
L 3597 1613 
L 953 1613 
Q 991 1019 1311 708 
Q 1631 397 2203 397 
Q 2534 397 2845 478 
Q 3156 559 3463 722 
L 3463 178 
Q 3153 47 2828 -22 
Q 2503 -91 2169 -91 
Q 1331 -91 842 396 
Q 353 884 353 1716 
Q 353 2575 817 3079 
Q 1281 3584 2069 3584 
Q 2775 3584 3186 3129 
Q 3597 2675 3597 1894 
z
M 3022 2063 
Q 3016 2534 2758 2815 
Q 2500 3097 2075 3097 
Q 1594 3097 1305 2825 
Q 1016 2553 972 2059 
L 3022 2063 
z
" transform="scale(0.015625)"/>
      <path id="DejaVuSans-73" d="M 2834 3397 
L 2834 2853 
Q 2591 2978 2328 3040 
Q 2066 3103 1784 3103 
Q 1356 3103 1142 2972 
Q 928 2841 928 2578 
Q 928 2378 1081 2264 
Q 1234 2150 1697 2047 
L 1894 2003 
Q 2506 1872 2764 1633 
Q 3022 1394 3022 966 
Q 3022 478 2636 193 
Q 2250 -91 1575 -91 
Q 1294 -91 989 -36 
Q 684 19 347 128 
L 347 722 
Q 666 556 975 473 
Q 1284 391 1588 391 
Q 1994 391 2212 530 
Q 2431 669 2431 922 
Q 2431 1156 2273 1281 
Q 2116 1406 1581 1522 
L 1381 1569 
Q 847 1681 609 1914 
Q 372 2147 372 2553 
Q 372 3047 722 3315 
Q 1072 3584 1716 3584 
Q 2034 3584 2315 3537 
Q 2597 3491 2834 3397 
z
" transform="scale(0.015625)"/>
     </defs>
     <use xlink:href="#DejaVuSans-59"/>
     <use xlink:href="#DejaVuSans-65" x="47.833984"/>
     <use xlink:href="#DejaVuSans-73" x="109.357422"/>
    </g>
   </g>
   <g id="text_2">
    <!-- 91% -->
    <g style="fill: #262626" transform="translate(59.324799 94.678098) scale(0.1 -0.1)">
     <defs>
      <path id="DejaVuSans-39" d="M 703 97 
L 703 672 
Q 941 559 1184 500 
Q 1428 441 1663 441 
Q 2288 441 2617 861 
Q 2947 1281 2994 2138 
Q 2813 1869 2534 1725 
Q 2256 1581 1919 1581 
Q 1219 1581 811 2004 
Q 403 2428 403 3163 
Q 403 3881 828 4315 
Q 1253 4750 1959 4750 
Q 2769 4750 3195 4129 
Q 3622 3509 3622 2328 
Q 3622 1225 3098 567 
Q 2575 -91 1691 -91 
Q 1453 -91 1209 -44 
Q 966 3 703 97 
z
M 1959 2075 
Q 2384 2075 2632 2365 
Q 2881 2656 2881 3163 
Q 2881 3666 2632 3958 
Q 2384 4250 1959 4250 
Q 1534 4250 1286 3958 
Q 1038 3666 1038 3163 
Q 1038 2656 1286 2365 
Q 1534 2075 1959 2075 
z
" transform="scale(0.015625)"/>
      <path id="DejaVuSans-31" d="M 794 531 
L 1825 531 
L 1825 4091 
L 703 3866 
L 703 4441 
L 1819 4666 
L 2450 4666 
L 2450 531 
L 3481 531 
L 3481 0 
L 794 0 
L 794 531 
z
" transform="scale(0.015625)"/>
      <path id="DejaVuSans-25" d="M 4653 2053 
Q 4381 2053 4226 1822 
Q 4072 1591 4072 1178 
Q 4072 772 4226 539 
Q 4381 306 4653 306 
Q 4919 306 5073 539 
Q 5228 772 5228 1178 
Q 5228 1588 5073 1820 
Q 4919 2053 4653 2053 
z
M 4653 2450 
Q 5147 2450 5437 2106 
Q 5728 1763 5728 1178 
Q 5728 594 5436 251 
Q 5144 -91 4653 -91 
Q 4153 -91 3862 251 
Q 3572 594 3572 1178 
Q 3572 1766 3864 2108 
Q 4156 2450 4653 2450 
z
M 1428 4353 
Q 1159 4353 1004 4120 
Q 850 3888 850 3481 
Q 850 3069 1003 2837 
Q 1156 2606 1428 2606 
Q 1700 2606 1854 2837 
Q 2009 3069 2009 3481 
Q 2009 3884 1853 4118 
Q 1697 4353 1428 4353 
z
M 4250 4750 
L 4750 4750 
L 1831 -91 
L 1331 -91 
L 4250 4750 
z
M 1428 4750 
Q 1922 4750 2215 4408 
Q 2509 4066 2509 3481 
Q 2509 2891 2217 2550 
Q 1925 2209 1428 2209 
Q 931 2209 642 2551 
Q 353 2894 353 3481 
Q 353 4063 643 4406 
Q 934 4750 1428 4750 
z
" transform="scale(0.015625)"/>
     </defs>
     <use xlink:href="#DejaVuSans-39"/>
     <use xlink:href="#DejaVuSans-31" x="63.623047"/>
     <use xlink:href="#DejaVuSans-25" x="127.246094"/>
    </g>
   </g>
   <g id="text_3">
    <!-- No -->
    <g style="fill: #262626" transform="translate(150.323013 74.547092) scale(0.1 -0.1)">
     <defs>
      <path id="DejaVuSans-4e" d="M 628 4666 
L 1478 4666 
L 3547 763 
L 3547 4666 
L 4159 4666 
L 4159 0 
L 3309 0 
L 1241 3903 
L 1241 0 
L 628 0 
L 628 4666 
z
" transform="scale(0.015625)"/>
      <path id="DejaVuSans-6f" d="M 1959 3097 
Q 1497 3097 1228 2736 
Q 959 2375 959 1747 
Q 959 1119 1226 758 
Q 1494 397 1959 397 
Q 2419 397 2687 759 
Q 2956 1122 2956 1747 
Q 2956 2369 2687 2733 
Q 2419 3097 1959 3097 
z
M 1959 3584 
Q 2709 3584 3137 3096 
Q 3566 2609 3566 1747 
Q 3566 888 3137 398 
Q 2709 -91 1959 -91 
Q 1206 -91 779 398 
Q 353 888 353 1747 
Q 353 2609 779 3096 
Q 1206 3584 1959 3584 
z
" transform="scale(0.015625)"/>
     </defs>
     <use xlink:href="#DejaVuSans-4e"/>
     <use xlink:href="#DejaVuSans-6f" x="74.804688"/>
    </g>
   </g>
   <g id="text_4">
    <!-- 9% -->
    <g style="fill: #262626" transform="translate(120.200723 80.139039) scale(0.1 -0.1)">
     <use xlink:href="#DejaVuSans-39"/>
     <use xlink:href="#DejaVuSans-25" x="63.623047"/>
    </g>
   </g>
   <g id="text_5">
    <!-- Name -->
    <g style="fill: #262626" transform="translate(83.802568 20.88) scale(0.12 -0.12)">
     <defs>
      <path id="DejaVuSans-61" d="M 2194 1759 
Q 1497 1759 1228 1600 
Q 959 1441 959 1056 
Q 959 750 1161 570 
Q 1363 391 1709 391 
Q 2188 391 2477 730 
Q 2766 1069 2766 1631 
L 2766 1759 
L 2194 1759 
z
M 3341 1997 
L 3341 0 
L 2766 0 
L 2766 531 
Q 2569 213 2275 61 
Q 1981 -91 1556 -91 
Q 1019 -91 701 211 
Q 384 513 384 1019 
Q 384 1609 779 1909 
Q 1175 2209 1959 2209 
L 2766 2209 
L 2766 2266 
Q 2766 2663 2505 2880 
Q 2244 3097 1772 3097 
Q 1472 3097 1187 3025 
Q 903 2953 641 2809 
L 641 3341 
Q 956 3463 1253 3523 
Q 1550 3584 1831 3584 
Q 2591 3584 2966 3190 
Q 3341 2797 3341 1997 
z
" transform="scale(0.015625)"/>
      <path id="DejaVuSans-6d" d="M 3328 2828 
Q 3544 3216 3844 3400 
Q 4144 3584 4550 3584 
Q 5097 3584 5394 3201 
Q 5691 2819 5691 2113 
L 5691 0 
L 5113 0 
L 5113 2094 
Q 5113 2597 4934 2840 
Q 4756 3084 4391 3084 
Q 3944 3084 3684 2787 
Q 3425 2491 3425 1978 
L 3425 0 
L 2847 0 
L 2847 2094 
Q 2847 2600 2669 2842 
Q 2491 3084 2119 3084 
Q 1678 3084 1418 2786 
Q 1159 2488 1159 1978 
L 1159 0 
L 581 0 
L 581 3500 
L 1159 3500 
L 1159 2956 
Q 1356 3278 1631 3431 
Q 1906 3584 2284 3584 
Q 2666 3584 2933 3390 
Q 3200 3197 3328 2828 
z
" transform="scale(0.015625)"/>
     </defs>
     <use xlink:href="#DejaVuSans-4e"/>
     <use xlink:href="#DejaVuSans-61" x="74.804688"/>
     <use xlink:href="#DejaVuSans-6d" x="136.083984"/>
     <use xlink:href="#DejaVuSans-65" x="233.496094"/>
    </g>
   </g>
  </g>
  <g id="axes_2">
   <g id="matplotlib.axis_3"/>
   <g id="matplotlib.axis_4"/>
   <g id="patch_4">
    <path d="M 328.911529 62.324389 
C 326.172614 57.580448 322.604131 53.366529 318.376207 49.883528 
C 314.148283 46.400528 309.329191 43.70469 304.14868 41.924538 
C 298.96817 40.144387 293.509895 39.308667 288.034079 39.457222 
C 282.558263 39.605778 277.153329 40.736209 272.076956 42.794623 
C 267.000583 44.853038 262.334744 47.806195 258.301884 51.513306 
C 254.269023 55.220416 250.934263 59.621616 248.456587 64.507079 
C 245.978911 69.392543 244.398329 74.683379 243.790195 80.127349 
C 243.18206 85.571318 243.556194 91.080512 244.89476 96.392279 
C 246.233325 101.704047 248.514707 106.732614 251.63014 111.238245 
C 254.745573 115.743875 258.64475 119.653812 263.141778 122.78165 
C 267.638806 125.909489 272.661067 128.204719 277.969125 129.557918 
C 283.277184 130.911117 288.785325 131.300432 294.23095 130.707303 
C 299.676575 130.114174 304.971747 128.548178 309.86402 126.083975 
C 314.756293 123.619772 319.166666 120.297154 322.884876 116.274524 
C 326.603086 112.251895 329.569091 107.594213 331.641487 102.523532 
C 333.713883 97.452851 334.859206 92.051053 335.022851 86.575666 
L 289.275278 85.208389 
z
" style="fill: #1f77b4; stroke: #ffffff; stroke-linejoin: miter"/>
   </g>
   <g id="patch_5">
    <path d="M 339.460903 85.457273 
C 339.587231 81.230511 339.127161 77.006561 338.093847 72.906106 
C 337.060532 68.80565 335.463905 64.868114 333.34958 61.205997 
L 293.71333 84.09 
z
" style="fill: #ff7f0e; stroke: #ffffff; stroke-linejoin: miter"/>
   </g>
   <g id="text_6">
    <!-- Yes -->
    <g style="fill: #262626" transform="translate(224.311395 100.270043) scale(0.1 -0.1)">
     <use xlink:href="#DejaVuSans-59"/>
     <use xlink:href="#DejaVuSans-65" x="47.833984"/>
     <use xlink:href="#DejaVuSans-73" x="109.357422"/>
    </g>
   </g>
   <g id="text_7">
    <!-- 91% -->
    <g style="fill: #262626" transform="translate(251.533686 94.678098) scale(0.1 -0.1)">
     <use xlink:href="#DejaVuSans-39"/>
     <use xlink:href="#DejaVuSans-31" x="63.623047"/>
     <use xlink:href="#DejaVuSans-25" x="127.246094"/>
    </g>
   </g>
   <g id="text_8">
    <!-- No -->
    <g style="fill: #262626" transform="translate(342.5319 74.547092) scale(0.1 -0.1)">
     <use xlink:href="#DejaVuSans-4e"/>
     <use xlink:href="#DejaVuSans-6f" x="74.804688"/>
    </g>
   </g>
   <g id="text_9">
    <!-- 9% -->
    <g style="fill: #262626" transform="translate(312.40961 80.139039) scale(0.1 -0.1)">
     <use xlink:href="#DejaVuSans-39"/>
     <use xlink:href="#DejaVuSans-25" x="63.623047"/>
    </g>
   </g>
   <g id="text_10">
    <!-- Homepage -->
    <g style="fill: #262626" transform="translate(261.006768 20.88) scale(0.12 -0.12)">
     <defs>
      <path id="DejaVuSans-48" d="M 628 4666 
L 1259 4666 
L 1259 2753 
L 3553 2753 
L 3553 4666 
L 4184 4666 
L 4184 0 
L 3553 0 
L 3553 2222 
L 1259 2222 
L 1259 0 
L 628 0 
L 628 4666 
z
" transform="scale(0.015625)"/>
      <path id="DejaVuSans-70" d="M 1159 525 
L 1159 -1331 
L 581 -1331 
L 581 3500 
L 1159 3500 
L 1159 2969 
Q 1341 3281 1617 3432 
Q 1894 3584 2278 3584 
Q 2916 3584 3314 3078 
Q 3713 2572 3713 1747 
Q 3713 922 3314 415 
Q 2916 -91 2278 -91 
Q 1894 -91 1617 61 
Q 1341 213 1159 525 
z
M 3116 1747 
Q 3116 2381 2855 2742 
Q 2594 3103 2138 3103 
Q 1681 3103 1420 2742 
Q 1159 2381 1159 1747 
Q 1159 1113 1420 752 
Q 1681 391 2138 391 
Q 2594 391 2855 752 
Q 3116 1113 3116 1747 
z
" transform="scale(0.015625)"/>
      <path id="DejaVuSans-67" d="M 2906 1791 
Q 2906 2416 2648 2759 
Q 2391 3103 1925 3103 
Q 1463 3103 1205 2759 
Q 947 2416 947 1791 
Q 947 1169 1205 825 
Q 1463 481 1925 481 
Q 2391 481 2648 825 
Q 2906 1169 2906 1791 
z
M 3481 434 
Q 3481 -459 3084 -895 
Q 2688 -1331 1869 -1331 
Q 1566 -1331 1297 -1286 
Q 1028 -1241 775 -1147 
L 775 -588 
Q 1028 -725 1275 -790 
Q 1522 -856 1778 -856 
Q 2344 -856 2625 -561 
Q 2906 -266 2906 331 
L 2906 616 
Q 2728 306 2450 153 
Q 2172 0 1784 0 
Q 1141 0 747 490 
Q 353 981 353 1791 
Q 353 2603 747 3093 
Q 1141 3584 1784 3584 
Q 2172 3584 2450 3431 
Q 2728 3278 2906 2969 
L 2906 3500 
L 3481 3500 
L 3481 434 
z
" transform="scale(0.015625)"/>
     </defs>
     <use xlink:href="#DejaVuSans-48"/>
     <use xlink:href="#DejaVuSans-6f" x="75.195312"/>
     <use xlink:href="#DejaVuSans-6d" x="136.376953"/>
     <use xlink:href="#DejaVuSans-65" x="233.789062"/>
     <use xlink:href="#DejaVuSans-70" x="295.3125"/>
     <use xlink:href="#DejaVuSans-61" x="358.789062"/>
     <use xlink:href="#DejaVuSans-67" x="420.068359"/>
     <use xlink:href="#DejaVuSans-65" x="483.544922"/>
    </g>
   </g>
  </g>
  <g id="axes_3">
   <g id="matplotlib.axis_5"/>
   <g id="matplotlib.axis_6"/>
   <g id="patch_6">
    <path d="M 521.120416 62.324389 
C 518.3815 57.580448 514.813018 53.366529 510.585094 49.883528 
C 506.35717 46.400528 501.538078 43.70469 496.357567 41.924538 
C 491.177056 40.144387 485.718782 39.308667 480.242966 39.457222 
C 474.767149 39.605778 469.362216 40.736209 464.285842 42.794623 
C 459.209469 44.853038 454.543631 47.806195 450.51077 51.513306 
C 446.47791 55.220416 443.143149 59.621616 440.665473 64.507079 
C 438.187797 69.392543 436.607215 74.683379 435.999081 80.127349 
C 435.390947 85.571318 435.765081 91.080512 437.103647 96.392279 
C 438.442212 101.704047 440.723593 106.732614 443.839027 111.238245 
C 446.95446 115.743875 450.853637 119.653812 455.350665 122.78165 
C 459.847693 125.909489 464.869953 128.204719 470.178012 129.557918 
C 475.486071 130.911117 480.994212 131.300432 486.439837 130.707303 
C 491.885462 130.114174 497.180634 128.548178 502.072907 126.083975 
C 506.96518 123.619772 511.375553 120.297154 515.093763 116.274524 
C 518.811973 112.251895 521.777978 107.594213 523.850374 102.523532 
C 525.92277 97.452851 527.068092 92.051053 527.231738 86.575666 
L 481.484165 85.208389 
z
" style="fill: #1f77b4; stroke: #ffffff; stroke-linejoin: miter"/>
   </g>
   <g id="patch_7">
    <path d="M 531.66979 85.457273 
C 531.796117 81.230511 531.336048 77.006561 530.302734 72.906106 
C 529.269419 68.80565 527.672792 64.868114 525.558467 61.205997 
L 485.922217 84.09 
z
" style="fill: #ff7f0e; stroke: #ffffff; stroke-linejoin: miter"/>
   </g>
   <g id="text_11">
    <!-- Yes -->
    <g style="fill: #262626" transform="translate(416.520282 100.270043) scale(0.1 -0.1)">
     <use xlink:href="#DejaVuSans-59"/>
     <use xlink:href="#DejaVuSans-65" x="47.833984"/>
     <use xlink:href="#DejaVuSans-73" x="109.357422"/>
    </g>
   </g>
   <g id="text_12">
    <!-- 91% -->
    <g style="fill: #262626" transform="translate(443.742573 94.678098) scale(0.1 -0.1)">
     <use xlink:href="#DejaVuSans-39"/>
     <use xlink:href="#DejaVuSans-31" x="63.623047"/>
     <use xlink:href="#DejaVuSans-25" x="127.246094"/>
    </g>
   </g>
   <g id="text_13">
    <!-- No -->
    <g style="fill: #262626" transform="translate(534.740786 74.547092) scale(0.1 -0.1)">
     <use xlink:href="#DejaVuSans-4e"/>
     <use xlink:href="#DejaVuSans-6f" x="74.804688"/>
    </g>
   </g>
   <g id="text_14">
    <!-- 9% -->
    <g style="fill: #262626" transform="translate(504.618496 80.139039) scale(0.1 -0.1)">
     <use xlink:href="#DejaVuSans-39"/>
     <use xlink:href="#DejaVuSans-25" x="63.623047"/>
    </g>
   </g>
   <g id="text_15">
    <!-- Description -->
    <g style="fill: #262626" transform="translate(451.750342 20.88) scale(0.12 -0.12)">
     <defs>
      <path id="DejaVuSans-44" d="M 1259 4147 
L 1259 519 
L 2022 519 
Q 2988 519 3436 956 
Q 3884 1394 3884 2338 
Q 3884 3275 3436 3711 
Q 2988 4147 2022 4147 
L 1259 4147 
z
M 628 4666 
L 1925 4666 
Q 3281 4666 3915 4102 
Q 4550 3538 4550 2338 
Q 4550 1131 3912 565 
Q 3275 0 1925 0 
L 628 0 
L 628 4666 
z
" transform="scale(0.015625)"/>
      <path id="DejaVuSans-63" d="M 3122 3366 
L 3122 2828 
Q 2878 2963 2633 3030 
Q 2388 3097 2138 3097 
Q 1578 3097 1268 2742 
Q 959 2388 959 1747 
Q 959 1106 1268 751 
Q 1578 397 2138 397 
Q 2388 397 2633 464 
Q 2878 531 3122 666 
L 3122 134 
Q 2881 22 2623 -34 
Q 2366 -91 2075 -91 
Q 1284 -91 818 406 
Q 353 903 353 1747 
Q 353 2603 823 3093 
Q 1294 3584 2113 3584 
Q 2378 3584 2631 3529 
Q 2884 3475 3122 3366 
z
" transform="scale(0.015625)"/>
      <path id="DejaVuSans-72" d="M 2631 2963 
Q 2534 3019 2420 3045 
Q 2306 3072 2169 3072 
Q 1681 3072 1420 2755 
Q 1159 2438 1159 1844 
L 1159 0 
L 581 0 
L 581 3500 
L 1159 3500 
L 1159 2956 
Q 1341 3275 1631 3429 
Q 1922 3584 2338 3584 
Q 2397 3584 2469 3576 
Q 2541 3569 2628 3553 
L 2631 2963 
z
" transform="scale(0.015625)"/>
      <path id="DejaVuSans-69" d="M 603 3500 
L 1178 3500 
L 1178 0 
L 603 0 
L 603 3500 
z
M 603 4863 
L 1178 4863 
L 1178 4134 
L 603 4134 
L 603 4863 
z
" transform="scale(0.015625)"/>
      <path id="DejaVuSans-74" d="M 1172 4494 
L 1172 3500 
L 2356 3500 
L 2356 3053 
L 1172 3053 
L 1172 1153 
Q 1172 725 1289 603 
Q 1406 481 1766 481 
L 2356 481 
L 2356 0 
L 1766 0 
Q 1100 0 847 248 
Q 594 497 594 1153 
L 594 3053 
L 172 3053 
L 172 3500 
L 594 3500 
L 594 4494 
L 1172 4494 
z
" transform="scale(0.015625)"/>
      <path id="DejaVuSans-6e" d="M 3513 2113 
L 3513 0 
L 2938 0 
L 2938 2094 
Q 2938 2591 2744 2837 
Q 2550 3084 2163 3084 
Q 1697 3084 1428 2787 
Q 1159 2491 1159 1978 
L 1159 0 
L 581 0 
L 581 3500 
L 1159 3500 
L 1159 2956 
Q 1366 3272 1645 3428 
Q 1925 3584 2291 3584 
Q 2894 3584 3203 3211 
Q 3513 2838 3513 2113 
z
" transform="scale(0.015625)"/>
     </defs>
     <use xlink:href="#DejaVuSans-44"/>
     <use xlink:href="#DejaVuSans-65" x="77.001953"/>
     <use xlink:href="#DejaVuSans-73" x="138.525391"/>
     <use xlink:href="#DejaVuSans-63" x="190.625"/>
     <use xlink:href="#DejaVuSans-72" x="245.605469"/>
     <use xlink:href="#DejaVuSans-69" x="286.71875"/>
     <use xlink:href="#DejaVuSans-70" x="314.501953"/>
     <use xlink:href="#DejaVuSans-74" x="377.978516"/>
     <use xlink:href="#DejaVuSans-69" x="417.1875"/>
     <use xlink:href="#DejaVuSans-6f" x="444.970703"/>
     <use xlink:href="#DejaVuSans-6e" x="506.152344"/>
    </g>
   </g>
  </g>
  <g id="axes_4">
   <g id="matplotlib.axis_7"/>
   <g id="matplotlib.axis_8"/>
   <g id="patch_8">
    <path d="M 713.296448 62.184824 
C 710.587641 57.493031 707.067165 53.319258 702.899239 49.858196 
C 698.731313 46.397134 693.981766 43.703449 688.872149 41.902791 
C 683.762532 40.102133 678.373547 39.222943 672.956572 39.306233 
C 667.539596 39.389522 662.180189 40.433974 657.128346 42.39087 
C 652.076503 44.347766 647.412016 47.186198 643.352467 50.773762 
C 639.292917 54.361326 635.902424 58.641359 633.33914 63.414213 
C 630.775857 68.187067 629.080269 73.377358 628.331471 78.742976 
C 627.582672 84.108594 627.79249 89.564793 628.951135 94.857061 
C 630.109781 100.149328 632.198956 105.194076 635.121206 109.755985 
C 638.043456 114.317894 641.752627 118.32491 646.075699 121.590122 
C 650.398771 124.855334 655.267463 127.327168 660.454669 128.890323 
C 665.641875 130.453478 671.065665 131.083265 676.473039 130.750305 
C 681.880413 130.417345 687.185965 129.126899 692.142209 126.93916 
C 697.098453 124.751421 701.627109 121.700944 705.51693 117.930023 
C 709.406752 114.159101 712.596301 109.727295 714.936798 104.841332 
C 717.277294 99.95537 718.731771 94.692421 719.232382 89.297984 
L 673.660198 85.068824 
z
" style="fill: #1f77b4; stroke: #ffffff; stroke-linejoin: miter"/>
   </g>
   <g id="patch_9">
    <path d="M 723.703289 88.319159 
C 724.138435 83.630158 723.847297 78.901963 722.840168 74.301771 
C 721.83304 69.701578 720.121938 65.284259 717.767365 61.206016 
L 678.131104 84.09 
z
" style="fill: #ff7f0e; stroke: #ffffff; stroke-linejoin: miter"/>
   </g>
   <g id="text_16">
    <!-- Yes -->
    <g style="fill: #262626" transform="translate(608.334916 98.595258) scale(0.1 -0.1)">
     <use xlink:href="#DejaVuSans-59"/>
     <use xlink:href="#DejaVuSans-65" x="47.833984"/>
     <use xlink:href="#DejaVuSans-73" x="109.357422"/>
    </g>
   </g>
   <g id="text_17">
    <!-- 90% -->
    <g style="fill: #262626" transform="translate(635.721479 93.70114) scale(0.1 -0.1)">
     <defs>
      <path id="DejaVuSans-30" d="M 2034 4250 
Q 1547 4250 1301 3770 
Q 1056 3291 1056 2328 
Q 1056 1369 1301 889 
Q 1547 409 2034 409 
Q 2525 409 2770 889 
Q 3016 1369 3016 2328 
Q 3016 3291 2770 3770 
Q 2525 4250 2034 4250 
z
M 2034 4750 
Q 2819 4750 3233 4129 
Q 3647 3509 3647 2328 
Q 3647 1150 3233 529 
Q 2819 -91 2034 -91 
Q 1250 -91 836 529 
Q 422 1150 422 2328 
Q 422 3509 836 4129 
Q 1250 4750 2034 4750 
z
" transform="scale(0.015625)"/>
     </defs>
     <use xlink:href="#DejaVuSans-39"/>
     <use xlink:href="#DejaVuSans-30" x="63.623047"/>
     <use xlink:href="#DejaVuSans-25" x="127.246094"/>
    </g>
   </g>
   <g id="text_18">
    <!-- No -->
    <g style="fill: #262626" transform="translate(727.311074 76.082323) scale(0.1 -0.1)">
     <use xlink:href="#DejaVuSans-4e"/>
     <use xlink:href="#DejaVuSans-6f" x="74.804688"/>
    </g>
   </g>
   <g id="text_19">
    <!-- 10% -->
    <g style="fill: #262626" transform="translate(693.843261 80.976438) scale(0.1 -0.1)">
     <use xlink:href="#DejaVuSans-31"/>
     <use xlink:href="#DejaVuSans-30" x="63.623047"/>
     <use xlink:href="#DejaVuSans-25" x="127.246094"/>
    </g>
   </g>
   <g id="text_20">
    <!-- Example -->
    <g style="fill: #262626" transform="translate(652.099541 20.88) scale(0.12 -0.12)">
     <defs>
      <path id="DejaVuSans-45" d="M 628 4666 
L 3578 4666 
L 3578 4134 
L 1259 4134 
L 1259 2753 
L 3481 2753 
L 3481 2222 
L 1259 2222 
L 1259 531 
L 3634 531 
L 3634 0 
L 628 0 
L 628 4666 
z
" transform="scale(0.015625)"/>
      <path id="DejaVuSans-78" d="M 3513 3500 
L 2247 1797 
L 3578 0 
L 2900 0 
L 1881 1375 
L 863 0 
L 184 0 
L 1544 1831 
L 300 3500 
L 978 3500 
L 1906 2253 
L 2834 3500 
L 3513 3500 
z
" transform="scale(0.015625)"/>
      <path id="DejaVuSans-6c" d="M 603 4863 
L 1178 4863 
L 1178 0 
L 603 0 
L 603 4863 
z
" transform="scale(0.015625)"/>
     </defs>
     <use xlink:href="#DejaVuSans-45"/>
     <use xlink:href="#DejaVuSans-78" x="63.183594"/>
     <use xlink:href="#DejaVuSans-61" x="122.363281"/>
     <use xlink:href="#DejaVuSans-6d" x="183.642578"/>
     <use xlink:href="#DejaVuSans-70" x="281.054688"/>
     <use xlink:href="#DejaVuSans-6c" x="344.53125"/>
     <use xlink:href="#DejaVuSans-65" x="372.314453"/>
    </g>
   </g>
  </g>
  <g id="axes_5">
   <g id="matplotlib.axis_9"/>
   <g id="matplotlib.axis_10"/>
   <g id="patch_10">
    <path d="M 136.71524 201.338758 
C 134.460802 197.433957 131.641662 193.88365 128.349287 190.803028 
C 125.056912 187.722407 121.327301 185.145153 117.281463 183.154889 
C 113.235625 181.164624 108.917796 179.783108 104.46807 179.055166 
C 100.018345 178.327224 95.485374 178.260815 91.016233 178.858093 
C 86.547092 179.455371 82.190646 180.709806 78.088241 182.580696 
C 73.985836 184.451587 70.182326 186.918478 66.80112 189.901329 
C 63.419914 192.884181 60.497979 196.35038 58.13012 200.187462 
C 55.762262 204.024545 53.974368 208.190559 52.824449 212.550335 
C 51.67453 216.91011 51.175157 221.41598 51.342535 225.921748 
C 51.509913 230.427516 52.34221 234.883918 53.812422 239.146362 
C 55.282634 243.408807 57.374687 247.430691 60.020702 251.081521 
C 62.666717 254.732352 65.837765 257.972212 69.430957 260.695983 
C 73.024149 263.419753 77.000201 265.597654 81.230105 267.159021 
C 85.46001 268.720388 89.897519 269.64815 94.398656 269.912206 
C 98.899793 270.176261 103.415344 269.773723 107.798798 268.717651 
C 112.182252 267.661579 116.385684 265.963521 120.272708 263.678571 
L 97.078989 224.222758 
z
" style="fill: #1f77b4; stroke: #ffffff; stroke-linejoin: miter"/>
   </g>
   <g id="patch_11">
    <path d="M 124.698168 264.84581 
C 135.105053 258.728221 142.680262 248.735019 145.758984 237.062418 
C 148.837707 225.389816 147.176596 212.960498 141.140704 202.506016 
L 101.504443 225.39 
z
" style="fill: #ff7f0e; stroke: #ffffff; stroke-linejoin: miter"/>
   </g>
   <g id="text_21">
    <!-- Yes -->
    <g style="fill: #262626" transform="translate(32.253682 214.142468) scale(0.1 -0.1)">
     <use xlink:href="#DejaVuSans-59"/>
     <use xlink:href="#DejaVuSans-65" x="47.833984"/>
     <use xlink:href="#DejaVuSans-73" x="109.357422"/>
    </g>
   </g>
   <g id="text_22">
    <!-- 75% -->
    <g style="fill: #262626" transform="translate(59.412984 219.978679) scale(0.1 -0.1)">
     <defs>
      <path id="DejaVuSans-37" d="M 525 4666 
L 3525 4666 
L 3525 4397 
L 1831 0 
L 1172 0 
L 2766 4134 
L 525 4134 
L 525 4666 
z
" transform="scale(0.015625)"/>
      <path id="DejaVuSans-35" d="M 691 4666 
L 3169 4666 
L 3169 4134 
L 1269 4134 
L 1269 2991 
Q 1406 3038 1543 3061 
Q 1681 3084 1819 3084 
Q 2600 3084 3056 2656 
Q 3513 2228 3513 1497 
Q 3513 744 3044 326 
Q 2575 -91 1722 -91 
Q 1428 -91 1123 -41 
Q 819 9 494 109 
L 494 744 
Q 775 591 1075 516 
Q 1375 441 1709 441 
Q 2250 441 2565 725 
Q 2881 1009 2881 1497 
Q 2881 1984 2565 2268 
Q 2250 2553 1709 2553 
Q 1456 2553 1204 2497 
Q 953 2441 691 2322 
L 691 4666 
z
" transform="scale(0.015625)"/>
     </defs>
     <use xlink:href="#DejaVuSans-37"/>
     <use xlink:href="#DejaVuSans-35" x="63.623047"/>
     <use xlink:href="#DejaVuSans-25" x="127.246094"/>
    </g>
   </g>
   <g id="text_23">
    <!-- No -->
    <g style="fill: #262626" transform="translate(150.184439 240.989035) scale(0.1 -0.1)">
     <use xlink:href="#DejaVuSans-4e"/>
     <use xlink:href="#DejaVuSans-6f" x="74.804688"/>
    </g>
   </g>
   <g id="text_24">
    <!-- 25% -->
    <g style="fill: #262626" transform="translate(116.943887 235.152826) scale(0.1 -0.1)">
     <defs>
      <path id="DejaVuSans-32" d="M 1228 531 
L 3431 531 
L 3431 0 
L 469 0 
L 469 531 
Q 828 903 1448 1529 
Q 2069 2156 2228 2338 
Q 2531 2678 2651 2914 
Q 2772 3150 2772 3378 
Q 2772 3750 2511 3984 
Q 2250 4219 1831 4219 
Q 1534 4219 1204 4116 
Q 875 4013 500 3803 
L 500 4441 
Q 881 4594 1212 4672 
Q 1544 4750 1819 4750 
Q 2544 4750 2975 4387 
Q 3406 4025 3406 3419 
Q 3406 3131 3298 2873 
Q 3191 2616 2906 2266 
Q 2828 2175 2409 1742 
Q 1991 1309 1228 531 
z
" transform="scale(0.015625)"/>
     </defs>
     <use xlink:href="#DejaVuSans-32"/>
     <use xlink:href="#DejaVuSans-35" x="63.623047"/>
     <use xlink:href="#DejaVuSans-25" x="127.246094"/>
    </g>
   </g>
   <g id="text_25">
    <!-- Pattern -->
    <g style="fill: #262626" transform="translate(79.919443 162.18) scale(0.12 -0.12)">
     <defs>
      <path id="DejaVuSans-50" d="M 1259 4147 
L 1259 2394 
L 2053 2394 
Q 2494 2394 2734 2622 
Q 2975 2850 2975 3272 
Q 2975 3691 2734 3919 
Q 2494 4147 2053 4147 
L 1259 4147 
z
M 628 4666 
L 2053 4666 
Q 2838 4666 3239 4311 
Q 3641 3956 3641 3272 
Q 3641 2581 3239 2228 
Q 2838 1875 2053 1875 
L 1259 1875 
L 1259 0 
L 628 0 
L 628 4666 
z
" transform="scale(0.015625)"/>
     </defs>
     <use xlink:href="#DejaVuSans-50"/>
     <use xlink:href="#DejaVuSans-61" x="55.802734"/>
     <use xlink:href="#DejaVuSans-74" x="117.082031"/>
     <use xlink:href="#DejaVuSans-74" x="156.291016"/>
     <use xlink:href="#DejaVuSans-65" x="195.5"/>
     <use xlink:href="#DejaVuSans-72" x="257.023438"/>
     <use xlink:href="#DejaVuSans-6e" x="296.386719"/>
    </g>
   </g>
  </g>
  <g id="axes_6">
   <g id="matplotlib.axis_11"/>
   <g id="matplotlib.axis_12"/>
   <g id="patch_12">
    <path d="M 328.805587 203.053009 
C 326.188744 198.520504 322.81373 194.470263 318.827602 191.078766 
C 314.841474 187.687269 310.30298 185.004499 305.409875 183.147353 
C 300.51677 181.290206 295.341169 180.286053 290.108585 180.178648 
C 284.876001 180.071242 279.663553 180.862167 274.698361 182.51696 
C 269.733169 184.171752 265.08841 186.666024 260.966469 189.891093 
C 256.844528 193.116162 253.306153 197.024497 250.505522 201.445801 
C 247.704891 205.867106 245.683278 210.736218 244.528772 215.84098 
C 243.374265 220.945741 243.10388 226.210915 243.729397 231.407087 
C 244.354914 236.603258 245.867115 241.653845 248.200109 246.338779 
C 250.533103 251.023714 253.652506 255.273949 257.422397 258.904291 
C 261.192289 262.534634 265.557109 265.491579 270.326669 267.646285 
C 275.09623 269.800992 280.200238 271.121703 285.416298 271.550873 
C 290.632359 271.980042 295.883596 271.511344 300.941201 270.165202 
C 305.998807 268.819059 310.78824 266.615312 315.100813 263.649982 
C 319.413387 260.684653 323.185541 257.001444 326.252914 252.760844 
C 329.320287 248.520243 331.637672 243.784749 333.104093 238.760699 
L 289.169336 225.937009 
z
" style="fill: #1f77b4; stroke: #ffffff; stroke-linejoin: miter"/>
   </g>
   <g id="patch_13">
    <path d="M 337.648083 238.213697 
C 339.379972 232.280142 339.892023 226.056772 339.153271 219.919936 
C 338.414519 213.7831 336.440161 207.859044 333.349591 202.506016 
L 293.71333 225.39 
z
" style="fill: #ff7f0e; stroke: #ffffff; stroke-linejoin: miter"/>
   </g>
   <g id="text_26">
    <!-- Yes -->
    <g style="fill: #262626" transform="translate(223.040093 234.713486) scale(0.1 -0.1)">
     <use xlink:href="#DejaVuSans-59"/>
     <use xlink:href="#DejaVuSans-65" x="47.833984"/>
     <use xlink:href="#DejaVuSans-73" x="109.357422"/>
    </g>
   </g>
   <g id="text_27">
    <!-- 87% -->
    <g style="fill: #262626" transform="translate(250.792093 231.97844) scale(0.1 -0.1)">
     <defs>
      <path id="DejaVuSans-38" d="M 2034 2216 
Q 1584 2216 1326 1975 
Q 1069 1734 1069 1313 
Q 1069 891 1326 650 
Q 1584 409 2034 409 
Q 2484 409 2743 651 
Q 3003 894 3003 1313 
Q 3003 1734 2745 1975 
Q 2488 2216 2034 2216 
z
M 1403 2484 
Q 997 2584 770 2862 
Q 544 3141 544 3541 
Q 544 4100 942 4425 
Q 1341 4750 2034 4750 
Q 2731 4750 3128 4425 
Q 3525 4100 3525 3541 
Q 3525 3141 3298 2862 
Q 3072 2584 2669 2484 
Q 3125 2378 3379 2068 
Q 3634 1759 3634 1313 
Q 3634 634 3220 271 
Q 2806 -91 2034 -91 
Q 1263 -91 848 271 
Q 434 634 434 1313 
Q 434 1759 690 2068 
Q 947 2378 1403 2484 
z
M 1172 3481 
Q 1172 3119 1398 2916 
Q 1625 2713 2034 2713 
Q 2441 2713 2670 2916 
Q 2900 3119 2900 3481 
Q 2900 3844 2670 4047 
Q 2441 4250 2034 4250 
Q 1625 4250 1398 4047 
Q 1172 3844 1172 3481 
z
" transform="scale(0.015625)"/>
     </defs>
     <use xlink:href="#DejaVuSans-38"/>
     <use xlink:href="#DejaVuSans-37" x="63.623047"/>
     <use xlink:href="#DejaVuSans-25" x="127.246094"/>
    </g>
   </g>
   <g id="text_28">
    <!-- No -->
    <g style="fill: #262626" transform="translate(343.697265 222.132304) scale(0.1 -0.1)">
     <use xlink:href="#DejaVuSans-4e"/>
     <use xlink:href="#DejaVuSans-6f" x="74.804688"/>
    </g>
   </g>
   <g id="text_29">
    <!-- 13% -->
    <g style="fill: #262626" transform="translate(309.864013 224.867337) scale(0.1 -0.1)">
     <defs>
      <path id="DejaVuSans-33" d="M 2597 2516 
Q 3050 2419 3304 2112 
Q 3559 1806 3559 1356 
Q 3559 666 3084 287 
Q 2609 -91 1734 -91 
Q 1441 -91 1130 -33 
Q 819 25 488 141 
L 488 750 
Q 750 597 1062 519 
Q 1375 441 1716 441 
Q 2309 441 2620 675 
Q 2931 909 2931 1356 
Q 2931 1769 2642 2001 
Q 2353 2234 1838 2234 
L 1294 2234 
L 1294 2753 
L 1863 2753 
Q 2328 2753 2575 2939 
Q 2822 3125 2822 3475 
Q 2822 3834 2567 4026 
Q 2313 4219 1838 4219 
Q 1578 4219 1281 4162 
Q 984 4106 628 3988 
L 628 4550 
Q 988 4650 1302 4700 
Q 1616 4750 1894 4750 
Q 2613 4750 3031 4423 
Q 3450 4097 3450 3541 
Q 3450 3153 3228 2886 
Q 3006 2619 2597 2516 
z
" transform="scale(0.015625)"/>
     </defs>
     <use xlink:href="#DejaVuSans-31"/>
     <use xlink:href="#DejaVuSans-33" x="63.623047"/>
     <use xlink:href="#DejaVuSans-25" x="127.246094"/>
    </g>
   </g>
   <g id="text_30">
    <!-- Provider -->
    <g style="fill: #262626" transform="translate(269.01208 162.18) scale(0.12 -0.12)">
     <defs>
      <path id="DejaVuSans-76" d="M 191 3500 
L 800 3500 
L 1894 563 
L 2988 3500 
L 3597 3500 
L 2284 0 
L 1503 0 
L 191 3500 
z
" transform="scale(0.015625)"/>
      <path id="DejaVuSans-64" d="M 2906 2969 
L 2906 4863 
L 3481 4863 
L 3481 0 
L 2906 0 
L 2906 525 
Q 2725 213 2448 61 
Q 2172 -91 1784 -91 
Q 1150 -91 751 415 
Q 353 922 353 1747 
Q 353 2572 751 3078 
Q 1150 3584 1784 3584 
Q 2172 3584 2448 3432 
Q 2725 3281 2906 2969 
z
M 947 1747 
Q 947 1113 1208 752 
Q 1469 391 1925 391 
Q 2381 391 2643 752 
Q 2906 1113 2906 1747 
Q 2906 2381 2643 2742 
Q 2381 3103 1925 3103 
Q 1469 3103 1208 2742 
Q 947 2381 947 1747 
z
" transform="scale(0.015625)"/>
     </defs>
     <use xlink:href="#DejaVuSans-50"/>
     <use xlink:href="#DejaVuSans-72" x="58.552734"/>
     <use xlink:href="#DejaVuSans-6f" x="97.416016"/>
     <use xlink:href="#DejaVuSans-76" x="158.597656"/>
     <use xlink:href="#DejaVuSans-69" x="217.777344"/>
     <use xlink:href="#DejaVuSans-64" x="245.560547"/>
     <use xlink:href="#DejaVuSans-65" x="309.037109"/>
     <use xlink:href="#DejaVuSans-72" x="370.560547"/>
    </g>
   </g>
  </g>
  <g id="axes_7">
   <g id="matplotlib.axis_13"/>
   <g id="matplotlib.axis_14"/>
   <g id="patch_14">
    <path d="M 527.664042 198.4423 
C 523.293547 190.872382 516.84458 184.710628 509.083534 180.689303 
C 501.322488 176.667978 492.569485 174.952949 483.864731 175.74803 
L 488.027791 221.3263 
z
" style="fill: #1f77b4; stroke: #ffffff; stroke-linejoin: miter"/>
   </g>
   <g id="patch_15">
    <path d="M 481.759157 179.811729 
C 476.86333 180.258908 472.071381 181.492012 467.56782 183.463565 
C 463.064258 185.435119 458.907633 188.119489 455.257997 191.41331 
C 451.608362 194.707132 448.513171 198.56758 446.09159 202.84602 
C 443.670009 207.12446 441.953531 211.76526 441.008243 216.589731 
C 440.062955 221.414202 439.901147 226.359617 440.529053 231.235561 
C 441.156959 236.111505 442.566414 240.854579 444.703146 245.28216 
C 446.839879 249.709739 449.676116 253.764264 453.102638 257.289607 
C 456.529159 260.81495 460.501412 263.765271 464.866468 266.026992 
C 469.231524 268.288713 473.93263 269.83242 478.788756 270.598668 
C 483.644882 271.364912 488.592887 271.343743 493.442278 270.535968 
C 498.291669 269.728195 502.979393 268.144318 507.324935 265.845328 
C 511.670476 263.546337 515.617355 260.562115 519.013583 257.00758 
C 522.40981 253.453045 525.211233 249.374412 527.31 244.92871 
C 529.408767 240.483007 530.777583 235.728034 531.36374 230.846896 
C 531.949899 225.965758 531.745775 221.021919 530.75924 216.205713 
C 529.772702 211.389508 528.01657 206.763557 525.558467 202.505997 
L 485.922217 225.39 
z
" style="fill: #ff7f0e; stroke: #ffffff; stroke-linejoin: miter"/>
   </g>
   <g id="text_31">
    <!-- Yes -->
    <g style="fill: #262626" transform="translate(511.189108 179.384978) scale(0.1 -0.1)">
     <use xlink:href="#DejaVuSans-59"/>
     <use xlink:href="#DejaVuSans-65" x="47.833984"/>
     <use xlink:href="#DejaVuSans-73" x="109.357422"/>
    </g>
   </g>
   <g id="text_32">
    <!-- 18% -->
    <g style="fill: #262626" transform="translate(489.547955 199.703477) scale(0.1 -0.1)">
     <use xlink:href="#DejaVuSans-31"/>
     <use xlink:href="#DejaVuSans-38" x="63.623047"/>
     <use xlink:href="#DejaVuSans-25" x="127.246094"/>
    </g>
   </g>
   <g id="text_33">
    <!-- No -->
    <g style="fill: #262626" transform="translate(449.160915 272.850079) scale(0.1 -0.1)">
     <use xlink:href="#DejaVuSans-4e"/>
     <use xlink:href="#DejaVuSans-6f" x="74.804688"/>
    </g>
   </g>
   <g id="text_34">
    <!-- 82% -->
    <g style="fill: #262626" transform="translate(462.175498 252.531577) scale(0.1 -0.1)">
     <use xlink:href="#DejaVuSans-38"/>
     <use xlink:href="#DejaVuSans-32" x="63.623047"/>
     <use xlink:href="#DejaVuSans-25" x="127.246094"/>
    </g>
   </g>
   <g id="text_35">
    <!-- License -->
    <g style="fill: #262626" transform="translate(463.30128 162.18) scale(0.12 -0.12)">
     <defs>
      <path id="DejaVuSans-4c" d="M 628 4666 
L 1259 4666 
L 1259 531 
L 3531 531 
L 3531 0 
L 628 0 
L 628 4666 
z
" transform="scale(0.015625)"/>
     </defs>
     <use xlink:href="#DejaVuSans-4c"/>
     <use xlink:href="#DejaVuSans-69" x="55.712891"/>
     <use xlink:href="#DejaVuSans-63" x="83.496094"/>
     <use xlink:href="#DejaVuSans-65" x="138.476562"/>
     <use xlink:href="#DejaVuSans-6e" x="200"/>
     <use xlink:href="#DejaVuSans-73" x="263.378906"/>
     <use xlink:href="#DejaVuSans-65" x="315.478516"/>
    </g>
   </g>
  </g>
  <g id="axes_8">
   <g id="matplotlib.axis_15"/>
   <g id="matplotlib.axis_16"/>
   <g id="patch_16">
    <path d="M 717.767355 202.506 
C 712.459662 193.312806 704.115423 186.246528 694.173511 182.525668 
C 684.2316 178.804807 673.298323 178.656281 663.259004 182.105702 
C 653.219686 185.555122 644.686575 192.392126 639.131112 201.437746 
C 633.57565 210.483366 631.336636 221.185956 632.800164 231.69997 
L 678.131104 225.39 
z
" style="fill: #1f77b4; stroke: #ffffff; stroke-linejoin: miter"/>
   </g>
   <g id="patch_17">
    <path d="M 632.800163 231.699968 
C 633.849649 239.239493 636.763721 246.399409 641.277524 252.528964 
C 645.791328 258.658518 651.763843 263.566213 658.652226 266.805977 
C 665.540607 270.04574 673.129646 271.516359 680.729585 271.084175 
C 688.329525 270.651991 695.702918 268.330506 702.17961 264.330715 
L 678.131104 225.39 
z
" style="fill: #ff7f0e; stroke: #ffffff; stroke-linejoin: miter"/>
   </g>
   <g id="patch_18">
    <path d="M 702.17961 264.330715 
C 710.520062 259.179926 716.989073 251.48333 720.628293 242.38114 
C 724.267513 233.27895 724.887906 223.243996 722.397563 213.762857 
L 678.131104 225.39 
z
" style="fill: #2ca02c; stroke: #ffffff; stroke-linejoin: miter"/>
   </g>
   <g id="patch_19">
    <path d="M 722.397563 213.762857 
C 721.880471 211.794201 721.232621 209.86222 720.45834 207.979806 
C 719.684058 206.097393 718.78507 204.268735 717.767354 202.505997 
L 678.131104 225.39 
z
" style="fill: #d62728; stroke: #ffffff; stroke-linejoin: miter"/>
   </g>
   <g id="text_36">
    <!-- CC-BY-4.0 -->
    <g style="fill: #262626" transform="translate(613.818667 180.536648) scale(0.1 -0.1)">
     <defs>
      <path id="DejaVuSans-43" d="M 4122 4306 
L 4122 3641 
Q 3803 3938 3442 4084 
Q 3081 4231 2675 4231 
Q 1875 4231 1450 3742 
Q 1025 3253 1025 2328 
Q 1025 1406 1450 917 
Q 1875 428 2675 428 
Q 3081 428 3442 575 
Q 3803 722 4122 1019 
L 4122 359 
Q 3791 134 3420 21 
Q 3050 -91 2638 -91 
Q 1578 -91 968 557 
Q 359 1206 359 2328 
Q 359 3453 968 4101 
Q 1578 4750 2638 4750 
Q 3056 4750 3426 4639 
Q 3797 4528 4122 4306 
z
" transform="scale(0.015625)"/>
      <path id="DejaVuSans-2d" d="M 313 2009 
L 1997 2009 
L 1997 1497 
L 313 1497 
L 313 2009 
z
" transform="scale(0.015625)"/>
      <path id="DejaVuSans-42" d="M 1259 2228 
L 1259 519 
L 2272 519 
Q 2781 519 3026 730 
Q 3272 941 3272 1375 
Q 3272 1813 3026 2020 
Q 2781 2228 2272 2228 
L 1259 2228 
z
M 1259 4147 
L 1259 2741 
L 2194 2741 
Q 2656 2741 2882 2914 
Q 3109 3088 3109 3444 
Q 3109 3797 2882 3972 
Q 2656 4147 2194 4147 
L 1259 4147 
z
M 628 4666 
L 2241 4666 
Q 2963 4666 3353 4366 
Q 3744 4066 3744 3513 
Q 3744 3084 3544 2831 
Q 3344 2578 2956 2516 
Q 3422 2416 3680 2098 
Q 3938 1781 3938 1306 
Q 3938 681 3513 340 
Q 3088 0 2303 0 
L 628 0 
L 628 4666 
z
" transform="scale(0.015625)"/>
      <path id="DejaVuSans-34" d="M 2419 4116 
L 825 1625 
L 2419 1625 
L 2419 4116 
z
M 2253 4666 
L 3047 4666 
L 3047 1625 
L 3713 1625 
L 3713 1100 
L 3047 1100 
L 3047 0 
L 2419 0 
L 2419 1100 
L 313 1100 
L 313 1709 
L 2253 4666 
z
" transform="scale(0.015625)"/>
      <path id="DejaVuSans-2e" d="M 684 794 
L 1344 794 
L 1344 0 
L 684 0 
L 684 794 
z
" transform="scale(0.015625)"/>
     </defs>
     <use xlink:href="#DejaVuSans-43"/>
     <use xlink:href="#DejaVuSans-43" x="69.824219"/>
     <use xlink:href="#DejaVuSans-2d" x="139.648438"/>
     <use xlink:href="#DejaVuSans-42" x="172.107422"/>
     <use xlink:href="#DejaVuSans-59" x="235.210938"/>
     <use xlink:href="#DejaVuSans-2d" x="284.419922"/>
     <use xlink:href="#DejaVuSans-34" x="320.503906"/>
     <use xlink:href="#DejaVuSans-2e" x="384.126953"/>
     <use xlink:href="#DejaVuSans-30" x="415.914062"/>
    </g>
   </g>
   <g id="text_37">
    <!-- 44% -->
    <g style="fill: #262626" transform="translate(658.094562 202.178796) scale(0.1 -0.1)">
     <use xlink:href="#DejaVuSans-34"/>
     <use xlink:href="#DejaVuSans-34" x="63.623047"/>
     <use xlink:href="#DejaVuSans-25" x="127.246094"/>
    </g>
   </g>
   <g id="text_38">
    <!-- CC-BY-3.0 -->
    <g style="fill: #262626" transform="translate(608.751213 273.706949) scale(0.1 -0.1)">
     <use xlink:href="#DejaVuSans-43"/>
     <use xlink:href="#DejaVuSans-43" x="69.824219"/>
     <use xlink:href="#DejaVuSans-2d" x="139.648438"/>
     <use xlink:href="#DejaVuSans-42" x="172.107422"/>
     <use xlink:href="#DejaVuSans-59" x="235.210938"/>
     <use xlink:href="#DejaVuSans-2d" x="284.419922"/>
     <use xlink:href="#DejaVuSans-33" x="320.503906"/>
     <use xlink:href="#DejaVuSans-2e" x="384.126953"/>
     <use xlink:href="#DejaVuSans-30" x="415.914062"/>
    </g>
   </g>
   <g id="text_39">
    <!-- 32% -->
    <g style="fill: #262626" transform="translate(655.330496 252.998961) scale(0.1 -0.1)">
     <use xlink:href="#DejaVuSans-33"/>
     <use xlink:href="#DejaVuSans-32" x="63.623047"/>
     <use xlink:href="#DejaVuSans-25" x="127.246094"/>
    </g>
   </g>
   <g id="text_40">
    <!-- CC0-1.0 -->
    <g style="fill: #262626" transform="translate(724.878011 246.839629) scale(0.1 -0.1)">
     <use xlink:href="#DejaVuSans-43"/>
     <use xlink:href="#DejaVuSans-43" x="69.824219"/>
     <use xlink:href="#DejaVuSans-30" x="139.648438"/>
     <use xlink:href="#DejaVuSans-2d" x="203.271484"/>
     <use xlink:href="#DejaVuSans-31" x="239.355469"/>
     <use xlink:href="#DejaVuSans-2e" x="302.978516"/>
     <use xlink:href="#DejaVuSans-30" x="334.765625"/>
    </g>
   </g>
   <g id="text_41">
    <!-- 20% -->
    <g style="fill: #262626" transform="translate(692.516135 238.344059) scale(0.1 -0.1)">
     <use xlink:href="#DejaVuSans-32"/>
     <use xlink:href="#DejaVuSans-30" x="63.623047"/>
     <use xlink:href="#DejaVuSans-25" x="127.246094"/>
    </g>
   </g>
   <g id="text_42">
    <!-- Other -->
    <g style="fill: #262626" transform="translate(724.691064 208.998162) scale(0.1 -0.1)">
     <defs>
      <path id="DejaVuSans-4f" d="M 2522 4238 
Q 1834 4238 1429 3725 
Q 1025 3213 1025 2328 
Q 1025 1447 1429 934 
Q 1834 422 2522 422 
Q 3209 422 3611 934 
Q 4013 1447 4013 2328 
Q 4013 3213 3611 3725 
Q 3209 4238 2522 4238 
z
M 2522 4750 
Q 3503 4750 4090 4092 
Q 4678 3434 4678 2328 
Q 4678 1225 4090 567 
Q 3503 -91 2522 -91 
Q 1538 -91 948 565 
Q 359 1222 359 2328 
Q 359 3434 948 4092 
Q 1538 4750 2522 4750 
z
" transform="scale(0.015625)"/>
      <path id="DejaVuSans-68" d="M 3513 2113 
L 3513 0 
L 2938 0 
L 2938 2094 
Q 2938 2591 2744 2837 
Q 2550 3084 2163 3084 
Q 1697 3084 1428 2787 
Q 1159 2491 1159 1978 
L 1159 0 
L 581 0 
L 581 4863 
L 1159 4863 
L 1159 2956 
Q 1366 3272 1645 3428 
Q 1925 3584 2291 3584 
Q 2894 3584 3203 3211 
Q 3513 2838 3513 2113 
z
" transform="scale(0.015625)"/>
     </defs>
     <use xlink:href="#DejaVuSans-4f"/>
     <use xlink:href="#DejaVuSans-74" x="78.710938"/>
     <use xlink:href="#DejaVuSans-68" x="117.919922"/>
     <use xlink:href="#DejaVuSans-65" x="181.298828"/>
     <use xlink:href="#DejaVuSans-72" x="242.822266"/>
    </g>
   </g>
   <g id="text_43">
    <!-- 4% -->
    <g style="fill: #262626" transform="translate(695.595415 217.703259) scale(0.1 -0.1)">
     <use xlink:href="#DejaVuSans-34"/>
     <use xlink:href="#DejaVuSans-25" x="63.623047"/>
    </g>
   </g>
   <g id="text_44">
    <!-- License Type -->
    <g style="fill: #262626" transform="translate(639.823916 162.18) scale(0.12 -0.12)">
     <defs>
      <path id="DejaVuSans-20" transform="scale(0.015625)"/>
      <path id="DejaVuSans-54" d="M -19 4666 
L 3928 4666 
L 3928 4134 
L 2272 4134 
L 2272 0 
L 1638 0 
L 1638 4134 
L -19 4134 
L -19 4666 
z
" transform="scale(0.015625)"/>
      <path id="DejaVuSans-79" d="M 2059 -325 
Q 1816 -950 1584 -1140 
Q 1353 -1331 966 -1331 
L 506 -1331 
L 506 -850 
L 844 -850 
Q 1081 -850 1212 -737 
Q 1344 -625 1503 -206 
L 1606 56 
L 191 3500 
L 800 3500 
L 1894 763 
L 2988 3500 
L 3597 3500 
L 2059 -325 
z
" transform="scale(0.015625)"/>
     </defs>
     <use xlink:href="#DejaVuSans-4c"/>
     <use xlink:href="#DejaVuSans-69" x="55.712891"/>
     <use xlink:href="#DejaVuSans-63" x="83.496094"/>
     <use xlink:href="#DejaVuSans-65" x="138.476562"/>
     <use xlink:href="#DejaVuSans-6e" x="200"/>
     <use xlink:href="#DejaVuSans-73" x="263.378906"/>
     <use xlink:href="#DejaVuSans-65" x="315.478516"/>
     <use xlink:href="#DejaVuSans-20" x="377.001953"/>
     <use xlink:href="#DejaVuSans-54" x="408.789062"/>
     <use xlink:href="#DejaVuSans-79" x="454.248047"/>
     <use xlink:href="#DejaVuSans-70" x="513.427734"/>
     <use xlink:href="#DejaVuSans-65" x="576.904297"/>
    </g>
   </g>
  </g>
  <g id="axes_9">
   <g id="matplotlib.axis_17"/>
   <g id="matplotlib.axis_18"/>
   <g id="patch_20">
    <path d="M 143.999765 340.232093 
C 141.15041 335.296865 137.404208 330.936943 132.95423 327.377027 
C 128.504252 323.817112 123.428282 321.11943 117.987926 319.423013 
L 104.363515 363.116093 
z
" style="fill: #1f77b4; stroke: #ffffff; stroke-linejoin: miter"/>
   </g>
   <g id="patch_21">
    <path d="M 115.128855 322.996919 
C 110.074985 321.421017 104.785796 320.733851 99.497021 320.966046 
C 94.208246 321.198239 88.99963 322.346289 84.103313 324.359035 
C 79.206997 326.371781 74.696809 329.218873 70.773762 332.773413 
C 66.850714 336.327954 63.573962 340.536349 61.089545 345.211039 
C 58.605127 349.88573 56.950506 354.956226 56.199423 360.196544 
C 55.448341 365.436863 55.612124 370.767987 56.683474 375.952316 
C 57.754823 381.136647 59.717583 386.096007 62.484276 390.609371 
C 65.250969 395.122736 68.77988 399.12205 72.91373 402.429066 
C 77.04758 405.736083 81.724031 408.30094 86.73467 410.009322 
C 91.745308 411.717704 97.014576 412.543855 102.307631 412.450951 
C 107.600685 412.358049 112.837715 411.347494 117.785315 409.464328 
C 122.732915 407.581161 127.31648 404.853773 131.331731 401.403726 
C 135.346982 397.953678 138.733369 393.832991 141.339973 389.225314 
C 143.946576 384.617638 145.734092 379.592452 146.622847 374.373718 
C 147.511606 369.154985 147.4882 363.821397 146.553685 358.610664 
C 145.619167 353.399932 143.787628 348.390624 141.140693 343.805997 
L 101.504443 366.69 
z
" style="fill: #ff7f0e; stroke: #ffffff; stroke-linejoin: miter"/>
   </g>
   <g id="text_45">
    <!-- Yes -->
    <g style="fill: #262626" transform="translate(135.813298 326.562493) scale(0.1 -0.1)">
     <use xlink:href="#DejaVuSans-59"/>
     <use xlink:href="#DejaVuSans-65" x="47.833984"/>
     <use xlink:href="#DejaVuSans-73" x="109.357422"/>
    </g>
   </g>
   <g id="text_46">
    <!-- 12% -->
    <g style="fill: #262626" transform="translate(110.404661 344.432027) scale(0.1 -0.1)">
     <use xlink:href="#DejaVuSans-31"/>
     <use xlink:href="#DejaVuSans-32" x="63.623047"/>
     <use xlink:href="#DejaVuSans-25" x="127.246094"/>
    </g>
   </g>
   <g id="text_47">
    <!-- No -->
    <g style="fill: #262626" transform="translate(56.454659 408.762349) scale(0.1 -0.1)">
     <use xlink:href="#DejaVuSans-4e"/>
     <use xlink:href="#DejaVuSans-6f" x="74.804688"/>
    </g>
   </g>
   <g id="text_48">
    <!-- 88% -->
    <g style="fill: #262626" transform="translate(73.236734 390.892815) scale(0.1 -0.1)">
     <use xlink:href="#DejaVuSans-38"/>
     <use xlink:href="#DejaVuSans-38" x="63.623047"/>
     <use xlink:href="#DejaVuSans-25" x="127.246094"/>
    </g>
   </g>
   <g id="text_49">
    <!-- Version -->
    <g style="fill: #262626" transform="translate(79.440381 303.48) scale(0.12 -0.12)">
     <defs>
      <path id="DejaVuSans-56" d="M 1831 0 
L 50 4666 
L 709 4666 
L 2188 738 
L 3669 4666 
L 4325 4666 
L 2547 0 
L 1831 0 
z
" transform="scale(0.015625)"/>
     </defs>
     <use xlink:href="#DejaVuSans-56"/>
     <use xlink:href="#DejaVuSans-65" x="60.658203"/>
     <use xlink:href="#DejaVuSans-72" x="122.181641"/>
     <use xlink:href="#DejaVuSans-73" x="163.294922"/>
     <use xlink:href="#DejaVuSans-69" x="215.394531"/>
     <use xlink:href="#DejaVuSans-6f" x="243.177734"/>
     <use xlink:href="#DejaVuSans-6e" x="304.359375"/>
    </g>
   </g>
  </g>
  <g id="axes_10">
   <g id="matplotlib.axis_19"/>
   <g id="matplotlib.axis_20"/>
   <g id="patch_22">
    <path d="M 331.497736 339.620577 
C 325.853452 329.844388 316.787083 322.493875 306.05507 318.993061 
C 295.323057 315.492247 283.666286 316.082811 273.343038 320.650342 
C 263.019789 325.217874 254.742731 333.447053 250.115388 343.74363 
C 245.488044 354.040207 244.829865 365.693356 248.268361 376.445498 
L 291.861486 362.504577 
z
" style="fill: #1f77b4; stroke: #ffffff; stroke-linejoin: miter"/>
   </g>
   <g id="patch_23">
    <path d="M 250.120206 380.630922 
C 252.076537 386.748354 255.298828 392.386035 259.576991 397.176393 
C 263.855154 401.966752 269.094141 405.803369 274.952379 408.436096 
C 280.810617 411.068823 287.15797 412.439177 293.580576 412.457806 
C 300.003182 412.476436 306.358355 411.142934 312.231769 408.544238 
C 318.105183 405.945543 323.366351 402.139379 327.672231 397.373919 
C 331.97811 392.608458 335.23306 386.989557 337.224847 380.883577 
C 339.216634 374.777597 339.90102 368.32017 339.233375 361.932332 
C 338.565731 355.544495 336.560896 349.36816 333.34958 343.805997 
L 293.71333 366.69 
z
" style="fill: #ff7f0e; stroke: #ffffff; stroke-linejoin: miter"/>
   </g>
   <g id="text_50">
    <!-- Yes -->
    <g style="fill: #262626" transform="translate(255.345882 319.224293) scale(0.1 -0.1)">
     <use xlink:href="#DejaVuSans-59"/>
     <use xlink:href="#DejaVuSans-65" x="47.833984"/>
     <use xlink:href="#DejaVuSans-73" x="109.357422"/>
    </g>
   </g>
   <g id="text_51">
    <!-- 47% -->
    <g style="fill: #262626" transform="translate(269.637137 340.151411) scale(0.1 -0.1)">
     <use xlink:href="#DejaVuSans-34"/>
     <use xlink:href="#DejaVuSans-37" x="63.623047"/>
     <use xlink:href="#DejaVuSans-25" x="127.246094"/>
    </g>
   </g>
   <g id="text_52">
    <!-- No -->
    <g style="fill: #262626" transform="translate(314.083636 415.489027) scale(0.1 -0.1)">
     <use xlink:href="#DejaVuSans-4e"/>
     <use xlink:href="#DejaVuSans-6f" x="74.804688"/>
    </g>
   </g>
   <g id="text_53">
    <!-- 53% -->
    <g style="fill: #262626" transform="translate(293.711125 394.561912) scale(0.1 -0.1)">
     <use xlink:href="#DejaVuSans-35"/>
     <use xlink:href="#DejaVuSans-33" x="63.623047"/>
     <use xlink:href="#DejaVuSans-25" x="127.246094"/>
    </g>
   </g>
   <g id="text_54">
    <!-- Contact Email -->
    <g style="fill: #262626" transform="translate(251.816455 303.48) scale(0.12 -0.12)">
     <use xlink:href="#DejaVuSans-43"/>
     <use xlink:href="#DejaVuSans-6f" x="69.824219"/>
     <use xlink:href="#DejaVuSans-6e" x="131.005859"/>
     <use xlink:href="#DejaVuSans-74" x="194.384766"/>
     <use xlink:href="#DejaVuSans-61" x="233.59375"/>
     <use xlink:href="#DejaVuSans-63" x="294.873047"/>
     <use xlink:href="#DejaVuSans-74" x="349.853516"/>
     <use xlink:href="#DejaVuSans-20" x="389.0625"/>
     <use xlink:href="#DejaVuSans-45" x="420.849609"/>
     <use xlink:href="#DejaVuSans-6d" x="484.033203"/>
     <use xlink:href="#DejaVuSans-61" x="581.445312"/>
     <use xlink:href="#DejaVuSans-69" x="642.724609"/>
     <use xlink:href="#DejaVuSans-6c" x="670.507812"/>
    </g>
   </g>
  </g>
  <g id="axes_11">
   <g id="matplotlib.axis_21"/>
   <g id="matplotlib.axis_22"/>
   <g id="patch_24">
    <path d="M 529.190497 341.021137 
C 528.194407 339.295858 527.086732 337.637455 525.874542 336.056512 
C 524.662353 334.475569 523.348233 332.975457 521.94057 331.565752 
L 489.554247 363.905137 
z
" style="fill: #1f77b4; stroke: #ffffff; stroke-linejoin: miter"/>
   </g>
   <g id="patch_25">
    <path d="M 518.30854 334.350614 
C 514.239284 330.275452 509.437186 327.004717 504.154917 324.710501 
C 498.872648 322.416284 493.204502 321.139543 487.448731 320.947463 
C 481.692959 320.75538 475.952307 321.651387 470.528835 323.588333 
C 465.105364 325.525279 460.095888 328.468584 455.763998 332.263386 
C 451.432107 336.058189 447.855132 340.636736 445.221278 345.758125 
C 442.587425 350.879513 440.943715 356.452322 440.376641 362.183311 
C 439.809563 367.914298 440.329245 373.701163 441.908333 379.239419 
C 443.487422 384.777675 446.097733 389.968448 449.601918 394.538622 
C 453.106102 399.108797 457.441613 402.976786 462.380312 405.939059 
C 467.31901 408.901332 472.772738 410.905007 478.454538 411.844664 
C 484.136338 412.784322 489.944775 412.643181 495.57423 411.428668 
C 501.203685 410.214158 506.553658 407.947961 511.342651 404.749313 
C 516.131646 401.550666 520.274163 397.476674 523.552241 392.741698 
C 526.830319 388.006722 529.185438 382.695293 530.493674 377.086879 
C 531.801912 371.478464 532.039912 365.673188 531.195153 359.976506 
C 530.350397 354.279824 528.437957 348.793416 525.558467 343.805997 
L 485.922217 366.69 
z
" style="fill: #ff7f0e; stroke: #ffffff; stroke-linejoin: miter"/>
   </g>
   <g id="text_55">
    <!-- Yes -->
    <g style="fill: #262626" transform="translate(529.506572 336.031024) scale(0.1 -0.1)">
     <use xlink:href="#DejaVuSans-59"/>
     <use xlink:href="#DejaVuSans-65" x="47.833984"/>
     <use xlink:href="#DejaVuSans-73" x="109.357422"/>
    </g>
   </g>
   <g id="text_56">
    <!-- 4% -->
    <g style="fill: #262626" transform="translate(503.414393 349.955337) scale(0.1 -0.1)">
     <use xlink:href="#DejaVuSans-34"/>
     <use xlink:href="#DejaVuSans-25" x="63.623047"/>
    </g>
   </g>
   <g id="text_57">
    <!-- No -->
    <g style="fill: #262626" transform="translate(432.369904 400.082879) scale(0.1 -0.1)">
     <use xlink:href="#DejaVuSans-4e"/>
     <use xlink:href="#DejaVuSans-6f" x="74.804688"/>
    </g>
   </g>
   <g id="text_58">
    <!-- 96% -->
    <g style="fill: #262626" transform="translate(453.016765 386.158559) scale(0.1 -0.1)">
     <defs>
      <path id="DejaVuSans-36" d="M 2113 2584 
Q 1688 2584 1439 2293 
Q 1191 2003 1191 1497 
Q 1191 994 1439 701 
Q 1688 409 2113 409 
Q 2538 409 2786 701 
Q 3034 994 3034 1497 
Q 3034 2003 2786 2293 
Q 2538 2584 2113 2584 
z
M 3366 4563 
L 3366 3988 
Q 3128 4100 2886 4159 
Q 2644 4219 2406 4219 
Q 1781 4219 1451 3797 
Q 1122 3375 1075 2522 
Q 1259 2794 1537 2939 
Q 1816 3084 2150 3084 
Q 2853 3084 3261 2657 
Q 3669 2231 3669 1497 
Q 3669 778 3244 343 
Q 2819 -91 2113 -91 
Q 1303 -91 875 529 
Q 447 1150 447 2328 
Q 447 3434 972 4092 
Q 1497 4750 2381 4750 
Q 2619 4750 2861 4703 
Q 3103 4656 3366 4563 
z
" transform="scale(0.015625)"/>
     </defs>
     <use xlink:href="#DejaVuSans-39"/>
     <use xlink:href="#DejaVuSans-36" x="63.623047"/>
     <use xlink:href="#DejaVuSans-25" x="127.246094"/>
    </g>
   </g>
   <g id="text_59">
    <!-- Wikidata Database -->
    <g style="fill: #262626" transform="translate(429.265342 303.48) scale(0.12 -0.12)">
     <defs>
      <path id="DejaVuSans-57" d="M 213 4666 
L 850 4666 
L 1831 722 
L 2809 4666 
L 3519 4666 
L 4500 722 
L 5478 4666 
L 6119 4666 
L 4947 0 
L 4153 0 
L 3169 4050 
L 2175 0 
L 1381 0 
L 213 4666 
z
" transform="scale(0.015625)"/>
      <path id="DejaVuSans-6b" d="M 581 4863 
L 1159 4863 
L 1159 1991 
L 2875 3500 
L 3609 3500 
L 1753 1863 
L 3688 0 
L 2938 0 
L 1159 1709 
L 1159 0 
L 581 0 
L 581 4863 
z
" transform="scale(0.015625)"/>
      <path id="DejaVuSans-62" d="M 3116 1747 
Q 3116 2381 2855 2742 
Q 2594 3103 2138 3103 
Q 1681 3103 1420 2742 
Q 1159 2381 1159 1747 
Q 1159 1113 1420 752 
Q 1681 391 2138 391 
Q 2594 391 2855 752 
Q 3116 1113 3116 1747 
z
M 1159 2969 
Q 1341 3281 1617 3432 
Q 1894 3584 2278 3584 
Q 2916 3584 3314 3078 
Q 3713 2572 3713 1747 
Q 3713 922 3314 415 
Q 2916 -91 2278 -91 
Q 1894 -91 1617 61 
Q 1341 213 1159 525 
L 1159 0 
L 581 0 
L 581 4863 
L 1159 4863 
L 1159 2969 
z
" transform="scale(0.015625)"/>
     </defs>
     <use xlink:href="#DejaVuSans-57"/>
     <use xlink:href="#DejaVuSans-69" x="96.626953"/>
     <use xlink:href="#DejaVuSans-6b" x="124.410156"/>
     <use xlink:href="#DejaVuSans-69" x="182.320312"/>
     <use xlink:href="#DejaVuSans-64" x="210.103516"/>
     <use xlink:href="#DejaVuSans-61" x="273.580078"/>
     <use xlink:href="#DejaVuSans-74" x="334.859375"/>
     <use xlink:href="#DejaVuSans-61" x="374.068359"/>
     <use xlink:href="#DejaVuSans-20" x="435.347656"/>
     <use xlink:href="#DejaVuSans-44" x="467.134766"/>
     <use xlink:href="#DejaVuSans-61" x="544.136719"/>
     <use xlink:href="#DejaVuSans-74" x="605.416016"/>
     <use xlink:href="#DejaVuSans-61" x="644.625"/>
     <use xlink:href="#DejaVuSans-62" x="705.904297"/>
     <use xlink:href="#DejaVuSans-61" x="769.380859"/>
     <use xlink:href="#DejaVuSans-73" x="830.660156"/>
     <use xlink:href="#DejaVuSans-65" x="882.759766"/>
    </g>
   </g>
  </g>
  <g id="axes_12">
   <g id="matplotlib.axis_23"/>
   <g id="matplotlib.axis_24"/>
   <g id="patch_26">
    <path d="M 720.983394 340.549593 
C 718.935759 337.002984 716.421336 333.747197 713.507538 330.86952 
C 710.59374 327.991843 707.306843 325.518226 703.73497 323.514988 
L 681.347143 363.433593 
z
" style="fill: #1f77b4; stroke: #ffffff; stroke-linejoin: miter"/>
   </g>
   <g id="patch_27">
    <path d="M 700.518928 326.771393 
C 695.726603 324.08368 690.48921 322.280799 685.057945 321.449213 
C 679.626679 320.617628 674.08978 320.770859 668.712818 321.901546 
C 663.335856 323.032233 658.206181 325.122017 653.569835 328.070656 
C 648.93349 331.019294 644.865794 334.778884 641.561846 339.169112 
C 638.257898 343.559341 635.771372 348.508875 634.221536 353.780325 
C 632.671699 359.051775 632.083725 364.559504 632.485822 370.03933 
C 632.887916 375.519157 634.273545 380.882058 636.576248 385.870818 
C 638.878952 390.859579 642.061318 395.393147 645.970715 399.254079 
C 649.880112 403.11501 654.45302 406.240578 659.470115 408.480876 
C 664.48721 410.721174 669.86699 412.0398 675.351406 412.373509 
C 680.835822 412.707218 686.335787 412.050589 691.587495 410.435117 
C 696.839202 408.819645 701.757342 406.27157 706.106016 402.913115 
C 710.454689 399.554659 714.16323 395.440407 717.053808 390.767644 
C 719.944387 386.094879 721.970023 380.939533 723.033552 375.548886 
C 724.097085 370.158238 724.181238 364.619852 723.281968 359.199382 
C 722.382701 353.778912 720.514634 348.564425 717.767354 343.805997 
L 678.131104 366.69 
z
" style="fill: #ff7f0e; stroke: #ffffff; stroke-linejoin: miter"/>
   </g>
   <g id="text_60">
    <!-- Yes -->
    <g style="fill: #262626" transform="translate(716.723579 330.372489) scale(0.1 -0.1)">
     <use xlink:href="#DejaVuSans-59"/>
     <use xlink:href="#DejaVuSans-65" x="47.833984"/>
     <use xlink:href="#DejaVuSans-73" x="109.357422"/>
    </g>
   </g>
   <g id="text_61">
    <!-- 9% -->
    <g style="fill: #262626" transform="translate(692.71135 346.654525) scale(0.1 -0.1)">
     <use xlink:href="#DejaVuSans-39"/>
     <use xlink:href="#DejaVuSans-25" x="63.623047"/>
    </g>
   </g>
   <g id="text_62">
    <!-- No -->
    <g style="fill: #262626" transform="translate(629.154684 405.26987) scale(0.1 -0.1)">
     <use xlink:href="#DejaVuSans-4e"/>
     <use xlink:href="#DejaVuSans-6f" x="74.804688"/>
    </g>
   </g>
   <g id="text_63">
    <!-- 91% -->
    <g style="fill: #262626" transform="translate(647.721594 388.987827) scale(0.1 -0.1)">
     <use xlink:href="#DejaVuSans-39"/>
     <use xlink:href="#DejaVuSans-31" x="63.623047"/>
     <use xlink:href="#DejaVuSans-25" x="127.246094"/>
    </g>
   </g>
   <g id="text_64">
    <!-- OBO -->
    <g style="fill: #262626" transform="translate(664.673291 303.48) scale(0.12 -0.12)">
     <use xlink:href="#DejaVuSans-4f"/>
     <use xlink:href="#DejaVuSans-42" x="78.710938"/>
     <use xlink:href="#DejaVuSans-4f" x="145.564453"/>
    </g>
   </g>
  </g>
  <g id="axes_13">
   <g id="matplotlib.axis_25"/>
   <g id="matplotlib.axis_26"/>
   <g id="patch_28">
    <path d="M 143.455487 481.157731 
C 139.49055 474.290258 133.808038 468.569706 126.967171 464.559039 
C 120.126304 460.548372 112.359099 458.383615 104.42993 458.277805 
L 103.819237 504.041731 
z
" style="fill: #1f77b4; stroke: #ffffff; stroke-linejoin: miter"/>
   </g>
   <g id="patch_29">
    <path d="M 102.115137 462.226076 
C 97.099149 462.159142 92.106107 462.917328 87.336095 464.470261 
C 82.566083 466.023194 78.083669 468.349846 74.068481 471.356984 
C 70.053293 474.364121 66.55969 478.011031 63.727651 482.151584 
C 60.895612 486.292136 58.763487 490.870277 57.416711 495.702544 
C 56.069934 500.534812 55.526743 505.555795 55.808899 510.564288 
C 56.091054 515.572782 57.194737 520.500977 59.075727 525.151407 
C 60.956716 529.801836 63.589544 534.111538 66.868708 537.907813 
C 70.147872 541.704088 74.028979 544.935545 78.356508 547.472692 
C 82.684037 550.009838 87.399396 551.818326 92.313644 552.825689 
C 97.227893 553.833052 102.274509 554.025654 107.251242 553.395773 
C 112.227975 552.765892 117.067454 551.322056 121.57577 549.122124 
C 126.084085 546.922192 130.200209 543.995937 133.759177 540.460634 
C 137.318145 536.925332 140.271781 532.828839 142.501743 528.3353 
C 144.731704 523.841761 146.207793 519.012023 146.870865 514.039603 
C 147.533937 509.067184 147.37501 504.019394 146.400454 499.098534 
C 145.425897 494.177674 143.648912 489.450358 141.140693 485.105997 
L 101.504443 507.99 
z
" style="fill: #ff7f0e; stroke: #ffffff; stroke-linejoin: miter"/>
   </g>
   <g id="text_65">
    <!-- Yes -->
    <g style="fill: #262626" transform="translate(129.281962 463.370143) scale(0.1 -0.1)">
     <use xlink:href="#DejaVuSans-59"/>
     <use xlink:href="#DejaVuSans-65" x="47.833984"/>
     <use xlink:href="#DejaVuSans-73" x="109.357422"/>
    </g>
   </g>
   <g id="text_66">
    <!-- 16% -->
    <g style="fill: #262626" transform="translate(106.594715 483.11149) scale(0.1 -0.1)">
     <use xlink:href="#DejaVuSans-31"/>
     <use xlink:href="#DejaVuSans-36" x="63.623047"/>
     <use xlink:href="#DejaVuSans-25" x="127.246094"/>
    </g>
   </g>
   <g id="text_67">
    <!-- No -->
    <g style="fill: #262626" transform="translate(62.441717 554.180337) scale(0.1 -0.1)">
     <use xlink:href="#DejaVuSans-4e"/>
     <use xlink:href="#DejaVuSans-6f" x="74.804688"/>
    </g>
   </g>
   <g id="text_68">
    <!-- 84% -->
    <g style="fill: #262626" transform="translate(76.502402 534.43899) scale(0.1 -0.1)">
     <use xlink:href="#DejaVuSans-38"/>
     <use xlink:href="#DejaVuSans-34" x="63.623047"/>
     <use xlink:href="#DejaVuSans-25" x="127.246094"/>
    </g>
   </g>
   <g id="text_69">
    <!-- OWL -->
    <g style="fill: #262626" transform="translate(87.505693 444.78) scale(0.12 -0.12)">
     <use xlink:href="#DejaVuSans-4f"/>
     <use xlink:href="#DejaVuSans-57" x="78.710938"/>
     <use xlink:href="#DejaVuSans-4c" x="177.587891"/>
    </g>
   </g>
  </g>
  <g id="axes_14">
   <g id="matplotlib.axis_27"/>
   <g id="matplotlib.axis_28"/>
   <g id="patch_30">
    <path d="M 337.122005 482.514492 
C 336.524487 481.47956 335.886663 480.468427 335.210001 479.483418 
C 334.533339 478.498409 333.818357 477.540281 333.0667 476.611235 
L 297.485755 505.398492 
z
" style="fill: #1f77b4; stroke: #ffffff; stroke-linejoin: miter"/>
   </g>
   <g id="patch_31">
    <path d="M 329.294274 479.202743 
C 325.608791 474.647499 321.082586 470.842096 315.962067 467.993705 
C 310.841547 465.145315 305.221346 463.306576 299.407429 462.57759 
C 293.593512 461.848604 287.693338 462.242842 282.028089 463.738842 
C 276.362841 465.234842 271.03723 467.804961 266.341186 471.309277 
C 261.645142 474.813592 257.66545 479.187338 254.618768 484.192414 
C 251.572086 489.19749 249.514721 494.741383 248.558671 500.522303 
C 247.602619 506.303222 247.765556 512.214319 249.038609 517.933794 
C 250.311661 523.653268 252.671303 529.075416 255.989073 533.905059 
C 259.306844 538.734701 263.521439 542.882586 268.403398 546.122887 
C 273.285356 549.363188 278.744461 551.636028 284.483518 552.817674 
C 290.222574 553.999318 296.135519 554.067932 301.900449 553.019777 
C 307.66538 551.971622 313.175733 549.826084 318.131568 546.699941 
C 323.087404 543.573798 327.397108 539.524837 330.82606 534.773486 
C 334.255012 530.022135 336.739839 524.656201 338.145272 518.967807 
C 339.550703 513.279414 339.850765 507.373689 339.02912 501.572142 
C 338.207476 495.770594 336.279311 490.180443 333.349591 485.106016 
L 293.71333 507.99 
z
" style="fill: #ff7f0e; stroke: #ffffff; stroke-linejoin: miter"/>
   </g>
   <g id="text_70">
    <!-- Yes -->
    <g style="fill: #262626" transform="translate(338.982424 479.651284) scale(0.1 -0.1)">
     <use xlink:href="#DejaVuSans-59"/>
     <use xlink:href="#DejaVuSans-65" x="47.833984"/>
     <use xlink:href="#DejaVuSans-73" x="109.357422"/>
    </g>
   </g>
   <g id="text_71">
    <!-- 2% -->
    <g style="fill: #262626" transform="translate(312.188271 492.608822) scale(0.1 -0.1)">
     <use xlink:href="#DejaVuSans-32"/>
     <use xlink:href="#DejaVuSans-25" x="63.623047"/>
    </g>
   </g>
   <g id="text_72">
    <!-- No -->
    <g style="fill: #262626" transform="translate(238.616656 539.255952) scale(0.1 -0.1)">
     <use xlink:href="#DejaVuSans-4e"/>
     <use xlink:href="#DejaVuSans-6f" x="74.804688"/>
    </g>
   </g>
   <g id="text_73">
    <!-- 98% -->
    <g style="fill: #262626" transform="translate(259.9655 526.298417) scale(0.1 -0.1)">
     <use xlink:href="#DejaVuSans-39"/>
     <use xlink:href="#DejaVuSans-38" x="63.623047"/>
     <use xlink:href="#DejaVuSans-25" x="127.246094"/>
    </g>
   </g>
   <g id="text_74">
    <!-- JSON -->
    <g style="fill: #262626" transform="translate(278.922393 444.78) scale(0.12 -0.12)">
     <defs>
      <path id="DejaVuSans-4a" d="M 628 4666 
L 1259 4666 
L 1259 325 
Q 1259 -519 939 -900 
Q 619 -1281 -91 -1281 
L -331 -1281 
L -331 -750 
L -134 -750 
Q 284 -750 456 -515 
Q 628 -281 628 325 
L 628 4666 
z
" transform="scale(0.015625)"/>
      <path id="DejaVuSans-53" d="M 3425 4513 
L 3425 3897 
Q 3066 4069 2747 4153 
Q 2428 4238 2131 4238 
Q 1616 4238 1336 4038 
Q 1056 3838 1056 3469 
Q 1056 3159 1242 3001 
Q 1428 2844 1947 2747 
L 2328 2669 
Q 3034 2534 3370 2195 
Q 3706 1856 3706 1288 
Q 3706 609 3251 259 
Q 2797 -91 1919 -91 
Q 1588 -91 1214 -16 
Q 841 59 441 206 
L 441 856 
Q 825 641 1194 531 
Q 1563 422 1919 422 
Q 2459 422 2753 634 
Q 3047 847 3047 1241 
Q 3047 1584 2836 1778 
Q 2625 1972 2144 2069 
L 1759 2144 
Q 1053 2284 737 2584 
Q 422 2884 422 3419 
Q 422 4038 858 4394 
Q 1294 4750 2059 4750 
Q 2388 4750 2728 4690 
Q 3069 4631 3425 4513 
z
" transform="scale(0.015625)"/>
     </defs>
     <use xlink:href="#DejaVuSans-4a"/>
     <use xlink:href="#DejaVuSans-53" x="29.492188"/>
     <use xlink:href="#DejaVuSans-4f" x="92.96875"/>
     <use xlink:href="#DejaVuSans-4e" x="171.679688"/>
    </g>
   </g>
  </g>
  <g id="axes_15"/>
  <g id="axes_16"/>
  <g id="text_75">
   <!-- https://github.com/biopragmatics/bioregistry (2024-10-12) -->
   <g style="fill: #808080; opacity: 0.5" transform="translate(278.67625 574.33625) scale(0.08 -0.08)">
    <defs>
     <path id="DejaVuSans-3a" d="M 750 794 
L 1409 794 
L 1409 0 
L 750 0 
L 750 794 
z
M 750 3309 
L 1409 3309 
L 1409 2516 
L 750 2516 
L 750 3309 
z
" transform="scale(0.015625)"/>
     <path id="DejaVuSans-2f" d="M 1625 4666 
L 2156 4666 
L 531 -594 
L 0 -594 
L 1625 4666 
z
" transform="scale(0.015625)"/>
     <path id="DejaVuSans-75" d="M 544 1381 
L 544 3500 
L 1119 3500 
L 1119 1403 
Q 1119 906 1312 657 
Q 1506 409 1894 409 
Q 2359 409 2629 706 
Q 2900 1003 2900 1516 
L 2900 3500 
L 3475 3500 
L 3475 0 
L 2900 0 
L 2900 538 
Q 2691 219 2414 64 
Q 2138 -91 1772 -91 
Q 1169 -91 856 284 
Q 544 659 544 1381 
z
M 1991 3584 
L 1991 3584 
z
" transform="scale(0.015625)"/>
     <path id="DejaVuSans-28" d="M 1984 4856 
Q 1566 4138 1362 3434 
Q 1159 2731 1159 2009 
Q 1159 1288 1364 580 
Q 1569 -128 1984 -844 
L 1484 -844 
Q 1016 -109 783 600 
Q 550 1309 550 2009 
Q 550 2706 781 3412 
Q 1013 4119 1484 4856 
L 1984 4856 
z
" transform="scale(0.015625)"/>
     <path id="DejaVuSans-29" d="M 513 4856 
L 1013 4856 
Q 1481 4119 1714 3412 
Q 1947 2706 1947 2009 
Q 1947 1309 1714 600 
Q 1481 -109 1013 -844 
L 513 -844 
Q 928 -128 1133 580 
Q 1338 1288 1338 2009 
Q 1338 2731 1133 3434 
Q 928 4138 513 4856 
z
" transform="scale(0.015625)"/>
    </defs>
    <use xlink:href="#DejaVuSans-68"/>
    <use xlink:href="#DejaVuSans-74" x="63.378906"/>
    <use xlink:href="#DejaVuSans-74" x="102.587891"/>
    <use xlink:href="#DejaVuSans-70" x="141.796875"/>
    <use xlink:href="#DejaVuSans-73" x="205.273438"/>
    <use xlink:href="#DejaVuSans-3a" x="257.373047"/>
    <use xlink:href="#DejaVuSans-2f" x="291.064453"/>
    <use xlink:href="#DejaVuSans-2f" x="324.755859"/>
    <use xlink:href="#DejaVuSans-67" x="358.447266"/>
    <use xlink:href="#DejaVuSans-69" x="421.923828"/>
    <use xlink:href="#DejaVuSans-74" x="449.707031"/>
    <use xlink:href="#DejaVuSans-68" x="488.916016"/>
    <use xlink:href="#DejaVuSans-75" x="552.294922"/>
    <use xlink:href="#DejaVuSans-62" x="615.673828"/>
    <use xlink:href="#DejaVuSans-2e" x="679.150391"/>
    <use xlink:href="#DejaVuSans-63" x="710.9375"/>
    <use xlink:href="#DejaVuSans-6f" x="765.917969"/>
    <use xlink:href="#DejaVuSans-6d" x="827.099609"/>
    <use xlink:href="#DejaVuSans-2f" x="924.511719"/>
    <use xlink:href="#DejaVuSans-62" x="958.203125"/>
    <use xlink:href="#DejaVuSans-69" x="1021.679688"/>
    <use xlink:href="#DejaVuSans-6f" x="1049.462891"/>
    <use xlink:href="#DejaVuSans-70" x="1110.644531"/>
    <use xlink:href="#DejaVuSans-72" x="1174.121094"/>
    <use xlink:href="#DejaVuSans-61" x="1215.234375"/>
    <use xlink:href="#DejaVuSans-67" x="1276.513672"/>
    <use xlink:href="#DejaVuSans-6d" x="1339.990234"/>
    <use xlink:href="#DejaVuSans-61" x="1437.402344"/>
    <use xlink:href="#DejaVuSans-74" x="1498.681641"/>
    <use xlink:href="#DejaVuSans-69" x="1537.890625"/>
    <use xlink:href="#DejaVuSans-63" x="1565.673828"/>
    <use xlink:href="#DejaVuSans-73" x="1620.654297"/>
    <use xlink:href="#DejaVuSans-2f" x="1672.753906"/>
    <use xlink:href="#DejaVuSans-62" x="1706.445312"/>
    <use xlink:href="#DejaVuSans-69" x="1769.921875"/>
    <use xlink:href="#DejaVuSans-6f" x="1797.705078"/>
    <use xlink:href="#DejaVuSans-72" x="1858.886719"/>
    <use xlink:href="#DejaVuSans-65" x="1897.75"/>
    <use xlink:href="#DejaVuSans-67" x="1959.273438"/>
    <use xlink:href="#DejaVuSans-69" x="2022.75"/>
    <use xlink:href="#DejaVuSans-73" x="2050.533203"/>
    <use xlink:href="#DejaVuSans-74" x="2102.632812"/>
    <use xlink:href="#DejaVuSans-72" x="2141.841797"/>
    <use xlink:href="#DejaVuSans-79" x="2182.955078"/>
    <use xlink:href="#DejaVuSans-20" x="2242.134766"/>
    <use xlink:href="#DejaVuSans-28" x="2273.921875"/>
    <use xlink:href="#DejaVuSans-32" x="2312.935547"/>
    <use xlink:href="#DejaVuSans-30" x="2376.558594"/>
    <use xlink:href="#DejaVuSans-32" x="2440.181641"/>
    <use xlink:href="#DejaVuSans-34" x="2503.804688"/>
    <use xlink:href="#DejaVuSans-2d" x="2567.427734"/>
    <use xlink:href="#DejaVuSans-31" x="2603.511719"/>
    <use xlink:href="#DejaVuSans-30" x="2667.134766"/>
    <use xlink:href="#DejaVuSans-2d" x="2730.757812"/>
    <use xlink:href="#DejaVuSans-31" x="2766.841797"/>
    <use xlink:href="#DejaVuSans-32" x="2830.464844"/>
    <use xlink:href="#DejaVuSans-29" x="2894.087891"/>
   </g>
  </g>
 </g>
</svg>
