<svg width="757.36" height="917.25" version="1.1" viewBox="0 0 200.39 242.69" xmlns="http://www.w3.org/2000/svg"><rect width="200.39" height="242.69" ry="13.176" fill="#f9f9f9" stroke-linecap="round" stroke-linejoin="round" stroke-width=".5"/><g transform="translate(34.646 23.301)"><g fill="none" stroke="#5c5c5c" stroke-width=".13229"></g><g transform="matrix(2 0 0 2 -65.547 -98.044)"><g fill="none" stroke="#000" stroke-width=".381"><path d="m39.432 146.85h1.0287"/><path d="m39.432 144.85h1.0287"/><path d="m39.432 142.85h1.0287"/><path d="m39.432 140.85h1.0287"/><path d="m39.432 138.85h1.0287"/><path d="m39.432 136.85h1.0287"/><path d="m39.432 134.85h1.0287"/><path d="m39.432 132.85h1.0287"/><path d="m39.432 130.85h1.0287"/><path d="m39.432 128.85h1.0287"/><path d="m39.432 126.85h1.0287"/><path d="m39.432 124.85h1.0287"/><path d="m39.432 122.85h1.0287"/><path d="m39.432 120.85h1.0287"/><path d="m39.432 118.85h1.0287"/><path d="m47.499 146.85h1.0287"/><path d="m47.499 144.85h1.0287"/><path d="m47.499 142.85h1.0287"/><path d="m47.499 139.2h1.0287"/><path d="m47.499 137.2h1.0287"/><path d="m47.499 135.2h1.0287"/><path d="m47.499 133.2h1.0287"/><path d="m47.499 131.2h1.0287"/><path d="m47.499 129.2h1.0287"/><path d="m47.499 127.2h1.0287"/><path d="m47.499 125.2h1.0287"/><path d="m63.568 146.85h1.0287"/></g><path d="m61.691 144.14h4.7823v1.4248h-4.7823z" fill="#d7efc5" stroke-width=".26458"/><path d="m63.568 144.85h1.0287" fill="none" stroke="#000" stroke-width=".381"/><path d="m61.691 142.14h4.7823v1.4248h-4.7823z" fill="#d7efc5" stroke-width=".26458"/><g fill="none" stroke="#000" stroke-width=".381"><path d="m63.568 142.85h1.0287"/><path d="m63.568 140.85h1.0287"/><path d="m63.568 128.97h1.0287"/><path d="m63.568 126.97h1.0287"/><path d="m63.568 124.97h1.0287"/></g><path d="m61.691 122.25h4.7823v1.4248h-4.7823z" fill="#d7efc5" stroke-width=".26458"/><path d="m63.568 122.97h1.0287" fill="none" stroke="#000" stroke-width=".381"/><path d="m63.568 120.97h1.0287" fill="none" stroke="#000" stroke-width=".381"/><path d="m61.691 118.25h4.7823v1.4248h-4.7823z" fill="#d7efc5" stroke-width=".26458"/><path d="m63.568 118.97h1.0287" fill="none" stroke="#000" stroke-width=".381"/><path d="m61.691 116.25h4.7823v1.4248h-4.7823z" fill="#d7efc5" stroke-width=".26458"/><g fill="none" stroke="#000" stroke-width=".381"><path d="m63.568 116.96h1.0287"/><path d="m63.568 114.96h1.0287"/><path d="m63.568 112.96h1.0287"/><path d="m63.568 110.96h1.0287"/><path d="m63.568 108.96h1.0287"/><path d="m63.568 106.96h1.0287"/><path d="m62.184 101.25 0.91493-0.47017"/><path d="m61.27 99.467 0.91493-0.47043"/><path d="m60.356 97.688 0.91493-0.47043"/><path d="m53.731 84.797 0.91493-0.47016"/><path d="m52.063 81.552 0.91493-0.47016"/><path d="m51.148 79.773 0.91493-0.47016"/><path d="m50.234 77.994 0.91493-0.47043"/><path d="m49.32 76.215 0.91493-0.47043"/><path d="m48.405 74.436 0.91493-0.47043"/><path d="m47.491 72.657 0.91496-0.47043"/><path d="m44.502 66.842 0.91493-0.47016"/><path d="m43.588 65.063 0.91496-0.47016"/><path d="m42.674 63.284 0.91493-0.47024"/><path d="m41.759 61.505 0.91493-0.47022"/><path d="m40.845 59.726 0.91493-0.47024"/><path d="m39.931 57.947 0.91493-0.47024"/><path d="m37.585 53.383 0.91496-0.47022"/></g><path d="m34.406 51.829 4.6808-2.4057 0.76316 1.4849-4.6809 2.4057z" fill="#d7efc5" stroke-width=".26458"/><g fill="none" stroke="#000" stroke-width=".381"><path d="m36.671 51.604 0.91493-0.47024"/><path d="m35.757 49.825 0.91493-0.47022"/><path d="m34.842 48.046 0.91496-0.47022"/><path d="m67.254 103.45-0.05027 1.0274"/><path d="m69.252 103.55-0.05027 1.0274"/><path d="m71.25 103.65-0.05027 1.0274"/><path d="m73.248 103.75-0.05027 1.0274"/><path d="m75.246 103.84-0.05027 1.0276"/><path d="m77.244 103.94-0.05027 1.0276"/><path d="m79.241 104.04-0.05027 1.0274"/><path d="m81.239 104.14-0.05001 1.0274"/><path d="m83.237 104.23-0.05001 1.0274"/><path d="m85.235 104.33-0.050006 1.0276"/><path d="m87.233 104.43-0.05001 1.0276"/><path d="m89.23 104.53-0.05001 1.0274"/><path d="m91.228 104.63-0.05001 1.0274"/><path d="m94.873 104.8-0.05027 1.0276"/></g><path d="m97.766 103.09-0.23151 4.7313-1.6095-0.0789 0.23125-4.7313z" fill="#d7efc5" stroke-width=".26458"/><path d="m96.871 104.9-0.05027 1.0276" fill="none" stroke="#000" stroke-width=".381"/><path d="m99.764 103.19-0.23151 4.7313-1.6095-0.0786 0.23125-4.7313z" fill="#d7efc5" stroke-width=".26458"/><g stroke="#000"><path d="m98.869 105-0.05027 1.0274" fill="none" stroke-width=".381"/><path d="m100.87 105.1-0.0503 1.0274" fill="none" stroke-width=".381"/><path d="m33.589 148.27a0.67667 0.67667 0 0 1-1.3533 0 0.67667 0.67667 0 0 1 1.3533 0z" stroke-width=".1905"/><path d="m35.589 148.27a0.67667 0.67667 0 0 1-1.3533 0 0.67667 0.67667 0 0 1 1.3533 0z" stroke-width=".1905"/></g><g font-size="3.175px" stroke-width=".26458"><text x="36.250618" y="148.97948"><tspan x="36.250618" y="148.97948" fill="#807b88" font-family="'Bitstream Vera Sans'" font-size="1.9844px" stroke-width=".070004">Y</tspan></text><text x="37.610447" y="147.56502"><tspan x="37.610447" y="147.56502" fill="#807b88" font-family="'Bitstream Vera Sans'" font-size="1.9844px" stroke-width=".070004">R</tspan></text><text x="37.665028" y="145.56476"><tspan x="37.665028" y="145.56476" fill="#807b88" font-family="'Bitstream Vera Sans'" font-size="1.9844px" stroke-width=".070004">A</tspan></text><text x="37.610447" y="143.56451"><tspan x="37.610447" y="143.56451" fill="#807b88" font-family="'Bitstream Vera Sans'" font-size="1.9844px" stroke-width=".070004">C</tspan></text></g><g fill="#807b88" stroke="#000" stroke-width=".1905"><path d="m39.003 140.85a0.67667 0.67667 0 0 1-1.3533 0 0.67667 0.67667 0 0 1 1.3533 0z"/><path d="m39.003 138.85a0.67667 0.67667 0 0 1-1.3533 0 0.67667 0.67667 0 0 1 1.3533 0z"/><path d="m39.003 136.85a0.67667 0.67667 0 0 1-1.3533 0 0.67667 0.67667 0 0 1 1.3533 0z"/><path d="m39.003 134.85a0.67667 0.67667 0 0 1-1.3533 0 0.67667 0.67667 0 0 1 1.3533 0z"/></g><text x="37.665028" y="133.56326" font-size="3.175px" stroke-width=".26458"><tspan x="37.665028" y="133.56326" fill="#807b88" font-family="'Bitstream Vera Sans'" font-size="1.9844px" stroke-width=".070004">Y</tspan></text><path d="m39.003 130.85a0.67667 0.67667 0 0 1-1.3533 0 0.67667 0.67667 0 0 1 1.3533 0z" fill="#807b88" stroke="#000" stroke-width=".1905"/><text x="35.66478" y="131.56302" font-size="3.175px" stroke-width=".26458"><tspan x="35.66478" y="131.56302" fill="#807b88" font-family="'Bitstream Vera Sans'" font-size="1.9844px" stroke-width=".070004">Y</tspan></text><path d="m37.003 128.85a0.67667 0.67667 0 0 1-1.3533 0 0.67667 0.67667 0 0 1 1.3533 0z" fill="#fff" stroke="#000" stroke-width=".1905"/><text x="37.610447" y="129.56277" font-size="3.175px" stroke-width=".26458"><tspan x="37.610447" y="129.56277" fill="#807b88" font-family="'Bitstream Vera Sans'" font-size="1.9844px" stroke-width=".070004">R</tspan></text><path d="m39.003 126.85a0.67667 0.67667 0 0 1-1.3533 0 0.67667 0.67667 0 0 1 1.3533 0z" fill="#807b88" stroke="#000" stroke-width=".1905"/><g font-size="3.175px" stroke-width=".26458"><text x="37.665028" y="125.56226"><tspan x="37.665028" y="125.56226" fill="#d90000" font-family="'Bitstream Vera Sans'" font-size="1.9844px" stroke-width=".070004">A</tspan></text><text x="37.554882" y="123.56201"><tspan x="37.554882" y="123.56201" fill="#807b88" font-family="'Bitstream Vera Sans'" font-size="1.9844px" stroke-width=".070004">G</tspan></text><text x="37.610447" y="121.56176"><tspan x="37.610447" y="121.56176" fill="#d90000" font-family="'Bitstream Vera Sans'" font-size="1.9844px" stroke-width=".070004">R</tspan></text><text x="37.665028" y="119.56152"><tspan x="37.665028" y="119.56152" fill="#807b88" font-family="'Bitstream Vera Sans'" font-size="1.9844px" stroke-width=".070004">A</tspan></text><text x="37.03561" y="117.64567"><tspan x="37.03561" y="117.64567" fill="#807b88" font-family="'Bitstream Vera Sans'" font-size="1.9844px" stroke-width=".070004">U</tspan></text><text x="38.229572" y="116.04097"><tspan x="38.229572" y="116.04097" fill="#807b88" font-family="'Bitstream Vera Sans'" font-size="1.9844px" stroke-width=".070004">C</tspan></text><text x="40.284405" y="116.04097"><tspan x="40.284405" y="116.04097" fill="#807b88" font-family="'Bitstream Vera Sans'" font-size="1.9844px" stroke-width=".070004">A</tspan></text><text x="41.423805" y="117.64567"><tspan x="41.423805" y="117.64567" fill="#807b88" font-family="'Bitstream Vera Sans'" font-size="1.9844px" stroke-width=".070004">U</tspan></text><text x="40.848946" y="119.56152"><tspan x="40.848946" y="119.56152" fill="#807b88" font-family="'Bitstream Vera Sans'" font-size="1.9844px" stroke-width=".070004">U</tspan></text><text x="40.848946" y="121.56176"><tspan x="40.848946" y="121.56176" fill="#d90000" font-family="'Bitstream Vera Sans'" font-size="1.9844px" stroke-width=".070004">U</tspan></text><text x="40.848946" y="123.56201"><tspan x="40.848946" y="123.56201" fill="#807b88" font-family="'Bitstream Vera Sans'" font-size="1.9844px" stroke-width=".070004">C</tspan></text><text x="40.848946" y="125.56226"><tspan x="40.848946" y="125.56226" fill="#000000" font-family="'Bitstream Vera Sans'" font-size="1.9844px" stroke-width=".070004">U</tspan></text><text x="40.90353" y="127.56251"><tspan x="40.90353" y="127.56251" fill="#000000" font-family="'Bitstream Vera Sans'" font-size="1.9844px" stroke-width=".070004">A</tspan></text><text x="40.848946" y="129.56277"><tspan x="40.848946" y="129.56277" fill="#807b88" font-family="'Bitstream Vera Sans'" font-size="1.9844px" stroke-width=".070004">U</tspan></text><text x="40.90353" y="131.56302"><tspan x="40.90353" y="131.56302" fill="#000000" font-family="'Bitstream Vera Sans'" font-size="1.9844px" stroke-width=".070004">A</tspan></text><text x="40.793385" y="133.56326"><tspan x="40.793385" y="133.56326" fill="#000000" font-family="'Bitstream Vera Sans'" font-size="1.9844px" stroke-width=".070004">G</tspan></text></g><g fill="#d90000" stroke="#000" stroke-width=".1905"><path d="m42.242 134.85a0.67667 0.67667 0 0 1-1.3533 0 0.67667 0.67667 0 0 1 1.3533 0z"/><path d="m42.242 136.85a0.67667 0.67667 0 0 1-1.3533 0 0.67667 0.67667 0 0 1 1.3533 0z"/><path d="m42.242 138.85a0.67667 0.67667 0 0 1-1.3533 0 0.67667 0.67667 0 0 1 1.3533 0z"/><path d="m42.242 140.85a0.67667 0.67667 0 0 1-1.3533 0 0.67667 0.67667 0 0 1 1.3533 0z"/></g><g font-size="3.175px" stroke-width=".26458"><text x="42.581226" y="142.56439"><tspan x="42.581226" y="142.56439" fill="#807b88" font-family="'Bitstream Vera Sans'" font-size="1.9844px" stroke-width=".070004">C</tspan></text><text x="40.793385" y="143.56451"><tspan x="40.793385" y="143.56451" fill="#000000" font-family="'Bitstream Vera Sans'" font-size="1.9844px" stroke-width=".070004">G</tspan></text><text x="40.848946" y="145.56476"><tspan x="40.848946" y="145.56476" fill="#807b88" font-family="'Bitstream Vera Sans'" font-size="1.9844px" stroke-width=".070004">U</tspan></text><text x="40.848946" y="147.56502"><tspan x="40.848946" y="147.56502" fill="#807b88" font-family="'Bitstream Vera Sans'" font-size="1.9844px" stroke-width=".070004">C</tspan></text></g><path d="m43.656 148.27a0.67667 0.67667 0 0 1-1.3533 0 0.67667 0.67667 0 0 1 1.3533 0z" fill="#807b88" stroke="#000" stroke-width=".1905"/><text x="44.318161" y="148.97948" font-size="3.175px" stroke-width=".26458"><tspan x="44.318161" y="148.97948" fill="#807b88" font-family="'Bitstream Vera Sans'" font-size="1.9844px" stroke-width=".070004">Y</tspan></text><path d="m47.071 146.85a0.67667 0.67667 0 0 1-1.3533 0 0.67667 0.67667 0 0 1 1.3533 0z" fill="#807b88" stroke="#000" stroke-width=".1905"/><text x="45.732544" y="145.56476" font-size="3.175px" stroke-width=".26458"><tspan x="45.732544" y="145.56476" fill="#000000" font-family="'Bitstream Vera Sans'" font-size="1.9844px" stroke-width=".070004">Y</tspan></text><path d="m47.071 142.85a0.67667 0.67667 0 0 1-1.3533 0 0.67667 0.67667 0 0 1 1.3533 0z" fill="#d90000" stroke="#000" stroke-width=".1905"/><path d="m46.251 141.03a0.67667 0.67667 0 0 1-1.3533 0 0.67667 0.67667 0 0 1 1.3533 0z" stroke="#000" stroke-width=".1905"/><text x="45.732544" y="139.91565" font-size="3.175px" stroke-width=".26458"><tspan x="45.732544" y="139.91565" fill="#807b88" font-family="'Bitstream Vera Sans'" font-size="1.9844px" stroke-width=".070004">Y</tspan></text><text x="45.622425" y="137.91541" font-size="3.175px" stroke-width=".26458"><tspan x="45.622425" y="137.91541" fill="#807b88" font-family="'Bitstream Vera Sans'" font-size="1.9844px" stroke-width=".070004">G</tspan></text><path d="m47.071 135.2a0.67667 0.67667 0 0 1-1.3533 0 0.67667 0.67667 0 0 1 1.3533 0z" fill="#d90000" stroke="#000" stroke-width=".1905"/><g font-size="3.175px" stroke-width=".26458"><text x="45.732544" y="133.91489"><tspan x="45.732544" y="133.91489" fill="#000000" font-family="'Bitstream Vera Sans'" font-size="1.9844px" stroke-width=".070004">Y</tspan></text><text x="45.732544" y="131.91464"><tspan x="45.732544" y="131.91464" fill="#807b88" font-family="'Bitstream Vera Sans'" font-size="1.9844px" stroke-width=".070004">Y</tspan></text><text x="45.732544" y="129.9144"><tspan x="45.732544" y="129.9144" fill="#807b88" font-family="'Bitstream Vera Sans'" font-size="1.9844px" stroke-width=".070004">Y</tspan></text><text x="45.732544" y="127.91415"><tspan x="45.732544" y="127.91415" fill="#d90000" font-family="'Bitstream Vera Sans'" font-size="1.9844px" stroke-width=".070004">Y</tspan></text></g><path d="m47.071 125.2a0.67667 0.67667 0 0 1-1.3533 0 0.67667 0.67667 0 0 1 1.3533 0z" fill="#fff" stroke="#000" stroke-width=".1905"/><g font-size="3.175px" stroke-width=".26458"><text x="45.635868" y="123.91603"><tspan x="45.635868" y="123.91603" fill="#000000" font-family="'Bitstream Vera Sans'" font-size="1.9844px" stroke-width=".070004">Y</tspan></text><text x="47.351795" y="122.88812"><tspan x="47.351795" y="122.88812" fill="#807b88" font-family="'Bitstream Vera Sans'" font-size="1.9844px" stroke-width=".070004">A</tspan></text><text x="49.067726" y="123.91603"><tspan x="49.067726" y="123.91603" fill="#807b88" font-family="'Bitstream Vera Sans'" font-size="1.9844px" stroke-width=".070004">A</tspan></text><text x="48.971046" y="125.91389"><tspan x="48.971046" y="125.91389" fill="#807b88" font-family="'Bitstream Vera Sans'" font-size="1.9844px" stroke-width=".070004">A</tspan></text><text x="48.971046" y="127.91415"><tspan x="48.971046" y="127.91415" fill="#807b88" font-family="'Bitstream Vera Sans'" font-size="1.9844px" stroke-width=".070004">A</tspan></text><text x="48.916489" y="129.9144"><tspan x="48.916489" y="129.9144" fill="#807b88" font-family="'Bitstream Vera Sans'" font-size="1.9844px" stroke-width=".070004">R</tspan></text><text x="48.971046" y="131.91464"><tspan x="48.971046" y="131.91464" fill="#807b88" font-family="'Bitstream Vera Sans'" font-size="1.9844px" stroke-width=".070004">A</tspan></text><text x="48.860928" y="133.91489"><tspan x="48.860928" y="133.91489" fill="#807b88" font-family="'Bitstream Vera Sans'" font-size="1.9844px" stroke-width=".070004">G</tspan></text><text x="48.916489" y="135.91515"><tspan x="48.916489" y="135.91515" fill="#807b88" font-family="'Bitstream Vera Sans'" font-size="1.9844px" stroke-width=".070004">C</tspan></text><text x="48.916489" y="137.91541"><tspan x="48.916489" y="137.91541" fill="#807b88" font-family="'Bitstream Vera Sans'" font-size="1.9844px" stroke-width=".070004">C</tspan></text><text x="48.971046" y="139.91565"><tspan x="48.971046" y="139.91565" fill="#807b88" font-family="'Bitstream Vera Sans'" font-size="1.9844px" stroke-width=".070004">A</tspan></text><text x="49.736591" y="141.74022"><tspan x="49.736591" y="141.74022" fill="#807b88" font-family="'Bitstream Vera Sans'" font-size="1.9844px" stroke-width=".070004">C</tspan></text></g><path d="m50.31 142.85a0.67667 0.67667 0 0 1-1.3533 0 0.67667 0.67667 0 0 1 1.3533 0z" fill="#d90000" stroke="#000" stroke-width=".1905"/><text x="48.916489" y="145.56476" font-size="3.175px" stroke-width=".26458"><tspan x="48.916489" y="145.56476" fill="#807b88" font-family="'Bitstream Vera Sans'" font-size="1.9844px" stroke-width=".070004">R</tspan></text><text x="48.916489" y="147.56502" font-size="3.175px" stroke-width=".26458"><tspan x="48.916489" y="147.56502" fill="#807b88" font-family="'Bitstream Vera Sans'" font-size="1.9844px" stroke-width=".070004">R</tspan></text><path d="m51.724 148.27a0.67667 0.67667 0 0 1-1.3533 0 0.67667 0.67667 0 0 1 1.3533 0z" fill="#d90000" stroke="#000" stroke-width=".1905"/><g font-size="3.175px" stroke-width=".26458"><text x="52.385704" y="148.97948"><tspan x="52.385704" y="148.97948" fill="#807b88" font-family="'Bitstream Vera Sans'" font-size="1.9844px" stroke-width=".070004">Y</tspan></text><text x="54.385902" y="148.97948"><tspan x="54.385902" y="148.97948" fill="#807b88" font-family="'Bitstream Vera Sans'" font-size="1.9844px" stroke-width=".070004">Y</tspan></text><text x="56.33165" y="148.97948"><tspan x="56.33165" y="148.97948" fill="#000000" font-family="'Bitstream Vera Sans'" font-size="1.9844px" stroke-width=".070004">C</tspan></text><text x="58.386402" y="148.97948"><tspan x="58.386402" y="148.97948" fill="#d90000" font-family="'Bitstream Vera Sans'" font-size="1.9844px" stroke-width=".070004">A</tspan></text></g><path d="m61.725 148.27a0.67667 0.67667 0 0 1-1.3533 0 0.67667 0.67667 0 0 1 1.3533 0z" fill="#d90000" stroke="#000" stroke-width=".1905"/><g font-size="3.175px" stroke-width=".26458"><text x="61.746609" y="147.56502"><tspan x="61.746609" y="147.56502" fill="#000000" font-family="'Bitstream Vera Sans'" font-size="1.9844px" stroke-width=".070004">C</tspan></text><text x="61.801117" y="145.56476"><tspan x="61.801117" y="145.56476" fill="#807b88" font-family="'Bitstream Vera Sans'" font-size="1.9844px" stroke-width=".070004">Y</tspan></text><text x="61.801117" y="143.56451"><tspan x="61.801117" y="143.56451" fill="#807b88" font-family="'Bitstream Vera Sans'" font-size="1.9844px" stroke-width=".070004">Y</tspan></text><text x="61.691048" y="141.56427"><tspan x="61.691048" y="141.56427" fill="#807b88" font-family="'Bitstream Vera Sans'" font-size="1.9844px" stroke-width=".070004">G</tspan></text><text x="59.976284" y="142.59428"><tspan x="59.976284" y="142.59428" fill="#d90000" font-family="'Bitstream Vera Sans'" font-size="1.9844px" stroke-width=".070004">G</tspan></text><text x="58.162563" y="143.14145"><tspan x="58.162563" y="143.14145" fill="#807b88" font-family="'Bitstream Vera Sans'" font-size="1.9844px" stroke-width=".070004">Y</tspan></text><text x="56.107811" y="143.16737"><tspan x="56.107811" y="143.16737" fill="#000000" font-family="'Bitstream Vera Sans'" font-size="1.9844px" stroke-width=".070004">U</tspan></text><text x="54.114704" y="142.67076"><tspan x="54.114704" y="142.67076" fill="#d90000" font-family="'Bitstream Vera Sans'" font-size="1.9844px" stroke-width=".070004">G</tspan></text><text x="52.483891" y="141.68571"><tspan x="52.483891" y="141.68571" fill="#d90000" font-family="'Bitstream Vera Sans'" font-size="1.9844px" stroke-width=".070004">A</tspan></text><text x="51.005745" y="140.2805"><tspan x="51.005745" y="140.2805" fill="#d90000" font-family="'Bitstream Vera Sans'" font-size="1.9844px" stroke-width=".070004">U</tspan></text><text x="49.942543" y="138.55278"><tspan x="49.942543" y="138.55278" fill="#d90000" font-family="'Bitstream Vera Sans'" font-size="1.9844px" stroke-width=".070004">G</tspan></text><text x="49.530773" y="136.62186"><tspan x="49.530773" y="136.62186" fill="#d90000" font-family="'Bitstream Vera Sans'" font-size="1.9844px" stroke-width=".070004">A</tspan></text></g><path d="m50.869 133.91a0.67667 0.67667 0 0 1-1.3533 0 0.67667 0.67667 0 0 1 1.3533 0z" fill="#d90000" stroke="#000" stroke-width=".1905"/><text x="50.052662" y="132.6904" font-size="3.175px" stroke-width=".26458"><tspan x="50.052662" y="132.6904" fill="#807b88" font-family="'Bitstream Vera Sans'" font-size="1.9844px" stroke-width=".070004">Y</tspan></text><g stroke="#000" stroke-width=".1905"><path d="m52.399 130.25a0.67667 0.67667 0 0 1-1.3533 0 0.67667 0.67667 0 0 1 1.3533 0z" fill="#d90000"/><path d="m53.822 128.84a0.67667 0.67667 0 0 1-1.3533 0 0.67667 0.67667 0 0 1 1.3533 0z" fill="#fff"/><path d="m55.563 127.86a0.67667 0.67667 0 0 1-1.3533 0 0.67667 0.67667 0 0 1 1.3533 0z" fill="#807b88"/></g><text x="56.162315" y="128.07581" font-size="3.175px" stroke-width=".26458"><tspan x="56.162315" y="128.07581" fill="#807b88" font-family="'Bitstream Vera Sans'" font-size="1.9844px" stroke-width=".070004">A</tspan></text><g fill="#807b88" stroke="#000" stroke-width=".1905"><path d="m59.501 127.39a0.67667 0.67667 0 0 1-1.3533 0 0.67667 0.67667 0 0 1 1.3533 0z"/><path d="m61.425 127.94a0.67667 0.67667 0 0 1-1.3533 0 0.67667 0.67667 0 0 1 1.3533 0z"/><path d="m63.14 128.97a0.67667 0.67667 0 0 1-1.3533 0 0.67667 0.67667 0 0 1 1.3533 0z"/></g><g font-size="3.175px" stroke-width=".26458"><text x="61.746609" y="127.67867"><tspan x="61.746609" y="127.67867" fill="#000000" font-family="'Bitstream Vera Sans'" font-size="1.9844px" stroke-width=".070004">C</tspan></text><text x="61.746609" y="125.67842"><tspan x="61.746609" y="125.67842" fill="#000000" font-family="'Bitstream Vera Sans'" font-size="1.9844px" stroke-width=".070004">C</tspan></text><text x="61.801117" y="123.67816"><tspan x="61.801117" y="123.67816" fill="#807b88" font-family="'Bitstream Vera Sans'" font-size="1.9844px" stroke-width=".070004">Y</tspan></text><text x="61.801117" y="121.67792"><tspan x="61.801117" y="121.67792" fill="#807b88" font-family="'Bitstream Vera Sans'" font-size="1.9844px" stroke-width=".070004">Y</tspan></text></g><path d="m63.14 118.97a0.67667 0.67667 0 0 1-1.3533 0 0.67667 0.67667 0 0 1 1.3533 0z" stroke="#000" stroke-width=".1905"/><g font-size="3.175px" stroke-width=".26458"><text x="61.746609" y="117.67741"><tspan x="61.746609" y="117.67741" fill="#807b88" font-family="'Bitstream Vera Sans'" font-size="1.9844px" stroke-width=".070004">R</tspan></text><text x="61.801117" y="115.67716"><tspan x="61.801117" y="115.67716" fill="#807b88" font-family="'Bitstream Vera Sans'" font-size="1.9844px" stroke-width=".070004">Y</tspan></text><text x="61.746609" y="113.67692"><tspan x="61.746609" y="113.67692" fill="#807b88" font-family="'Bitstream Vera Sans'" font-size="1.9844px" stroke-width=".070004">R</tspan></text><text x="61.746609" y="111.67667"><tspan x="61.746609" y="111.67667" fill="#000000" font-family="'Bitstream Vera Sans'" font-size="1.9844px" stroke-width=".070004">C</tspan></text><text x="61.746609" y="109.67641"><tspan x="61.746609" y="109.67641" fill="#000000" font-family="'Bitstream Vera Sans'" font-size="1.9844px" stroke-width=".070004">C</tspan></text><text x="61.746609" y="107.67617"><tspan x="61.746609" y="107.67617" fill="#d90000" font-family="'Bitstream Vera Sans'" font-size="1.9844px" stroke-width=".070004">C</tspan></text></g><path d="m61.691 105.58a0.67667 0.67667 0 0 1-1.3533 0 0.67667 0.67667 0 0 1 1.3533 0z" fill="#d90000" stroke="#000" stroke-width=".1905"/><g font-size="3.175px" stroke-width=".26458"><text x="59.882092" y="104.35247"><tspan x="59.882092" y="104.35247" fill="#000000" font-family="'Bitstream Vera Sans'" font-size="1.9844px" stroke-width=".070004">A</tspan></text><text x="60.48534" y="102.46361"><tspan x="60.48534" y="102.46361" fill="#807b88" font-family="'Bitstream Vera Sans'" font-size="1.9844px" stroke-width=".070004">R</tspan></text><text x="59.62571" y="100.68456"><tspan x="59.62571" y="100.68456" fill="#000000" font-family="'Bitstream Vera Sans'" font-size="1.9844px" stroke-width=".070004">A</tspan></text><text x="58.601242" y="98.905495"><tspan x="58.601242" y="98.905495" fill="#d90000" font-family="'Bitstream Vera Sans'" font-size="1.9844px" stroke-width=".070004">G</tspan></text><text x="58.065464" y="100.81631"><tspan x="58.065464" y="100.81631" fill="#000000" font-family="'Bitstream Vera Sans'" font-size="1.9844px" stroke-width=".070004">U</tspan></text><text x="57.09444" y="102.59485"><tspan x="57.09444" y="102.59485" fill="#d90000" font-family="'Bitstream Vera Sans'" font-size="1.9844px" stroke-width=".070004">G</tspan></text><text x="55.992981" y="104.18632"><tspan x="55.992981" y="104.18632" fill="#d90000" font-family="'Bitstream Vera Sans'" font-size="1.9844px" stroke-width=".070004">A</tspan></text><text x="54.467659" y="105.54204"><tspan x="54.467659" y="105.54204" fill="#d90000" font-family="'Bitstream Vera Sans'" font-size="1.9844px" stroke-width=".070004">R</tspan></text><text x="52.783005" y="106.62048"><tspan x="52.783005" y="106.62048" fill="#807b88" font-family="'Bitstream Vera Sans'" font-size="1.9844px" stroke-width=".070004">R</tspan></text></g><g fill="#807b88" stroke="#000" stroke-width=".1905"><path d="m52.329 106.68a0.67667 0.67667 0 0 1-1.3533 0 0.67667 0.67667 0 0 1 1.3533 0z"/><path d="m50.377 107.11a0.67667 0.67667 0 0 1-1.3533 0 0.67667 0.67667 0 0 1 1.3533 0z"/><path d="m48.378 107.2a0.67667 0.67667 0 0 1-1.3533 0 0.67667 0.67667 0 0 1 1.3533 0z"/><path d="m46.395 106.93a0.67667 0.67667 0 0 1-1.3533 0 0.67667 0.67667 0 0 1 1.3533 0z"/></g><g fill="#fff" stroke="#000" stroke-width=".1905"><path d="m44.489 106.33a0.67667 0.67667 0 0 1-1.3533 0 0.67667 0.67667 0 0 1 1.3533 0z"/><path d="m42.717 105.4a0.67667 0.67667 0 0 1-1.3533 0 0.67667 0.67667 0 0 1 1.3533 0z"/><path d="m41.134 104.18a0.67667 0.67667 0 0 1-1.3533 0 0.67667 0.67667 0 0 1 1.3533 0z"/></g><path d="m39.788 102.7a0.67667 0.67667 0 0 1-1.3533 0 0.67667 0.67667 0 0 1 1.3533 0z" fill="#807b88" stroke="#000" stroke-width=".1905"/><g fill="#fff" stroke="#000" stroke-width=".1905"><path d="m38.722 101.01a0.67667 0.67667 0 0 1-1.3533 0 0.67667 0.67667 0 0 1 1.3533 0z"/><path d="m37.967 99.154a0.67667 0.67667 0 0 1-1.3533 0 0.67667 0.67667 0 0 1 1.3533 0z"/><path d="m37.546 97.199a0.67667 0.67667 0 0 1-1.3533 0 0.67667 0.67667 0 0 1 1.3533 0z"/><path d="m37.473 95.2a0.67667 0.67667 0 0 1-1.3533 0 0.67667 0.67667 0 0 1 1.3533 0z"/><path d="m37.75 93.219a0.67667 0.67667 0 0 1-1.3533 0 0.67667 0.67667 0 0 1 1.3533 0z"/></g><text x="37.029976" y="92.028976" font-size="3.175px" stroke-width=".26458"><tspan x="37.029976" y="92.028976" fill="#807b88" font-family="'Bitstream Vera Sans'" font-size="1.9844px" stroke-width=".070004">Y</tspan></text><g fill="#fff" stroke="#000" stroke-width=".1905"><path d="m39.309 89.551a0.67667 0.67667 0 0 1-1.3533 0 0.67667 0.67667 0 0 1 1.3533 0z"/><path d="m40.543 87.977a0.67667 0.67667 0 0 1-1.3533 0 0.67667 0.67667 0 0 1 1.3533 0z"/><path d="m42.033 86.642a0.67667 0.67667 0 0 1-1.3533 0 0.67667 0.67667 0 0 1 1.3533 0z"/><path d="m43.732 85.587a0.67667 0.67667 0 0 1-1.3533 0 0.67667 0.67667 0 0 1 1.3533 0z"/><path d="m45.59 84.845a0.67667 0.67667 0 0 1-1.3533 0 0.67667 0.67667 0 0 1 1.3533 0z"/><path d="m47.548 84.439a0.67667 0.67667 0 0 1-1.3533 0 0.67667 0.67667 0 0 1 1.3533 0z"/><path d="m49.548 84.38a0.67667 0.67667 0 0 1-1.3533 0 0.67667 0.67667 0 0 1 1.3533 0z"/></g><g stroke="#000" stroke-width=".1905"><path d="m51.527 84.671a0.67667 0.67667 0 0 1-1.3533 0 0.67667 0.67667 0 0 1 1.3533 0z" fill="#807b88"/><path d="m53.424 85.302a0.67667 0.67667 0 0 1-1.3533 0 0.67667 0.67667 0 0 1 1.3533 0z" fill="#807b88"/><path d="m51.861 84.054a0.67667 0.67667 0 0 1-1.3533 0 0.67667 0.67667 0 0 1 1.3533 0z" fill="#fff"/><path d="m51.757 82.057a0.67667 0.67667 0 0 1-1.3533 0 0.67667 0.67667 0 0 1 1.3533 0z" fill="#807b88"/><path d="m50.842 80.278a0.67667 0.67667 0 0 1-1.3533 0 0.67667 0.67667 0 0 1 1.3533 0z" fill="#807b88"/></g><g fill="#fff" stroke="#000" stroke-width=".1905"><path d="m49.928 78.499a0.67667 0.67667 0 0 1-1.3533 0 0.67667 0.67667 0 0 1 1.3533 0z"/><path d="m49.014 76.72a0.67667 0.67667 0 0 1-1.3533 0 0.67667 0.67667 0 0 1 1.3533 0z"/><path d="m48.099 74.941a0.67667 0.67667 0 0 1-1.3533 0 0.67667 0.67667 0 0 1 1.3533 0z"/></g><path d="m47.185 73.162a0.67667 0.67667 0 0 1-1.3533 0 0.67667 0.67667 0 0 1 1.3533 0z" fill="#807b88" stroke="#000" stroke-width=".1905"/><g fill="#fff" stroke="#000" stroke-width=".1905"><path d="m45.206 73.456a0.67667 0.67667 0 0 1-1.3533 0 0.67667 0.67667 0 0 1 1.3533 0z"/><path d="m43.427 72.542a0.67667 0.67667 0 0 1-1.3533 0 0.67667 0.67667 0 0 1 1.3533 0z"/><path d="m42.513 70.763a0.67667 0.67667 0 0 1-1.3533 0 0.67667 0.67667 0 0 1 1.3533 0z"/><path d="m42.806 68.785a0.67667 0.67667 0 0 1-1.3533 0 0.67667 0.67667 0 0 1 1.3533 0z"/><path d="m44.196 67.347a0.67667 0.67667 0 0 1-1.3533 0 0.67667 0.67667 0 0 1 1.3533 0z"/><path d="m43.282 65.568a0.67667 0.67667 0 0 1-1.3533 0 0.67667 0.67667 0 0 1 1.3533 0z"/><path d="m42.368 63.789a0.67667 0.67667 0 0 1-1.3533 0 0.67667 0.67667 0 0 1 1.3533 0z"/><path d="m41.453 62.01a0.67667 0.67667 0 0 1-1.3533 0 0.67667 0.67667 0 0 1 1.3533 0z"/><path d="m40.539 60.231a0.67667 0.67667 0 0 1-1.3533 0 0.67667 0.67667 0 0 1 1.3533 0z"/><path d="m39.625 58.452a0.67667 0.67667 0 0 1-1.3533 0 0.67667 0.67667 0 0 1 1.3533 0z"/><path d="m37.802 57.629a0.67667 0.67667 0 0 1-1.3533 0 0.67667 0.67667 0 0 1 1.3533 0z"/><path d="m36.887 55.849a0.67667 0.67667 0 0 1-1.3533 0 0.67667 0.67667 0 0 1 1.3533 0z"/><path d="m37.279 53.888a0.67667 0.67667 0 0 1-1.3533 0 0.67667 0.67667 0 0 1 1.3533 0z"/></g><g stroke="#000" stroke-width=".1905"><path d="m36.365 52.109a0.67667 0.67667 0 0 1-1.3533 0 0.67667 0.67667 0 0 1 1.3533 0z" fill="#807b88"/><path d="m35.45 50.33a0.67667 0.67667 0 0 1-1.3533 0 0.67667 0.67667 0 0 1 1.3533 0z" fill="#fff"/><path d="m34.536 48.551a0.67667 0.67667 0 0 1-1.3533 0 0.67667 0.67667 0 0 1 1.3533 0z" fill="#807b88"/><path d="m32.778 47.597a0.67667 0.67667 0 0 1-1.3533 0 0.67667 0.67667 0 0 1 1.3533 0z" fill="#fff"/></g><text x="30.697783" y="46.431133" font-size="3.175px" stroke-width=".26458"><tspan x="30.697783" y="46.431133" fill="#807b88" font-family="'Bitstream Vera Sans'" font-size="1.9844px" stroke-width=".070004">U</tspan></text><text x="31.480791" y="44.568226" font-size="3.175px" stroke-width=".26458"><tspan x="31.480791" y="44.568226" fill="#000000" font-family="'Bitstream Vera Sans'" font-size="1.9844px" stroke-width=".070004">Y</tspan></text><g stroke="#000" stroke-width=".1905"><path d="m34.598 42.941a0.67667 0.67667 0 0 1-1.3533 0 0.67667 0.67667 0 0 1 1.3533 0z" fill="#d90000"/><path d="m36.537 43.434a0.67667 0.67667 0 0 1-1.3533 0 0.67667 0.67667 0 0 1 1.3533 0z" fill="#807b88"/><path d="m37.665 45.086a0.67667 0.67667 0 0 1-1.3533 0 0.67667 0.67667 0 0 1 1.3533 0z" fill="#fff"/><path d="m37.416 47.07a0.67667 0.67667 0 0 1-1.3533 0 0.67667 0.67667 0 0 1 1.3533 0z" fill="#807b88"/><path d="m38.331 48.85a0.67667 0.67667 0 0 1-1.3533 0 0.67667 0.67667 0 0 1 1.3533 0z" fill="#fff"/><path d="m39.245 50.629a0.67667 0.67667 0 0 1-1.3533 0 0.67667 0.67667 0 0 1 1.3533 0z" fill="#807b88"/><path d="m40.159 52.408a0.67667 0.67667 0 0 1-1.3533 0 0.67667 0.67667 0 0 1 1.3533 0z" fill="#807b88"/></g><g fill="#fff" stroke="#000" stroke-width=".1905"><path d="m41.982 53.231a0.67667 0.67667 0 0 1-1.3533 0 0.67667 0.67667 0 0 1 1.3533 0z"/><path d="m42.897 55.01a0.67667 0.67667 0 0 1-1.3533 0 0.67667 0.67667 0 0 1 1.3533 0z"/><path d="m42.505 56.971a0.67667 0.67667 0 0 1-1.3533 0 0.67667 0.67667 0 0 1 1.3533 0z"/><path d="m43.419 58.75a0.67667 0.67667 0 0 1-1.3533 0 0.67667 0.67667 0 0 1 1.3533 0z"/><path d="m44.334 60.53a0.67667 0.67667 0 0 1-1.3533 0 0.67667 0.67667 0 0 1 1.3533 0z"/><path d="m45.248 62.309a0.67667 0.67667 0 0 1-1.3533 0 0.67667 0.67667 0 0 1 1.3533 0z"/><path d="m46.162 64.088a0.67667 0.67667 0 0 1-1.3533 0 0.67667 0.67667 0 0 1 1.3533 0z"/><path d="m47.077 65.867a0.67667 0.67667 0 0 1-1.3533 0 0.67667 0.67667 0 0 1 1.3533 0z"/><path d="m49.008 66.386a0.67667 0.67667 0 0 1-1.3533 0 0.67667 0.67667 0 0 1 1.3533 0z"/><path d="m50.375 67.847a0.67667 0.67667 0 0 1-1.3533 0 0.67667 0.67667 0 0 1 1.3533 0z"/><path d="m50.767 69.808a0.67667 0.67667 0 0 1-1.3533 0 0.67667 0.67667 0 0 1 1.3533 0z"/></g><path d="m50.065 71.681a0.67667 0.67667 0 0 1-1.3533 0 0.67667 0.67667 0 0 1 1.3533 0z" fill="#807b88" stroke="#000" stroke-width=".1905"/><g fill="#fff" stroke="#000" stroke-width=".1905"><path d="m50.98 73.461a0.67667 0.67667 0 0 1-1.3533 0 0.67667 0.67667 0 0 1 1.3533 0z"/><path d="m51.894 75.239a0.67667 0.67667 0 0 1-1.3533 0 0.67667 0.67667 0 0 1 1.3533 0z"/><path d="m52.808 77.018a0.67667 0.67667 0 0 1-1.3533 0 0.67667 0.67667 0 0 1 1.3533 0z"/></g><path d="m53.723 78.797a0.67667 0.67667 0 0 1-1.3533 0 0.67667 0.67667 0 0 1 1.3533 0z" fill="#807b88" stroke="#000" stroke-width=".1905"/><path d="m54.637 80.576a0.67671 0.67671 0 0 1-1.3534 0 0.67671 0.67671 0 0 1 1.3534 0z" fill="#807b88" stroke="#000" stroke-width=".1905"/><g fill="#fff" stroke="#000" stroke-width=".1905"><path d="m56.2 81.824a0.67667 0.67667 0 0 1-1.3533 0 0.67667 0.67667 0 0 1 1.3533 0z"/><path d="m56.305 83.822a0.67667 0.67667 0 0 1-1.3533 0 0.67667 0.67667 0 0 1 1.3533 0z"/><path d="m58.291 83.583a0.67667 0.67667 0 0 1-1.3533 0 0.67667 0.67667 0 0 1 1.3533 0z"/><path d="m60.268 83.882a0.67667 0.67667 0 0 1-1.3533 0 0.67667 0.67667 0 0 1 1.3533 0z"/></g><g font-size="3.175px" stroke-width=".26458"><text x="60.756012" y="85.411476"><tspan x="60.756012" y="85.411476" fill="#d90000" font-family="'Bitstream Vera Sans'" font-size="1.9844px" stroke-width=".070004">Y</tspan></text><text x="62.187405" y="86.685715"><tspan x="62.187405" y="86.685715" fill="#000000" font-family="'Bitstream Vera Sans'" font-size="1.9844px" stroke-width=".070004">G</tspan></text><text x="63.443119" y="88.3256"><tspan x="63.443119" y="88.3256" fill="#d90000" font-family="'Bitstream Vera Sans'" font-size="1.9844px" stroke-width=".070004">A</tspan></text><text x="64.055099" y="90.211548"><tspan x="64.055099" y="90.211548" fill="#000000" font-family="'Bitstream Vera Sans'" font-size="1.9844px" stroke-width=".070004">U</tspan></text><text x="64.138443" y="92.207039"><tspan x="64.138443" y="92.207039" fill="#d90000" font-family="'Bitstream Vera Sans'" font-size="1.9844px" stroke-width=".070004">G</tspan></text><text x="63.849518" y="94.167076"><tspan x="63.849518" y="94.167076" fill="#d90000" font-family="'Bitstream Vera Sans'" font-size="1.9844px" stroke-width=".070004">A</tspan></text><text x="62.887493" y="95.94957"><tspan x="62.887493" y="95.94957" fill="#000000" font-family="'Bitstream Vera Sans'" font-size="1.9844px" stroke-width=".070004">U</tspan></text><text x="61.53706" y="97.425148"><tspan x="61.53706" y="97.425148" fill="#000000" font-family="'Bitstream Vera Sans'" font-size="1.9844px" stroke-width=".070004">C</tspan></text><text x="62.451458" y="99.204208"><tspan x="62.451458" y="99.204208" fill="#000000" font-family="'Bitstream Vera Sans'" font-size="1.9844px" stroke-width=".070004">U</tspan></text><text x="63.420364" y="100.98327"><tspan x="63.420364" y="100.98327" fill="#807b88" font-family="'Bitstream Vera Sans'" font-size="1.9844px" stroke-width=".070004">Y</tspan></text></g><path d="m66.678 100.84a0.67667 0.67667 0 0 1-1.3533 0 0.67667 0.67667 0 0 1 1.3533 0z" fill="#d90000" stroke="#000" stroke-width=".1905"/><g font-size="3.175px" stroke-width=".26458"><text x="66.59166" y="103.0621"><tspan x="66.59166" y="103.0621" fill="#807b88" font-family="'Bitstream Vera Sans'" font-size="1.9844px" stroke-width=".070004">R</tspan></text><text x="68.589531" y="103.15973"><tspan x="68.589531" y="103.15973" fill="#807b88" font-family="'Bitstream Vera Sans'" font-size="1.9844px" stroke-width=".070004">C</tspan></text><text x="70.587395" y="103.25736"><tspan x="70.587395" y="103.25736" fill="#000000" font-family="'Bitstream Vera Sans'" font-size="1.9844px" stroke-width=".070004">C</tspan></text><text x="72.585266" y="103.35526"><tspan x="72.585266" y="103.35526" fill="#807b88" font-family="'Bitstream Vera Sans'" font-size="1.9844px" stroke-width=".070004">C</tspan></text></g><g stroke="#000" stroke-width=".1905"><path d="m75.976 102.74a0.67667 0.67667 0 0 1-1.3533 0 0.67667 0.67667 0 0 1 1.3533 0z" fill="#d90000"/><path d="m77.974 102.84a0.67667 0.67667 0 0 1-1.3533 0 0.67667 0.67667 0 0 1 1.3533 0z" fill="#d90000"/><path d="m79.972 102.94a0.67667 0.67667 0 0 1-1.3533 0 0.67667 0.67667 0 0 1 1.3533 0z" fill="#807b88"/><path d="m81.97 103.03a0.67667 0.67667 0 0 1-1.3533 0 0.67667 0.67667 0 0 1 1.3533 0z" fill="#807b88"/><path d="m83.968 103.13a0.67667 0.67667 0 0 1-1.3533 0 0.67667 0.67667 0 0 1 1.3533 0z"/><path d="m85.966 103.23a0.67667 0.67667 0 0 1-1.3533 0 0.67667 0.67667 0 0 1 1.3533 0z"/><path d="m87.963 103.33a0.67667 0.67667 0 0 1-1.3533 0 0.67667 0.67667 0 0 1 1.3533 0z" fill="#807b88"/><path d="m89.961 103.42a0.67667 0.67667 0 0 1-1.3533 0 0.67667 0.67667 0 0 1 1.3533 0z" fill="#fff"/><path d="m91.959 103.52a0.67667 0.67667 0 0 1-1.3533 0 0.67667 0.67667 0 0 1 1.3533 0z" fill="#fff"/><path d="m91.626 101.55a0.67667 0.67667 0 0 1-1.3533 0 0.67667 0.67667 0 0 1 1.3533 0z" fill="#807b88"/><path d="m92.954 100.05a0.67667 0.67667 0 0 1-1.3533 0 0.67667 0.67667 0 0 1 1.3533 0z" fill="#807b88"/><path d="m94.952 100.15a0.67667 0.67667 0 0 1-1.3533 0 0.67667 0.67667 0 0 1 1.3533 0z" fill="#fff"/><path d="m96.128 101.77a0.67667 0.67667 0 0 1-1.3533 0 0.67667 0.67667 0 0 1 1.3533 0z" fill="#807b88"/></g><text x="94.264961" y="104.41253" font-size="3.175px" stroke-width=".26458"><tspan x="94.264961" y="104.41253" fill="#807b88" font-family="'Bitstream Vera Sans'" font-size="1.9844px" stroke-width=".070004">Y</tspan></text><path d="m97.601 103.8a0.67667 0.67667 0 0 1-1.3533 0 0.67667 0.67667 0 0 1 1.3533 0z" stroke="#000" stroke-width=".1905"/><g font-size="3.175px" stroke-width=".26458"><text x="98.260696" y="104.6078"><tspan x="98.260696" y="104.6078" fill="#807b88" font-family="'Bitstream Vera Sans'" font-size="1.9844px" stroke-width=".070004">Y</tspan></text><text x="100.25856" y="104.70542"><tspan x="100.25856" y="104.70542" fill="#000000" font-family="'Bitstream Vera Sans'" font-size="1.9844px" stroke-width=".070004">Y</tspan></text><text x="102.20035" y="104.22495"><tspan x="102.20035" y="104.22495" fill="#000000" font-family="'Bitstream Vera Sans'" font-size="1.9844px" stroke-width=".070004">Y</tspan></text><text x="103.69021" y="105.49574"><tspan x="103.69021" y="105.49574" fill="#000000" font-family="'Bitstream Vera Sans'" font-size="1.9844px" stroke-width=".070004">U</tspan></text><text x="103.64709" y="107.49361"><tspan x="103.64709" y="107.49361" fill="#807b88" font-family="'Bitstream Vera Sans'" font-size="1.9844px" stroke-width=".070004">Y</tspan></text><text x="101.87596" y="108.60777"><tspan x="101.87596" y="108.60777" fill="#807b88" font-family="'Bitstream Vera Sans'" font-size="1.9844px" stroke-width=".070004">G</tspan></text><text x="99.99028" y="107.94022"><tspan x="99.99028" y="107.94022" fill="#000000" font-family="'Bitstream Vera Sans'" font-size="1.9844px" stroke-width=".070004">G</tspan></text><text x="98.047974" y="107.84259"><tspan x="98.047974" y="107.84259" fill="#807b88" font-family="'Bitstream Vera Sans'" font-size="1.9844px" stroke-width=".070004">R</tspan></text></g><path d="m97.443 107.03a0.67667 0.67667 0 0 1-1.3533 0 0.67667 0.67667 0 0 1 1.3533 0z" fill="#807b88" stroke="#000" stroke-width=".1905"/><text x="93.996674" y="107.64706" font-size="3.175px" stroke-width=".26458"><tspan x="93.996674" y="107.64706" fill="#807b88" font-family="'Bitstream Vera Sans'" font-size="1.9844px" stroke-width=".070004">G</tspan></text><g stroke="#000" stroke-width=".1905"><path d="m93.583 107.66a0.67667 0.67667 0 0 1-1.3533 0 0.67667 0.67667 0 0 1 1.3533 0z" fill="#fff"/><path d="m91.801 106.76a0.67667 0.67667 0 0 1-1.3533 0 0.67667 0.67667 0 0 1 1.3533 0z" fill="#fff"/><path d="m89.803 106.66a0.67667 0.67667 0 0 1-1.3533 0 0.67667 0.67667 0 0 1 1.3533 0z" fill="#807b88"/><path d="m87.805 106.56a0.67667 0.67667 0 0 1-1.3533 0 0.67667 0.67667 0 0 1 1.3533 0z"/><path d="m85.807 106.46a0.67667 0.67667 0 0 1-1.3533 0 0.67667 0.67667 0 0 1 1.3533 0z" fill="#807b88"/><path d="m83.809 106.37a0.67667 0.67667 0 0 1-1.3533 0 0.67667 0.67667 0 0 1 1.3533 0z" fill="#d90000"/><path d="m81.812 106.27a0.67667 0.67667 0 0 1-1.3533 0 0.67667 0.67667 0 0 1 1.3533 0z" fill="#d90000"/><path d="m79.814 106.17a0.67667 0.67667 0 0 1-1.3533 0 0.67667 0.67667 0 0 1 1.3533 0z"/><path d="m77.816 106.07a0.67667 0.67667 0 0 1-1.3533 0 0.67667 0.67667 0 0 1 1.3533 0z" fill="#d90000"/><path d="m75.818 105.98a0.67667 0.67667 0 0 1-1.3533 0 0.67667 0.67667 0 0 1 1.3533 0z" fill="#d90000"/></g><g font-size="3.175px" stroke-width=".26458"><text x="72.371483" y="106.58978"><tspan x="72.371483" y="106.58978" fill="#807b88" font-family="'Bitstream Vera Sans'" font-size="1.9844px" stroke-width=".070004">G</tspan></text><text x="70.373611" y="106.49216"><tspan x="70.373611" y="106.49216" fill="#000000" font-family="'Bitstream Vera Sans'" font-size="1.9844px" stroke-width=".070004">G</tspan></text><text x="68.375748" y="106.39453"><tspan x="68.375748" y="106.39453" fill="#807b88" font-family="'Bitstream Vera Sans'" font-size="1.9844px" stroke-width=".070004">G</tspan></text><text x="66.433441" y="106.29662"><tspan x="66.433441" y="106.29662" fill="#807b88" font-family="'Bitstream Vera Sans'" font-size="1.9844px" stroke-width=".070004">U</tspan></text><text x="64.92955" y="107.67617"><tspan x="64.92955" y="107.67617" fill="#d90000" font-family="'Bitstream Vera Sans'" font-size="1.9844px" stroke-width=".070004">G</tspan></text><text x="64.92955" y="109.67641"><tspan x="64.92955" y="109.67641" fill="#d90000" font-family="'Bitstream Vera Sans'" font-size="1.9844px" stroke-width=".070004">G</tspan></text><text x="64.92955" y="111.67667"><tspan x="64.92955" y="111.67667" fill="#000000" font-family="'Bitstream Vera Sans'" font-size="1.9844px" stroke-width=".070004">G</tspan></text><text x="65.039612" y="113.67692"><tspan x="65.039612" y="113.67692" fill="#807b88" font-family="'Bitstream Vera Sans'" font-size="1.9844px" stroke-width=".070004">Y</tspan></text><text x="64.985107" y="115.67716"><tspan x="64.985107" y="115.67716" fill="#807b88" font-family="'Bitstream Vera Sans'" font-size="1.9844px" stroke-width=".070004">R</tspan></text><text x="65.039612" y="117.67741"><tspan x="65.039612" y="117.67741" fill="#000000" font-family="'Bitstream Vera Sans'" font-size="1.9844px" stroke-width=".070004">Y</tspan></text></g><path d="m66.378 118.97a0.67667 0.67667 0 0 1-1.3533 0 0.67667 0.67667 0 0 1 1.3533 0z" fill="#d90000" stroke="#000" stroke-width=".1905"/><g font-size="3.175px" stroke-width=".26458"><text x="64.985107" y="121.67792"><tspan x="64.985107" y="121.67792" fill="#807b88" font-family="'Bitstream Vera Sans'" font-size="1.9844px" stroke-width=".070004">R</tspan></text><text x="64.985107" y="123.67816"><tspan x="64.985107" y="123.67816" fill="#807b88" font-family="'Bitstream Vera Sans'" font-size="1.9844px" stroke-width=".070004">R</tspan></text><text x="66.771843" y="124.6783"><tspan x="66.771843" y="124.6783" fill="#807b88" font-family="'Bitstream Vera Sans'" font-size="1.9844px" stroke-width=".070004">Y</tspan></text><text x="64.92955" y="125.67842"><tspan x="64.92955" y="125.67842" fill="#000000" font-family="'Bitstream Vera Sans'" font-size="1.9844px" stroke-width=".070004">G</tspan></text><text x="64.92955" y="127.67867"><tspan x="64.92955" y="127.67867" fill="#000000" font-family="'Bitstream Vera Sans'" font-size="1.9844px" stroke-width=".070004">G</tspan></text></g><path d="m66.378 128.97a0.67667 0.67667 0 0 1-1.3533 0 0.67667 0.67667 0 0 1 1.3533 0z" fill="#d90000" stroke="#000" stroke-width=".1905"/><path d="m68.197 129.8a0.67667 0.67667 0 0 1-1.3533 0 0.67667 0.67667 0 0 1 1.3533 0z" fill="#d90000" stroke="#000" stroke-width=".1905"/><g font-size="3.175px" stroke-width=".26458"><text x="68.204559" y="131.88237"><tspan x="68.204559" y="131.88237" fill="#807b88" font-family="'Bitstream Vera Sans'" font-size="1.9844px" stroke-width=".070004">G</tspan></text><text x="69.200447" y="133.64793"><tspan x="69.200447" y="133.64793" fill="#000000" font-family="'Bitstream Vera Sans'" font-size="1.9844px" stroke-width=".070004">U</tspan></text><text x="69.525093" y="135.62172"><tspan x="69.525093" y="135.62172" fill="#d90000" font-family="'Bitstream Vera Sans'" font-size="1.9844px" stroke-width=".070004">C</tspan></text><text x="69.200447" y="137.59525"><tspan x="69.200447" y="137.59525" fill="#d90000" font-family="'Bitstream Vera Sans'" font-size="1.9844px" stroke-width=".070004">U</tspan></text><text x="68.204559" y="139.36081"><tspan x="68.204559" y="139.36081" fill="#d90000" font-family="'Bitstream Vera Sans'" font-size="1.9844px" stroke-width=".070004">G</tspan></text><text x="66.85836" y="140.73215"><tspan x="66.85836" y="140.73215" fill="#d90000" font-family="'Bitstream Vera Sans'" font-size="1.9844px" stroke-width=".070004">A</tspan></text><text x="64.985107" y="141.56427"><tspan x="64.985107" y="141.56427" fill="#807b88" font-family="'Bitstream Vera Sans'" font-size="1.9844px" stroke-width=".070004">C</tspan></text><text x="64.985107" y="143.56451"><tspan x="64.985107" y="143.56451" fill="#807b88" font-family="'Bitstream Vera Sans'" font-size="1.9844px" stroke-width=".070004">R</tspan></text><text x="64.985107" y="145.56476"><tspan x="64.985107" y="145.56476" fill="#807b88" font-family="'Bitstream Vera Sans'" font-size="1.9844px" stroke-width=".070004">R</tspan></text><text x="64.92955" y="147.56502"><tspan x="64.92955" y="147.56502" fill="#000000" font-family="'Bitstream Vera Sans'" font-size="1.9844px" stroke-width=".070004">G</tspan></text><text x="66.454079" y="148.97948"><tspan x="66.454079" y="148.97948" fill="#807b88" font-family="'Bitstream Vera Sans'" font-size="1.9844px" stroke-width=".070004">Y</tspan></text></g><path d="m30.912 148.27h1.0001" fill="none" stroke="#000" stroke-width=".1905"/><text x="29.032469" y="148.97948" font-size="3.175px" stroke-width=".26458"><tspan x="29.032469" y="148.97948" fill="#000000" font-family="'Bitstream Vera Sans'" font-size="1.9844px" stroke-width=".070004">5'</tspan></text></g></g></svg>
