<?xml version="1.0" encoding="UTF-8" standalone="no"?>
<!-- Created with Inkscape (http://www.inkscape.org/) -->

<svg
   xmlns:dc="http://purl.org/dc/elements/1.1/"
   xmlns:cc="http://creativecommons.org/ns#"
   xmlns:rdf="http://www.w3.org/1999/02/22-rdf-syntax-ns#"
   xmlns:svg="http://www.w3.org/2000/svg"
   xmlns="http://www.w3.org/2000/svg"
   xmlns:sodipodi="http://sodipodi.sourceforge.net/DTD/sodipodi-0.dtd"
   xmlns:inkscape="http://www.inkscape.org/namespaces/inkscape"
   width="96"
   height="96"
   viewBox="0 0 25.399999 25.399999"
   version="1.1"
   id="svg820"
   inkscape:version="0.92.3 (2405546, 2018-03-11)"
   sodipodi:docname="connect.svg">
  <defs
     id="defs814" />
  <sodipodi:namedview
     id="base"
     pagecolor="#ffffff"
     bordercolor="#666666"
     borderopacity="1.0"
     inkscape:pageopacity="0.0"
     inkscape:pageshadow="2"
     inkscape:zoom="5.6"
     inkscape:cx="24.053911"
     inkscape:cy="50.396136"
     inkscape:document-units="px"
     inkscape:current-layer="layer1"
     showgrid="true"
     units="px"
     inkscape:pagecheckerboard="true"
     inkscape:window-width="1920"
     inkscape:window-height="1015"
     inkscape:window-x="0"
     inkscape:window-y="0"
     inkscape:window-maximized="1"
     inkscape:snap-smooth-nodes="true"
     inkscape:snap-bbox="true"
     inkscape:snap-global="true">
    <inkscape:grid
       type="xygrid"
       id="grid1424" />
  </sodipodi:namedview>
  <metadata
     id="metadata817">
    <rdf:RDF>
      <cc:Work
         rdf:about="">
        <dc:format>image/svg+xml</dc:format>
        <dc:type
           rdf:resource="http://purl.org/dc/dcmitype/StillImage" />
        <dc:title></dc:title>
      </cc:Work>
    </rdf:RDF>
  </metadata>
  <g
     inkscape:label="Layer 1"
     inkscape:groupmode="layer"
     id="layer1"
     transform="translate(0,-271.60001)">
    <path
       style="opacity:1;vector-effect:none;fill:#dddddd;fill-opacity:1;stroke:none;stroke-width:1.9993701;stroke-linecap:butt;stroke-linejoin:miter;stroke-miterlimit:4;stroke-dasharray:none;stroke-dashoffset:0;stroke-opacity:1"
       d="M 44.5 11 A 37.499998 37.499998 0 0 0 41.964844 11.126953 L 27 11.126953 L 27 26 L 12 26 L 12 36 L 27 36 L 27 61 L 12 61 L 12 71 L 27 71 L 27 86 L 24.630859 86 L 24.630859 86.126953 L 44.630859 86.126953 L 44.630859 85.994141 A 37.499998 37.499998 0 0 0 82 48.5 A 37.499998 37.499998 0 0 0 44.5 11 z M 49 28.564453 L 59 28.564453 L 59 43.564453 L 74 43.564453 L 74 53.564453 L 59 53.564453 L 59 68.564453 L 49 68.564453 L 49 53.564453 L 34 53.564453 L 34 43.564453 L 49 43.564453 L 49 28.564453 z "
       transform="matrix(0.26458332,0,0,0.26458332,0,271.60001)"
       id="path1428" />
  </g>
</svg>
