<?xml version="1.0" encoding="UTF-8" standalone="no"?>
<!-- Created with Inkscape (http://www.inkscape.org/) -->

<svg
   xmlns:dc="http://purl.org/dc/elements/1.1/"
   xmlns:cc="http://creativecommons.org/ns#"
   xmlns:rdf="http://www.w3.org/1999/02/22-rdf-syntax-ns#"
   xmlns:svg="http://www.w3.org/2000/svg"
   xmlns="http://www.w3.org/2000/svg"
   xmlns:sodipodi="http://sodipodi.sourceforge.net/DTD/sodipodi-0.dtd"
   xmlns:inkscape="http://www.inkscape.org/namespaces/inkscape"
   width="96"
   height="96"
   viewBox="0 0 25.399999 25.399999"
   version="1.1"
   id="svg820"
   inkscape:version="0.92.3 (2405546, 2018-03-11)"
   sodipodi:docname="remove_hover.svg">
  <defs
     id="defs814" />
  <sodipodi:namedview
     id="base"
     pagecolor="#ffffff"
     bordercolor="#666666"
     borderopacity="1.0"
     inkscape:pageopacity="0.0"
     inkscape:pageshadow="2"
     inkscape:zoom="5.6"
     inkscape:cx="-39.87466"
     inkscape:cy="50.396136"
     inkscape:document-units="px"
     inkscape:current-layer="layer1"
     showgrid="true"
     units="px"
     inkscape:pagecheckerboard="true"
     inkscape:window-width="1920"
     inkscape:window-height="1051"
     inkscape:window-x="0"
     inkscape:window-y="0"
     inkscape:window-maximized="1"
     inkscape:snap-smooth-nodes="true"
     inkscape:snap-bbox="true"
     inkscape:snap-global="true">
    <inkscape:grid
       type="xygrid"
       id="grid1424" />
  </sodipodi:namedview>
  <metadata
     id="metadata817">
    <rdf:RDF>
      <cc:Work
         rdf:about="">
        <dc:format>image/svg+xml</dc:format>
        <dc:type
           rdf:resource="http://purl.org/dc/dcmitype/StillImage" />
        <dc:title />
      </cc:Work>
    </rdf:RDF>
  </metadata>
  <g
     inkscape:label="Layer 1"
     inkscape:groupmode="layer"
     id="layer1"
     transform="translate(0,-271.60001)">
    <path
       style="opacity:1;vector-effect:none;fill:#c04d4d;fill-opacity:1;stroke:none;stroke-width:1.9993701;stroke-linecap:butt;stroke-linejoin:miter;stroke-miterlimit:4;stroke-dasharray:none;stroke-dashoffset:0;stroke-opacity:1"
       d="M 47.5 11 A 37.499998 37.499998 0 0 0 10 48.5 A 37.499998 37.499998 0 0 0 47.5 86 A 37.499998 37.499998 0 0 0 85 48.5 A 37.499998 37.499998 0 0 0 47.5 11 z M 37.392578 30.322266 L 48 40.929688 L 58.607422 30.322266 L 65.677734 37.392578 L 55.070312 48 L 65.677734 58.607422 L 58.607422 65.677734 L 48 55.070312 L 37.392578 65.677734 L 30.322266 58.607422 L 40.929688 48 L 30.322266 37.392578 L 37.392578 30.322266 z "
       transform="matrix(0.26458332,0,0,0.26458332,0,271.60001)"
       id="path9154" />
  </g>
</svg>
