<?xml version="1.0" encoding="UTF-8"?>
<svg width="146.66mm" height="112.74mm" version="1.1" viewBox="0 0 146.65645 112.73975" xmlns="http://www.w3.org/2000/svg"><g transform="translate(-36.983 -46.614)"><g transform="matrix(.71681 0 0 .71663 31.424 3.2081)" stroke-linejoin="round"><g stroke-width="1.3952"><g transform="matrix(.96037 0 0 1 8.3542 -51.429)" stroke-linejoin="round" stroke-width="1.4237"><g stroke-linejoin="bevel"><path d="m10.305 131.02h190.31c1.3781 0 2.4875 1.1094 2.4875 2.4875v126.11c0 1.3781-1.1094 2.4875-2.4875 2.4875h-190.31c-1.3781 0-2.4875-1.1094-2.4875-2.4875v-126.11c0-1.3781 1.1094-2.4875 2.4875-2.4875z" color="#000000" fill="#fff" style="-inkscape-stroke:none"/><path d="m10.305 130.74c-1.5309 0-2.7715 1.2406-2.7715 2.7715v126.11c0 1.5309 1.2406 2.7715 2.7715 2.7715h190.31c1.5309 0 2.7715-1.2406 2.7715-2.7715v-126.11c0-1.5309-1.2406-2.7715-2.7715-2.7715zm0 0.57031h190.31c1.2253 0 2.2012 0.97592 2.2012 2.2012v126.11c0 1.2252-0.97592 2.2031-2.2012 2.2031h-190.31c-1.2253 0-2.2031-0.97787-2.2031-2.2031v-126.11c0-1.2252 0.97787-2.2012 2.2031-2.2012z" color="#000000" fill="#333" style="-inkscape-stroke:none"/></g><rect x="118.99" y="131.02" width=".50209" height="131.03" fill="#333"/><rect x="117.91" y="199.89" width="2.6329" height="7.9086" rx="1.3165" ry="1.3165" fill="#f2f2f2"/></g><text x="136.91606" y="74.022316" fill="#000000" font-family="Arial" font-size="8.4667px" stroke-linejoin="round" stroke-width=".36916" style="line-height:1.25" xml:space="preserve"><tspan x="136.91606" y="74.022316" font-size="8.4667px" stroke-width=".36916">Unspecific</tspan></text><text x="52.603233" y="74.022316" fill="#000000" font-family="Arial" font-size="8.4667px" stroke-linejoin="round" stroke-width=".36916" style="line-height:1.25" xml:space="preserve"><tspan x="52.603233" y="74.022316" font-size="8.4667px" stroke-width=".36916">Specific</tspan></text><g transform="matrix(.89142 0 0 .89108 27.45 -25.503)" stroke-linejoin="round" stroke-width="1.5655"><g transform="translate(0 11.283)" stroke-linejoin="round" stroke-width=".39137"><g transform="matrix(1.4519 0 0 .62637 -42.197 86.574)" stroke-linejoin="round" stroke-width=".4104"><path d="m48.797 112.52h24.947v128.07h-24.947z" color="#000000" fill="#f2f2f2" style="-inkscape-stroke:none"/><path d="m48.797 112.32a0.20522 0.20522 0 0 0 -0.20508 0.20507v128.07a0.20522 0.20522 0 0 0 0.20508 0.20508h24.947a0.20522 0.20522 0 0 0 0.20508 -0.20508v-128.07a0.20522 0.20522 0 0 0 -0.20508 -0.20507zm0.20508 0.41015h24.537v127.66h-24.537z" color="#000000" fill="#ccc" style="-inkscape-stroke:none"/><rect x="47.901" y="107.93" width="27.181" height="6.8239" fill="#fff" stroke="#fff" stroke-linejoin="round" stroke-width=".4104"/><rect x="47.856" y="233.42" width="25.781" height="11.698" fill="#fff" stroke="#fff" stroke-linejoin="round" stroke-width=".4104"/></g><g fill="#666"><path d="m30.533 162.57v0.47071l31.873 0.0547 2e-3 -0.4707z" color="#000000" stroke-linejoin="miter" style="-inkscape-stroke:none"/><g fill-rule="evenodd"><path d="m57.39 160.77 5.6409 2.0852-5.648 2.066c0.90383-1.2239 0.90149-2.9005 0.0071-4.1512z" color="#000000" style="-inkscape-stroke:none"/><path d="m57.391 160.61a0.16146 0.16146 0 0 0 -0.07227 0.28711l-0.05859-0.0312c0.85476 1.1953 0.85604 2.7938-0.0059 3.9609a0.16146 0.16146 0 0 0 0.18555 0.24804l5.6465-2.0664a0.16146 0.16146 0 0 0 2e-3 -0.30274l-5.6426-2.084-2e-3 0.0156a0.16146 0.16146 0 0 0 -0.05273 -0.0273zm0.24609 0.42578 4.9277 1.8203-4.9336 1.8047c0.65813-1.1296 0.65814-2.4783 0.0059-3.625z" color="#000000" style="-inkscape-stroke:none"/><path d="m35.551 164.9-5.6409-2.0852 5.648-2.066c-0.90383 1.2239-0.90149 2.9005-0.0071 4.1512z" color="#000000" style="-inkscape-stroke:none"/><path d="m35.502 160.6-5.6484 2.0664a0.16146 0.16146 0 0 0 0 0.30273l5.6406 2.084 0.0039-0.0156a0.16146 0.16146 0 0 0 0.05273 0.0274 0.16146 0.16146 0 0 0 0.0918 -0.27539l0.03906 0.0195c-0.85476-1.1953-0.85604-2.7938 0.0059-3.9609a0.16146 0.16146 0 0 0 -0.18555 -0.24805zm-0.19141 0.41407c-0.65813 1.1296-0.65814 2.4783-0.0059 3.625l-4.9277-1.8203z" color="#000000" style="-inkscape-stroke:none"/></g></g><g><path d="m10.076 242.25v0.7832l82.295 0.0332v-0.78125z" color="#000000" stroke-linejoin="miter" style="-inkscape-stroke:none"/><g fill-rule="evenodd"><path d="m84.005 239.2 9.406 3.4632-9.4088 3.4555c1.5037-2.0418 1.4962-4.8361 0.0028-6.9187z" color="#000000" style="-inkscape-stroke:none"/><path d="m84.006 238.93a0.2691 0.2691 0 0 0 -0.21875 0.42578c1.4273 1.9903 1.432 4.6565-2e-3 6.6035a0.2691 0.2691 0 0 0 0.31055 0.41211l9.4082-3.4551a0.2691 0.2691 0 0 0 0 -0.50586l-9.4062-3.4629a0.2691 0.2691 0 0 0 -0.0918 -0.0176zm0.54102 0.75586 8.084 2.9766-8.0801 2.9688c1.0404-1.8492 1.034-4.0725-0.0039-5.9453z" color="#000000" style="-inkscape-stroke:none"/><path d="m18.443 246.12-9.406-3.4632 9.4088-3.4555c-1.5037 2.0418-1.4962 4.8361-0.0028 6.9187z" color="#000000" style="-inkscape-stroke:none"/><path d="m18.354 238.95-9.4082 3.4551a0.2691 0.2691 0 0 0 -0.00195 0.50586l9.4062 3.4629a0.2691 0.2691 0 0 0 0.09375 0.0176 0.2691 0.2691 0 0 0 0.21875 -0.42578c-1.4273-1.9903-1.434-4.6565 0-6.6035a0.2691 0.2691 0 0 0 -0.30859 -0.41211zm-0.45703 0.74219c-1.0393 1.8494-1.0326 4.0729 0.0059 5.9453l-8.084-2.9785z" color="#000000" style="-inkscape-stroke:none"/></g></g></g><g transform="matrix(0 -1.011 .66085 0 -86.189 299.36)" fill="#ececec" stroke-linejoin="round" stroke-width=".4788"><path d="m54.679 130.99h11.168v149.59h-11.168z" color="#000000" fill="#f2f2f2" style="-inkscape-stroke:none"/><path d="m54.678 130.75a0.23942 0.23942 0 0 0 -0.23828 0.23828v149.59a0.23942 0.23942 0 0 0 0.23828 0.24023h11.17a0.23942 0.23942 0 0 0 0.23828 -0.24023v-149.59a0.23942 0.23942 0 0 0 -0.23828 -0.23828zm0.24024 0.47852h10.689v149.11h-10.689z" color="#000000" fill="#ccc" style="-inkscape-stroke:none"/><rect x="51.458" y="123.67" width="18.788" height="10.035" fill="#fff" stroke="#fff"/><rect x="51.609" y="278.61" width="14.616" height="4.6111" ry="0" fill="#fff" stroke="#fff"/></g><g transform="matrix(0 -.80726 .63934 0 -18.059 271.18)" fill="#ececec" stroke-linejoin="round"><g stroke-width=".55388"><path d="m52.718 136.66h44.429v112.31h-44.429z" color="#000000" fill="#f2f2f2" style="-inkscape-stroke:none"/><path d="m52.719 136.39a0.27697 0.27697 0 0 0 -0.27734 0.27734v112.31a0.27697 0.27697 0 0 0 0.27734 0.27735h44.428a0.27697 0.27697 0 0 0 0.27734 -0.27735v-112.31a0.27697 0.27697 0 0 0 -0.27734 -0.27734zm0.27539 0.55469h43.875v111.76h-43.875z" color="#000000" fill="#ccc" style="-inkscape-stroke:none"/></g><rect x="51.496" y="134.95" width="124.07" height="4.8735" fill="#fff" stroke="#fff" stroke-width=".55388"/><rect x="52.631" y="247.87" width="48.983" height="3.9447" ry="0" fill="#fff" stroke="#fff" stroke-width=".4041"/></g><path d="m84.209 122.19-12.828 119.41-8.8027-13.064-1.5645 8e-3 -9.7422 14.777h-17.086l-11.35-61.258-1.8418-0.0254-13.295 62.025 1.8379 0.39453 12.309-57.43 10.635 57.404 0.92383 0.76758h18.373l0.78516-0.42187 9.2441-14.025 9.4531 14.033 1.7129-0.42383 12.066-112.32 9.6621 112.29 0.93555 0.85937h14.73l0.8789-0.61133 12.094-32.518 11.592 32.506 0.88477 0.62305h25.762l0.9004-0.67187 13.164-44.445 14.885 44.477 1.7812-0.59571-15.83-47.301-1.791 0.0312-13.811 46.627h-24.398l-12.236-34.311-1.7637-0.01172-12.766 34.322h-13.215l-10.42-121.11z" color="#000000" fill="#59f" stroke-linejoin="bevel" style="-inkscape-stroke:none"/><path d="m176.36 183.32-1.8223 0.0312-13.447 58.359-12.111-21.361-1.6445 0.0195-11.898 22.197-11.512-14.598-1.4707-6e-3 -12.342 15.371h-14.756l-9.8516-15.291-1.5625-0.02735-10.615 15.318h-39.141l-12.123-7.4277-0.97852-2e-3 -12.457 7.5664 0.97461 1.6055 11.969-7.2676 11.859 7.2656 0.49024 0.13867h39.898l0.77344-0.4043 10.094-14.566 9.3691 14.541 0.78906 0.42969h15.717l0.73242-0.35156 11.887-14.803 11.668 14.797 1.5664-0.13672 11.771-21.961 12.461 21.98 1.7324-0.25391 13.141-57.033 15.252 57.066 1.8144-0.48633z" color="#000000" fill="#a00" stroke-linejoin="bevel" style="-inkscape-stroke:none"/><path d="m176.16 167.87-1.6894 0.0254-13.613 75.506h-24.48l-11.994-27.299-1.5664-0.0234-12.996 27.322h-13.457l-10.838-64.617-1.6934-0.0195-12.119 62.637-9.002-20.363h-1.5742l-9.9199 22.363h-17.146l-11.471-44.795-1.6621-0.0254-13.148 45.441 1.6543 0.47852 12.27-42.406 10.854 42.381 0.83594 0.64843h18.373l0.78711-0.51172 9.3594-21.1 9.3281 21.098 1.6328-0.18359 11.734-60.656 10.168 60.635 0.84961 0.71875h14.73l0.77734-0.49218 12.422-26.111 11.461 26.088 0.78907 0.51562h25.762l0.84766-0.70898 12.961-71.885 15.189 71.91 1.6836-0.35547z" color="#000000" fill="#d4aa00" stroke-linejoin="bevel" style="-inkscape-stroke:none"/><text transform="scale(.99981 1.0002)" x="118.69703" y="259.06635" fill="#000000" font-family="Arial" font-size="5.5415px" stroke-linejoin="round" stroke-width=".4142" style="line-height:1.25" xml:space="preserve"><tspan x="118.69703" y="259.06635" font-size="5.5415px" stroke-width=".4142">Bin</tspan></text><path d="m138.35 193.25-0.0547 33.449h0.46875l0.0547-33.447z" color="#000000" fill="#4d4d4d" stroke-linejoin="miter" style="-inkscape-stroke:none"/><g fill="#666" fill-rule="evenodd"><path d="m136.5 198.26 2.0848-5.6411 2.0664 5.6478c-1.224-0.90374-2.9006-0.90126-4.1512-7e-3z" color="#000000" style="-inkscape-stroke:none"/><path d="m138.58 192.46a0.16146 0.16146 0 0 0 -0.15039 0.10547l-2.0859 5.6406 0.0176 4e-3a0.16146 0.16146 0 0 0 -0.0274 0.0508v2e-3a0.16146 0.16146 0 0 0 0.28711 0.0703l-0.0312 0.0605c1.1952-0.85463 2.7938-0.8579 3.9609 4e-3a0.16146 0.16146 0 0 0 0.24805 -0.18359l-2.0664-5.6484a0.16146 0.16146 0 0 0 -0.15234 -0.10547zm0 0.63086 1.8027 4.9297c-1.1302-0.65821-2.4781-0.65896-3.625-6e-3z" color="#000000" style="-inkscape-stroke:none"/><path d="m140.63 221.68-2.0848 5.6411-2.0664-5.6478c1.224 0.90374 2.9006 0.90126 4.1512 7e-3z" color="#000000" style="-inkscape-stroke:none"/><path d="m140.65 221.52a0.16146 0.16146 0 0 0 -0.15625 0.0898l0.0332-0.0625c-1.1952 0.85464-2.7938 0.85595-3.9609-6e-3a0.16146 0.16146 0 0 0 -0.24804 0.18554l2.0664 5.6484a0.16146 0.16146 0 0 0 0.30274 0l2.0859-5.6406-0.0176-4e-3a0.16146 0.16146 0 0 0 0.0273 -0.0527 0.16146 0.16146 0 0 0 -0.13281 -0.1582zm-3.918 0.39844c1.1306 0.65926 2.4795 0.65953 3.627 6e-3l-1.8223 4.9277z" color="#000000" style="-inkscape-stroke:none"/></g><g fill="#666" stroke-linejoin="miter"><path d="m-1.8164 233.28-0.054687 10.377 0.4707 2e-3 0.054687-10.375z" color="#000000" style="-inkscape-stroke:none"/><g fill-rule="evenodd"><path d="m-1.579 232.81 1.4015 1.4163-0.004915 0.93929-1.4015-1.4163-1.4163 1.4016 0.00492-0.93928z" color="#000000" style="-inkscape-stroke:none"/><path d="m-1.6382 244.13-1.4015-1.4163 0.00492-0.93929 1.4015 1.4163 1.4163-1.4016-0.004915 0.93928z" color="#000000" style="-inkscape-stroke:none"/></g></g><text transform="scale(.99981 1.0002)" x="-1.2568859" y="274.73846" fill="#000000" font-family="Arial" font-size="11.875px" stroke-linejoin="round" stroke-width=".46474" style="line-height:1.25" xml:space="preserve"><tspan x="-1.2568859" y="274.73846" stroke-width=".46474"/></text><path d="m161.58 249.91-8e-3 6.2617 0.7832 2e-3 8e-3 -6.2617zm28.777 0.0332-8e-3 6.2617 0.7832 2e-3 8e-3 -6.2617zm-28.389 2.707-2e-3 0.7832 28.777 0.0332 2e-3 -0.7832zm-26.691-2.7402-8e-3 6.2617 0.78321 2e-3 8e-3 -6.2617zm26.293 0.0332-8e-3 6.2617 0.78125 2e-3 8e-3 -6.2617zm-25.904 2.707-2e-3 0.7832 26.293 0.0332v-0.7832zm-25.418-2.7402-8e-3 6.2617 0.7832 2e-3 8e-3 -6.2617zm25.067 0.0332-8e-3 6.2617 0.78125 2e-3 8e-3 -6.2617zm-24.678 2.707-2e-3 0.7832 25.067 0.0332v-0.7832z" color="#000000" fill="#999" stroke-linejoin="miter" style="-inkscape-stroke:none"/></g><text transform="scale(.99988 1.0001)" x="127.80661" y="94.449028" fill="#aa0000" font-size="96.568px" stroke-linejoin="round" stroke-width="11.228" style="line-height:1.25" xml:space="preserve"><tspan x="127.80661" y="94.449028" fill="#aa0000" font-family="sans-serif" font-size="15.406px" font-weight="bold" stroke-width="13.577">U</tspan></text><text transform="scale(.99988 1.0001)" x="22.036421" y="94.543709" fill="#5599ff" font-size="96.568px" stroke-linejoin="round" stroke-width="11.228" style="line-height:1.25" xml:space="preserve"><tspan x="22.036421" y="94.543709" fill="#5599ff" font-family="sans-serif" font-size="15.406px" font-weight="bold" stroke-width="13.577">S</tspan></text><text x="19.615074" y="182.32294" fill="#000000" font-family="Arial" font-size="6.085px" font-weight="bold" stroke-linejoin="round" stroke-width=".36916" style="line-height:1.25" xml:space="preserve"><tspan x="19.615074" y="182.32294" font-family="Arial" font-size="6.085px" font-weight="bold" stroke-width=".36916"><tspan font-weight="normal" stroke-width=".36916">2</tspan></tspan></text><text transform="scale(.99988 1.0001)" x="23.093515" y="179.4178" font-family="Arial" font-size="2.9533px" font-weight="bold" stroke-width=".51507" word-spacing="0px" style="line-height:1.25" xml:space="preserve"><tspan x="23.093515" y="179.4178" font-family="Arial" font-size="2.9533px" font-weight="bold" stroke-width=".51507">LOG2BG</tspan></text><text x="59.624615" y="123.16819" fill="#000000" font-family="Arial" font-size="4.2333px" font-weight="bold" stroke-linejoin="round" stroke-width=".36916" style="line-height:1.25" xml:space="preserve"><tspan x="59.624615" y="123.16819" font-family="Arial" font-size="4.2333px" font-weight="bold" stroke-width=".36916">USEGAP</tspan></text><text x="112.30084" y="158.44525" fill="#000000" font-family="Arial" font-size="5.8697px" font-weight="bold" stroke-linejoin="round" stroke-width=".36916" style="line-height:1.25" xml:space="preserve"><tspan x="112.30084" y="158.44525" font-family="Arial" font-size="5.8697px" font-weight="bold" stroke-width=".36916"><tspan font-weight="normal">10</tspan></tspan></text><text transform="scale(.99988 1.0001)" x="118.85843" y="154.26662" font-family="Arial" font-size="2.9533px" stroke-width=".51507" word-spacing="0px" style="line-height:1.25" xml:space="preserve"><tspan x="118.85843" y="154.26662" font-family="Arial" font-size="2.9533px" font-weight="bold" stroke-width=".51507">UNSPECLOG10</tspan></text><g transform="translate(142.23 -50.263)"><text x="35.011536" y="139.93204" fill="#000000" font-family="Arial" font-size="4.9389px" stroke-linejoin="round" stroke-width=".36916" style="line-height:1.25" xml:space="preserve"><tspan x="35.011536" y="139.93204" font-size="4.9389px" stroke-width=".36916">Positive</tspan></text><text x="35.011536" y="145.37111" fill="#000000" font-family="Arial" font-size="4.9389px" stroke-linejoin="round" stroke-width=".36916" style="line-height:1.25" xml:space="preserve"><tspan x="35.011536" y="145.37111" font-size="4.9389px" stroke-width=".36916">Mutant</tspan></text><text x="35.011536" y="151.1485" fill="#000000" font-family="Arial" font-size="4.9389px" stroke-linejoin="round" stroke-width=".36916" style="line-height:1.25" xml:space="preserve"><tspan x="35.011536" y="151.1485" font-size="4.9389px" stroke-width=".36916">Negative</tspan></text><rect x="22.385" y="133.69" width="35" height="21.056" rx="2.3807" ry="2.3807" fill="none" stroke="#b3b3b3" stroke-linejoin="bevel" stroke-width=".36916"/><rect x="25.213" y="137.01" width="7.6753" height="3.0558" rx=".60988" ry=".60988" fill="#59f" opacity=".7" stroke="#59f" stroke-linejoin="bevel" stroke-width=".34881"/><rect x="25.213" y="142.45" width="7.6753" height="3.0558" rx=".63809" ry=".63809" fill="#d4aa00" opacity=".7" stroke="#d4aa00" stroke-linejoin="bevel" stroke-width=".34881"/><rect x="25.213" y="148.23" width="7.6753" height="3.0558" rx=".60992" ry=".60992" fill="#a00" opacity=".7" stroke="#a00" stroke-linejoin="bevel" stroke-width=".34881"/><rect x="25.213" y="137.01" width="7.6753" height="3.0558" rx=".60988" ry=".60988" fill="none" stroke="#59f" stroke-linejoin="bevel" stroke-width=".34881"/><rect x="25.213" y="142.45" width="7.6753" height="3.0558" rx=".63809" ry=".63809" fill="none" stroke="#d4aa00" stroke-linejoin="bevel" stroke-width=".34881"/><rect x="25.213" y="148.23" width="7.6753" height="3.0558" rx=".60992" ry=".60992" fill="none" stroke="#a00" stroke-linejoin="bevel" stroke-width=".34881"/></g></g><text x="176.15837" y="192.97003" fill="#000000" font-family="Arial" font-size="4.9389px" stroke-width=".36916" style="line-height:1.25" xml:space="preserve"><tspan x="176.15837" y="192.97003" font-size="4.9389px" stroke-width=".36916">ncRNA?</tspan></text><text x="65.191032" y="206.26129" fill="#000000" font-family="Arial" font-size="4.9389px" stroke-width=".36916" style="line-height:1.25" xml:space="preserve"><tspan x="65.191032" y="206.26129" font-size="4.9389px" stroke-width=".36916">Segment</tspan></text></g></g></svg>
