<svg version="1.0" viewBox="0 0 276.26 203.77" xmlns="http://www.w3.org/2000/svg"><rect x="1.6177" y="1.8537" width="273.28" height="201.31" ry="12.882" fill="#f9f9f9"/><tspan x="0" y="8.616" fill="#000000" font-family="Bitstream Vera Sans" font-size="12"/><path d="m124.02 188.23h3.888" fill="none" stroke="#000" stroke-width="1.44"/><path d="m116.92 177.98h18.075v5.385h-18.075z" fill="#d7efc5"/><path d="m124.02 180.67h3.888" fill="none" stroke="#000" stroke-width="1.44"/><path d="m116.92 170.42h18.075v5.385h-18.075z" fill="#d7efc5"/><path d="m124.02 173.11h3.888" fill="none" stroke="#000" stroke-width="1.44"/><path d="m116.92 162.86h18.075v5.385h-18.075z" fill="#d7efc5"/><path d="m124.02 165.55h3.888" fill="none" stroke="#000" stroke-width="1.44"/><path d="m112.84 156.87-0.96-3.768" fill="none" stroke="#000" stroke-width="1.44"/><path d="m104.31 166.78-4.6661-18.314 6.1151-1.558 4.665 18.314z" fill="#d7efc5"/><path d="m105.52 158.73-0.96-3.768" fill="none" stroke="#000" stroke-width="1.44"/><path d="m96.986 168.65-4.6659-18.314 6.1147-1.558 4.6654 18.314z" fill="#d7efc5"/><path d="m98.19 160.6-0.9599-3.768" fill="none" stroke="#000" stroke-width="1.44"/><path d="m89.66 170.52-4.6658-18.314 6.1146-1.558 4.6658 18.314z" fill="#d7efc5"/><path d="m90.864 162.47-0.9598-3.768" fill="none" stroke="#000" stroke-width="1.44"/><path d="m82.334 172.38-4.6658-18.313 6.1147-1.558 4.6658 18.314z" fill="#d7efc5"/><path d="m83.538 164.33-0.9599-3.767" fill="none" stroke="#000" stroke-width="1.44"/><path d="m76.212 166.2-0.9599-3.768" fill="none" stroke="#000" stroke-width="1.44"/><path d="m67.682 176.12-4.6658-18.314 6.1147-1.557 4.6658 18.313z" fill="#d7efc5"/><path d="m68.886 168.06-0.9599-3.767" fill="none" stroke="#000" stroke-width="1.44"/><path d="m60.356 177.98-4.6658-18.314 6.1147-1.558 4.6658 18.314z" fill="#d7efc5"/><path d="m61.56 169.93-0.9599-3.768" fill="none" stroke="#000" stroke-width="1.44"/><path d="m53.03 179.85-4.6659-18.314 6.1147-1.558 4.6658 18.314z" fill="#d7efc5"/><path d="m54.234 171.8-0.9599-3.768" fill="none" stroke="#000" stroke-width="1.44"/><path d="m45.704 181.72-4.6658-18.314 6.1146-1.558 4.6658 18.314z" fill="#d7efc5"/><g fill="none" stroke="#000" stroke-width="1.44"><path d="m46.908 173.66-0.9598-3.768"/><path d="m39.582 175.53-0.9599-3.768"/><path d="m117.54 140.12 3.414-1.86"/></g><path d="m105.36 134.56 17.51-9.541 3.019 5.541-17.509 9.541z" fill="#d7efc5"/><path d="m113.92 133.49 3.414-1.86" fill="none" stroke="#000" stroke-width="1.44"/><path d="m101.75 127.92 17.51-9.541 3.019 5.541-17.51 9.541z" fill="#d7efc5"/><g fill="none" stroke="#000" stroke-width="1.44"><path d="m110.3 126.85 3.414-1.86"/><path d="m106.69 120.21 3.414-1.86"/><path d="m103.07 113.57 3.414-1.861"/><path d="m96.472 101.46 3.4141-1.8603"/><path d="m92.855 94.823 3.4141-1.8603"/><path d="m89.238 88.184 3.414-1.8603"/><path d="m82.639 76.075 3.414-1.8604"/><path d="m79.022 69.436 3.414-1.8603"/><path d="m75.404 62.798 3.414-1.8603"/></g><path d="m63.23 57.229 17.51-9.5411 3.0192 5.5408-17.51 9.5411z" fill="#d7efc5"/><path d="m71.787 56.159 3.4141-1.8603" fill="none" stroke="#000" stroke-width="1.44"/><path d="m68.17 49.521 3.4141-1.8604" fill="none" stroke="#000" stroke-width="1.44"/><path d="m140.29 138.12 4.666 18.314-6.115 1.558-4.666-18.314z" fill="#d7efc5"/><path d="m139.08 146.17 0.959 3.768" fill="none" stroke="#000" stroke-width="1.44"/><path d="m147.61 136.25 4.666 18.314-6.115 1.557-4.666-18.313z" fill="#d7efc5"/><path d="m146.41 144.3 0.959 3.767" fill="none" stroke="#000" stroke-width="1.44"/><path d="m154.94 134.38 4.666 18.314-6.115 1.558-4.666-18.314z" fill="#d7efc5"/><g fill="none" stroke="#000" stroke-width="1.44"><path d="m153.74 142.44 0.959 3.768"/><path d="m161.06 140.57 0.96 3.768"/><path d="m168.39 138.7 0.96 3.768"/></g><path d="m176.92 128.78 4.666 18.314-6.115 1.558-4.666-18.314z" fill="#d7efc5"/><path d="m175.71 136.84 0.96 3.768" fill="none" stroke="#000" stroke-width="1.44"/><path d="m190.28 125.38 4.666 18.314-6.115 1.558-4.666-18.314z" fill="#d7efc5"/><path d="m189.08 133.43 0.96 3.768" fill="none" stroke="#000" stroke-width="1.44"/><path d="m197.61 123.51 4.665 18.314-6.114 1.558-4.666-18.314z" fill="#d7efc5"/><g fill="none" stroke="#000" stroke-width="1.44"><path d="m196.4 131.57 0.96 3.768"/><path d="m252.79 188.23h3.888"/><path d="m252.79 180.67h3.888"/><path d="m252.79 173.11h3.888"/><path d="m252.79 165.55h3.888"/></g><path d="m245.7 155.3h18.075v5.385h-18.075z" fill="#d7efc5"/><path d="m252.79 157.99h3.888" fill="none" stroke="#000" stroke-width="1.44"/><path d="m252.79 150.43h3.888" fill="none" stroke="#000" stroke-width="1.44"/><path d="m245.7 133.95h18.075v5.385h-18.075z" fill="#d7efc5"/><path d="m252.79 136.64h3.888" fill="none" stroke="#000" stroke-width="1.44"/><path d="m252.79 129.08h3.888" fill="none" stroke="#000" stroke-width="1.44"/><path d="m245.7 118.83h18.075v5.385h-18.075z" fill="#d7efc5"/><path d="m252.79 121.52h3.888" fill="none" stroke="#000" stroke-width="1.44"/><path d="m245.7 111.27h18.075v5.385h-18.075z" fill="#d7efc5"/><g fill="none"><path d="m252.79 113.96h3.888" stroke="#000" stroke-width="1.44"/><g stroke="#5c5c5c" stroke-width=".5"></g></g><path d="m41.454 193.58a2.5575 2.5575 0 0 1-5.115 0 2.5575 2.5575 0 0 1 5.115 0z" stroke="#000" stroke-width=".72"/><path d="m49.014 193.58a2.5575 2.5575 0 0 1-5.115 0 2.5575 2.5575 0 0 1 5.115 0z" stroke="#000" stroke-width=".72"/><text x="51.5153" y="196.271"><tspan x="51.5153" y="196.271" fill="#000000" font-family="Bitstream Vera Sans" font-size="7.5">A</tspan></text><text x="58.8691" y="196.271"><tspan x="58.8691" y="196.271" fill="#807b88" font-family="Bitstream Vera Sans" font-size="7.5">C</tspan></text><text x="66.4291" y="196.271"><tspan x="66.4291" y="196.271" fill="#000000" font-family="Bitstream Vera Sans" font-size="7.5">U</tspan></text><text x="73.9891" y="196.271"><tspan x="73.9891" y="196.271" fill="#000000" font-family="Bitstream Vera Sans" font-size="7.5">U</tspan></text><text x="81.7553" y="196.271"><tspan x="81.7553" y="196.271" fill="#000000" font-family="Bitstream Vera Sans" font-size="7.5">A</tspan></text><text x="89.1091" y="196.271"><tspan x="89.1091" y="196.271" fill="#000000" font-family="Bitstream Vera Sans" font-size="7.5">C</tspan></text><text x="96.6691" y="196.271"><tspan x="96.6691" y="196.271" fill="#807b88" font-family="Bitstream Vera Sans" font-size="7.5">C</tspan></text><text x="104.229" y="196.271"><tspan x="104.229" y="196.271" fill="#000000" font-family="Bitstream Vera Sans" font-size="7.5">U</tspan></text><text x="111.579" y="196.271"><tspan x="111.579" y="196.271" fill="#000000" font-family="Bitstream Vera Sans" font-size="7.5">G</tspan></text><text x="116.925" y="190.925"><tspan x="116.925" y="190.925" fill="#000000" font-family="Bitstream Vera Sans" font-size="7.5">G</tspan></text><g fill="#d90000" stroke="#000" stroke-width=".72"><path d="m122.4 180.67a2.5575 2.5575 0 0 1-5.115 0 2.5575 2.5575 0 0 1 5.115 0z"/><path d="m122.4 173.11a2.5575 2.5575 0 0 1-5.115 0 2.5575 2.5575 0 0 1 5.115 0z"/><path d="m122.4 165.55a2.5575 2.5575 0 0 1-5.115 0 2.5575 2.5575 0 0 1 5.115 0z"/></g><text x="111.166" y="163.606"><tspan x="111.166" y="163.606" fill="#807b88" font-family="Bitstream Vera Sans" font-size="7.5">R</tspan></text><text x="103.63" y="165.472"><tspan x="103.63" y="165.472" fill="#807b88" font-family="Bitstream Vera Sans" font-size="7.5">G</tspan></text><text x="96.3036" y="167.339"><tspan x="96.3036" y="167.339" fill="#807b88" font-family="Bitstream Vera Sans" font-size="7.5">G</tspan></text><g fill="#d90000" stroke="#000" stroke-width=".72"><path d="m94.453 166.51a2.5575 2.5575 0 0 1-5.115 0 2.5575 2.5575 0 0 1 5.115 0z"/><path d="m87.127 168.38a2.5575 2.5575 0 0 1-5.115 0 2.5575 2.5575 0 0 1 5.115 0z"/><path d="m79.801 170.25a2.5575 2.5575 0 0 1-5.115 0 2.5575 2.5575 0 0 1 5.115 0z"/></g><path d="m77.754 177.52a2.5575 2.5575 0 0 1-5.115 0 2.5575 2.5575 0 0 1 5.115 0z" stroke="#000" stroke-width=".72"/><g fill="#d90000" stroke="#000" stroke-width=".72"><path d="m72.475 172.11a2.5575 2.5575 0 0 1-5.115 0 2.5575 2.5575 0 0 1 5.115 0z"/><path d="m65.149 173.98a2.5575 2.5575 0 0 1-5.115 0 2.5575 2.5575 0 0 1 5.115 0z"/><path d="m57.823 175.84a2.5575 2.5575 0 0 1-5.115 0 2.5575 2.5575 0 0 1 5.115 0z"/><path d="m50.497 177.71a2.5575 2.5575 0 0 1-5.115 0 2.5575 2.5575 0 0 1 5.115 0z"/></g><text x="38.112" y="182.27"><tspan x="38.112" y="182.27" fill="#000000" font-family="Bitstream Vera Sans" font-size="7.5">Y</tspan></text><text x="34.6942" y="189.209"><tspan x="34.6942" y="189.209" fill="#000000" font-family="Bitstream Vera Sans" font-size="7.5">G</tspan></text><text x="29.1648" y="193.878"><tspan x="29.1648" y="193.878" fill="#807b88" font-family="Bitstream Vera Sans" font-size="7.5">A</tspan></text><text x="21.5062" y="195.15"><tspan x="21.5062" y="195.15" fill="#807b88" font-family="Bitstream Vera Sans" font-size="7.5">U</tspan></text><text x="14.3487" y="192.716"><tspan x="14.3487" y="192.716" fill="#d90000" font-family="Bitstream Vera Sans" font-size="7.5">C</tspan></text><text x="9.42268" y="187.165"><tspan x="9.42268" y="187.165" fill="#000000" font-family="Bitstream Vera Sans" font-size="7.5">A</tspan></text><path d="m12.615 177.15a2.5575 2.5575 0 0 1-5.115 0 2.5575 2.5575 0 0 1 5.115 0z" fill="#d90000" stroke="#000" stroke-width=".72"/><path d="m14.466 169.82a2.5575 2.5575 0 0 1-5.115 0 2.5575 2.5575 0 0 1 5.115 0z" fill="#d90000" stroke="#000" stroke-width=".72"/><text x="14.5272" y="166.947"><tspan x="14.5272" y="166.947" fill="#000000" font-family="Bitstream Vera Sans" font-size="7.5">A</tspan></text><text x="21.6794" y="164.497"><tspan x="21.6794" y="164.497" fill="#807b88" font-family="Bitstream Vera Sans" font-size="7.5">A</tspan></text><text x="28.7182" y="165.753"><tspan x="28.7182" y="165.753" fill="#807b88" font-family="Bitstream Vera Sans" font-size="7.5">G</tspan></text><text x="34.8839" y="170.409"><tspan x="34.8839" y="170.409" fill="#807b88" font-family="Bitstream Vera Sans" font-size="7.5">R</tspan></text><g fill="#d90000" stroke="#000" stroke-width=".72"><path d="m47.475 165.85a2.5575 2.5575 0 0 1-5.115 0 2.5575 2.5575 0 0 1 5.115 0z"/><path d="m54.801 163.98a2.5575 2.5575 0 0 1-5.115 0 2.5575 2.5575 0 0 1 5.115 0z"/><path d="m62.127 162.12a2.5575 2.5575 0 0 1-5.115 0 2.5575 2.5575 0 0 1 5.115 0z"/><path d="m69.453 160.25a2.5575 2.5575 0 0 1-5.115 0 2.5575 2.5575 0 0 1 5.115 0z"/><path d="m76.779 158.38a2.5575 2.5575 0 0 1-5.115 0 2.5575 2.5575 0 0 1 5.115 0z"/><path d="m84.105 156.52a2.5575 2.5575 0 0 1-5.115 0 2.5575 2.5575 0 0 1 5.115 0z"/><path d="m91.431 154.65a2.5575 2.5575 0 0 1-5.115 0 2.5575 2.5575 0 0 1 5.115 0z"/></g><text x="93.698" y="155.478"><tspan x="93.698" y="155.478" fill="#000000" font-family="Bitstream Vera Sans" font-size="7.5">Y</tspan></text><text x="101.024" y="153.611"><tspan x="101.024" y="153.611" fill="#000000" font-family="Bitstream Vera Sans" font-size="7.5">Y</tspan></text><text x="108.35" y="151.745"><tspan x="108.35" y="151.745" fill="#000000" font-family="Bitstream Vera Sans" font-size="7.5">Y</tspan></text><path d="m116.43 142.12a2.5575 2.5575 0 0 1-5.115 0 2.5575 2.5575 0 0 1 5.115 0z" fill="#fff" stroke="#666" stroke-width=".72"/><text x="107.548" y="138.177"><tspan x="107.548" y="138.177" fill="#000000" font-family="Bitstream Vera Sans" font-size="7.5">R</tspan></text><text x="103.721" y="131.538"><tspan x="103.721" y="131.538" fill="#807b88" font-family="Bitstream Vera Sans" font-size="7.5">G</tspan></text><text x="100.104" y="124.9"><tspan x="100.104" y="124.9" fill="#807b88" font-family="Bitstream Vera Sans" font-size="7.5">G</tspan></text><path d="m98.021 122.02a2.5575 2.5575 0 0 1-5.115 0 2.5575 2.5575 0 0 1 5.115 0z" stroke="#000" stroke-width=".72"/><path d="m101.96 115.57a2.5575 2.5575 0 0 1-5.1147 0 2.5575 2.5575 0 0 1 5.1147 0z" fill="#d90000" stroke="#000" stroke-width=".72"/><text x="90.6753" y="113.69"><tspan x="90.6753" y="113.69" fill="#807b88" font-family="Bitstream Vera Sans" font-size="7.5">R</tspan></text><text x="89.8877" y="106.152"><tspan x="89.8877" y="106.152" fill="#807b88" font-family="Bitstream Vera Sans" font-size="7.5">G</tspan></text><g fill="#d90000" stroke="#000" stroke-width=".72"><path d="m91.745 96.821a2.5575 2.5575 0 0 1-5.115 0 2.5575 2.5575 0 0 1 5.115 0z"/><path d="m88.128 90.182a2.5575 2.5575 0 0 1-5.115 0 2.5575 2.5575 0 0 1 5.115 0z"/><path d="m82.107 85.611a2.5575 2.5575 0 0 1-5.115 0 2.5575 2.5575 0 0 1 5.115 0z"/></g><text x="76.4707" y="80.7652"><tspan x="76.4707" y="80.7652" fill="#807b88" font-family="Bitstream Vera Sans" font-size="7.5">Y</tspan></text><g stroke="#000" stroke-width=".72"><path d="m77.912 71.434a2.5575 2.5575 0 0 1-5.115 0 2.5575 2.5575 0 0 1 5.115 0z" fill="#d90000"/><path d="m74.295 64.796a2.5575 2.5575 0 0 1-5.115 0 2.5575 2.5575 0 0 1 5.115 0z" fill="#807b88"/><path d="m70.678 58.157a2.5575 2.5575 0 0 1-5.115 0 2.5575 2.5575 0 0 1 5.115 0z" fill="#d90000"/></g><text x="61.7952" y="54.2115"><tspan x="61.7952" y="54.2115" fill="#807b88" font-family="Bitstream Vera Sans" font-size="7.5">C</tspan></text><text x="54.5366" y="53.0159"><tspan x="54.5366" y="53.0159" fill="#807b88" font-family="Bitstream Vera Sans" font-size="7.5">A</tspan></text><text x="48.3376" y="48.4071"><tspan x="48.3376" y="48.4071" fill="#000000" font-family="Bitstream Vera Sans" font-size="7.5">U</tspan></text><text x="45.2658" y="41.4993"><tspan x="45.2658" y="41.4993" fill="#d90000" font-family="Bitstream Vera Sans" font-size="7.5">U</tspan></text><text x="45.6474" y="33.9625"><tspan x="45.6474" y="33.9625" fill="#d90000" font-family="Bitstream Vera Sans" font-size="7.5">G</tspan></text><text x="49.9694" y="27.6186"><tspan x="49.9694" y="27.6186" fill="#807b88" font-family="Bitstream Vera Sans" font-size="7.5">C</tspan></text><text x="56.8141" y="24.0013"><tspan x="56.8141" y="24.0013" fill="#000000" font-family="Bitstream Vera Sans" font-size="7.5">A</tspan></text><text x="64.1678" y="23.985"><tspan x="64.1678" y="23.985" fill="#000000" font-family="Bitstream Vera Sans" font-size="7.5">C</tspan></text><text x="70.8218" y="27.5737"><tspan x="70.8218" y="27.5737" fill="#807b88" font-family="Bitstream Vera Sans" font-size="7.5">U</tspan></text><text x="75.1673" y="33.8998"><tspan x="75.1673" y="33.8998" fill="#807b88" font-family="Bitstream Vera Sans" font-size="7.5">Y</tspan></text><path d="m80.85 38.742a2.5575 2.5575 0 0 1-5.115 0 2.5575 2.5575 0 0 1 5.115 0z" fill="#d90000" stroke="#000" stroke-width=".72"/><text x="72.3331" y="48.3549"><tspan x="72.3331" y="48.3549" fill="#000000" font-family="Bitstream Vera Sans" font-size="7.5">G</tspan></text><g stroke="#000" stroke-width=".72"><path d="m81.425 52.301a2.5575 2.5575 0 0 1-5.115 0 2.5575 2.5575 0 0 1 5.115 0z" fill="#d90000"/><path d="m88.983 52.487a2.5575 2.5575 0 0 1-5.115 0 2.5575 2.5575 0 0 1 5.115 0z" fill="#fff"/><path d="m85.043 58.939a2.5575 2.5575 0 0 1-5.115 0 2.5575 2.5575 0 0 1 5.115 0z"/><path d="m88.66 65.578a2.5575 2.5575 0 0 1-5.115 0 2.5575 2.5575 0 0 1 5.115 0z" fill="#d90000"/></g><text x="87.0124" y="74.9086"><tspan x="87.0124" y="74.9086" fill="#807b88" font-family="Bitstream Vera Sans" font-size="7.5">R</tspan></text><g stroke="#000" stroke-width=".72"><path d="m98.298 76.788a2.5575 2.5575 0 0 1-5.115 0 2.5575 2.5575 0 0 1 5.115 0z" fill="#807b88"/><path d="m98.876 84.326a2.5575 2.5575 0 0 1-5.115 0 2.5575 2.5575 0 0 1 5.115 0z" fill="#d90000"/><path d="m102.49 90.964a2.5575 2.5575 0 0 1-5.1147 0 2.5575 2.5575 0 0 1 5.1147 0z" fill="#d90000"/></g><text x="101.052" y="100.295"><tspan x="101.052" y="100.295" fill="#807b88" font-family="Bitstream Vera Sans" font-size="7.5">Y</tspan></text><g stroke="#000" stroke-width=".72"><path d="m113.65 97.042a2.5575 2.5575 0 0 1-5.115 0 2.5575 2.5575 0 0 1 5.115 0z"/><path d="m117.27 103.68a2.5575 2.5575 0 0 1-5.115 0 2.5575 2.5575 0 0 1 5.115 0z"/><path d="m112.71 109.71a2.5575 2.5575 0 0 1-5.115 0 2.5575 2.5575 0 0 1 5.115 0z" fill="#d90000"/></g><text x="111.062" y="119.043"><tspan x="111.062" y="119.043" fill="#807b88" font-family="Bitstream Vera Sans" font-size="7.5">C</tspan></text><text x="114.885" y="125.682"><tspan x="114.885" y="125.682" fill="#807b88" font-family="Bitstream Vera Sans" font-size="7.5">Y</tspan></text><text x="118.502" y="132.32"><tspan x="118.502" y="132.32" fill="#000000" font-family="Bitstream Vera Sans" font-size="7.5">Y</tspan></text><g stroke="#000" stroke-width=".72"><path d="m127.18 136.27a2.5575 2.5575 0 0 1-5.115 0 2.5575 2.5575 0 0 1 5.115 0z" fill="#d90000"/><path d="m134.64 137.48a2.5575 2.5575 0 0 1-5.115 0 2.5575 2.5575 0 0 1 5.115 0z" fill="#fff"/><path d="m140.61 142.12a2.5575 2.5575 0 0 1-5.115 0 2.5575 2.5575 0 0 1 5.115 0z"/></g><text x="142.46" y="142.949"><tspan x="142.46" y="142.949" fill="#807b88" font-family="Bitstream Vera Sans" font-size="7.5">G</tspan></text><text x="149.996" y="141.082"><tspan x="149.996" y="141.082" fill="#807b88" font-family="Bitstream Vera Sans" font-size="7.5">R</tspan></text><text x="157.528" y="139.216"><tspan x="157.528" y="139.216" fill="#807b88" font-family="Bitstream Vera Sans" font-size="7.5">Y</tspan></text><g stroke="#000" stroke-width=".72"><path d="m169.91 134.66a2.5575 2.5575 0 0 1-5.115 0 2.5575 2.5575 0 0 1 5.115 0z" fill="#d90000"/><path d="m177.24 132.79a2.5575 2.5575 0 0 1-5.115 0 2.5575 2.5575 0 0 1 5.115 0z" fill="#d90000"/><path d="m183.16 128.08a2.5575 2.5575 0 0 1-5.115 0 2.5575 2.5575 0 0 1 5.115 0z" fill="#807b88"/></g><text x="185.338" y="132.078"><tspan x="185.338" y="132.078" fill="#807b88" font-family="Bitstream Vera Sans" font-size="7.5">C</tspan></text><text x="192.664" y="130.212"><tspan x="192.664" y="130.212" fill="#807b88" font-family="Bitstream Vera Sans" font-size="7.5">C</tspan></text><text x="198.367" y="125.249"><tspan x="198.367" y="125.249" fill="#807b88" font-family="Bitstream Vera Sans" font-size="7.5">C</tspan></text><path d="m211.16 123.3a2.5575 2.5575 0 0 1-5.115 0 2.5575 2.5575 0 0 1 5.115 0z" fill="#d90000" stroke="#000" stroke-width=".72"/><text x="210.713" y="131.981"><tspan x="210.713" y="131.981" fill="#807b88" font-family="Bitstream Vera Sans" font-size="7.5">A</tspan></text><path d="m214.58 136.76a2.5575 2.5575 0 0 1-5.115 0 2.5575 2.5575 0 0 1 5.115 0z" fill="#807b88" stroke="#000" stroke-width=".72"/><text x="203.274" y="143.702"><tspan x="203.274" y="143.702" fill="#807b88" font-family="Bitstream Vera Sans" font-size="7.5">Y</tspan></text><text x="195.476" y="142.073"><tspan x="195.476" y="142.073" fill="#807b88" font-family="Bitstream Vera Sans" font-size="7.5">G</tspan></text><text x="188.15" y="143.939"><tspan x="188.15" y="143.939" fill="#807b88" font-family="Bitstream Vera Sans" font-size="7.5">G</tspan></text><path d="m187.71 145.95a2.5575 2.5575 0 0 1-5.115 0 2.5575 2.5575 0 0 1 5.115 0z" fill="#fff" stroke="#000" stroke-width=".72"/><path d="m180.26 144.65a2.5575 2.5575 0 0 1-5.115 0 2.5575 2.5575 0 0 1 5.115 0z" fill="#d90000" stroke="#000" stroke-width=".72"/><text x="167.67" y="149.21"><tspan x="167.67" y="149.21" fill="#807b88" font-family="Bitstream Vera Sans" font-size="7.5">R</tspan></text><path d="m170.89 153.8a2.5575 2.5575 0 0 1-5.115 0 2.5575 2.5575 0 0 1 5.115 0z" fill="#fff" stroke="#000" stroke-width=".72"/><text x="160.344" y="151.077"><tspan x="160.344" y="151.077" fill="#807b88" font-family="Bitstream Vera Sans" font-size="7.5">R</tspan></text><path d="m163.56 155.66a2.5575 2.5575 0 0 1-5.115 0 2.5575 2.5575 0 0 1 5.115 0z" stroke="#000" stroke-width=".72"/><text x="153.224" y="152.943"><tspan x="153.224" y="152.943" fill="#000000" font-family="Bitstream Vera Sans" font-size="7.5">Y</tspan></text><text x="145.692" y="154.81"><tspan x="145.692" y="154.81" fill="#807b88" font-family="Bitstream Vera Sans" font-size="7.5">C</tspan></text><path d="m143.63 153.98a2.5575 2.5575 0 0 1-5.115 0 2.5575 2.5575 0 0 1 5.115 0z" stroke="#000" stroke-width=".72"/><text x="135.344" y="163.606"><tspan x="135.344" y="163.606" fill="#000000" font-family="Bitstream Vera Sans" font-size="7.5">R</tspan></text><g fill="#d90000" stroke="#000" stroke-width=".72"><path d="m134.64 165.55a2.5575 2.5575 0 0 1-5.115 0 2.5575 2.5575 0 0 1 5.115 0z"/><path d="m134.64 173.11a2.5575 2.5575 0 0 1-5.115 0 2.5575 2.5575 0 0 1 5.115 0z"/><path d="m134.64 180.67a2.5575 2.5575 0 0 1-5.115 0 2.5575 2.5575 0 0 1 5.115 0z"/></g><text x="129.581" y="190.925"><tspan x="129.581" y="190.925" fill="#000000" font-family="Bitstream Vera Sans" font-size="7.5">Y</tspan></text><text x="134.927" y="196.271"><tspan x="134.927" y="196.271" fill="#807b88" font-family="Bitstream Vera Sans" font-size="7.5">A</tspan></text><text x="142.281" y="196.271"><tspan x="142.281" y="196.271" fill="#807b88" font-family="Bitstream Vera Sans" font-size="7.5">U</tspan></text><text x="150.047" y="196.271"><tspan x="150.047" y="196.271" fill="#807b88" font-family="Bitstream Vera Sans" font-size="7.5">A</tspan></text><text x="157.607" y="196.271"><tspan x="157.607" y="196.271" fill="#807b88" font-family="Bitstream Vera Sans" font-size="7.5">A</tspan></text><text x="164.961" y="196.271"><tspan x="164.961" y="196.271" fill="#000000" font-family="Bitstream Vera Sans" font-size="7.5">U</tspan></text><text x="172.521" y="196.271"><tspan x="172.521" y="196.271" fill="#d90000" font-family="Bitstream Vera Sans" font-size="7.5">U</tspan></text><text x="180.081" y="196.271"><tspan x="180.081" y="196.271" fill="#d90000" font-family="Bitstream Vera Sans" font-size="7.5">U</tspan></text><path d="m192.91 193.58a2.5575 2.5575 0 0 1-5.115 0 2.5575 2.5575 0 0 1 5.115 0z" fill="#d90000" stroke="#000" stroke-width=".72"/><text x="195.201" y="196.271"><tspan x="195.201" y="196.271" fill="#d90000" font-family="Bitstream Vera Sans" font-size="7.5">U</tspan></text><text x="202.551" y="196.271"><tspan x="202.551" y="196.271" fill="#807b88" font-family="Bitstream Vera Sans" font-size="7.5">G</tspan></text><path d="m215.59 193.58a2.5575 2.5575 0 0 1-5.115 0 2.5575 2.5575 0 0 1 5.115 0z" fill="#d90000" stroke="#000" stroke-width=".72"/><text x="218.087" y="196.271"><tspan x="218.087" y="196.271" fill="#807b88" font-family="Bitstream Vera Sans" font-size="7.5">Y</tspan></text><path d="m230.71 193.58a2.5575 2.5575 0 0 1-5.115 0 2.5575 2.5575 0 0 1 5.115 0z" fill="#d90000" stroke="#000" stroke-width=".72"/><text x="232.791" y="196.271"><tspan x="232.791" y="196.271" fill="#807b88" font-family="Bitstream Vera Sans" font-size="7.5">G</tspan></text><g stroke="#000" stroke-width=".72"><path d="m245.83 193.58a2.5575 2.5575 0 0 1-5.115 0 2.5575 2.5575 0 0 1 5.115 0z" fill="#fff"/><path d="m251.17 188.23a2.5575 2.5575 0 0 1-5.115 0 2.5575 2.5575 0 0 1 5.115 0z"/><path d="m251.17 180.67a2.5575 2.5575 0 0 1-5.115 0 2.5575 2.5575 0 0 1 5.115 0z" fill="#d90000"/></g><text x="245.696" y="175.805"><tspan x="245.696" y="175.805" fill="#807b88" font-family="Bitstream Vera Sans" font-size="7.5">G</tspan></text><text x="245.696" y="168.245"><tspan x="245.696" y="168.245" fill="#807b88" font-family="Bitstream Vera Sans" font-size="7.5">G</tspan></text><text x="245.906" y="160.685"><tspan x="245.906" y="160.685" fill="#807b88" font-family="Bitstream Vera Sans" font-size="7.5">R</tspan></text><g stroke="#000" stroke-width=".72"><path d="m244.62 154.21a2.5575 2.5575 0 0 1-5.115 0 2.5575 2.5575 0 0 1 5.115 0z" fill="#fff"/><path d="m251.17 150.43a2.5575 2.5575 0 0 1-5.115 0 2.5575 2.5575 0 0 1 5.115 0z" fill="#807b88"/><path d="m248.07 143.54a2.5575 2.5575 0 0 1-5.115 0 2.5575 2.5575 0 0 1 5.115 0z"/><path d="m251.17 136.64a2.5575 2.5575 0 0 1-5.115 0 2.5575 2.5575 0 0 1 5.115 0z"/></g><text x="245.696" y="131.774"><tspan x="245.696" y="131.774" fill="#807b88" font-family="Bitstream Vera Sans" font-size="7.5">G</tspan></text><text x="245.906" y="124.214"><tspan x="245.906" y="124.214" fill="#807b88" font-family="Bitstream Vera Sans" font-size="7.5">C</tspan></text><text x="245.906" y="116.654"><tspan x="245.906" y="116.654" fill="#807b88" font-family="Bitstream Vera Sans" font-size="7.5">R</tspan></text><text x="243.734" y="109.413"><tspan x="243.734" y="109.413" fill="#807b88" font-family="Bitstream Vera Sans" font-size="7.5">U</tspan></text><text x="248.246" y="103.348"><tspan x="248.246" y="103.348" fill="#000000" font-family="Bitstream Vera Sans" font-size="7.5">U</tspan></text><text x="256.013" y="103.348"><tspan x="256.013" y="103.348" fill="#807b88" font-family="Bitstream Vera Sans" font-size="7.5">Y</tspan></text><text x="260.109" y="109.413"><tspan x="260.109" y="109.413" fill="#807b88" font-family="Bitstream Vera Sans" font-size="7.5">G</tspan></text><text x="258.353" y="116.654"><tspan x="258.353" y="116.654" fill="#807b88" font-family="Bitstream Vera Sans" font-size="7.5">Y</tspan></text><text x="257.936" y="124.214"><tspan x="257.936" y="124.214" fill="#807b88" font-family="Bitstream Vera Sans" font-size="7.5">G</tspan></text><text x="258.146" y="131.774"><tspan x="258.146" y="131.774" fill="#807b88" font-family="Bitstream Vera Sans" font-size="7.5">C</tspan></text><g stroke="#000" stroke-width=".72"><path d="m263.41 136.64a2.5575 2.5575 0 0 1-5.115 0 2.5575 2.5575 0 0 1 5.115 0z" fill="#d90000"/><path d="m266.51 143.54a2.5575 2.5575 0 0 1-5.115 0 2.5575 2.5575 0 0 1 5.115 0z" fill="#d90000"/><path d="m263.41 150.43a2.5575 2.5575 0 0 1-5.115 0 2.5575 2.5575 0 0 1 5.115 0z" fill="#807b88"/></g><text x="258.353" y="160.685"><tspan x="258.353" y="160.685" fill="#000000" font-family="Bitstream Vera Sans" font-size="7.5">Y</tspan></text><text x="258.146" y="168.245"><tspan x="258.146" y="168.245" fill="#807b88" font-family="Bitstream Vera Sans" font-size="7.5">C</tspan></text><text x="258.146" y="175.805"><tspan x="258.146" y="175.805" fill="#807b88" font-family="Bitstream Vera Sans" font-size="7.5">C</tspan></text><g stroke="#000" stroke-width=".72"><path d="m263.41 180.67a2.5575 2.5575 0 0 1-5.115 0 2.5575 2.5575 0 0 1 5.115 0z"/><path d="m263.41 188.23a2.5575 2.5575 0 0 1-5.115 0 2.5575 2.5575 0 0 1 5.115 0z"/><path d="m268.76 193.58a2.5575 2.5575 0 0 1-5.115 0 2.5575 2.5575 0 0 1 5.115 0z" fill="#d90000"/></g></svg>
