<svg width="64.197" height="33.183" version="1.1" viewBox="0 0 16.986 8.7798" xmlns="http://www.w3.org/2000/svg"><g transform="translate(-15.016 -42.629)"><g transform="matrix(.90466 0 0 .90466 -28.503 -70.081)" stroke-linejoin="round"><g transform="matrix(.099287 0 0 .05137 46.492 117.88)" fill="#f9f9f9" stroke-width="1.4104"><rect x="16.769" y="131.01" width="188.08" height="187.9" ry="9.0821" fill="#f9f9f9" stroke="#666" stroke-linejoin="round" stroke-width="1.0239"/></g><g transform="matrix(.10067 0 0 .073315 46.155 109.36)" stroke-width="8.3616"><g transform="translate(.8207 -7.8364)" stroke-linejoin="round"><g transform="translate(-1.5847,4.8822)" stroke-width="8.3616"><g transform="translate(1.5875)" stroke-linejoin="round" stroke-width="8.3616"><g fill="none"><path d="m27.086 307.58 10.346 2.7302 19.127-2.7302h0.16115l6.9419 0.65143 7.1245-0.65143 10.876 5.3911 20.725-5.3911h0.20937l10.783 1.5275 10.339-1.5275h0.79536" stroke="#59f" stroke-width="6.2712"/><path d="m27.086 307.58 10.225 1.994 19.471-1.994h-0.06166l7.0479 0.99224 7.0184-0.99224 10.491 2.8771 20.944-2.8771h0.37514l10.98 1.2114 10.142-1.2114h0.36552" stroke="#d4aa00" stroke-width="4.1808"/><path d="m28.274 304.14 10.346-21.553 19.408 21.553h-0.12003l6.9419-5.2669 7.1245 5.2669 10.876-42.4 20.946 42.4h-0.0117l10.783-12.13 10.339 12.13h0.26656" stroke="#59f" stroke-width="6.2712"/><path d="m28.274 304.14 10.225-15.786 19.35 15.786h0.05981l7.0479-7.9371 7.0184 7.9371 10.491-22.704 21.397 22.704h-0.0781l10.98-9.6542 10.142 9.6542h0.12979" stroke="#d4aa00" stroke-width="6.2712"/></g><rect x="24.208" y="304.83" width="177.26" height=".43028" fill="#999" stroke="#fff" stroke-width="2.0904"/><rect x="21.626" y="304.5" width="180.19" height="1.8896" ry="0" fill="#fff" stroke="#999" stroke-width=".83616"/><path d="m27.086 307.55 15.425 22.127 14.049-22.127h0.16115l8.9801 8.4487 5.0862-8.4487 14.608 29.925 16.992-29.925h0.20937l17.641 19.656 3.4812-19.656h0.79536l40.601 18.325 34.928-15.989" fill="none" stroke="#000" stroke-width="4.1808"/><rect x="20.309" y="302.79" width="3.1295" height="4.8028" fill="#fff"/><rect x="200.27" y="302.79" width="3.1295" height="4.8028" fill="#fff"/></g></g><rect x="-46.606" y="347.67" width="249.3" height="0" ry="0" fill="none" stroke="#333" stroke-width=".83616"/></g></g><g font-family="sans-serif" font-size="2.2926px" font-weight="bold" letter-spacing="0px" stroke-width="1.6871" word-spacing="0px"><text x="52.305805" y="127.18346" fill="#d4aa00" style="line-height:1.25" xml:space="preserve"><tspan x="52.305805" y="127.18346" fill="#d4aa00" font-family="sans-serif" font-size="2.2926px" font-weight="bold" stroke-width="1.6871">M</tspan></text><text x="49.554718" y="127.18402" fill="#5599ff" style="line-height:1.25" xml:space="preserve"><tspan x="49.554718" y="127.18402" fill="#5599ff" font-family="sans-serif" font-size="2.2926px" font-weight="bold" stroke-width="1.6871">S</tspan></text><text x="61.27758" y="130.10129" fill="#000000" style="line-height:1.25" xml:space="preserve"><tspan x="61.27758" y="130.10129" fill="#000000" font-family="sans-serif" font-size="2.2926px" font-weight="bold" stroke-width="1.6871">R</tspan></text></g></g></g></svg>
