<?xml version="1.0" encoding="UTF-8" standalone="no"?>
<svg
   xmlns:dc="http://purl.org/dc/elements/1.1/"
   xmlns:cc="http://creativecommons.org/ns#"
   xmlns:rdf="http://www.w3.org/1999/02/22-rdf-syntax-ns#"
   xmlns:svg="http://www.w3.org/2000/svg"
   xmlns="http://www.w3.org/2000/svg"
   xmlns:sodipodi="http://sodipodi.sourceforge.net/DTD/sodipodi-0.dtd"
   xmlns:inkscape="http://www.inkscape.org/namespaces/inkscape"
   viewBox="0 0 16 16"
   version="1.1"
   id="svg10"
   sodipodi:docname="aspect_ratio.svg"
   inkscape:version="1.0.1 (3bc2e813f5, 2020-09-07)">
  <metadata
     id="metadata16">
    <rdf:RDF>
      <cc:Work
         rdf:about="">
        <dc:format>image/svg+xml</dc:format>
        <dc:type
           rdf:resource="http://purl.org/dc/dcmitype/StillImage" />
      </cc:Work>
    </rdf:RDF>
  </metadata>
  <defs
     id="defs14" />
  <sodipodi:namedview
     pagecolor="#ffffff"
     bordercolor="#666666"
     borderopacity="1"
     objecttolerance="10"
     gridtolerance="10"
     guidetolerance="10"
     inkscape:pageopacity="0"
     inkscape:pageshadow="2"
     inkscape:window-width="692"
     inkscape:window-height="480"
     id="namedview12"
     showgrid="false"
     inkscape:zoom="35.3125"
     inkscape:cx="8"
     inkscape:cy="8"
     inkscape:window-x="0"
     inkscape:window-y="31"
     inkscape:window-maximized="0"
     inkscape:current-layer="svg10"
     inkscape:document-rotation="0" />
  <path
     d="m 2 1 5 0 0 2 -3 0 c -0.541 0 -1 0.416 -1 1 l 0 3 -2 0 0 -5 c 0 -0.523 0.459 -1 1 -1 z"
     style="fill:#bfbfbf;fill-opacity:1;stroke:none"
     id="path2" />
  <path
     d="m 1 14 0 -5 2 0 0 3 c 0 0.541 0.416 1 1 1 l 3 0 0 2 -5 0 c -0.523 0 -1 -0.459 -1 -1 z"
     style="fill:#bfbfbf;fill-opacity:1;stroke:none"
     id="path4" />
  <path
     d="m 14 1 -5 0 0 2 3 0 c 0.541 0 1 0.416 1 1 l 0 3 2 0 0 -5 c 0 -0.523 -0.459 -1 -1 -1 z"
     style="fill:#bfbfbf;fill-opacity:1;stroke:none"
     id="path6" />
  <path
     d="m 15 14 0 -5 -2 0 0 3 c 0 0.541 -0.416 1 -1 1 l -3 0 0 2 5 0 c 0.523 0 1 -0.459 1 -1 z"
     style="fill:#bfbfbf;fill-opacity:1;stroke:none"
     id="path8" />
</svg>
