<?xml version="1.0" encoding="UTF-8" standalone="no"?>
<svg
   viewBox="0 0 16 16"
   version="1.1"
   id="svg16"
   sodipodi:docname="console_starred.svg"
   inkscape:version="1.1.2 (0a00cf5339, 2022-02-04)"
   xmlns:inkscape="http://www.inkscape.org/namespaces/inkscape"
   xmlns:sodipodi="http://sodipodi.sourceforge.net/DTD/sodipodi-0.dtd"
   xmlns="http://www.w3.org/2000/svg"
   xmlns:svg="http://www.w3.org/2000/svg">
  <defs
     id="defs20" />
  <sodipodi:namedview
     id="namedview18"
     pagecolor="#ffffff"
     bordercolor="#666666"
     borderopacity="1.0"
     inkscape:pageshadow="2"
     inkscape:pageopacity="0.0"
     inkscape:pagecheckerboard="0"
     showgrid="false"
     inkscape:zoom="32.0625"
     inkscape:cx="8"
     inkscape:cy="11.181287"
     inkscape:window-width="1364"
     inkscape:window-height="711"
     inkscape:window-x="0"
     inkscape:window-y="31"
     inkscape:window-maximized="0"
     inkscape:current-layer="svg16" />
  <path
     d="m 2.668 0 c -0.344 0 -0.668 0.338 -0.668 0.697 l 0 14.607 c 0 0.338 0.344 0.697 0.668 0.697 l 10.664 0 c 0.324 0 0.668 -0.359 0.668 -0.697 l 0 -11.304 -4 -4 z"
     style="fill:#dcdcdc;fill-opacity:1;opacity:0.3"
     id="path2" />
  <path
     d="m 10.583 3.332 0.015 0.02 0.04 -0.02 z m 0.03 0.668 3.387 3.664 0 -3.664 z"
     style="fill:#000;fill-opacity:0.196"
     id="path4" />
  <path
     d="m 10 0 3.996 4 -3.384 0 c -0.299 0 -0.613 -0.317 -0.613 -0.616 z"
     style="fill:#fff;fill-opacity:0.392"
     id="path6" />
  <g
     style="fill:#888"
     id="g14">
    <path
       d="m 5,6 0,2 -1,0 0,1 1,0 0,1 -1,0 0,1 1,0 0,2 1,0 0,-2 1,0 0,2 1,0 0,-2 1,0 L 9,10 8,10 8,9 9,9 9,8 8,8 8,6 7,6 7,8 6,8 6,6 z m 1,3 1,0 0,1 -1,0 z"
       id="path8" />
  </g>
  <path
     d="M 11.421122,8.097 10.207964,10.950653 6.841,11.114787 9.458539,13.044405 8.5906078,16.000381 9.5255217,15.450323 11.421122,14.337222 14.25106,15.99986 13.383129,13.043884 16.000668,11.114272 12.633706,10.950133 Z"
     style="color:#000000;display:inline;visibility:visible;fill:#bfbfbf;fill-opacity:1;stroke:none;stroke-width:0.545;stroke-linecap:round;stroke-linejoin:round;stroke-miterlimit:4;stroke-dasharray:0.545, 0.545;stroke-dashoffset:0;enable-background:new"
     id="path2-3-3"
     inkscape:connector-curvature="0" />
</svg>
