<?xml version="1.0" encoding="UTF-8" standalone="no"?>
<svg
   viewBox="0 0 16 16"
   version="1.1"
   id="svg12"
   sodipodi:docname="cut.svg"
   inkscape:version="1.1 (c4e8f9ed74, 2021-05-24)"
   xmlns:inkscape="http://www.inkscape.org/namespaces/inkscape"
   xmlns:sodipodi="http://sodipodi.sourceforge.net/DTD/sodipodi-0.dtd"
   xmlns="http://www.w3.org/2000/svg"
   xmlns:svg="http://www.w3.org/2000/svg">
  <defs
     id="defs16" />
  <sodipodi:namedview
     id="namedview14"
     pagecolor="#ffffff"
     bordercolor="#666666"
     borderopacity="1.0"
     inkscape:pageshadow="2"
     inkscape:pageopacity="0.0"
     inkscape:pagecheckerboard="0"
     showgrid="false"
     inkscape:zoom="36.3125"
     inkscape:cx="7.9862306"
     inkscape:cy="8"
     inkscape:window-width="1364"
     inkscape:window-height="711"
     inkscape:window-x="0"
     inkscape:window-y="31"
     inkscape:window-maximized="0"
     inkscape:current-layer="svg12" />
  <g
     transform="matrix(0.81331331,0,0,0.81331331,-31.039039,-541.8063)"
     style="fill:#bebebe"
     id="g10">
    <g
       style="color:#000000"
       id="g6">
      <path
         d="m 43.5,676.99 c -1.905,0 -3.492,1.575 -3.492,3.513 0,1.938 1.588,3.513 3.492,3.513 1.905,0 3.492,-1.575 3.492,-3.513 0,-1.938 -1.588,-3.513 -3.492,-3.513 z m 0,2.026 c 0.857,0 1.508,0.664 1.508,1.487 0,0.823 -0.651,1.487 -1.508,1.487 -0.857,0 -1.508,-0.664 -1.508,-1.487 0,-0.823 0.651,-1.487 1.508,-1.487 z"
         id="path2" />
      <path
         d="m 52.5,676.99 c -1.905,0 -3.492,1.575 -3.492,3.513 0,1.938 1.588,3.513 3.492,3.513 1.905,0 3.492,-1.575 3.492,-3.513 0,-1.938 -1.588,-3.513 -3.492,-3.513 z m 0,2.026 c 0.857,0 1.508,0.664 1.508,1.487 0,0.823 -0.651,1.487 -1.508,1.487 -0.857,0 -1.508,-0.664 -1.508,-1.487 0,-0.823 0.651,-1.487 1.508,-1.487 z"
         id="path4" />
    </g>
    <path
       d="m 43.1,668 c -1.06,0.554 -1.407,1.759 -0.794,2.719 l 4.42,7.281 -1.746,2.368 1.414,2.085 1.61,-2.484 1.579,2.484 1.401,-1.997 -1.702,-2.456 4.42,-7.281 c 0.612,-0.96 0.266,-2.165 -0.794,-2.719 l -4.904,8 z"
       id="path8" />
  </g>
</svg>
