<?xml version="1.0" encoding="UTF-8" standalone="no"?>
<svg
   xmlns:dc="http://purl.org/dc/elements/1.1/"
   xmlns:cc="http://creativecommons.org/ns#"
   xmlns:rdf="http://www.w3.org/1999/02/22-rdf-syntax-ns#"
   xmlns:svg="http://www.w3.org/2000/svg"
   xmlns="http://www.w3.org/2000/svg"
   xmlns:sodipodi="http://sodipodi.sourceforge.net/DTD/sodipodi-0.dtd"
   xmlns:inkscape="http://www.inkscape.org/namespaces/inkscape"
   viewBox="0 0 16 16"
   version="1.1"
   id="svg8"
   sodipodi:docname="highlight.svg"
   inkscape:version="1.0.2 (e86c870879, 2021-01-15, custom)">
  <metadata
     id="metadata14">
    <rdf:RDF>
      <cc:Work
         rdf:about="">
        <dc:format>image/svg+xml</dc:format>
        <dc:type
           rdf:resource="http://purl.org/dc/dcmitype/StillImage" />
      </cc:Work>
    </rdf:RDF>
  </metadata>
  <defs
     id="defs12" />
  <sodipodi:namedview
     pagecolor="#ffffff"
     bordercolor="#666666"
     borderopacity="1"
     objecttolerance="10"
     gridtolerance="10"
     guidetolerance="10"
     inkscape:pageopacity="0"
     inkscape:pageshadow="2"
     inkscape:window-width="1366"
     inkscape:window-height="716"
     id="namedview10"
     showgrid="false"
     inkscape:zoom="17.209366"
     inkscape:cx="11.799388"
     inkscape:cy="3.5936295"
     inkscape:window-x="0"
     inkscape:window-y="31"
     inkscape:window-maximized="1"
     inkscape:current-layer="layer1"
     inkscape:document-rotation="0" />
  <g
     inkscape:groupmode="layer"
     id="layer1"
     inkscape:label="bg"
     style="display:inline">
    <rect
       style="color:#000000;opacity:0.3;fill:#bfbfbf;stroke-width:0.225274"
       id="rect839"
       width="14.897156"
       height="14.753241"
       x="0.55142212"
       y="0.62337971" />
  </g>
  <g
     inkscape:groupmode="layer"
     id="layer2"
     inkscape:label="fg"
     style="display:inline">
    <g
       transform="translate(-180.0002,-706)"
       style="fill:#808080;color:#000"
       id="g6">
      <path
         d="m 184.00025,709 v 2 h 6 c 0.428,0 1,0.614 1,1 v 1 h -5 c -0.919,0 -1.736,0.384 -2.25,0.969 -0.514,0.585 -0.756,1.311 -0.75,2.031 0.006,0.721 0.269,1.453 0.781,2.031 0.512,0.579 1.31,0.969 2.219,0.969 h 6 1 v -1 -6 c 0,-1.634 -1.32,-3 -3,-3 z m 2,6 h 5 v 2 h -5 c -0.398,0 -0.567,-0.11 -0.719,-0.281 -0.152,-0.171 -0.279,-0.439 -0.281,-0.719 -0.002,-0.279 0.105,-0.554 0.25,-0.719 0.145,-0.165 0.328,-0.281 0.75,-0.281 z"
         id="path2"
         style="fill:#808080" />
    </g>
  </g>
</svg>
