<?xml version="1.0" encoding="UTF-8" standalone="no"?>
<svg
   viewBox="0 0 16 16"
   version="1.1"
   id="svg8"
   sodipodi:docname="image_regular.svg"
   inkscape:version="1.1.2 (0a00cf5339, 2022-02-04)"
   xmlns:inkscape="http://www.inkscape.org/namespaces/inkscape"
   xmlns:sodipodi="http://sodipodi.sourceforge.net/DTD/sodipodi-0.dtd"
   xmlns="http://www.w3.org/2000/svg"
   xmlns:svg="http://www.w3.org/2000/svg">
  <defs
     id="defs12" />
  <sodipodi:namedview
     id="namedview10"
     pagecolor="#ffffff"
     bordercolor="#666666"
     borderopacity="1.0"
     inkscape:pageshadow="2"
     inkscape:pageopacity="0.0"
     inkscape:pagecheckerboard="0"
     showgrid="false"
     inkscape:zoom="32.0625"
     inkscape:cx="8"
     inkscape:cy="9.6842105"
     inkscape:window-width="1364"
     inkscape:window-height="711"
     inkscape:window-x="0"
     inkscape:window-y="31"
     inkscape:window-maximized="0"
     inkscape:current-layer="svg8" />
  <path
     d="m 2.668 0 c -0.344 0 -0.668 0.338 -0.668 0.697 l 0 14.607 c 0 0.338 0.344 0.697 0.668 0.697 l 10.664 0 c 0.324 0 0.668 -0.359 0.668 -0.697 l 0 -11.304 -4 -4 z"
     style="fill:#dcdcdc;fill-opacity:1;opacity:0.3"
     id="path2" />
  <path
     d="m 10.583 3.332 0.015 0.02 0.04 -0.02 z m 0.03 0.668 3.387 3.664 0 -3.664 z"
     style="fill:#000;fill-opacity:0.196"
     id="path4" />
  <path
     d="m 10 0 3.996 4 -3.384 0 c -0.299 0 -0.613 -0.317 -0.613 -0.616 z"
     style="fill:#fff;fill-opacity:0.392"
     id="path6" />
  <path
     d="M 4.816596,5.6 C 4.5593341,5.622 4.3337726,5.842 4.3398688,6.079 v 5.05 c 0.00488,0.246 0.2462888,0.47 0.519401,0.466 h 6.2974312 c 0.268236,-0.004 0.498674,-0.224 0.503551,-0.466 v -5.05 c 0,-0.246 -0.235315,-0.475 -0.503551,-0.479 z m 0.7425239,1 h 4.8770051 v 3 L 9.2046807,8.026 8.1110126,8.857 6.6796117,7.38 5.5566814,8.6 Z"
     style="fill:#888888;fill-opacity:1;stroke-width:1.1042"
     id="path8" />
</svg>
