<?xml version="1.0" encoding="UTF-8" standalone="no"?>
<svg
   viewBox="0 0 16 16"
   version="1.1"
   id="svg6"
   sodipodi:docname="_change.svg"
   inkscape:version="1.1.1 (3bf5ae0d25, 2021-09-20, custom)"
   xmlns:inkscape="http://www.inkscape.org/namespaces/inkscape"
   xmlns:sodipodi="http://sodipodi.sourceforge.net/DTD/sodipodi-0.dtd"
   xmlns="http://www.w3.org/2000/svg"
   xmlns:svg="http://www.w3.org/2000/svg">
  <defs
     id="defs10" />
  <sodipodi:namedview
     id="namedview8"
     pagecolor="#ffffff"
     bordercolor="#666666"
     borderopacity="1.0"
     inkscape:pageshadow="2"
     inkscape:pageopacity="0.0"
     inkscape:pagecheckerboard="0"
     showgrid="false"
     inkscape:zoom="33.0625"
     inkscape:cx="7.1984877"
     inkscape:cy="8.3024575"
     inkscape:window-width="1310"
     inkscape:window-height="711"
     inkscape:window-x="0"
     inkscape:window-y="31"
     inkscape:window-maximized="0"
     inkscape:current-layer="svg6" />
  <path
     d="m 8.1635121,2.5477629 c -3.306,0 -5.987,2.669 -6,5.969 l -1.99000005,0.031 3.00000005,4.0000001 3.01,-4.0000001 -2.01,-0.031 c 0.017,-2.195 1.801,-3.969 4,-3.969 1.688,0 3.1259999,1.047 3.7149999,2.523 0.538,0.024 1.076,0.126 1.586,0.346 0.226,0.098 0.442,0.226 0.65,0.367 -0.376,-2.952 -2.894,-5.236 -5.9509999,-5.236"
     style="fill:#bebebe;fill-opacity:1;fill-rule:evenodd"
     id="path2" />
  <path
     d="M 5.9995527,10.877508 C 5.9883995,9.7237863 6.9546655,8.6381916 8.1674484,8.4254292 9.3802315,8.2126658 10.516828,8.7900851 10.954742,9.8689795 h 3.303253 c 1.101291,0 1.660607,0.5640165 1.651937,0.9934505 -0.0093,0.432228 -0.550646,0.993452 -1.651937,0.993452 l -0.550645,0.993453 -0.732129,-1.251448 -0.919189,1.251448 -0.550645,-0.993453 h -0.550645 c -0.417475,1.086153 -1.5193848,1.652404 -2.7358833,1.459186 -1.2164994,-0.193217 -2.2087763,-1.28272 -2.219306,-2.437001 m 1.6345935,0 c 0,0.290385 0.2459006,0.512083 0.5679887,0.512083 0.3220873,0 0.5679886,-0.221698 0.5679886,-0.512083 0,-0.290385 -0.2459013,-0.512083 -0.5679886,-0.512083 -0.3220873,0 -0.5679887,0.221698 -0.5679887,0.512083 z m 0.5506454,0 c 0,0.01062 0.029112,-0.01563 0.017343,-0.01563 -0.011768,0 0.017342,0.02625 0.017342,0.01563 0,-0.01062 -0.029112,0.01563 -0.017342,0.01563 0.011768,0 -0.017343,-0.02625 -0.017343,-0.01563 z"
     style="color:#000000;fill:#bebebe;stroke-width:0.588127"
     id="path2-3" />
</svg>
