<?xml version="1.0" encoding="UTF-8" standalone="no"?>
<svg
   viewBox="0 0 16 16"
   version="1.1"
   id="svg4"
   sodipodi:docname="_decrypt.svg"
   inkscape:version="1.1.1 (3bf5ae0d25, 2021-09-20, custom)"
   xmlns:inkscape="http://www.inkscape.org/namespaces/inkscape"
   xmlns:sodipodi="http://sodipodi.sourceforge.net/DTD/sodipodi-0.dtd"
   xmlns="http://www.w3.org/2000/svg"
   xmlns:svg="http://www.w3.org/2000/svg">
  <defs
     id="defs8" />
  <sodipodi:namedview
     id="namedview6"
     pagecolor="#ffffff"
     bordercolor="#666666"
     borderopacity="1.0"
     inkscape:pageshadow="2"
     inkscape:pageopacity="0.0"
     inkscape:pagecheckerboard="0"
     showgrid="false"
     inkscape:zoom="33.0625"
     inkscape:cx="7.9848771"
     inkscape:cy="2.7372401"
     inkscape:window-width="1310"
     inkscape:window-height="711"
     inkscape:window-x="0"
     inkscape:window-y="31"
     inkscape:window-maximized="0"
     inkscape:current-layer="svg4" />
  <path
     d="m 0 8.02 c -0.018 -2.066 1.542 -4.01 3.5 -4.391 c 1.958 -0.381 3.793 0.653 4.5 2.585 l 5.333 0 c 1.778 0 2.681 1.01 2.667 1.779 -0.015 0.774 -0.889 1.779 -2.667 1.779 l -0.889 1.779 -1.182 -2.241 -1.484 2.241 -0.889 -1.779 -0.889 0 c -0.674 1.945 -2.453 2.959 -4.417 2.613 c -1.964 -0.346 -3.566 -2.297 -3.583 -4.364 m 2.639 0 c 0 0.52 0.397 0.917 0.917 0.917 0.52 0 0.917 -0.397 0.917 -0.917 0 -0.52 -0.397 -0.917 -0.917 -0.917 -0.52 0 -0.917 0.397 -0.917 0.917 z m 0.889 0 c 0 0.019 0.047 -0.028 0.028 -0.028 -0.019 0 0.028 0.047 0.028 0.028 0 -0.019 -0.047 0.028 -0.028 0.028 0.019 0 -0.028 -0.047 -0.028 -0.028 z"
     style="fill:#bebebe;color:#000"
     id="path2" />
  <path
     d="m 10.892544,0.13156614 h 1.5 l 1,0.99999996 1,-0.99999996 h 1.5 V 1.6315661 l -1,1 1,1 v 1.5 h -1.5 l -1,-1 -1,1 h -1.5 v -1.5 l 1,-1 -1,-1 z"
     style="color:#bebebe;display:inline;visibility:visible;fill:#bfbfbf;fill-opacity:1;stroke:none"
     id="path6" />
</svg>
