<?xml version="1.0" encoding="UTF-8" standalone="no"?>
<svg
   xmlns:dc="http://purl.org/dc/elements/1.1/"
   xmlns:cc="http://creativecommons.org/ns#"
   xmlns:rdf="http://www.w3.org/1999/02/22-rdf-syntax-ns#"
   xmlns:svg="http://www.w3.org/2000/svg"
   xmlns="http://www.w3.org/2000/svg"
   xmlns:sodipodi="http://sodipodi.sourceforge.net/DTD/sodipodi-0.dtd"
   xmlns:inkscape="http://www.inkscape.org/namespaces/inkscape"
   viewBox="0 0 16.05 16.062"
   version="1.1"
   id="svg4"
   sodipodi:docname="type.svg"
   inkscape:version="1.0.1 (3bc2e813f5, 2020-09-07)">
  <metadata
     id="metadata10">
    <rdf:RDF>
      <cc:Work
         rdf:about="">
        <dc:format>image/svg+xml</dc:format>
        <dc:type
           rdf:resource="http://purl.org/dc/dcmitype/StillImage" />
      </cc:Work>
    </rdf:RDF>
  </metadata>
  <defs
     id="defs8" />
  <sodipodi:namedview
     pagecolor="#ffffff"
     bordercolor="#666666"
     borderopacity="1"
     objecttolerance="10"
     gridtolerance="10"
     guidetolerance="10"
     inkscape:pageopacity="0"
     inkscape:pageshadow="2"
     inkscape:window-width="1360"
     inkscape:window-height="716"
     id="namedview6"
     showgrid="false"
     inkscape:zoom="35.176192"
     inkscape:cx="8.0249996"
     inkscape:cy="8.0310001"
     inkscape:window-x="0"
     inkscape:window-y="31"
     inkscape:window-maximized="1"
     inkscape:current-layer="svg4"
     inkscape:document-rotation="0" />
  <path
     d="m 7.9999,0.86195 c -3.9762,0 -7.2,3.2238 -7.2,7.2 0,3.627 2.6847,6.6024 6.1713,7.1037 v -2.0574 -1.0926 c -1.7739,-0.4572 -3.0861,-2.0367 -3.0861,-3.9537 0,-2.2725 1.8423,-4.1139 4.1139,-4.1139 2.2725,0 4.1139,1.8423 4.1139,4.1139 0,1.404 0.045,2.3463 -1.0287,3.0861 L 9.0268,9.09065 v 6.1713 h 6.1713 l -2.0574,-2.0574 c 0.2016,-0.1647 -0.2142,0.0891 -0.0324,-0.0963 0.3591,-0.3654 0.6894,-0.7866 0.9639,-1.2213 0.1449,-0.2295 0.2673,-0.4617 0.3861,-0.7074 0.1269,-0.2565 0.2583,-0.4986 0.3537,-0.7713 0.0765,-0.225 0.1386,-0.4725 0.1926,-0.7074 0.0153,-0.063 0.0189,-0.1296 0.0324,-0.1926 0.0387,-0.1899 0.0729,-0.3834 0.0963,-0.5787 0.0018,-0.0108 -9e-4,-0.0216 0,-0.0324 0.0324,-0.2727 0.0639,-0.5544 0.0639,-0.8361 0,-3.9762 -3.2238,-7.2 -7.2,-7.2 z"
     style="fill:#bfbfbf;stroke-width:0.9"
     id="path2" />
</svg>
