<?xml version="1.0" encoding="UTF-8" standalone="no"?>
<svg
   xmlns:dc="http://purl.org/dc/elements/1.1/"
   xmlns:cc="http://creativecommons.org/ns#"
   xmlns:rdf="http://www.w3.org/1999/02/22-rdf-syntax-ns#"
   xmlns:svg="http://www.w3.org/2000/svg"
   xmlns="http://www.w3.org/2000/svg"
   xmlns:sodipodi="http://sodipodi.sourceforge.net/DTD/sodipodi-0.dtd"
   xmlns:inkscape="http://www.inkscape.org/namespaces/inkscape"
   viewBox="0 0 16 16"
   style="enable-background:new"
   version="1.1"
   id="svg8"
   sodipodi:docname="palette.svg"
   inkscape:version="1.0.2 (e86c870879, 2021-01-15, custom)">
  <metadata
     id="metadata14">
    <rdf:RDF>
      <cc:Work
         rdf:about="">
        <dc:format>image/svg+xml</dc:format>
        <dc:type
           rdf:resource="http://purl.org/dc/dcmitype/StillImage" />
      </cc:Work>
    </rdf:RDF>
  </metadata>
  <defs
     id="defs12" />
  <sodipodi:namedview
     pagecolor="#ffffff"
     bordercolor="#666666"
     borderopacity="1"
     objecttolerance="10"
     gridtolerance="10"
     guidetolerance="10"
     inkscape:pageopacity="0"
     inkscape:pageshadow="2"
     inkscape:window-width="1366"
     inkscape:window-height="716"
     id="namedview10"
     showgrid="false"
     inkscape:zoom="9.2773318"
     inkscape:cx="-3.7421347"
     inkscape:cy="20.538711"
     inkscape:window-x="0"
     inkscape:window-y="31"
     inkscape:window-maximized="1"
     inkscape:current-layer="layer1" />
  <g
     inkscape:groupmode="layer"
     id="layer1"
     inkscape:label="Layer 1">
    <rect
       style="opacity:0.15;fill:#ffffff;stroke:none;stroke-width:0.273799;enable-background:new"
       id="rect839"
       width="7.0164709"
       height="3.5199151"
       x="2.3949275"
       y="9.7969217"
       transform="matrix(0.67854314,-0.73456056,0.2971181,0.95484074,0,0)" />
  </g>
  <g
     transform="translate(-464.90774,-42.27903)"
     style="fill:#bebebe;fill-opacity:1"
     id="g4">
    <path
       d="m 8 -0.997 c -1.105 0 -2 0.896 -2 2 l 0 1.999 -2 0 0 2 2 0 0 6 1.5 3 1 0 1.5 -3 0 -6 2 0 0 -2 -2 0 0 -1.999 0 -0.002 c -0.001 -1.104 -0.896 -1.999 -2 -1.999 m -1 6 2 0 0 4 -2 2 z"
       transform="matrix(0.70710678,0.70710678,-0.70710678,0.70710678,472.42344,37.912626)"
       id="path2" />
  </g>
  <path
     d="m 3.01 12 c 0 0 -1.478 2.02 -1.478 2.726 0 0.708 0.592 1.274 1.299 1.274 0.708 0 1.274 -0.566 1.274 -1.274 0 -0.708 -1.096 -2.726 -1.096 -2.726 z"
     style="visibility:visible;fill:#bebebe;fill-opacity:1;stroke:none;display:inline;color:#000;fill-rule:nonzero"
     id="path6" />
</svg>
