<?xml version="1.0" encoding="UTF-8" standalone="no"?>
<svg
   xmlns:dc="http://purl.org/dc/elements/1.1/"
   xmlns:cc="http://creativecommons.org/ns#"
   xmlns:rdf="http://www.w3.org/1999/02/22-rdf-syntax-ns#"
   xmlns:svg="http://www.w3.org/2000/svg"
   xmlns="http://www.w3.org/2000/svg"
   xmlns:sodipodi="http://sodipodi.sourceforge.net/DTD/sodipodi-0.dtd"
   xmlns:inkscape="http://www.inkscape.org/namespaces/inkscape"
   viewBox="0 0 16 16.003"
   version="1.1"
   id="svg10"
   sodipodi:docname="paste_special.svg"
   inkscape:version="1.0.1 (3bc2e813f5, 2020-09-07)">
  <metadata
     id="metadata16">
    <rdf:RDF>
      <cc:Work
         rdf:about="">
        <dc:format>image/svg+xml</dc:format>
        <dc:type
           rdf:resource="http://purl.org/dc/dcmitype/StillImage" />
      </cc:Work>
    </rdf:RDF>
  </metadata>
  <defs
     id="defs14" />
  <sodipodi:namedview
     pagecolor="#ffffff"
     bordercolor="#666666"
     borderopacity="1"
     objecttolerance="10"
     gridtolerance="10"
     guidetolerance="10"
     inkscape:pageopacity="0"
     inkscape:pageshadow="2"
     inkscape:window-width="1360"
     inkscape:window-height="716"
     id="namedview12"
     showgrid="false"
     inkscape:zoom="14.747235"
     inkscape:cx="3.1331962"
     inkscape:cy="8.0015005"
     inkscape:window-x="0"
     inkscape:window-y="31"
     inkscape:window-maximized="1"
     inkscape:current-layer="svg10"
     inkscape:document-rotation="0" />
  <rect
     style="fill:#bfbfbf;fill-opacity:1;opacity:0.15"
     id="rect815"
     width="9.3723431"
     height="11.96872"
     x="3.3080001"
     y="2" />
  <path
     d="m 3.308 2 c -1.309 0 -1.308 -0.001 -1.308 1.308 l 0 10.382 c 0 1.309 -0.001 1.31 1.308 1.31 l 9.384 0 c 1.309 0 1.308 -0.001 1.308 -1.31 l 0 -10.382 c 0 -1.439 0.001 -1.308 -1.308 -1.308 l -0.692 0 0 11 -8 0 0 -11 z"
     style="fill:#bfbfbf;fill-opacity:1;stroke:none;fill-rule:evenodd"
     id="path2" />
  <path
     d="m 5 1.012 0 2.991 6 0 0 -2.991 z"
     style="fill:#bfbfbf;fill-opacity:1;stroke:none;fill-rule:nonzero"
     id="path4" />
  <path
     id="path2-3"
     style="display:inline;fill:#bfbfbf;fill-opacity:1;stroke:none"
     d="m 6.9999998,5.5062174 v 1.9999991 h -2 v 2 h 2 V 11.506217 H 8.9999999 V 9.5062165 H 11 v -2 H 8.9999999 V 5.5062174 Z" />
</svg>
