<?xml version="1.0" encoding="UTF-8" standalone="no"?>
<!-- Created with Inkscape (http://www.inkscape.org/) -->

<svg
   id="svg249"
   inkscape:version="1.1.1 (3bf5ae0d25, 2021-09-20, custom)"
   inkscape:export-filename="C:\Projects\com.ermsw.pcs\icons\compliance.comment-16.png"
   viewBox="0 0 96 96"
   sodipodi:version="0.32"
   inkscape:export-xdpi="15"
   version="1.0"
   inkscape:output_extension="org.inkscape.output.svg.inkscape"
   inkscape:export-ydpi="15"
   sodipodi:docname="primenote.svg"
   xmlns:inkscape="http://www.inkscape.org/namespaces/inkscape"
   xmlns:sodipodi="http://sodipodi.sourceforge.net/DTD/sodipodi-0.dtd"
   xmlns="http://www.w3.org/2000/svg"
   xmlns:svg="http://www.w3.org/2000/svg"
   xmlns:rdf="http://www.w3.org/1999/02/22-rdf-syntax-ns#"
   xmlns:cc="http://creativecommons.org/ns#"
   xmlns:dc="http://purl.org/dc/elements/1.1/">
  <defs
     id="defs3">
    <linearGradient
       id="linearGradient3271"
       y2="-130.79"
       gradientUnits="userSpaceOnUse"
       x2="463.22"
       gradientTransform="matrix(.23370 0 0 .24524 .42947 -93.923)"
       y1="340.63"
       x1="41.689"
       inkscape:collect="always">
      <stop
         id="stop3261"
         style="stop-color:#fefdb7"
         offset="0" />
      <stop
         id="stop3267"
         style="stop-color:#f5f06c"
         offset="1" />
    </linearGradient>
    <linearGradient
       id="linearGradient3171"
       y2="882.59"
       gradientUnits="userSpaceOnUse"
       x2="190.95"
       gradientTransform="matrix(.23370 0 0 .24524 -30.007 -133.88)"
       y1="823.61"
       x1="223.7"
       inkscape:collect="always">
      <stop
         id="stop4155"
         style="stop-color:#fdfb63"
         offset="0" />
      <stop
         id="stop4157"
         style="stop-color:#e2d94a"
         offset="1" />
    </linearGradient>
    <linearGradient
       id="linearGradient2422"
       y2="393.27"
       gradientUnits="userSpaceOnUse"
       x2="743.11"
       gradientTransform="matrix(0 .14602 -.18189 0 120.35 -39.192)"
       y1="584.52"
       x1="351.58"
       inkscape:collect="always">
      <stop
         id="stop1502"
         style="stop-color:#ffffff"
         offset="0" />
      <stop
         id="stop1504"
         style="stop-color:#ffffff;stop-opacity:0"
         offset="1" />
    </linearGradient>
  </defs>
  <sodipodi:namedview
     id="base"
     bordercolor="#666666"
     inkscape:window-x="0"
     inkscape:window-y="31"
     pagecolor="#ffffff"
     inkscape:showpageshadow="false"
     inkscape:grid-bbox="true"
     width="96px"
     inkscape:zoom="4.2196786"
     inkscape:pageshadow="2"
     showgrid="false"
     borderopacity="0.25490196"
     inkscape:current-layer="layer1"
     inkscape:cx="33.651852"
     inkscape:cy="56.165415"
     inkscape:window-width="1366"
     height="96px"
     inkscape:pageopacity="0.0"
     inkscape:window-height="716"
     inkscape:document-units="px"
     inkscape:pagecheckerboard="0"
     inkscape:window-maximized="1" />
  <g
     id="layer1"
     inkscape:label="Base"
     inkscape:groupmode="layer">
    <rect
       id="rect2284"
       style="fill-rule:evenodd;fill:#d0c36b"
       transform="rotate(90)"
       rx=".31229"
       ry=".32912"
       height="86.1"
       width="85.715"
       y="-91.543"
       x="5.7103" />
    <rect
       id="rect3269"
       style="fill-rule:evenodd;stroke:#f6db32;stroke-width:.95761;fill:url(#linearGradient3271)"
       transform="rotate(90)"
       rx=".30826"
       ry=".32349"
       height="84.626"
       width="84.609"
       y="-89.469"
       x="4.3955" />
    <path
       id="path1500"
       d="m88.885 5.2927l-40.834-0.1503-40.835-0.1503c0.0002 0-12.831 128.57 30.231 57.723s48.142-40.891 51.438-57.422z"
       style="opacity:.27778;fill-rule:evenodd;stroke-width:1pt;fill:url(#linearGradient2422)"
       sodipodi:nodetypes="ccczc" />
    <path
       id="path3169"
       sodipodi:nodetypes="cccc"
       style="stroke-opacity:.375;fill-rule:evenodd;color:#000000;stroke:#f8df37;stroke-width:.95775;fill:url(#linearGradient3171)"
       d="m4.8633 66.629c9.1347 4.41 17.988 0.998 17.594 1.198 0.098 0.332-0.659 15.565 11.56 21.202-17.719-0.13-29.154-10.177-29.154-22.4z" />
    <g
       style="display:block;fill:#808080"
       id="g8"
       transform="matrix(2.4794369,0,0,2.3192256,44.37338,8.972008)">
      <path
         d="m 11.438,0 c -0.133,0 -0.25,0.117 -0.25,0.25 V 0.875 C 10.892,0.951 10.632,1.098 10.375,1.25 L 9.906,0.75 C 9.812,0.656 9.656,0.656 9.562,0.75 L 8.749,1.563 c -0.094,0.094 -0.094,0.25 0,0.344 l 0.5,0.469 C 9.097,2.633 8.95,2.892 8.874,3.189 H 8.249 c -0.133,0 -0.25,0.117 -0.25,0.25 v 1.125 c 0,0.133 0.117,0.25 0.25,0.25 H 8.874 C 8.95,5.11 9.097,5.37 9.249,5.627 l -0.5,0.469 c -0.094,0.094 -0.094,0.25 0,0.344 l 0.813,0.813 c 0.094,0.094 0.25,0.094 0.344,0 l 0.469,-0.5 c 0.257,0.152 0.516,0.299 0.813,0.375 v 0.625 c 0,0.133 0.117,0.25 0.25,0.25 h 1.125 c 0.133,0 0.25,-0.117 0.25,-0.25 V 7.128 c 0.296,-0.076 0.556,-0.223 0.813,-0.375 l 0.469,0.5 c 0.094,0.094 0.25,0.094 0.344,0 L 15.252,6.44 c 0.094,-0.094 0.094,-0.25 0,-0.344 l -0.5,-0.469 C 14.904,5.37 15.051,5.111 15.127,4.814 h 0.625 c 0.133,0 0.25,-0.117 0.25,-0.25 V 3.439 c 0,-0.133 -0.117,-0.25 -0.25,-0.25 H 15.127 C 15.051,2.893 14.904,2.633 14.752,2.376 l 0.5,-0.469 c 0.094,-0.094 0.094,-0.25 0,-0.344 L 14.439,0.75 c -0.094,-0.094 -0.25,-0.094 -0.344,0 l -0.469,0.5 C 13.369,1.098 13.11,0.951 12.813,0.875 V 0.25 C 12.813,0.117 12.696,0 12.563,0 Z m 0.563,3 c 0.552,0 1,0.448 1,1 0,0.552 -0.448,1 -1,1 -0.552,0 -1,-0.448 -1,-1 0,-0.552 0.448,-1 1,-1 z"
         id="path2"
         style="fill:#808080" />
      <path
         d="M 3.438,4 C 3.305,4 3.188,4.117 3.188,4.25 V 4.875 C 2.892,4.951 2.632,5.098 2.375,5.25 L 1.906,4.75 C 1.812,4.656 1.656,4.656 1.562,4.75 L 0.749,5.563 c -0.094,0.094 -0.094,0.25 0,0.344 l 0.5,0.469 C 1.097,6.633 0.95,6.892 0.874,7.189 H 0.249 c -0.133,0 -0.25,0.117 -0.25,0.25 v 1.125 c 0,0.133 0.117,0.25 0.25,0.25 H 0.874 C 0.95,9.11 1.097,9.37 1.249,9.627 l -0.5,0.469 c -0.094,0.094 -0.094,0.25 0,0.344 l 0.813,0.813 c 0.094,0.094 0.25,0.094 0.344,0 l 0.469,-0.5 c 0.257,0.152 0.516,0.299 0.813,0.375 v 0.625 c 0,0.133 0.117,0.25 0.25,0.25 h 1.125 c 0.133,0 0.25,-0.117 0.25,-0.25 v -0.625 c 0.296,-0.076 0.556,-0.223 0.813,-0.375 l 0.469,0.5 c 0.094,0.094 0.25,0.094 0.344,0 L 7.252,10.44 c 0.094,-0.094 0.094,-0.25 0,-0.344 L 6.752,9.627 C 6.904,9.37 7.051,9.111 7.127,8.814 h 0.625 c 0.133,0 0.25,-0.117 0.25,-0.25 V 7.439 c 0,-0.133 -0.117,-0.25 -0.25,-0.25 H 7.127 C 7.051,6.893 6.904,6.633 6.752,6.376 l 0.5,-0.469 c 0.094,-0.094 0.094,-0.25 0,-0.344 L 6.439,4.75 C 6.345,4.656 6.189,4.656 6.095,4.75 L 5.626,5.25 C 5.369,5.098 5.11,4.951 4.813,4.875 V 4.25 C 4.813,4.117 4.696,4 4.563,4 Z m 0.563,3 c 0.552,0 1,0.448 1,1 0,0.552 -0.448,1 -1,1 -0.552,0 -1,-0.448 -1,-1 0,-0.552 0.448,-1 1,-1 z"
         id="path4"
         style="fill:#808080" />
      <path
         d="M 9.85,6.01 C 9.813,6.008 9.795,6.025 9.756,6.041 L 8.412,6.572 C 8.257,6.636 8.191,6.854 8.256,7.01 L 8.537,7.791 C 8.228,8.023 8.013,8.27 7.787,8.572 L 7.006,8.228 C 6.851,8.164 6.633,8.26 6.568,8.416 L 6.037,9.697 c -0.064,0.155 0.032,0.342 0.188,0.406 l 0.781,0.344 c -0.053,0.374 -0.054,0.742 0,1.125 L 6.225,11.916 C 6.07,11.98 6.004,12.104 6.069,12.26 l 0.5,1.344 c 0.064,0.155 0.282,0.221 0.438,0.156 l 0.781,-0.313 c 0.232,0.309 0.511,0.555 0.813,0.781 l -0.344,0.781 c -0.064,0.155 10e-4,0.373 0.156,0.438 l 1.344,0.531 c 0.155,0.064 0.279,-0.032 0.344,-0.188 l 0.344,-0.781 c 0.374,0.053 0.742,0.055 1.125,0 l 0.313,0.781 c 0.064,0.155 0.282,0.221 0.438,0.156 l 1.281,-0.5 c 0.155,-0.064 0.252,-0.282 0.188,-0.438 l -0.344,-0.781 c 0.309,-0.232 0.555,-0.479 0.781,-0.781 l 0.813,0.313 c 0.155,0.064 0.311,-0.001 0.375,-0.156 l 0.563,-1.344 c 0.064,-0.155 -10e-4,-0.279 -0.156,-0.344 l -0.813,-0.344 c 0.053,-0.374 0.054,-0.742 0,-1.125 l 0.781,-0.344 c 0.155,-0.064 0.252,-0.188 0.188,-0.344 L 15.415,8.414 C 15.351,8.259 15.164,8.162 15.009,8.226 L 14.228,8.57 C 13.996,8.261 13.749,8.015 13.447,7.789 L 13.791,6.945 C 13.855,6.79 13.759,6.634 13.603,6.57 L 12.322,6.039 C 12.167,5.975 11.949,6.071 11.884,6.227 l -0.313,0.781 c -0.374,-0.053 -0.742,-0.055 -1.125,0 L 10.102,6.227 C 10.054,6.111 9.963,6.015 9.852,6.008 Z m 1.156,3 c 1.105,0 2,0.895 2,2 0,1.105 -0.895,2 -2,2 -1.105,0 -2,-0.895 -2,-2 0,-1.105 0.895,-2 2,-2 z"
         id="path6"
         style="fill:#808080" />
    </g>
  </g>
  <metadata
     id="metadata18">
    <rdf:RDF>
      <cc:Work>
        <dc:format>image/svg+xml</dc:format>
        <dc:type
           rdf:resource="http://purl.org/dc/dcmitype/StillImage" />
        <cc:license
           rdf:resource="http://creativecommons.org/licenses/publicdomain/" />
        <dc:publisher>
          <cc:Agent
             rdf:about="http://openclipart.org/">
            <dc:title>Openclipart</dc:title>
          </cc:Agent>
        </dc:publisher>
        <dc:title>Sticky Note Pad</dc:title>
        <dc:date>2008-01-10T21:50:56</dc:date>
        <dc:description>Straight-on icon of a standard square sticky note pad. Slight page curl and dimensionality. Similar design to the Notes icon in Microsoft Outlook 2000 and above.</dc:description>
        <dc:source>https://openclipart.org/detail/10942/sticky-note-pad-by-richardtallent</dc:source>
        <dc:creator>
          <cc:Agent>
            <dc:title>richardtallent</dc:title>
          </cc:Agent>
        </dc:creator>
        <dc:subject>
          <rdf:Bag>
            <rdf:li>canary</rdf:li>
            <rdf:li>colour</rdf:li>
            <rdf:li>comment</rdf:li>
            <rdf:li>how i did it</rdf:li>
            <rdf:li>icon</rdf:li>
            <rdf:li>notepad</rdf:li>
            <rdf:li>pad</rdf:li>
            <rdf:li>post</rdf:li>
            <rdf:li>sticky note</rdf:li>
            <rdf:li>yellow</rdf:li>
          </rdf:Bag>
        </dc:subject>
      </cc:Work>
      <cc:License
         rdf:about="http://creativecommons.org/licenses/publicdomain/">
        <cc:permits
           rdf:resource="http://creativecommons.org/ns#Reproduction" />
        <cc:permits
           rdf:resource="http://creativecommons.org/ns#Distribution" />
        <cc:permits
           rdf:resource="http://creativecommons.org/ns#DerivativeWorks" />
      </cc:License>
    </rdf:RDF>
  </metadata>
</svg>
