<?xml version="1.0" encoding="UTF-8" standalone="no"?>
<svg
   xmlns:dc="http://purl.org/dc/elements/1.1/"
   xmlns:cc="http://creativecommons.org/ns#"
   xmlns:rdf="http://www.w3.org/1999/02/22-rdf-syntax-ns#"
   xmlns:svg="http://www.w3.org/2000/svg"
   xmlns="http://www.w3.org/2000/svg"
   xmlns:sodipodi="http://sodipodi.sourceforge.net/DTD/sodipodi-0.dtd"
   xmlns:inkscape="http://www.inkscape.org/namespaces/inkscape"
   viewBox="0 0 16 16.0003"
   version="1.1"
   id="svg14"
   sodipodi:docname="roll.svg"
   inkscape:version="1.0.1 (3bc2e813f5, 2020-09-07)">
  <metadata
     id="metadata20">
    <rdf:RDF>
      <cc:Work
         rdf:about="">
        <dc:format>image/svg+xml</dc:format>
        <dc:type
           rdf:resource="http://purl.org/dc/dcmitype/StillImage" />
        <dc:title></dc:title>
      </cc:Work>
    </rdf:RDF>
  </metadata>
  <defs
     id="defs18" />
  <sodipodi:namedview
     pagecolor="#ffffff"
     bordercolor="#666666"
     borderopacity="1"
     objecttolerance="10"
     gridtolerance="10"
     guidetolerance="10"
     inkscape:pageopacity="0"
     inkscape:pageshadow="2"
     inkscape:window-width="1360"
     inkscape:window-height="716"
     id="namedview16"
     showgrid="false"
     inkscape:zoom="16.52685"
     inkscape:cx="14.088401"
     inkscape:cy="11.071673"
     inkscape:window-x="0"
     inkscape:window-y="31"
     inkscape:window-maximized="1"
     inkscape:current-layer="g12" />
  <g
     transform="translate(-141 -866.99979)"
     style="fill:#bebebe;color:#bebebe"
     id="g12">
    <rect
       width="12"
       x="-155"
       y="870"
       height="2"
       transform="scale(-1,1)"
       id="rect10" />
    <g
       style="color:#000000;opacity:1;fill:#bebebe"
       id="g6"
       transform="rotate(134.8,64.155693,779.33488)">
      <path
         d="M 71.781,647 A 1,1 0 0 0 71,648 v 4 a 1,1 0 0 0 1,1 h 4 a 1,1 0 1 0 0,-2 h -3 v -3 a 1,1 0 0 0 -1.219,-1 z"
         id="path2" />
      <path
         d="m 75.875,647 a 1,1 0 0 0 -0.594,0.281 l -4,4 a 1.0168196,1.0168196 0 1 0 1.438,1.438 l 4,-4 A 1,1 0 0 0 75.875,647 Z"
         id="path4" />
    </g>
  </g>
</svg>
