<?xml version="1.0" encoding="UTF-8" standalone="no"?>
<svg
   viewBox="0 0 16.0001 15.9999"
   version="1.1"
   id="svg8"
   sodipodi:docname="swapcase.svg"
   inkscape:version="1.1 (c4e8f9ed74, 2021-05-24)"
   xmlns:inkscape="http://www.inkscape.org/namespaces/inkscape"
   xmlns:sodipodi="http://sodipodi.sourceforge.net/DTD/sodipodi-0.dtd"
   xmlns="http://www.w3.org/2000/svg"
   xmlns:svg="http://www.w3.org/2000/svg">
  <defs
     id="defs12" />
  <sodipodi:namedview
     id="namedview10"
     pagecolor="#ffffff"
     bordercolor="#666666"
     borderopacity="1.0"
     inkscape:pageshadow="2"
     inkscape:pageopacity="0.0"
     inkscape:pagecheckerboard="0"
     showgrid="false"
     inkscape:zoom="36.312727"
     inkscape:cx="7.99995"
     inkscape:cy="8.9087223"
     inkscape:window-width="1364"
     inkscape:window-height="711"
     inkscape:window-x="0"
     inkscape:window-y="31"
     inkscape:window-maximized="0"
     inkscape:current-layer="g6" />
  <g
     transform="translate(-81.00014 -807)"
     style="fill:#bebebe"
     id="g6">
    <path
       d="m 96.006649,816.11222 h -0.7138 c -0.183448,0 -0.376886,0.083 -0.513224,0.19975 l -0.914377,0.81799 -0.914378,-0.81799 c -0.135621,-0.11676 -0.329774,-0.19975 -0.513221,-0.19975 h -0.7138 v 0.63865 c 0,0.19764 0.06423,0.35237 0.200578,0.47897 l 1.940821,1.69576 1.940823,-1.69576 c 0.136334,-0.1259 0.200578,-0.28133 0.200578,-0.47897 z"
       style="color:#bebebe;stroke-width:0.708555"
       id="path2" />
    <path
       d="m 96.006649,814.54088 h -0.713798 c -0.183446,0 -0.376889,-0.083 -0.513227,-0.19975 l -0.914377,-0.818 -0.914378,0.818 c -0.135623,0.11676 -0.329775,0.19975 -0.513222,0.19975 h -0.713801 v -0.63863 c 0,-0.19764 0.06424,-0.35238 0.200579,-0.47898 l 1.940822,-1.69578 1.940823,1.69578 c 0.136338,0.12588 0.200579,0.28134 0.200579,0.47898 z"
       style="color:#bebebe;fill:#bebebe;stroke-width:0.708555"
       id="path2-3" />
    <path
       d="m 82.937984,810.98927 v 1.60427 h 4.884349 c 0.348417,0 0.814055,0.49252 0.814055,0.80213 v 0.80213 h -4.070287 c -0.748119,0 -1.413207,0.30804 -1.83163,0.77728 -0.418427,0.46925 -0.61543,1.05159 -0.610544,1.62913 0.0049,0.57834 0.218982,1.16552 0.63578,1.62914 0.416797,0.46444 1.066414,0.77728 1.806394,0.77728 h 4.884345 0.81406 v -0.80214 -4.81282 c 0,-1.3107 -1.074558,-2.4064 -2.442173,-2.4064 z m 1.628117,4.81281 h 4.070287 v 1.60428 h -4.070287 c -0.323995,0 -0.461573,-0.0883 -0.585308,-0.22539 -0.123737,-0.13719 -0.227122,-0.35215 -0.22875,-0.57676 -0.0015,-0.22379 0.08548,-0.44438 0.203515,-0.57672 0.11804,-0.13238 0.267009,-0.22541 0.610543,-0.22541 z"
       style="color:#000000;stroke-width:0.808076"
       id="path4" />
  </g>
</svg>
