<?xml version="1.0" encoding="UTF-8" standalone="no"?>
<svg
   xmlns:dc="http://purl.org/dc/elements/1.1/"
   xmlns:cc="http://creativecommons.org/ns#"
   xmlns:rdf="http://www.w3.org/1999/02/22-rdf-syntax-ns#"
   xmlns:svg="http://www.w3.org/2000/svg"
   xmlns="http://www.w3.org/2000/svg"
   xmlns:sodipodi="http://sodipodi.sourceforge.net/DTD/sodipodi-0.dtd"
   xmlns:inkscape="http://www.inkscape.org/namespaces/inkscape"
   version="1.1"
   viewBox="0 0 48 48"
   id="svg27"
   sodipodi:docname="vim.svg"
   inkscape:version="1.0.1 (3bc2e813f5, 2020-09-07)">
  <metadata
     id="metadata31">
    <rdf:RDF>
      <cc:Work
         rdf:about="">
        <dc:format>image/svg+xml</dc:format>
        <dc:type
           rdf:resource="http://purl.org/dc/dcmitype/StillImage" />
        <dc:title />
      </cc:Work>
    </rdf:RDF>
  </metadata>
  <sodipodi:namedview
     pagecolor="#ffffff"
     bordercolor="#666666"
     borderopacity="1"
     objecttolerance="10"
     gridtolerance="10"
     guidetolerance="10"
     inkscape:pageopacity="0"
     inkscape:pageshadow="2"
     inkscape:window-width="1360"
     inkscape:window-height="716"
     id="namedview29"
     showgrid="false"
     inkscape:zoom="11.770833"
     inkscape:cx="24"
     inkscape:cy="27.659633"
     inkscape:window-x="0"
     inkscape:window-y="31"
     inkscape:window-maximized="1"
     inkscape:current-layer="svg27"
     inkscape:document-rotation="0" />
  <defs
     id="defs7">
    <linearGradient
       id="bg"
       x2="0"
       y1="1"
       y2="47"
       gradientUnits="userSpaceOnUse">
      <stop
         style="stop-color:#27a527"
         offset="0"
         id="stop2" />
      <stop
         style="stop-color:#239523"
         offset="1"
         id="stop4" />
    </linearGradient>
  </defs>
  <path
     style="fill:#bfbfbf;stroke-width:1.5003"
     d="M 3.7459994,7.4967402 2.9958513,8.2468885 V 9.7471848 L 3.7459994,10.497333 H 5.9964439 V 39.753112 L 6.7465922,40.50326 H 8.9970367 L 42.003556,9.7471848 V 8.2468885 L 41.253408,7.4967402 H 27.75074 l -0.750148,0.7501483 v 1.5002963 l 0.750148,0.7501482 h 2.250445 V 11.99763 L 13.497926,27.000593 V 10.497333 H 15.74837 L 16.498519,9.7471848 V 8.2468885 L 15.74837,7.4967402 Z m 23.0970626,18.0035568 -1.06371,0.750147 -0.5041,1.500297 0.562611,0.750148 h 1.62332 l 1.06371,-0.750148 0.5011,-1.500297 -0.559611,-0.750147 m -5.515089,4.500889 -0.451589,1.500295 h 1.350266 l -2.850563,7.501483 h 4.500889 l 0.55361,-1.500296 h -1.303759 l 2.850565,-7.501482 m 1.798855,0 -0.525105,1.500295 h 1.125223 l -2.850563,7.501483 h 3.827255 l 0.525104,-1.500296 h -0.826662 l 1.57681,-4.50089 h 3.188132 l -2.139423,6.001186 h 3.75074 l 0.600119,-1.500296 h -0.823664 l 1.573812,-4.50089 h 3.000592 l -2.100414,6.001186 h 3.932276 l 0.688636,-1.500296 h -1.048707 l 2.130421,-6.001187 -1.201739,-1.500295 h -1.798854 l -1.500296,1.500295 h -1.275252 l -1.276753,-1.500295 h -1.42378 l -1.425283,1.500295 h -1.500296 l -1.350267,-1.500295"
     id="path25" />
</svg>
