<svg width="72.63mm" height="212.24mm" version="1.1" viewBox="0 0 72.63 212.24" xmlns="http://www.w3.org/2000/svg"><g transform="translate(-19.391 -4.8104)"><rect x="19.391" y="4.8104" width="72.63" height="212.24" ry="13.497" fill="#f9f9f9" stroke-linecap="round" stroke-linejoin="round" stroke-width=".22931"/><path d="m63.158 208.93h1.8246" fill="none" stroke="#000" stroke-width=".67577"/><path d="m63.158 205.38h1.8246" fill="none" stroke="#000" stroke-width=".67577"/><path d="m59.829 200.57h8.4825v2.5271h-8.4825z" fill="#ffd8d8" stroke-width=".46928"/><path d="m63.158 201.83h1.8246" fill="none" stroke="#000" stroke-width=".67577"/><path d="m59.829 197.02h8.4825v2.5271h-8.4825z" fill="#ffd8d8" stroke-width=".46928"/><g fill="none" stroke="#000" stroke-width=".67577"><path d="m63.158 198.28h1.8246"/><path d="m63.158 165.69h1.8246"/><path d="m63.158 162.14h1.8246"/></g><path d="m59.829 157.33h8.4825v2.5271h-8.4825z" fill="#ffd8d8" stroke-width=".46928"/><path d="m63.158 158.6h1.8246" fill="none" stroke="#000" stroke-width=".67577"/><path d="m63.158 155.05h1.8246" fill="none" stroke="#000" stroke-width=".67577"/><path d="m59.829 142.19h8.4825v2.5271h-8.4825z" fill="#ffd8d8" stroke-width=".46928"/><path d="m63.158 143.45h1.8246" fill="none" stroke="#000" stroke-width=".67577"/><path d="m59.829 138.64h8.4825v2.5271h-8.4825z" fill="#c8d8fa" stroke-width=".46928"/><path d="m63.158 139.9h1.8246" fill="none" stroke="#000" stroke-width=".67577"/><path d="m59.829 135.09h8.4825v2.5271h-8.4825z" fill="#d7efc5" stroke-width=".46928"/><path d="m63.158 136.36h1.8246" fill="none" stroke="#000" stroke-width=".67577"/><path d="m59.829 131.55h8.4825v2.5271h-8.4825z" fill="#d7efc5" stroke-width=".46928"/><path d="m63.158 132.81h1.8246" fill="none" stroke="#000" stroke-width=".67577"/><path d="m59.829 128h8.4825v2.5271h-8.4825z" fill="#d7efc5" stroke-width=".46928"/><path d="m63.158 129.26h1.8246" fill="none" stroke="#000" stroke-width=".67577"/><path d="m59.829 124.45h8.4825v2.5271h-8.4825z" fill="#ffd8d8" stroke-width=".46928"/><path d="m63.158 125.71h1.8246" fill="none" stroke="#000" stroke-width=".67577"/><path d="m59.829 120.9h8.4825v2.5271h-8.4825z" fill="#d7efc5" stroke-width=".46928"/><path d="m63.158 122.17h1.8246" fill="none" stroke="#000" stroke-width=".67577"/><path d="m59.829 117.35h8.4825v2.5271h-8.4825z" fill="#d7efc5" stroke-width=".46928"/><path d="m63.158 118.62h1.8246" fill="none" stroke="#000" stroke-width=".67577"/><path d="m59.829 113.81h8.4825v2.5271h-8.4825z" fill="#d7efc5" stroke-width=".46928"/><path d="m63.158 115.07h1.8246" fill="none" stroke="#000" stroke-width=".67577"/><path d="m63.158 111.52h1.8246" fill="none" stroke="#000" stroke-width=".67577"/><path d="m59.829 106.71h8.4825v2.5271h-8.4825z" fill="#d7efc5" stroke-width=".46928"/><path d="m63.158 107.97h1.8246" fill="none" stroke="#000" stroke-width=".67577"/><path d="m63.158 104.43h1.8246" fill="none" stroke="#000" stroke-width=".67577"/><path d="m59.829 99.615h8.4825v2.5271h-8.4825z" fill="#d7efc5" stroke-width=".46928"/><path d="m63.158 100.88h1.8246" fill="none" stroke="#000" stroke-width=".67577"/><path d="m59.829 96.067h8.4825v2.5271h-8.4825z" fill="#ffd8d8" stroke-width=".46928"/><path d="m63.158 97.331h1.8246" fill="none" stroke="#000" stroke-width=".67577"/><path d="m59.829 89.595h8.4825v2.5271h-8.4825z" fill="#c8d8fa" stroke-width=".46928"/><g fill="none" stroke="#000" stroke-width=".67577"><path d="m63.158 90.859h1.8246"/><path d="m63.158 87.311h1.8246"/><path d="m63.158 83.764h1.8246"/><path d="m63.158 80.216h1.8246"/><path d="m63.158 76.668h1.8246"/><path d="m63.158 73.12h1.8246"/><path d="m63.158 69.573h1.8246"/><path d="m63.158 66.025h1.8246"/><path d="m63.158 62.477h1.8246"/><path d="m63.158 53.376h1.8246"/><path d="m63.158 49.828h1.8246"/><path d="m63.158 46.28h1.8246"/><path d="m63.158 42.732h1.8246"/><path d="m63.158 39.185h1.8246"/><path d="m63.158 35.637h1.8246"/><path d="m63.158 32.089h1.8246"/><path d="m63.158 28.541h1.8246"/><path d="m63.158 24.993h1.8246"/></g><path d="m59.829 20.182h8.4825v2.5271h-8.4825z" fill="#ffd8d8" stroke-width=".46928"/><path d="m63.158 21.446h1.8246" fill="none" stroke="#000" stroke-width=".67577"/><path d="m59.829 16.634h8.4825v2.5271h-8.4825z" fill="#ffd8d8" stroke-width=".46928"/><g fill="none"><path d="m63.158 17.898h1.8246" stroke="#000" stroke-width=".67577"/><g stroke="#5c5c5c" stroke-width=".23464"></g></g><text x="36.229359" y="212.69771" font-size="5.6314px" stroke-width=".46928"><tspan x="36.229359" y="212.69771" fill="#807b88" font-family="'Bitstream Vera Sans'" font-size="3.5196px" stroke-width=".12416">Y</tspan></text><path d="m42.151 211.43a1.2002 1.2002 0 0 1-2.4004 0 1.2002 1.2002 0 0 1 2.4004 0z" stroke="#000" stroke-width=".33788"/><g font-size="5.6314px" stroke-width=".46928"><text x="43.228096" y="212.69771"><tspan x="43.228096" y="212.69771" fill="#807b88" font-family="'Bitstream Vera Sans'" font-size="3.5196px" stroke-width=".12416">U</tspan></text><text x="46.8727" y="212.69771"><tspan x="46.8727" y="212.69771" fill="#807b88" font-family="'Bitstream Vera Sans'" font-size="3.5196px" stroke-width=".12416">A</tspan></text><text x="50.420467" y="212.69771"><tspan x="50.420467" y="212.69771" fill="#000000" font-family="'Bitstream Vera Sans'" font-size="3.5196px" stroke-width=".12416">A</tspan></text><text x="53.871437" y="212.69771"><tspan x="53.871437" y="212.69771" fill="#d90000" font-family="'Bitstream Vera Sans'" font-size="3.5196px" stroke-width=".12416">R</tspan></text><text x="57.419209" y="212.69771"><tspan x="57.419209" y="212.69771" fill="#d90000" font-family="'Bitstream Vera Sans'" font-size="3.5196px" stroke-width=".12416">U</tspan></text><text x="59.829311" y="210.18892"><tspan x="59.829311" y="210.18892" fill="#d90000" font-family="'Bitstream Vera Sans'" font-size="3.5196px" stroke-width=".12416">G</tspan></text><text x="60.024673" y="206.64116"><tspan x="60.024673" y="206.64116" fill="#d90000" font-family="'Bitstream Vera Sans'" font-size="3.5196px" stroke-width=".12416">A</tspan></text><text x="60.024673" y="203.09337"><tspan x="60.024673" y="203.09337" fill="#d90000" font-family="'Bitstream Vera Sans'" font-size="3.5196px" stroke-width=".12416">A</tspan></text><text x="59.829311" y="199.54558"><tspan x="59.829311" y="199.54558" fill="#d90000" font-family="'Bitstream Vera Sans'" font-size="3.5196px" stroke-width=".12416">G</tspan></text><text x="57.238064" y="201.74136"><tspan x="57.238064" y="201.74136" fill="#d90000" font-family="'Bitstream Vera Sans'" font-size="3.5196px" stroke-width=".12416">A</tspan></text><text x="53.942062" y="203.46552"><tspan x="53.942062" y="203.46552" fill="#d90000" font-family="'Bitstream Vera Sans'" font-size="3.5196px" stroke-width=".12416">G</tspan></text><text x="50.801853" y="204.67438"><tspan x="50.801853" y="204.67438" fill="#d90000" font-family="'Bitstream Vera Sans'" font-size="3.5196px" stroke-width=".12416">Y</tspan></text><text x="47.121082" y="205.33655"><tspan x="47.121082" y="205.33655" fill="#000000" font-family="'Bitstream Vera Sans'" font-size="3.5196px" stroke-width=".12416">G</tspan></text><text x="43.574722" y="205.43556"><tspan x="43.574722" y="205.43556" fill="#d90000" font-family="'Bitstream Vera Sans'" font-size="3.5196px" stroke-width=".12416">G</tspan></text><text x="40.253128" y="204.96863"><tspan x="40.253128" y="204.96863" fill="#000000" font-family="'Bitstream Vera Sans'" font-size="3.5196px" stroke-width=".12416">Y</tspan></text><text x="36.758568" y="203.94792"><tspan x="36.758568" y="203.94792" fill="#807b88" font-family="'Bitstream Vera Sans'" font-size="3.5196px" stroke-width=".12416">R</tspan></text></g><g stroke="#000" stroke-width=".33788"><path d="m36.037 201.14a1.2002 1.2002 0 0 1-2.4004 0 1.2002 1.2002 0 0 1 2.4004 0z" fill="#d90000"/><path d="m33.133 199.1a1.2002 1.2002 0 0 1-2.4004 0 1.2002 1.2002 0 0 1 2.4004 0z" fill="#d90000"/><path d="m30.589 196.63a1.2002 1.2002 0 0 1-2.4004 0 1.2002 1.2002 0 0 1 2.4004 0z"/><path d="m28.472 193.78a1.2002 1.2002 0 0 1-2.4004 0 1.2002 1.2002 0 0 1 2.4004 0z" fill="#807b88"/></g><g font-size="5.6314px" stroke-width=".46928"><text x="24.364254" y="191.89441"><tspan x="24.364254" y="191.89441" fill="#000000" font-family="'Bitstream Vera Sans'" font-size="3.5196px" stroke-width=".12416">U</tspan></text><text x="23.249136" y="188.52635"><tspan x="23.249136" y="188.52635" fill="#000000" font-family="'Bitstream Vera Sans'" font-size="3.5196px" stroke-width=".12416">R</tspan></text><text x="22.684364" y="185.02411"><tspan x="22.684364" y="185.02411" fill="#d90000" font-family="'Bitstream Vera Sans'" font-size="3.5196px" stroke-width=".12416">C</tspan></text><text x="22.684364" y="181.47633"><tspan x="22.684364" y="181.47633" fill="#000000" font-family="'Bitstream Vera Sans'" font-size="3.5196px" stroke-width=".12416">C</tspan></text><text x="23.249136" y="177.9736"><tspan x="23.249136" y="177.9736" fill="#d90000" font-family="'Bitstream Vera Sans'" font-size="3.5196px" stroke-width=".12416">C</tspan></text><text x="24.364254" y="174.60556"><tspan x="24.364254" y="174.60556" fill="#d90000" font-family="'Bitstream Vera Sans'" font-size="3.5196px" stroke-width=".12416">C</tspan></text><text x="26.09811" y="171.45808"><tspan x="26.09811" y="171.45808" fill="#807b88" font-family="'Bitstream Vera Sans'" font-size="3.5196px" stroke-width=".12416">A</tspan></text><text x="28.118519" y="168.61142"><tspan x="28.118519" y="168.61142" fill="#807b88" font-family="'Bitstream Vera Sans'" font-size="3.5196px" stroke-width=".12416">U</tspan></text><text x="30.661928" y="166.13783"><tspan x="30.661928" y="166.13783" fill="#d90000" font-family="'Bitstream Vera Sans'" font-size="3.5196px" stroke-width=".12416">U</tspan></text><text x="33.468102" y="164.10114"><tspan x="33.468102" y="164.10114" fill="#d90000" font-family="'Bitstream Vera Sans'" font-size="3.5196px" stroke-width=".12416">G</tspan></text><text x="36.660027" y="162.55251"><tspan x="36.660027" y="162.55251" fill="#d90000" font-family="'Bitstream Vera Sans'" font-size="3.5196px" stroke-width=".12416">G</tspan></text><text x="40.156322" y="161.53183"><tspan x="40.156322" y="161.53183" fill="#d90000" font-family="'Bitstream Vera Sans'" font-size="3.5196px" stroke-width=".12416">C</tspan></text><text x="43.770027" y="161.06488"><tspan x="43.770027" y="161.06488" fill="#d90000" font-family="'Bitstream Vera Sans'" font-size="3.5196px" stroke-width=".12416">A</tspan></text><text x="47.219635" y="161.16391"><tspan x="47.219635" y="161.16391" fill="#d90000" font-family="'Bitstream Vera Sans'" font-size="3.5196px" stroke-width=".12416">C</tspan></text><text x="50.705086" y="161.82605"><tspan x="50.705086" y="161.82605" fill="#d90000" font-family="'Bitstream Vera Sans'" font-size="3.5196px" stroke-width=".12416">C</tspan></text><text x="54.040615" y="163.03445"><tspan x="54.040615" y="163.03445" fill="#d90000" font-family="'Bitstream Vera Sans'" font-size="3.5196px" stroke-width=".12416">U</tspan></text><text x="57.141258" y="164.75859"><tspan x="57.141258" y="164.75859" fill="#d90000" font-family="'Bitstream Vera Sans'" font-size="3.5196px" stroke-width=".12416">C</tspan></text><text x="59.927864" y="166.95438"><tspan x="59.927864" y="166.95438" fill="#d90000" font-family="'Bitstream Vera Sans'" font-size="3.5196px" stroke-width=".12416">U</tspan></text><text x="59.927864" y="163.4066"><tspan x="59.927864" y="163.4066" fill="#d90000" font-family="'Bitstream Vera Sans'" font-size="3.5196px" stroke-width=".12416">U</tspan></text><text x="59.829311" y="159.85883"><tspan x="59.829311" y="159.85883" fill="#d90000" font-family="'Bitstream Vera Sans'" font-size="3.5196px" stroke-width=".12416">G</tspan></text><text x="60.024673" y="156.31105"><tspan x="60.024673" y="156.31105" fill="#807b88" font-family="'Bitstream Vera Sans'" font-size="3.5196px" stroke-width=".12416">A</tspan></text><text x="56.386932" y="156.09142"><tspan x="56.386932" y="156.09142" fill="#807b88" font-family="'Bitstream Vera Sans'" font-size="3.5196px" stroke-width=".12416">C</tspan></text><text x="53.596252" y="153.9008"><tspan x="53.596252" y="153.9008" fill="#d90000" font-family="'Bitstream Vera Sans'" font-size="3.5196px" stroke-width=".12416">C</tspan></text><text x="52.541813" y="150.51352"><tspan x="52.541813" y="150.51352" fill="#d90000" font-family="'Bitstream Vera Sans'" font-size="3.5196px" stroke-width=".12416">C</tspan></text><text x="53.693008" y="147.12578"><tspan x="53.693008" y="147.12578" fill="#d90000" font-family="'Bitstream Vera Sans'" font-size="3.5196px" stroke-width=".12416">A</tspan></text><text x="56.288376" y="144.93517"><tspan x="56.288376" y="144.93517" fill="#d90000" font-family="'Bitstream Vera Sans'" font-size="3.5196px" stroke-width=".12416">G</tspan></text><text x="59.829311" y="144.71555"><tspan x="59.829311" y="144.71555" fill="#d90000" font-family="'Bitstream Vera Sans'" font-size="3.5196px" stroke-width=".12416">G</tspan></text><text x="59.829311" y="141.16777"><tspan x="59.829311" y="141.16777" fill="#d90000" font-family="'Bitstream Vera Sans'" font-size="3.5196px" stroke-width=".12416">G</tspan></text><text x="59.927864" y="137.61998"><tspan x="59.927864" y="137.61998" fill="#807b88" font-family="'Bitstream Vera Sans'" font-size="3.5196px" stroke-width=".12416">U</tspan></text><text x="60.024673" y="134.0722"><tspan x="60.024673" y="134.0722" fill="#807b88" font-family="'Bitstream Vera Sans'" font-size="3.5196px" stroke-width=".12416">Y</tspan></text><text x="60.024673" y="130.52443"><tspan x="60.024673" y="130.52443" fill="#000000" font-family="'Bitstream Vera Sans'" font-size="3.5196px" stroke-width=".12416">Y</tspan></text></g><g stroke-width=".33788"><path d="m62.399 125.71a1.2002 1.2002 0 0 1-2.4004 0 1.2002 1.2002 0 0 1 2.4004 0z" fill="#fff" stroke="#666"/><path d="m62.399 122.17a1.2002 1.2002 0 0 1-2.4004 0 1.2002 1.2002 0 0 1 2.4004 0z" fill="#d90000" stroke="#000"/><path d="m62.399 118.62a1.2002 1.2002 0 0 1-2.4004 0 1.2002 1.2002 0 0 1 2.4004 0z" fill="#d90000" stroke="#000"/></g><text x="60.024673" y="116.33332" font-size="5.6314px" stroke-width=".46928"><tspan x="60.024673" y="116.33332" fill="#807b88" font-family="'Bitstream Vera Sans'" font-size="3.5196px" stroke-width=".12416">Y</tspan></text><path d="m62.399 111.52a1.2002 1.2002 0 0 1-2.4004 0 1.2002 1.2002 0 0 1 2.4004 0z" stroke="#000" stroke-width=".33788"/><path d="m62.399 107.97a1.2002 1.2002 0 0 1-2.4004 0 1.2002 1.2002 0 0 1 2.4004 0z" fill="#807b88" stroke="#000" stroke-width=".33788"/><g fill="#fff" stroke-width=".33788"><path d="m62.399 104.43a1.2002 1.2002 0 0 1-2.4004 0 1.2002 1.2002 0 0 1 2.4004 0z" stroke="#000"/><path d="m62.399 100.88a1.2002 1.2002 0 0 1-2.4004 0 1.2002 1.2002 0 0 1 2.4004 0z" stroke="#666"/><path d="m62.399 97.331a1.2002 1.2002 0 0 1-2.4004 0 1.2002 1.2002 0 0 1 2.4004 0z" stroke="#666"/><path d="m58.854 97.19a1.2002 1.2002 0 0 1-2.4004 0 1.2002 1.2002 0 0 1 2.4004 0z" stroke="#000"/></g><path d="m57.12 94.095a1.2002 1.2002 0 0 1-2.4004 0 1.2002 1.2002 0 0 1 2.4004 0z" fill="#807b88" stroke="#000" stroke-width=".33788"/><g fill="#fff" stroke-width=".33788"><path d="m58.854 90.999a1.2002 1.2002 0 0 1-2.4004 0 1.2002 1.2002 0 0 1 2.4004 0z" stroke="#000"/><path d="m62.399 90.859a1.2002 1.2002 0 0 1-2.4004 0 1.2002 1.2002 0 0 1 2.4004 0z" stroke="#666"/><g stroke="#000"><path d="m62.399 87.311a1.2002 1.2002 0 0 1-2.4004 0 1.2002 1.2002 0 0 1 2.4004 0z"/><path d="m62.399 83.764a1.2002 1.2002 0 0 1-2.4004 0 1.2002 1.2002 0 0 1 2.4004 0z"/><path d="m62.399 80.216a1.2002 1.2002 0 0 1-2.4004 0 1.2002 1.2002 0 0 1 2.4004 0z"/><path d="m62.399 76.668a1.2002 1.2002 0 0 1-2.4004 0 1.2002 1.2002 0 0 1 2.4004 0z"/></g><g stroke="#666"><path d="m62.399 73.12a1.2002 1.2002 0 0 1-2.4004 0 1.2002 1.2002 0 0 1 2.4004 0z"/><path d="m62.399 69.573a1.2002 1.2002 0 0 1-2.4004 0 1.2002 1.2002 0 0 1 2.4004 0z"/><path d="m62.399 66.025a1.2002 1.2002 0 0 1-2.4004 0 1.2002 1.2002 0 0 1 2.4004 0z"/><path d="m62.399 62.477a1.2002 1.2002 0 0 1-2.4004 0 1.2002 1.2002 0 0 1 2.4004 0z"/></g><g stroke="#000"><path d="m59.091 61.194a1.2002 1.2002 0 0 1-2.4004 0 1.2002 1.2002 0 0 1 2.4004 0z"/><path d="m57.709 57.926a1.2002 1.2002 0 0 1-2.4004 0 1.2002 1.2002 0 0 1 2.4004 0z"/><path d="m59.091 54.659a1.2002 1.2002 0 0 1-2.4004 0 1.2002 1.2002 0 0 1 2.4004 0z"/></g><path d="m62.399 53.376a1.2002 1.2002 0 0 1-2.4004 0 1.2002 1.2002 0 0 1 2.4004 0z" stroke="#666"/><path d="m62.399 49.828a1.2002 1.2002 0 0 1-2.4004 0 1.2002 1.2002 0 0 1 2.4004 0z" stroke="#666"/><path d="m62.399 46.28a1.2002 1.2002 0 0 1-2.4004 0 1.2002 1.2002 0 0 1 2.4004 0z" stroke="#000"/></g><path d="m62.399 42.732a1.2002 1.2002 0 0 1-2.4004 0 1.2002 1.2002 0 0 1 2.4004 0z" fill="#d90000" stroke="#000" stroke-width=".33788"/><path d="m62.399 39.185a1.2002 1.2002 0 0 1-2.4004 0 1.2002 1.2002 0 0 1 2.4004 0z" fill="#d90000" stroke="#000" stroke-width=".33788"/><text x="60.024673" y="36.900284" font-size="5.6314px" stroke-width=".46928"><tspan x="60.024673" y="36.900284" fill="#807b88" font-family="'Bitstream Vera Sans'" font-size="3.5196px" stroke-width=".12416">Y</tspan></text><path d="m62.399 32.089a1.2002 1.2002 0 0 1-2.4004 0 1.2002 1.2002 0 0 1 2.4004 0z" fill="#d90000" stroke="#000" stroke-width=".33788"/><g fill="#fff" stroke-width=".33788"><g stroke="#666"><path d="m62.399 28.541a1.2002 1.2002 0 0 1-2.4004 0 1.2002 1.2002 0 0 1 2.4004 0z"/><path d="m62.399 24.993a1.2002 1.2002 0 0 1-2.4004 0 1.2002 1.2002 0 0 1 2.4004 0z"/><path d="m62.399 21.446a1.2002 1.2002 0 0 1-2.4004 0 1.2002 1.2002 0 0 1 2.4004 0z"/><path d="m62.399 17.898a1.2002 1.2002 0 0 1-2.4004 0 1.2002 1.2002 0 0 1 2.4004 0z"/></g><path d="m62.227 14.354a1.2002 1.2002 0 0 1-2.4004 0 1.2002 1.2002 0 0 1 2.4004 0z" stroke="#000"/></g><g stroke-width=".33788"><path d="m65.271 12.531a1.2002 1.2002 0 0 1-2.4004 0 1.2002 1.2002 0 0 1 2.4004 0z" fill="#d90000" stroke="#000"/><path d="m68.314 14.354a1.2002 1.2002 0 0 1-2.4004 0 1.2002 1.2002 0 0 1 2.4004 0z" stroke="#000"/><path d="m68.143 17.898a1.2003 1.2003 0 0 1-2.4006 0 1.2003 1.2003 0 0 1 2.4006 0z" fill="#fff" stroke="#666"/><path d="m68.143 21.446a1.2003 1.2003 0 0 1-2.4006 0 1.2003 1.2003 0 0 1 2.4006 0z" fill="#fff" stroke="#666"/></g><text x="65.671875" y="26.256954" font-size="5.6314px" stroke-width=".46928"><tspan x="65.671875" y="26.256954" fill="#807b88" font-family="'Bitstream Vera Sans'" font-size="3.5196px" stroke-width=".12416">R</tspan></text><g stroke="#000" stroke-width=".33788"><path d="m68.143 28.541a1.2003 1.2003 0 0 1-2.4006 0 1.2003 1.2003 0 0 1 2.4006 0z" fill="#d90000"/><path d="m68.143 32.089a1.2003 1.2003 0 0 1-2.4006 0 1.2003 1.2003 0 0 1 2.4006 0z" fill="#d90000"/><path d="m68.143 35.637a1.2003 1.2003 0 0 1-2.4006 0 1.2003 1.2003 0 0 1 2.4006 0z"/></g><g fill="#fff" stroke-width=".33788"><path d="m68.143 39.185a1.2003 1.2003 0 0 1-2.4006 0 1.2003 1.2003 0 0 1 2.4006 0z" stroke="#000"/><g stroke="#666"><path d="m68.143 42.732a1.2003 1.2003 0 0 1-2.4006 0 1.2003 1.2003 0 0 1 2.4006 0z"/><path d="m68.143 46.28a1.2003 1.2003 0 0 1-2.4006 0 1.2003 1.2003 0 0 1 2.4006 0z"/><path d="m68.143 49.828a1.2003 1.2003 0 0 1-2.4006 0 1.2003 1.2003 0 0 1 2.4006 0z"/><path d="m68.143 53.376a1.2003 1.2003 0 0 1-2.4006 0 1.2003 1.2003 0 0 1 2.4006 0z"/></g><path d="m70.351 56.153a1.2002 1.2002 0 0 1-2.4004 0 1.2002 1.2002 0 0 1 2.4004 0z" stroke="#000"/><path d="m70.351 59.7a1.2002 1.2002 0 0 1-2.4004 0 1.2002 1.2002 0 0 1 2.4004 0z" stroke="#000"/><path d="m68.143 62.477a1.2003 1.2003 0 0 1-2.4006 0 1.2003 1.2003 0 0 1 2.4006 0z" stroke="#666"/><path d="m68.143 66.025a1.2003 1.2003 0 0 1-2.4006 0 1.2003 1.2003 0 0 1 2.4006 0z" stroke="#666"/><g stroke="#000"><path d="m68.143 69.573a1.2003 1.2003 0 0 1-2.4006 0 1.2003 1.2003 0 0 1 2.4006 0z"/><path d="m68.143 73.12a1.2003 1.2003 0 0 1-2.4006 0 1.2003 1.2003 0 0 1 2.4006 0z"/><path d="m68.143 76.668a1.2003 1.2003 0 0 1-2.4006 0 1.2003 1.2003 0 0 1 2.4006 0z"/><path d="m68.143 80.216a1.2003 1.2003 0 0 1-2.4006 0 1.2003 1.2003 0 0 1 2.4006 0z"/></g><g stroke="#666"><path d="m68.143 83.764a1.2003 1.2003 0 0 1-2.4006 0 1.2003 1.2003 0 0 1 2.4006 0z"/><path d="m68.143 87.311a1.2003 1.2003 0 0 1-2.4006 0 1.2003 1.2003 0 0 1 2.4006 0z"/><path d="m68.143 90.859a1.2003 1.2003 0 0 1-2.4006 0 1.2003 1.2003 0 0 1 2.4006 0z"/></g></g><path d="m69.597 94.095a1.2002 1.2002 0 0 1-2.4004 0 1.2002 1.2002 0 0 1 2.4004 0z" fill="#807b88" stroke="#000" stroke-width=".33788"/><g fill="#fff" stroke-width=".33788"><path d="m68.143 97.331a1.2003 1.2003 0 0 1-2.4006 0 1.2003 1.2003 0 0 1 2.4006 0z" stroke="#666"/><path d="m68.143 100.88a1.2003 1.2003 0 0 1-2.4006 0 1.2003 1.2003 0 0 1 2.4006 0z" stroke="#666"/><path d="m68.143 104.43a1.2003 1.2003 0 0 1-2.4006 0 1.2003 1.2003 0 0 1 2.4006 0z" stroke="#000"/></g><path d="m68.143 107.97a1.2003 1.2003 0 0 1-2.4006 0 1.2003 1.2003 0 0 1 2.4006 0z" fill="#807b88" stroke="#000" stroke-width=".33788"/><path d="m68.143 111.52a1.2003 1.2003 0 0 1-2.4006 0 1.2003 1.2003 0 0 1 2.4006 0z" stroke="#000" stroke-width=".33788"/><g fill="#d90000" stroke="#000" stroke-width=".33788"><path d="m68.143 115.07a1.2003 1.2003 0 0 1-2.4006 0 1.2003 1.2003 0 0 1 2.4006 0z"/><path d="m68.143 118.62a1.2003 1.2003 0 0 1-2.4006 0 1.2003 1.2003 0 0 1 2.4006 0z"/><path d="m68.143 122.17a1.2003 1.2003 0 0 1-2.4006 0 1.2003 1.2003 0 0 1 2.4006 0z"/></g><path d="m68.143 125.71a1.2003 1.2003 0 0 1-2.4006 0 1.2003 1.2003 0 0 1 2.4006 0z" fill="#fff" stroke="#666" stroke-width=".33788"/><g font-size="5.6314px" stroke-width=".46928"><text x="65.671875" y="130.52443"><tspan x="65.671875" y="130.52443" fill="#000000" font-family="'Bitstream Vera Sans'" font-size="3.5196px" stroke-width=".12416">R</tspan></text><text x="65.573326" y="134.0722"><tspan x="65.573326" y="134.0722" fill="#807b88" font-family="'Bitstream Vera Sans'" font-size="3.5196px" stroke-width=".12416">G</tspan></text><text x="65.573326" y="137.61998"><tspan x="65.573326" y="137.61998" fill="#807b88" font-family="'Bitstream Vera Sans'" font-size="3.5196px" stroke-width=".12416">G</tspan></text><text x="65.671875" y="141.16777"><tspan x="65.671875" y="141.16777" fill="#807b88" font-family="'Bitstream Vera Sans'" font-size="3.5196px" stroke-width=".12416">C</tspan></text><text x="65.671875" y="144.71555"><tspan x="65.671875" y="144.71555" fill="#d90000" font-family="'Bitstream Vera Sans'" font-size="3.5196px" stroke-width=".12416">C</tspan></text><text x="68.297226" y="147.10138"><tspan x="68.297226" y="147.10138" fill="#d90000" font-family="'Bitstream Vera Sans'" font-size="3.5196px" stroke-width=".12416">R</tspan></text><text x="69.366722" y="150.51352"><tspan x="69.366722" y="150.51352" fill="#807b88" font-family="'Bitstream Vera Sans'" font-size="3.5196px" stroke-width=".12416">Y</tspan></text><text x="68.297226" y="153.92522"><tspan x="68.297226" y="153.92522" fill="#d90000" font-family="'Bitstream Vera Sans'" font-size="3.5196px" stroke-width=".12416">U</tspan></text><text x="65.573326" y="156.31105"><tspan x="65.573326" y="156.31105" fill="#d90000" font-family="'Bitstream Vera Sans'" font-size="3.5196px" stroke-width=".12416">G</tspan></text><text x="65.671875" y="159.85883"><tspan x="65.671875" y="159.85883" fill="#d90000" font-family="'Bitstream Vera Sans'" font-size="3.5196px" stroke-width=".12416">C</tspan></text><text x="65.671875" y="163.4066"><tspan x="65.671875" y="163.4066" fill="#d90000" font-family="'Bitstream Vera Sans'" font-size="3.5196px" stroke-width=".12416">U</tspan></text><text x="65.671875" y="166.95438"><tspan x="65.671875" y="166.95438" fill="#d90000" font-family="'Bitstream Vera Sans'" font-size="3.5196px" stroke-width=".12416">C</tspan></text><text x="69.079536" y="167.94128"><tspan x="69.079536" y="167.94128" fill="#000000" font-family="'Bitstream Vera Sans'" font-size="3.5196px" stroke-width=".12416">U</tspan></text><text x="72.19883" y="169.63211"><tspan x="72.19883" y="169.63211" fill="#807b88" font-family="'Bitstream Vera Sans'" font-size="3.5196px" stroke-width=".12416">C</tspan></text><text x="74.982643" y="171.9485"><tspan x="74.982643" y="171.9485" fill="#d90000" font-family="'Bitstream Vera Sans'" font-size="3.5196px" stroke-width=".12416">A</tspan></text></g><path d="m79.488 173.52a1.2002 1.2002 0 0 1-2.4004 0 1.2002 1.2002 0 0 1 2.4004 0z" fill="#d90000" stroke="#000" stroke-width=".33788"/><g font-size="5.6314px" stroke-width=".46928"><text x="78.495209" y="178.01021"><tspan x="78.495209" y="178.01021" fill="#000000" font-family="'Bitstream Vera Sans'" font-size="3.5196px" stroke-width=".12416">C</tspan></text><text x="79.152672" y="181.47633"><tspan x="79.152672" y="181.47633" fill="#d90000" font-family="'Bitstream Vera Sans'" font-size="3.5196px" stroke-width=".12416">G</tspan></text><text x="79.152672" y="185.02411"><tspan x="79.152672" y="185.02411" fill="#d90000" font-family="'Bitstream Vera Sans'" font-size="3.5196px" stroke-width=".12416">G</tspan></text><text x="78.591881" y="188.49023"><tspan x="78.591881" y="188.49023" fill="#d90000" font-family="'Bitstream Vera Sans'" font-size="3.5196px" stroke-width=".12416">A</tspan></text><text x="77.016975" y="191.71561"><tspan x="77.016975" y="191.71561" fill="#d90000" font-family="'Bitstream Vera Sans'" font-size="3.5196px" stroke-width=".12416">C</tspan></text></g><path d="m77.357 193.29a1.2002 1.2002 0 0 1-2.4004 0 1.2002 1.2002 0 0 1 2.4004 0z" fill="#807b88" stroke="#000" stroke-width=".33788"/><g font-size="5.6314px" stroke-width=".46928"><text x="72.295517" y="196.86832"><tspan x="72.295517" y="196.86832" fill="#807b88" font-family="'Bitstream Vera Sans'" font-size="3.5196px" stroke-width=".12416">A</tspan></text><text x="69.079536" y="198.55914"><tspan x="69.079536" y="198.55914" fill="#d90000" font-family="'Bitstream Vera Sans'" font-size="3.5196px" stroke-width=".12416">U</tspan></text><text x="65.671875" y="199.54558"><tspan x="65.671875" y="199.54558" fill="#d90000" font-family="'Bitstream Vera Sans'" font-size="3.5196px" stroke-width=".12416">C</tspan></text><text x="65.671875" y="203.09337"><tspan x="65.671875" y="203.09337" fill="#d90000" font-family="'Bitstream Vera Sans'" font-size="3.5196px" stroke-width=".12416">U</tspan></text><text x="65.573326" y="206.64116"><tspan x="65.573326" y="206.64116" fill="#d90000" font-family="'Bitstream Vera Sans'" font-size="3.5196px" stroke-width=".12416">G</tspan></text><text x="65.768684" y="210.18892"><tspan x="65.768684" y="210.18892" fill="#d90000" font-family="'Bitstream Vera Sans'" font-size="3.5196px" stroke-width=".12416">A</tspan></text><text x="68.180389" y="212.69771"><tspan x="68.180389" y="212.69771" fill="#000000" font-family="'Bitstream Vera Sans'" font-size="3.5196px" stroke-width=".12416">U</tspan></text><text x="71.82531" y="212.69771"><tspan x="71.82531" y="212.69771" fill="#807b88" font-family="'Bitstream Vera Sans'" font-size="3.5196px" stroke-width=".12416">A</tspan></text></g><path d="m77.747 211.43a1.2002 1.2002 0 0 1-2.4004 0 1.2002 1.2002 0 0 1 2.4004 0z" fill="#807b88" stroke="#000" stroke-width=".33788"/><path d="m33.855 211.43h1.7739" fill="none" stroke="#000" stroke-width=".33788"/><text x="30.522278" y="212.69771" font-size="5.6314px" stroke-width=".46928"><tspan x="30.522278" y="212.69771" fill="#000000" font-family="'Bitstream Vera Sans'" font-size="3.5196px" stroke-width=".12416">5'</tspan></text></g></svg>
