<?xml version="1.0" encoding="UTF-8"?>
<svg width="800.34" height="1116.3" version="1.1" viewBox="0 0 211.75782 295.36172" xmlns="http://www.w3.org/2000/svg"><defs><marker id="DartArrow" overflow="visible" markerHeight="1" markerWidth="1" orient="auto-start-reverse" preserveAspectRatio="xMidYMid" viewBox="0 0 1 1"><path transform="scale(-.5)" d="m0 0 5-5-17.5 5 17.5 5z" fill="context-stroke" fill-rule="evenodd"/></marker><marker id="Arrow2Lend" overflow="visible" orient="auto"><path transform="matrix(-1.1,0,0,-1.1,-1.1,0)" d="m8.7186 4.0337-10.926-4.0177 10.926-4.0177c-1.7455 2.3721-1.7354 5.6175-6e-7 8.0354z" fill-rule="evenodd" stroke="#000" stroke-linejoin="round" stroke-width=".625"/></marker><marker id="marker47147" overflow="visible" markerHeight="10.15648796" markerWidth="17.77385393" orient="auto" preserveAspectRatio="xMidYMid" viewBox="0 0 17.77385393 10.15648796"><path transform="matrix(-.8 0 0 -.8 -10 0)" d="m0 0 5-5-17.5 5 17.5 5z" fill-rule="evenodd" stroke="#000" stroke-width="1pt"/></marker></defs><g transform="translate(1.1817 -1.4032)"><g transform="translate(-1.8761 .76888)" stroke-linejoin="round"><g stroke-linejoin="round"><rect x=".76192" y=".70185" width="211.62" height="295.23" rx="4.7456" ry="1.5797" fill="#f9f9f9" stroke="#e6e6e6" stroke-linecap="round" stroke-linejoin="round" stroke-width=".13516"/><path d="m12.741 79.611c-10.253 47.752 84.73 40.155 60.605 25.351-10.338-6.3437-3.1175-14.227 8.1656-20.347 0.08773-0.04758 0.1757-0.09505 0.26391-0.14242 15.043-8.0771 37.042-13.009 34.544-7.0956-4.3983 10.407-4.3891 26.131 32.843 11.78 37.232-14.351 45.48-49.5 45.48-49.5" fill="none" stroke="#e6e6e6" stroke-linejoin="miter" stroke-width="16"/><path d="m70.378 90.756 20.636 11.151" fill="none" marker-end="url(#Arrow2Lend)" stroke="#000" stroke-linejoin="miter" stroke-width=".265"/><g transform="matrix(.24563 -.098332 .098332 .24563 -214.07 187.89)" stroke-linejoin="round"><g transform="translate(16.422 97.75)" stroke-linejoin="miter" stroke-width="2.3067"><g transform="matrix(1.218 0 0 1.2398 33.609 -917.77)"><path transform="translate(141.83 -95.385)" d="m511.82 1113.2c-10.051 10.038-20.104 21.192-25.088 29.241" fill="none" stroke="#a00"/><path d="m656.56 1019.7c-9.3407 9.5869-20.127 20.915-25.31 29.635" fill-opacity="0" stroke="#808080"/></g><g transform="matrix(-.81282 .90706 .92336 .82742 304.33 -1035.2)" fill="none"><path transform="translate(141.83 -95.385)" d="m511.82 1113.2c-10.051 10.038-20.104 21.192-25.088 29.241" stroke="#a00"/><path d="m656.56 1019.7c-9.3407 9.5869-20.127 20.915-25.31 29.635" stroke="#999"/></g><g transform="matrix(-1.218 0 0 1.2398 1642.5 -889.62)"><path transform="translate(141.83 -95.385)" d="m511.82 1113.2c-10.051 10.038-20.104 21.192-25.088 29.241" fill="none" stroke="#a00"/><path d="m656.56 1019.7c-9.3407 9.5869-20.127 20.915-25.31 29.635" fill-opacity="0" stroke="#808080"/></g></g></g><g transform="matrix(.24563 -.098332 .098332 .24563 -232.99 197.04)"><g transform="rotate(.41643 -29590 45002)" fill="#e6e6e6" stroke="#b3b3b3" stroke-linejoin="round"><g transform="matrix(1.6557 0 0 1.6557 -332.35 -1671)" fill="#e6e6e6" stroke="#b3b3b3"><path transform="rotate(1.5875 639.96 1246.7)" d="m721.3 1252.1c2.7695-1.6621 5.0502-4.2687 6.8092-4.2032 1.759 0.065 2.9969 2.8019 0.97709 5.3763-2.0198 2.5745-7.2962 4.9847-9.0894 7.4291-1.7932 2.4445-0.0992 4.9203 3.3878 5.1483 3.4871 0.2279 8.7641-1.7917 13.653-5.2468 4.8888-3.4551 9.384-8.3412 12.381-15.053 2.9973-6.7121 4.4961-15.249 3.1926-23.818-1.3035-8.569-5.4079-17.169-13.164-22.709-7.7565-5.5405-19.156-8.0158-26.651-7.9836-7.495 0.032-11.08 2.574-14.664 5.1155 5.7998 5.5391 11.599 11.078 15.509 16.65s5.9303 11.176 7.9505 16.781c-2.9977 3.6493-5.9484 7.2415-7.5699 11.576s-1.814 9.1465-0.28205 11.232c1.532 2.0857 4.7903 1.3689 7.5598-0.2933z" stroke-linejoin="miter" stroke-width="1px"/><g transform="matrix(-.73003 -.090486 -.092111 .74314 1275.7 507.79)" stroke-linejoin="round" stroke-width="1.3474"><path transform="translate(141.83 -95.385)" d="m512.73 1113.9c-10.403 8.3214-18.875 17.591-24.626 29.824" fill="#e6e6e6" stroke="#666" stroke-linejoin="miter" stroke-width="2.3067"/></g></g></g><text transform="rotate(19.733)" x="1312.3917" y="138.85237" fill="#000000" font-family="sans-serif" font-size="22.076px" letter-spacing="0px" stroke-linejoin="miter" stroke-width="1.6557px" word-spacing="0px" style="inline-size:56.6611;line-height:1.1;white-space:pre" xml:space="preserve"><tspan x="1312.3917" y="138.85237">Ago
</tspan></text><path transform="matrix(-1.6557 0 0 1.6557 1977.5 -1317.6)" d="m512.73 1113.9c-10.051 10.038-20.104 20.077-25.088 29.241s-4.9011 17.452 2.5098 18.229c7.4108 0.7775 22.146-5.9561 49.049-18.542 26.903-12.586 65.963-31.021 73.238-27.801 7.2752 3.2199-17.241 28.095-23.559 56.197-6.318 28.102 5.5634 59.426 16.897 63.522 11.334 4.0959 22.112-19.037 34.137-32.912 12.026-13.875 25.29-18.485 38.565-23.1" fill="none" stroke="#a00" stroke-linejoin="miter" stroke-width="1.712"/><g transform="matrix(1.6519 .11242 -.11242 1.6519 -91.898 -1395)" stroke-linejoin="round"><path d="m678.83 1195.9c-2.1275 7.0427-18.618 0.9225-25.066-1.158-9.2989-2.7649-12.883-6.7962-15.613-0.298 0.31789 6.0483 13.693 13.32 18.696 15.191 7.3547 2.6638 14.438 4.4322 23.273 2.7576 10.16-2.3999 15.445-15.522 10.119-30.625-8.152-24.716-33.705-28.782-45.336-22.214-6.9876 3.3371-6.0974 14.29-3.5296 23.782 2.0846-2.4488 10.498-6.1997 18.783-5.0728 5.926 0.8061 13.254 2.8181 16.296 6.4057 2.0989 2.827 4.5054 4.1887 2.3779 11.231z" fill="#e6e6e6" fill-rule="evenodd" stroke="#808080" stroke-linecap="round" stroke-linejoin="round" stroke-width=".57068"/></g><text transform="rotate(21.949)" x="1016.9404" y="246.8118" fill="#4d4d4d" font-family="sans-serif" font-size="22.076px" letter-spacing="0px" stroke-linejoin="miter" stroke-width="1.6557px" word-spacing="0px" style="inline-size:61.2036;line-height:1.1;white-space:pre" xml:space="preserve"><tspan x="1016.9404" y="246.8118">RDP</tspan></text><path transform="matrix(-1.6557 0 0 1.6557 1977.5 -1317.6)" d="m606.92 1142c-7.6734 11.968-15.346 23.935-15.602 42.67s6.9017 44.233 15.874 46.125 19.748-19.821 31.696-32.91c11.948-13.089 25.054-17.543 38.172-22" fill="none" stroke="#808080" stroke-linejoin="miter" stroke-width="1.712"/><g transform="matrix(-.83843 -1.4277 -1.4277 .83843 3105.5 583.73)" stroke-linejoin="round"><g transform="translate(-18.095 -64.607)" stroke-linejoin="round"><path d="m646.74 1194.2c-7.9047-0.6373-18.372-2.7262-27.462-5.2839 14.287 10.606 18.407 13.194 22.396 15.791 26.488 17.31 33.271-2.8308 34.209-1.8718 0 0 8.6747 14.618 17.069 17.469 58.506 19.867 68.149-43.163 3.1499-44-9.2701-0.1192-18.329 12.881-19.164 11.059-10.404-23.785-31.696-17.227-35.001-16.605-6.8146 2.0394-18.14 6.9909-23.29 12.253 1.6485-2.0228 20.569-1.7648 30.284 1.0551 8.2106 2.3834 13.753 6.1687 14.035 6.9112 0.01 0.8706-8.3196 3.8588-16.224 3.2215z" fill="#e6e6e6" fill-rule="evenodd" stroke="#666" stroke-linecap="round" stroke-linejoin="round" stroke-width=".57068"/></g></g><text transform="rotate(22.295)" x="1022.4968" y="170.53761" fill="#4d4d4d" font-family="sans-serif" font-size="22.076px" letter-spacing="0px" stroke-linejoin="miter" stroke-width="1.6557px" word-spacing="0px" style="inline-size:66.8527;line-height:1.1;white-space:pre" xml:space="preserve"><tspan x="1022.4968" y="170.53761">DCR</tspan></text><text x="970.7063" y="556.57635" fill="#aa0000" font-family="Arial" font-size="32px" letter-spacing="0px" stroke-linejoin="miter" stroke-width="1px" word-spacing="0px" style="line-height:1.1" xml:space="preserve"><tspan x="970.7063" y="556.57635" fill="#aa0000" font-size="32px" stroke-width="1px">*</tspan></text><path transform="matrix(1.6287 .29769 -.29769 1.6287 382.08 -1629.6)" d="m724.69 1258c-2.5086 1.8901-7.1997 4.7569-7.298 8.0162-0.0983 3.2593 4.3971 6.9077 0.38938 17.758s-16.517 28.898-32.225 29.257-34.612-16.982-44.126-27.314c-9.5138-10.333-9.6522-13.673-9.7579-18.738-0.1058-5.066-0.17908-11.863-3.7379-13.443-3.5588-1.5805-10.604 2.0516-13.871 2.5238-3.2673 0.4722-2.7546-2.215 4.3085-5.2287 7.0631-3.0137 20.673-6.3536 28.355-9.1723 7.6819-2.8188 9.4335-5.1162 11.185-7.4135 1.7514-2.2972 3.5025-4.5939 5.2533-6.8903 1.7508-2.2964 3.5011-4.5924 9.4964-4.9257 5.9953-0.3332 16.219 1.2947 22.963 4.7809s10.003 8.8298 12.186 14.499 3.2907 11.663 5.1815 14.434c1.8908 2.7704 4.5622 2.3143 7.0381 1.1738s4.7575-2.9657 6.0275-3.5847c1.27-0.6191 1.5308-0.032 1.4984 0.7171-0.0324 0.7494-0.35796 1.661-2.8665 3.5511z" fill="#e6e6e6" stroke="#808080" stroke-linejoin="miter" stroke-width=".57068"/><text transform="matrix(3.5088 1.4047 -1.4047 3.5088 974.58 -159.69)" x="129.30885" y="206.89861" fill="#aa0000" font-family="sans-serif" font-size="12.7px" stroke-linejoin="round" stroke-width=".26458" word-spacing="0px" style="inline-size:68.0177;line-height:1.25;white-space:pre" xml:space="preserve"><tspan x="129.30885" y="206.89861">Silencing of</tspan></text><text transform="rotate(19.592)" x="1235.024" y="235.80011" fill="#000000" font-family="sans-serif" font-size="22.076px" letter-spacing="0px" stroke-linejoin="miter" stroke-width="1.6557px" word-spacing="0px" style="inline-size:62.0939;line-height:1.1;white-space:pre" xml:space="preserve"><tspan x="1235.024" y="235.80011">GW</tspan></text><text transform="matrix(3.5088 1.4047 -1.4047 3.5088 833.84 -159.26)" x="129.30885" y="206.89861" fill="#aa0000" font-family="sans-serif" font-size="12.7px" stroke-linejoin="round" stroke-width=".26458" word-spacing="0px" style="inline-size:112.12;line-height:1.25;white-space:pre" xml:space="preserve"><tspan x="129.30885" y="206.89861">troublesome RNA</tspan></text></g><g transform="matrix(.10975 -.24075 .24075 .10975 -71.945 379.7)" fill="#e6e6e6"><g transform="matrix(1.6557 0 0 1.6557 -373.78 -1858.7)" stroke-linejoin="round"><path transform="rotate(1.5875 639.96 1246.7)" d="m721.3 1252.1c2.7695-1.6621 5.0502-4.2687 6.8092-4.2032 1.759 0.065 2.9969 2.8019 0.97709 5.3763-2.0198 2.5745-7.2962 4.9847-9.0894 7.4291-1.7932 2.4445-0.0992 4.9203 3.3878 5.1483 3.4871 0.2279 8.7641-1.7917 13.653-5.2468 4.8888-3.4551 9.384-8.3412 12.381-15.053 2.9973-6.7121 4.4961-15.249 3.1926-23.818-1.3035-8.569-5.4079-17.169-13.164-22.709-7.7565-5.5405-19.156-8.0158-26.651-7.9836-7.495 0.032-11.08 2.574-14.664 5.1155 5.7998 5.5391 11.599 11.078 15.509 16.65s5.9303 11.176 7.9505 16.781c-2.9977 3.6493-5.9484 7.2415-7.5699 11.576s-1.814 9.1465-0.28205 11.232c1.532 2.0857 4.7903 1.3689 7.5598-0.2933z" fill="#e6e6e6" stroke="#999" stroke-linejoin="miter" stroke-width=".57068"/></g><g transform="matrix(-1.2087 -.14982 -.15251 1.2304 1737.7 -1020)" stroke-linejoin="miter" stroke-width="2.3067"><path transform="translate(141.83 -95.385)" d="m512.73 1113.9c-10.403 8.3214-19.338 17.008-25.088 29.241" fill="#e6e6e6" stroke="#808080"/><path d="m657.83 1020.6c-10.74 8.6724-20.968 18.58-25.31 29.635" fill="none" stroke="#a00"/></g></g><text transform="rotate(-.79908)" x="51.065979" y="197.65587" fill="#000000" font-family="sans-serif" font-size="5.841px" letter-spacing="0px" stroke-linejoin="miter" stroke-width=".43808px" word-spacing="0px" style="line-height:1.1" xml:space="preserve"><tspan x="51.065979" y="197.65587">Ago</tspan><tspan x="51.065979" y="204.08096"/></text><text x="171.65044" y="244.26826" fill="#000000" font-family="Arial" font-size="3.5278px" letter-spacing="0px" word-spacing="0px" style="line-height:1.1" xml:space="preserve"/><g transform="matrix(.26458 0 0 .26458 -185.66 32.585)" stroke-linejoin="round"><g transform="matrix(1 0 0 -1 179.16 1112.8)"><g transform="matrix(1.6557 0 0 1.6557 -601.17 -1102.4)" stroke-linejoin="round"><g transform="translate(404.92 18.248)"><ellipse cx="309.92" cy="1281.2" rx="11.474" ry="11.889" fill="#ccc" fill-rule="evenodd"/><path transform="translate(-100.29 22.091)" d="m384.74 1266.2c2.3462 1.8248 4.6922 3.6495 6.6476 4.3335 1.9555 0.684 3.5196 0.2278 4.8547-1.4332 1.3351-1.6611 2.4438-4.5306 3.3884-7.8533s1.727-7.104 2.5091-9.5475 1.5644-3.5517 2.1177-3.8773 0.87943 0.131 1.2054 0.5874" fill="none" stroke="#000" stroke-linejoin="miter" stroke-width="2"/><path transform="translate(-100.29 22.091)" d="m408.2 1270.9c0.39139 0.1957 0.78238 0.3912 1.5318-1.5972s1.8572-6.1588 2.4762-9.1889c0.61895-3.0302 0.74929-4.9201 0.97735-6.6465 0.22806-1.7265 0.5541-3.2915 0.89662-4.2363 0.34251-0.9448 0.70096-1.2706 1.0583-1.5955" fill="none" stroke="#000" stroke-linejoin="miter" stroke-width="2"/></g><g transform="translate(438.64 17.695)"><ellipse cx="309.92" cy="1281.2" rx="11.474" ry="11.889" fill="#ccc" fill-rule="evenodd"/><path transform="translate(-100.29 22.091)" d="m384.74 1266.2c2.3462 1.8248 4.6922 3.6495 6.6476 4.3335 1.9555 0.684 3.5196 0.2278 4.8547-1.4332 1.3351-1.6611 2.4438-4.5306 3.3884-7.8533s1.727-7.104 2.5091-9.5475 1.5644-3.5517 2.1177-3.8773 0.87943 0.131 1.2054 0.5874" fill="none" stroke="#000" stroke-linejoin="miter" stroke-width="2"/><path transform="translate(-100.29 22.091)" d="m408.2 1270.9c0.39139 0.1957 0.78238 0.3912 1.5318-1.5972s1.8572-6.1588 2.4762-9.1889c0.61895-3.0302 0.74929-4.9201 0.97735-6.6465 0.22806-1.7265 0.5541-3.2915 0.89662-4.2363 0.34251-0.9448 0.70096-1.2706 1.0583-1.5955" fill="none" stroke="#000" stroke-linejoin="miter" stroke-width="2"/></g><g transform="translate(472.64 17.695)"><ellipse cx="309.92" cy="1281.2" rx="11.474" ry="11.889" fill="#ccc" fill-rule="evenodd"/><path transform="translate(-100.29 22.091)" d="m384.74 1266.2c2.3462 1.8248 4.6922 3.6495 6.6476 4.3335 1.9555 0.684 3.5196 0.2278 4.8547-1.4332 1.3351-1.6611 2.4438-4.5306 3.3884-7.8533s1.727-7.104 2.5091-9.5475 1.5644-3.5517 2.1177-3.8773 0.87943 0.131 1.2054 0.5874" fill="none" stroke="#000" stroke-linejoin="miter" stroke-width="2"/><path transform="translate(-100.29 22.091)" d="m408.2 1270.9c0.39139 0.1957 0.78238 0.3912 1.5318-1.5972s1.8572-6.1588 2.4762-9.1889c0.61895-3.0302 0.74929-4.9201 0.97735-6.6465 0.22806-1.7265 0.5541-3.2915 0.89662-4.2363 0.34251-0.9448 0.70096-1.2706 1.0583-1.5955" fill="none" stroke="#000" stroke-linejoin="miter" stroke-width="2"/></g><g transform="translate(616.92 18.248)"><ellipse cx="309.92" cy="1281.2" rx="11.474" ry="11.889" fill="#ccc" fill-rule="evenodd"/><path transform="translate(-100.29 22.091)" d="m384.74 1266.2c2.3462 1.8248 4.6922 3.6495 6.6476 4.3335 1.9555 0.684 3.5196 0.2278 4.8547-1.4332 1.3351-1.6611 2.4438-4.5306 3.3884-7.8533s1.727-7.104 2.5091-9.5475 1.5644-3.5517 2.1177-3.8773 0.87943 0.131 1.2054 0.5874" fill="none" stroke="#000" stroke-linejoin="miter" stroke-width="2"/><path transform="translate(-100.29 22.091)" d="m408.2 1270.9c0.39139 0.1957 0.78238 0.3912 1.5318-1.5972s1.8572-6.1588 2.4762-9.1889c0.61895-3.0302 0.74929-4.9201 0.97735-6.6465 0.22806-1.7265 0.5541-3.2915 0.89662-4.2363 0.34251-0.9448 0.70096-1.2706 1.0583-1.5955" fill="none" stroke="#000" stroke-linejoin="miter" stroke-width="2"/></g><g transform="translate(582.64 17.695)"><ellipse cx="309.92" cy="1281.2" rx="11.474" ry="11.889" fill="#ccc" fill-rule="evenodd"/><path transform="translate(-100.29 22.091)" d="m384.74 1266.2c2.3462 1.8248 4.6922 3.6495 6.6476 4.3335 1.9555 0.684 3.5196 0.2278 4.8547-1.4332 1.3351-1.6611 2.4438-4.5306 3.3884-7.8533s1.727-7.104 2.5091-9.5475 1.5644-3.5517 2.1177-3.8773 0.87943 0.131 1.2054 0.5874" fill="none" stroke="#000" stroke-linejoin="miter" stroke-width="2"/><path transform="translate(-100.29 22.091)" d="m408.2 1270.9c0.39139 0.1957 0.78238 0.3912 1.5318-1.5972s1.8572-6.1588 2.4762-9.1889c0.61895-3.0302 0.74929-4.9201 0.97735-6.6465 0.22806-1.7265 0.5541-3.2915 0.89662-4.2363 0.34251-0.9448 0.70096-1.2706 1.0583-1.5955" fill="none" stroke="#000" stroke-linejoin="miter" stroke-width="2"/></g><g transform="translate(650.64 17.695)"><ellipse cx="309.92" cy="1281.2" rx="11.474" ry="11.889" fill="#ccc" fill-rule="evenodd"/><path transform="translate(-100.29 22.091)" d="m384.74 1266.2c2.3462 1.8248 4.6922 3.6495 6.6476 4.3335 1.9555 0.684 3.5196 0.2278 4.8547-1.4332 1.3351-1.6611 2.4438-4.5306 3.3884-7.8533s1.727-7.104 2.5091-9.5475 1.5644-3.5517 2.1177-3.8773 0.87943 0.131 1.2054 0.5874" fill="none" stroke="#000" stroke-linejoin="miter" stroke-width="2"/><path transform="translate(-100.29 22.091)" d="m408.2 1270.9c0.39139 0.1957 0.78238 0.3912 1.5318-1.5972s1.8572-6.1588 2.4762-9.1889c0.61895-3.0302 0.74929-4.9201 0.97735-6.6465 0.22806-1.7265 0.5541-3.2915 0.89662-4.2363 0.34251-0.9448 0.70096-1.2706 1.0583-1.5955" fill="none" stroke="#000" stroke-linejoin="miter" stroke-width="2"/></g><g transform="translate(684.64 17.695)"><ellipse cx="309.92" cy="1281.2" rx="11.474" ry="11.889" fill="#ccc" fill-rule="evenodd"/><path transform="translate(-100.29 22.091)" d="m384.74 1266.2c2.3462 1.8248 4.6922 3.6495 6.6476 4.3335 1.9555 0.684 3.5196 0.2278 4.8547-1.4332 1.3351-1.6611 2.4438-4.5306 3.3884-7.8533s1.727-7.104 2.5091-9.5475 1.5644-3.5517 2.1177-3.8773 0.87943 0.131 1.2054 0.5874" fill="none" stroke="#000" stroke-linejoin="miter" stroke-width="2"/><path transform="translate(-100.29 22.091)" d="m408.2 1270.9c0.39139 0.1957 0.78238 0.3912 1.5318-1.5972s1.8572-6.1588 2.4762-9.1889c0.61895-3.0302 0.74929-4.9201 0.97735-6.6465 0.22806-1.7265 0.5541-3.2915 0.89662-4.2363 0.34251-0.9448 0.70096-1.2706 1.0583-1.5955" fill="none" stroke="#000" stroke-linejoin="miter" stroke-width="2"/></g></g><g transform="translate(-17.662 312.25)" stroke-linejoin="round"><path d="m771.67 733.96c1.2582 14.241 37.674 13.693 51.777 14.05 20.234 0.94492 29.335-4.1102 32.065 9.525-3.3067 10.847-33.856 15.508-44.911 15.7-16.212 0.12418-31.478-1.213-48.811-9.9706-19.726-10.938-24.772-38.325-7.2463-62.488 27.529-39.907 81.579-30.856 102.48-11.352 12.826 10.605 6.195 30.045-3.2261 45.734-3.1882-5.8192-18.748-18.099-36.189-21.383-12.475-2.349-28.346-3.3985-36.145 1.1949-5.5343 3.8123-11.054 4.7484-9.7963 18.99z" fill="#808080" fill-rule="evenodd"/><path transform="matrix(1.6473 0 0 1.9018 92.31 -1660.1)" d="m406.85 1262.8c4.6057 0.091 9.2143 0.1821 17.761 0.5262 8.5463 0.3441 21.033 0.9412 27.807 1.4219 6.7743 0.4806 7.8374 0.8446 8.9 1.2084" fill="none" stroke="#000" stroke-linejoin="miter" stroke-width=".93545"/><path transform="matrix(1.6642 0 0 1.6435 148.09 -1325.5)" d="m369.12 1256.8c2.4393-0.3873 4.8776-0.7745 5.8181-2.4635 0.94054-1.6891 0.38442-4.6821 2.0193-7.2404 1.6348-2.5583 5.4659-4.6908 11.108-5.1798 5.6425-0.489 13.109 0.6624 18.453 2.2045 5.3435 1.5422 8.5679 3.4758 11.034 6.26s4.174 6.4196 5.8826 10.056" fill="none" stroke="#000" stroke-linejoin="miter" stroke-width="1.0012"/><path transform="matrix(1.6557 0 0 1.6557 88.9 -1349.4)" d="m384.74 1266.2c2.3462 1.8248 4.6922 3.6495 6.6476 4.3335 1.9555 0.684 3.5196 0.2278 4.8547-1.4332 1.3351-1.6611 2.4438-4.5306 4.2639-5.849s4.3533-1.0892 6.8863-0.8599" fill="none" stroke="#000" stroke-linejoin="miter" stroke-width="2"/></g><text transform="matrix(.99996 .0090554 .0090554 -.99996 0 0)" x="772.30444" y="-996.13281" fill="#ffffff" font-family="Arial" font-size="17.661px" letter-spacing="0px" stroke-linejoin="miter" stroke-width="1.6557px" word-spacing="0px" style="inline-size:76.0198;line-height:1.1;white-space:pre" xml:space="preserve"><tspan x="772.30444" y="-996.13281">RNA pol</tspan></text></g><path transform="matrix(1.6557 0 0 -1.6557 -350.83 2395)" d="m791.78 1332.9c-0.72516 3.3931-1.4502 6.786-4.7416 11.64-3.2914 4.854-9.1506 11.171-11.061 21.881-1.9104 10.71 0.12946 25.781 1.7503 33.673 1.6208 7.8923 2.8186 8.5833 5.8371 8.9749s7.8569 0.4838 12.419 0.622c4.5619 0.1383 8.8473 0.3226 12.902 0.5761 4.055 0.2534 7.8796 0.5759 11.703 0.8984" fill="none" stroke="#a00" stroke-linejoin="miter" stroke-width="1.712"/><path transform="matrix(1.6557 0 0 -1.6557 -350.83 2395)" d="m787.58 1344.2c-4.5745 5.7459-9.1497 11.493-10.723 22.02-1.5734 10.528-0.14308 25.8 1.1726 33.794 1.3156 7.9941 2.5134 8.6851 5.5319 9.0767s7.8569 0.4838 12.419 0.622c4.5619 0.1383 8.8473 0.3226 12.902 0.5761 4.055 0.2534 7.8796 0.5759 11.703 0.8984" fill="none" stroke="#000" stroke-dasharray="20.5444, 20.5444" stroke-linejoin="miter" stroke-width="3.4241"/><text x="943.60657" y="86.373871" fill="#aa0000" font-family="Arial" font-size="32px" letter-spacing="0px" stroke-linejoin="miter" stroke-width="1px" word-spacing="0px" style="line-height:1.1" xml:space="preserve"><tspan x="943.60657" y="86.373871" fill="#aa0000" font-size="32px" stroke-width="1px">*</tspan></text></g><g transform="translate(-21.236 22.37)" stroke-linejoin="round"><ellipse cx="66.283" cy="47.237" rx="17.64" ry="11.359" fill="#808080"/></g><text transform="translate(.33445)" x="29.798668" y="70.473061" fill="#f9f9f9" font-family="Arial" font-size="4.9389px" letter-spacing="0px" stroke-linejoin="miter" stroke-width=".26458px" word-spacing="0px" style="inline-size:30.9901;line-height:1.1;white-space:pre" xml:space="preserve"><tspan x="29.798668" y="70.473061">Spliceosome</tspan></text><path d="m148.21 167.46-37.3 34.136" fill="none" marker-end="url(#marker47147)" stroke="#000" stroke-linejoin="miter" stroke-width=".265"/><text x="189.00481" y="245.50818" fill="#000000" font-family="Arial" font-size="3.5278px" letter-spacing="0px" stroke-linejoin="miter" stroke-width=".26458px" word-spacing="0px" style="line-height:1.1" xml:space="preserve"><tspan x="189.00481" y="245.50818" stroke-width=".26458px">-</tspan></text><g transform="translate(8.0522 34.981)" stroke-linejoin="round"><ellipse cx="101.1" cy="90.524" rx="11.169" ry="6.2474" fill="#ccc" stroke="#4d4d4d" stroke-linecap="round" stroke-linejoin="round" stroke-width=".1163"/></g><text transform="translate(.33445)" x="102.95484" y="127.07635" fill="#000000" font-family="Arial" font-size="5.6444px" font-weight="bold" letter-spacing="0px" stroke-linejoin="miter" stroke-width=".26458px" word-spacing="0px" style="inline-size:16.0707;line-height:1.1;white-space:pre" xml:space="preserve"><tspan x="102.95484" y="127.07635">Slh1</tspan></text><ellipse cx="140.37" cy="131.16" rx="12.023" ry="9.3724" fill="#999" stroke="#000" stroke-dasharray="0.0725532, 0.0725532" stroke-linecap="round" stroke-linejoin="round" stroke-width=".24184"/><g transform="translate(3.0127 17.613)" stroke-linejoin="round"><ellipse cx="104.41" cy="125.15" rx="8.0014" ry="9.0164" fill="#ccc" stroke="#000" stroke-linecap="round" stroke-linejoin="round" stroke-width=".11826"/></g><text transform="translate(.33445)" x="101.18871" y="144.29309" fill="#22002b" font-family="sans-serif" font-size="4.9389px" letter-spacing="0px" stroke-linejoin="miter" stroke-width=".26458px" word-spacing="0px" style="font-variant-caps:normal;font-variant-east-asian:normal;font-variant-ligatures:normal;font-variant-numeric:normal;inline-size:12.2961;line-height:1.1;white-space:pre" xml:space="preserve"><tspan x="101.18871" y="144.29309">Hel2</tspan></text><text transform="translate(-3.7993 2.492)" x="181.94411" y="170.36931" fill="#808080" font-family="sans-serif" font-size="4.9389px" letter-spacing="0px" stroke-linejoin="miter" stroke-width=".26458px" word-spacing="0px" style="inline-size:27.9227;line-height:1.1;white-space:pre" xml:space="preserve"><tspan x="181.94411" y="170.36931">RNA decay</tspan></text><g transform="translate(-23.492 5.5958)" fill="#aa0000" letter-spacing="0px" stroke-linejoin="miter" word-spacing="0px"><text x="162.16423" y="105.64397" font-family="Arial" font-size="8.4667px" stroke-width=".26458px" style="line-height:1.1" xml:space="preserve"><tspan x="162.16423" y="105.64397" fill="#aa0000" font-size="8.4667px" stroke-width=".26458px">* </tspan></text><text transform="translate(-.83176 3.8377)" x="167.48164" y="98.619957" font-family="sans-serif" font-size="3.5278px" stroke-width="1px" style="font-variant-caps:normal;font-variant-east-asian:normal;font-variant-ligatures:normal;font-variant-numeric:normal;inline-size:61.0386;line-height:1.1;white-space:pre" xml:space="preserve"><tspan x="167.48164" y="98.619957">In-frame stop (retained intron),  </tspan><tspan x="167.48164" y="102.5005">ProPro, rare codon pair, or frame-shift.</tspan></text></g><ellipse cx="163.62" cy="136.51" rx="12.023" ry="9.3724" fill="#999" stroke="#000" stroke-dasharray="0.0725532, 0.0725532" stroke-linecap="round" stroke-linejoin="round" stroke-width=".24184"/><path d="m191.24 133.76c-9.5793-1.4996-19.158-2.9991-27.261-3.6625-8.103-0.66342-14.704-0.48916-18.92-1.9567-4.2151-1.4676-6.0317-4.5748-7.849-7.6832-4.673-1.2287-9.3455-2.4572-10.252-3.9659s1.9523-3.297 0.1035-4.9842c-1.8488-1.6872-8.4045-3.2736-14.96-4.8598" fill="none" stroke="#a00" stroke-linejoin="miter" stroke-width=".75"/><text transform="translate(-1.6178 .039519)" x="119.4369" y="164.01016" fill="#aa0000" font-family="sans-serif" font-size="5.6444px" letter-spacing="0px" stroke-linejoin="miter" stroke-width=".26458px" word-spacing="0px" style="inline-size:49.7854;line-height:1.1;white-space:pre" xml:space="preserve"><tspan x="119.4369" y="164.01016">Ribosome stalling?</tspan></text><ellipse cx="168" cy="125.77" rx="6.9031" ry="5.3814" fill="#fff" stroke="#008000" stroke-dasharray="0.0416582, 0.0416582" stroke-linecap="round" stroke-linejoin="round" stroke-width=".13886"/><ellipse cx="168" cy="125.77" rx="6.9031" ry="5.3814" fill="#999" stroke="#000" stroke-dasharray="0.0416582, 0.0416582" stroke-linecap="round" stroke-linejoin="round" stroke-width=".13886"/><path d="m141.67 126.41c-1.4708 3.5655 0.0464 3.1683-2.0398 8.3444-1.4903 3.6977-7.3417 4.8435-8.8338 10.45-1.5627 5.8723-6.4151 10.536-6.4151 10.536" fill="none" stroke="#000" stroke-linejoin="miter" stroke-width=".75"/><path d="m163.62 129.99c-0.93545 3.7418 0.50766 3.1277-0.80181 8.5526-0.93545 3.8754-6.5573 5.8618-7.2163 11.626" fill="none" stroke="#000" stroke-linejoin="miter" stroke-width=".75"/><text x="114.11823" y="112.03448" fill="#aa0000" font-family="Arial" font-size="4.2333px" letter-spacing="0px" stroke-linejoin="miter" stroke-width=".26458px" word-spacing="0px" style="line-height:1.1" xml:space="preserve"><tspan x="114.11823" y="112.03448" fill="#aa0000" font-size="4.2333px" stroke-width=".26458px">3'</tspan></text><text x="185.7746" y="137.18382" fill="#aa0000" font-family="Arial" font-size="4.2333px" letter-spacing="0px" stroke-linejoin="miter" stroke-width=".26458px" word-spacing="0px" style="line-height:1.1" xml:space="preserve"><tspan x="185.7746" y="137.18382" fill="#aa0000" font-size="4.2333px" stroke-width=".26458px">5'</tspan></text><g transform="translate(72.587 67.445)" stroke-linejoin="round"><ellipse cx="111.64" cy="86.344" rx="17.64" ry="10.023" fill="#ccc" stroke="#000" stroke-linecap="round" stroke-linejoin="round" stroke-width=".18513"/></g><text transform="translate(-1.3279)" x="171.31516" y="154.89131" fill="#22002b" font-family="Arial" font-size="4.9389px" font-weight="bold" letter-spacing="0px" stroke-linejoin="miter" stroke-width=".26458px" word-spacing="0px" style="inline-size:30.2461;line-height:1.1;white-space:pre" xml:space="preserve"><tspan x="171.31516" y="154.89131">Dh<tspan font-family="sans-serif">h</tspan>1/Vad1</tspan></text><g transform="translate(17.579 52.784)" fill="#b3b3b3" stroke-linejoin="round"><ellipse cx="103.7" cy="87.113" rx="8.5708" ry="9.6581" fill="#ccc" stroke="#000" stroke-linecap="round" stroke-linejoin="round" stroke-width=".12668"/></g><text transform="translate(.33445)" x="115.8142" y="141.08669" fill="#000000" font-family="sans-serif" font-size="4.9389px" letter-spacing="0px" stroke-linejoin="miter" stroke-width=".26458px" word-spacing="0px" style="font-variant-caps:normal;font-variant-east-asian:normal;font-variant-ligatures:normal;font-variant-numeric:normal;inline-size:14.1822;line-height:1.1;white-space:pre" xml:space="preserve"><tspan x="115.8142" y="141.08669">Asc1</tspan></text><text transform="translate(.33445)" x="101.98071" y="116.52289" fill="#aa0000" font-family="Arial" font-size="4.2333px" letter-spacing="0px" stroke-linejoin="miter" stroke-width=".26458px" word-spacing="0px" style="inline-size:27.8528;line-height:1.1;white-space:pre" xml:space="preserve"><tspan x="101.98071" y="116.52289">spliced RNA</tspan></text><g transform="translate(79.834 43.913)" fill="#1a1a1a" stroke-linejoin="round"><path d="m129.28 87.68c0 6.2734-8.6737 8.4643-18.396 9.0911-14.656 0.94494 11.092-6.7342 0.12509-10.036 0 0-12.891-5.1223 0.63086-10.414 9.0722-3.5503 17.64 5.0856 17.64 11.359z" fill="#1a1a1a" stroke="#000" stroke-linecap="round" stroke-linejoin="round" stroke-width=".19708"/></g><g transform="translate(80.061 39.697)" fill="#f2f2f2" stroke-linejoin="round" stroke-width=".26458px" aria-label="Xrn1"><path d="m116.07 90.436-1.0201-1.4855-1.0418 1.4855h-0.50884l1.2926-1.7653-1.1937-1.6326h0.50884l0.94533 1.3336 0.91881-1.3336h0.50884l-1.1624 1.6158 1.2612 1.7821z"/><path d="m117.03 90.436v-2.0016q0-0.27492-0.0145-0.60772h0.40996q0.0193 0.44373 0.0193 0.53296h0.01q0.1037-0.33521 0.23875-0.4582 0.13505-0.12299 0.38103-0.12299 0.0868 0 0.17604 0.02412v0.39791q-0.0868-0.02412-0.23151-0.02412-0.2701 0-0.41238 0.23392-0.14228 0.23151-0.14228 0.66559v1.3601z"/><path d="m120.33 90.436v-1.6543q0-0.25804-0.0506-0.40032-0.0506-0.14228-0.16158-0.20498-0.11093-0.0627-0.32556-0.0627-0.3135 0-0.49437 0.21463-0.18087 0.21463-0.18087 0.59566v1.5121h-0.43408v-2.0522q0-0.45579-0.0145-0.55707h0.40997q2e-3 0.01206 5e-3 0.06511 2e-3 0.05306 5e-3 0.12299 5e-3 0.06752 0.01 0.25804h7e-3q0.14952-0.2701 0.34486-0.38103 0.19775-0.11334 0.48954-0.11334 0.42926 0 0.62701 0.21463 0.20016 0.21222 0.20016 0.70418v1.7387z"/><path d="m121.47 90.436v-0.36897h0.86575v-2.6141l-0.76688 0.54743v-0.40997l0.80305-0.55225h0.40032v3.0289h0.82717v0.36897z"/></g><g transform="matrix(-.68659 0 0 .68659 185.03 43.54)" fill="#4d4d4d" stroke-linejoin="round"><path d="m130.28 88.684c0 6.2734-10.014 8.4643-21.238 9.0911-16.92 0.94494 12.806-6.7342 0.14441-10.036 0 0-17.559-11.144 6.7499-15.097 10.916-1.7753 14.344 9.769 14.344 16.042z" fill="#4d4d4d"/></g><text x="99.521301" y="101.60234" fill="#f9f9f9" font-family="sans-serif" font-size="4.9389px" letter-spacing="0px" stroke-linejoin="round" stroke-width=".18166" word-spacing="0px" style="line-height:1.25" xml:space="preserve"><tspan x="99.521301" y="101.60234" fill="#f9f9f9" font-size="4.9389px" stroke-width=".18166">Dis3</tspan></text><g transform="translate(22.096 11.525)" fill="#808080" stroke-linejoin="round"><ellipse cx="101.1" cy="90.524" rx="11.169" ry="6.2474" fill="#333"/></g><text x="117.18686" y="103.5676" fill="#f2f2f2" font-family="sans-serif" font-size="5.6444px" font-weight="bold" letter-spacing="0px" stroke-linejoin="miter" stroke-width=".26458px" word-spacing="0px" style="font-variant-caps:normal;font-variant-east-asian:normal;font-variant-ligatures:normal;font-variant-numeric:normal;line-height:1.1" xml:space="preserve"><tspan x="117.18686" y="103.5676" fill="#f2f2f2" font-family="sans-serif" font-size="5.6444px" font-weight="bold" stroke-width=".26458px" style="font-variant-caps:normal;font-variant-east-asian:normal;font-variant-ligatures:normal;font-variant-numeric:normal">Ski2</tspan></text><ellipse cx="143.76" cy="121.2" rx="6.9031" ry="5.3814" fill="#999" stroke="#000" stroke-dasharray="0.0416582, 0.0416582" stroke-linecap="round" stroke-linejoin="round" stroke-width=".13886"/><text x="91.234253" y="156.18307" fill="#808080" font-family="sans-serif" font-size="4.9389px" stroke-width=".26458" word-spacing="0px" style="line-height:1.25" xml:space="preserve"><tspan x="91.234253" y="156.18307" fill="#808080" stroke-width=".26458">Ribosome</tspan></text><text transform="translate(-4.8809 -.13433)" x="81.186783" y="88.454323" fill="#aa0000" font-family="sans-serif" font-size="5.6444px" letter-spacing="0px" stroke-linejoin="miter" stroke-width=".26458px" word-spacing="0px" style="font-variant-caps:normal;font-variant-east-asian:normal;font-variant-ligatures:normal;font-variant-numeric:normal;inline-size:41.4303;line-height:1.1;white-space:pre" xml:space="preserve"><tspan x="81.186783" y="88.454323">Export block?</tspan></text><text transform="translate(.33445)" x="128.98022" y="85.821762" fill="#aa0000" fill-opacity=".85098" font-family="sans-serif" font-size="12.7px" stroke-linejoin="round" stroke-width=".26458" word-spacing="0px" style="inline-size:73.064;line-height:1.25;white-space:pre" xml:space="preserve"><tspan x="128.98022" y="85.821762">1. Prime</tspan></text><text x="83.107254" y="161.6851" fill="#808080" font-family="sans-serif" font-size="4.9389px" stroke-width=".26458" word-spacing="0px" style="line-height:1.25" xml:space="preserve"><tspan x="83.107254" y="161.6851" fill="#808080" stroke-width=".26458">quality control</tspan></text><path d="m85.192 114.56-7.3738 76.711" fill="none" marker-start="url(#DartArrow)" stroke="#000" stroke-linejoin="miter" stroke-width="1.5181"/><text x="52.146667" y="120.00835" fill="#000000" font-family="Arial" font-size="3.5278px" letter-spacing="0px" stroke-linejoin="miter" stroke-width=".26458px" word-spacing="0px" style="line-height:1.1" xml:space="preserve"><tspan x="52.146667" y="120.00835" stroke-width=".26458px">-</tspan></text><text x="136.42564" y="131.55197" fill="#aa0000" font-family="Arial" font-size="8.4667px" letter-spacing="0px" stroke-linejoin="miter" stroke-width=".26458px" word-spacing="0px" style="line-height:1.1" xml:space="preserve"><tspan x="136.42564" y="131.55197" fill="#aa0000" font-size="8.4667px" stroke-width=".26458px">*</tspan></text><text x="38.721607" y="106.14944" fill="#4d4d4d" font-family="sans-serif" font-size="6.35px" letter-spacing="0px" stroke-linejoin="round" stroke-width=".26458" word-spacing="0px" style="line-height:1.25" xml:space="preserve"><tspan x="38.721607" y="106.14944" fill="#4d4d4d" font-size="6.35px" stroke-width=".26458">Nuclear Export</tspan></text><text transform="translate(.33445)" x="8.0494127" y="14.76232" fill="#aa0000" font-family="sans-serif" font-size="12.7px" letter-spacing="0px" stroke-linejoin="round" word-spacing="0px" style="inline-size:185.277;line-height:1.25;shape-padding:0.415401;white-space:pre" xml:space="preserve"><tspan x="8.0494127" y="14.76232">RNAi Target-Learning Model: 
</tspan></text><text transform="translate(-2.4714 4.4)" x="11.670398" y="20.64497" font-family="sans-serif" font-size="4.2333px" stroke-width=".26458" word-spacing="0px" style="inline-size:197.83;line-height:1.25;white-space:pre" xml:space="preserve"/><text transform="translate(6.1812 7.3231)" x="6.0214314" y="285.23758" font-family="sans-serif" font-size="3.5278px" stroke-width=".26458" word-spacing="0px" style="inline-size:197.029;line-height:1.25;white-space:pre" xml:space="preserve"><tspan x="6.0214314" y="285.23758">Problematic RNAs: those that have been found to stall ribosomes or evade/block nuclear export; RNA helicases in bold.</tspan></text><text x="-11.413056" y="108.98964" font-family="sans-serif" font-size="2.8222px" font-weight="bold" stroke-width=".26458" word-spacing="0px" style="line-height:1.25" xml:space="preserve"><tspan x="-11.413056" y="108.98964" stroke-width=".26458"/></text><text transform="translate(.33396 .46815)" x="8.6075182" y="176.98631" fill="#aa0000" font-family="sans-serif" font-size="12.7px" stroke-width=".26458" word-spacing="0px" style="inline-size:70.0772;line-height:1.25;white-space:pre" xml:space="preserve"><tspan x="8.6075182" y="176.98631">3. Intercept</tspan></text><text transform="translate(.33445)" x="129.30885" y="206.89861" fill="#aa0000" font-family="sans-serif" font-size="12.7px" stroke-width=".26458" word-spacing="0px" style="inline-size:68.0177;line-height:1.25;white-space:pre" xml:space="preserve"><tspan x="129.30885" y="206.89861">2. Imprint</tspan></text><text transform="translate(-2.9903)" x="12.175634" y="87.852524" fill="#000000" font-family="Arial" font-size="4.2333px" letter-spacing="0px" stroke-linejoin="miter" stroke-width="1px" word-spacing="0px" style="inline-size:65.6316;line-height:1.1;white-space:pre" xml:space="preserve"><tspan x="12.175634" y="87.852524"><tspan font-family="sans-serif">Co-transcriptionally spliced RNA
</tspan></tspan><tspan x="12.175634" y="92.509187"><tspan font-family="sans-serif">exported to cytoplasm for 
</tspan></tspan><tspan x="12.175634" y="97.165849"><tspan font-family="sans-serif">translation on ribosomes</tspan></tspan></text><text transform="translate(12.59 7.4977)" x="30.870825" y="135.06392" fill="#000000" font-family="sans-serif" font-size="4.2333px" letter-spacing="0px" stroke-linejoin="miter" stroke-width="1px" word-spacing="0px" style="font-variant-caps:normal;font-variant-east-asian:normal;font-variant-ligatures:normal;font-variant-numeric:normal;inline-size:39.3127;line-height:1.1;white-space:pre" xml:space="preserve"><tspan x="30.870825" y="135.06392">RNAi intercepts
</tspan><tspan x="30.870825" y="139.72057">problematic RNAs
</tspan><tspan x="30.870825" y="144.37724">to prevent costly 
</tspan><tspan x="30.870825" y="149.0339">repeat of block.</tspan></text><text x="8.8258419" y="23.739065" font-family="sans-serif" font-size="4.9389px" stroke-width=".26458" word-spacing="0px" style="line-height:1.25" xml:space="preserve"><tspan x="8.8258419" y="23.739065">By creating cellular bottle necks (e.g. in nuclear export, translation) spliced transcripts</tspan><tspan x="8.8258419" y="29.912689">become targets for RNAi to prevent expensive clearing of stalled/blocked complexes.</tspan></text></g></g></g></svg>
