<?xml version="1.0" encoding="UTF-8"?>
<svg width="1061" height="562.82" version="1.1" viewBox="0 0 280.71542 148.91256" xmlns="http://www.w3.org/2000/svg"><defs><marker id="marker127134" overflow="visible" markerHeight="9.5264139" markerWidth="12.705841" orient="auto" preserveAspectRatio="xMidYMid" viewBox="0 0 12.705841 9.5264135"><path transform="matrix(1.1,0,0,1.1,1.1,0)" d="m8.7186 4.0337-10.926-4.0177 10.926-4.0177c-1.7455 2.3721-1.7354 5.6175-6e-7 8.0354z" fill="#666" fill-rule="evenodd" stroke="#666" stroke-linejoin="round" stroke-width=".625"/></marker><marker id="marker6391" overflow="visible" markerHeight="9.5264139" markerWidth="12.705841" orient="auto" preserveAspectRatio="xMidYMid" viewBox="0 0 12.705841 9.5264135"><path transform="matrix(-1.1,0,0,-1.1,-1.1,0)" d="m8.7186 4.0337-10.926-4.0177 10.926-4.0177c-1.7455 2.3721-1.7354 5.6175-6e-7 8.0354z" fill="#666" fill-rule="evenodd" stroke="#666" stroke-linejoin="round" stroke-width=".625"/></marker><marker id="marker127144" overflow="visible" markerHeight="9.5264139" markerWidth="12.705841" orient="auto" preserveAspectRatio="xMidYMid" viewBox="0 0 12.705841 9.5264135"><path transform="matrix(1.1,0,0,1.1,1.1,0)" d="m8.7186 4.0337-10.926-4.0177 10.926-4.0177c-1.7455 2.3721-1.7354 5.6175-6e-7 8.0354z" fill-rule="evenodd" stroke="#000" stroke-linejoin="round" stroke-width=".625"/></marker><marker id="marker127204" overflow="visible" markerHeight="9.5264139" markerWidth="12.705841" orient="auto" preserveAspectRatio="xMidYMid" viewBox="0 0 12.705841 9.5264135"><path transform="matrix(-1.1,0,0,-1.1,-1.1,0)" d="m8.7186 4.0337-10.926-4.0177 10.926-4.0177c-1.7455 2.3721-1.7354 5.6175-6e-7 8.0354z" fill-rule="evenodd" stroke="#000" stroke-linejoin="round" stroke-width=".625"/></marker><marker id="marker213589" overflow="visible" markerHeight="6" markerWidth="5" orient="auto-start-reverse" preserveAspectRatio="xMidYMid" viewBox="0 0 5 6"><path d="m1 0-3 3h-2l3-3-3-3h2z" fill="context-stroke" fill-rule="evenodd"/></marker><marker id="Arrow4" overflow="visible" markerHeight="6" markerWidth="5" orient="auto-start-reverse" preserveAspectRatio="xMidYMid" viewBox="0 0 5 6"><path d="m1 0-3 3h-2l3-3-3-3h2z" fill="context-stroke" fill-rule="evenodd"/></marker></defs><g transform="translate(87.25 16.448)"><g transform="matrix(.83647 0 0 .83647 -86.184 -88.339)" stroke-linejoin="round" stroke-width="1.1955"><g transform="translate(-7.6114 16.847)" stroke-linejoin="round" stroke-width="1.1955"><rect x="6.3361" y="69.099" width="335.6" height="178.03" rx="3.8432" ry="3.4114" fill="#f9f9f9"/><g transform="matrix(.85695 0 0 .85674 1.0983 19.856)" stroke-linejoin="round"><g stroke-width="1.3952"><g transform="matrix(.96037 0 0 1 8.3542 -51.429)" stroke-linejoin="round" stroke-width="1.4237"><rect x="7.8174" y="131.02" width="195.28" height="131.08" rx="2.4875" ry="2.4875" fill="#fff" stroke="#333" stroke-linejoin="bevel" stroke-width=".5695"/><rect x="118.99" y="131.02" width=".50209" height="131.03" fill="#333"/><rect x="117.91" y="199.89" width="2.6329" height="7.9086" rx="1.3165" ry="1.3165" fill="#f2f2f2"/></g><text x="136.91606" y="74.022316" fill="#000000" font-family="Arial" font-size="8.4667px" stroke-linejoin="round" stroke-width=".36916" style="line-height:1.25" xml:space="preserve"><tspan x="136.91606" y="74.022316" font-size="8.4667px" stroke-width=".36916">Unspecific</tspan></text><text x="52.603233" y="74.022316" fill="#000000" font-family="Arial" font-size="8.4667px" stroke-linejoin="round" stroke-width=".36916" style="line-height:1.25" xml:space="preserve"><tspan x="52.603233" y="74.022316" font-size="8.4667px" stroke-width=".36916">Specific</tspan></text><g transform="matrix(.89142 0 0 .89108 27.45 -25.503)" stroke-linejoin="round" stroke-width="1.5655"><g transform="translate(0 11.283)"><g transform="matrix(1.4519 0 0 .62637 -42.197 86.574)" stroke-linejoin="round" stroke-width=".4104"><rect x="48.797" y="112.52" width="24.947" height="128.07" fill="#f2f2f2" stroke="#ccc"/><rect x="47.901" y="107.93" width="27.181" height="6.8239" fill="#fff" stroke="#fff"/><rect x="47.856" y="233.42" width="25.781" height="11.698" fill="#fff" stroke="#fff"/></g><path d="m30.534 162.81 31.874 0.0543" fill="none" marker-end="url(#marker6391)" marker-start="url(#marker127134)" stroke="#666" stroke-linejoin="miter" stroke-width=".46965"/><path d="m10.077 242.65 82.295 0.0338" fill="none" marker-end="url(#marker127204)" marker-start="url(#marker127144)" stroke="#000" stroke-linejoin="miter" stroke-width=".78275"/></g><g transform="matrix(0 -1.011 .66085 0 -86.189 299.36)" fill="#ececec" stroke-linejoin="round" stroke-width=".4788"><rect x="54.679" y="130.99" width="11.168" height="149.59" ry="0" fill="#f2f2f2" stroke="#ccc" stroke-linejoin="round" stroke-width=".4788"/><rect x="51.458" y="123.67" width="18.788" height="10.035" fill="#fff" stroke="#fff"/><rect x="51.609" y="278.61" width="14.616" height="4.6111" ry="0" fill="#fff" stroke="#fff"/></g><g transform="matrix(0 -.80726 .63934 0 -18.059 271.18)" fill="#ececec" stroke-linejoin="round"><g stroke-width=".55388"><rect x="52.718" y="136.66" width="44.429" height="112.31" fill="#f2f2f2" stroke="#ccc" stroke-linejoin="round" stroke-width=".55388"/></g><rect x="51.496" y="134.95" width="124.07" height="4.8735" fill="#fff" stroke="#fff" stroke-width=".55388"/><rect x="52.631" y="247.87" width="48.983" height="3.9447" ry="0" fill="#fff" stroke="#fff" stroke-width=".4041"/></g><path d="m8.6185 244.26 13.294-62.027 11.491 62.027h18.375l10.02-15.201 10.24 15.201 13.104-121.97 10.494 121.97h14.73l12.992-34.935 12.458 34.935h25.762l14.01-47.3 15.83 47.3" fill="none" stroke="#59f" stroke-linejoin="bevel" stroke-width="1.8786"/><path d="m9.1104 244.27 12.458-7.5666 12.348 7.5666h39.899l10.895-15.723 10.129 15.723h15.718l12.626-15.723 12.399 15.723 12.576-23.462 13.302 23.462 13.989-60.712 16.226 60.712" fill="none" stroke="#a00" stroke-linejoin="bevel" stroke-width="1.8786"/><path d="m8.6185 244.26 13.148-45.443 11.637 45.443h18.375l10.148-22.876 10.113 22.876 12.64-65.335 10.958 65.335h14.73l13.23-27.813 12.219 27.813h25.762l13.743-76.214 16.098 76.214" fill="none" stroke="#d4aa00" stroke-linejoin="bevel" stroke-width="1.722"/><text transform="scale(.99981 1.0002)" x="118.69703" y="259.06635" fill="#000000" font-family="Arial" font-size="5.5415px" stroke-linejoin="round" stroke-width=".4142" style="line-height:1.25" xml:space="preserve"><tspan x="118.69703" y="259.06635" font-size="5.5415px" stroke-width=".4142">Bin</tspan></text><path d="m138.53 226.7 0.0543-33.448" fill="none" marker-end="url(#marker6391)" marker-start="url(#marker127134)" stroke="#4d4d4d" stroke-linejoin="miter" stroke-width=".46965"/><path d="m-1.6357 243.66 0.0543-10.376" fill="none" marker-end="url(#Arrow4)" marker-start="url(#marker213589)" stroke="#666" stroke-linejoin="miter" stroke-width=".46965"/><text transform="scale(.99981 1.0002)" x="-1.2568859" y="274.73846" fill="#000000" font-family="Arial" font-size="11.875px" stroke-linejoin="round" stroke-width=".46474" style="line-height:1.25" xml:space="preserve"><tspan x="-1.2568859" y="274.73846" stroke-width=".46474"/></text><path d="m161.58 249.91-8e-3 6.2617 0.7832 2e-3 8e-3 -6.2617zm28.777 0.0332-8e-3 6.2617 0.7832 2e-3 8e-3 -6.2617zm-28.389 2.707-2e-3 0.7832 28.777 0.0332 2e-3 -0.7832zm-26.691-2.7402-8e-3 6.2617 0.78321 2e-3 8e-3 -6.2617zm26.293 0.0332-8e-3 6.2617 0.78125 2e-3 8e-3 -6.2617zm-25.904 2.707-2e-3 0.7832 26.293 0.0332v-0.7832zm-25.418-2.7402-8e-3 6.2617 0.7832 2e-3 8e-3 -6.2617zm25.067 0.0332-8e-3 6.2617 0.78125 2e-3 8e-3 -6.2617zm-24.678 2.707-2e-3 0.7832 25.067 0.0332v-0.7832z" color="#000000" fill="#999" stroke-linejoin="miter" style="-inkscape-stroke:none"/></g><text transform="scale(.99988 1.0001)" x="128.05139" y="93.973816" fill="#aa0000" font-size="96.568px" stroke-linejoin="round" stroke-width="11.228" style="line-height:1.25" xml:space="preserve"><tspan x="128.05139" y="93.973816" fill="#aa0000" font-family="sans-serif" font-size="15.406px" font-weight="bold" stroke-width="13.577">U</tspan></text><text transform="scale(.99988 1.0001)" x="24.496161" y="94.068489" fill="#5599ff" font-size="96.568px" stroke-linejoin="round" stroke-width="11.228" style="line-height:1.25" xml:space="preserve"><tspan x="24.496161" y="94.068489" fill="#5599ff" font-family="sans-serif" font-size="15.406px" font-weight="bold" stroke-width="13.577">S</tspan></text><text x="19.615074" y="182.32294" fill="#000000" font-family="Arial" font-size="6.085px" font-weight="bold" stroke-linejoin="round" stroke-width=".36916" style="line-height:1.25" xml:space="preserve"><tspan x="19.615074" y="182.32294" font-family="Arial" font-size="6.085px" font-weight="bold" stroke-width=".36916"><tspan font-weight="normal" stroke-width=".36916">2</tspan></tspan></text><text transform="scale(.99988 1.0001)" x="23.093515" y="179.4178" font-family="Arial" font-size="2.9533px" font-weight="bold" stroke-width=".51507" word-spacing="0px" style="line-height:1.25" xml:space="preserve"><tspan x="23.093515" y="179.4178" font-family="Arial" font-size="2.9533px" font-weight="bold" stroke-width=".51507">LOG2BG</tspan></text><text x="59.624615" y="123.16819" fill="#000000" font-family="Arial" font-size="4.2333px" font-weight="bold" stroke-linejoin="round" stroke-width=".36916" style="line-height:1.25" xml:space="preserve"><tspan x="59.624615" y="123.16819" font-family="Arial" font-size="4.2333px" font-weight="bold" stroke-width=".36916">USEGAP</tspan></text><text x="112.30084" y="158.44525" fill="#000000" font-family="Arial" font-size="5.8697px" font-weight="bold" stroke-linejoin="round" stroke-width=".36916" style="line-height:1.25" xml:space="preserve"><tspan x="112.30084" y="158.44525" font-family="Arial" font-size="5.8697px" font-weight="bold" stroke-width=".36916"><tspan font-weight="normal">10</tspan></tspan></text><text transform="scale(.99988 1.0001)" x="118.85843" y="154.26662" font-family="Arial" font-size="2.9533px" stroke-width=".51507" word-spacing="0px" style="line-height:1.25" xml:space="preserve"><tspan x="118.85843" y="154.26662" font-family="Arial" font-size="2.9533px" font-weight="bold" stroke-width=".51507">UNSPECLOG10</tspan></text><g transform="translate(142.23 -50.263)"><text x="35.011536" y="139.93204" fill="#000000" font-family="Arial" font-size="4.9389px" stroke-linejoin="round" stroke-width=".36916" style="line-height:1.25" xml:space="preserve"><tspan x="35.011536" y="139.93204" font-size="4.9389px" stroke-width=".36916">Positive</tspan></text><text x="35.011536" y="145.37111" fill="#000000" font-family="Arial" font-size="4.9389px" stroke-linejoin="round" stroke-width=".36916" style="line-height:1.25" xml:space="preserve"><tspan x="35.011536" y="145.37111" font-size="4.9389px" stroke-width=".36916">Mutant</tspan></text><text x="35.011536" y="151.1485" fill="#000000" font-family="Arial" font-size="4.9389px" stroke-linejoin="round" stroke-width=".36916" style="line-height:1.25" xml:space="preserve"><tspan x="35.011536" y="151.1485" font-size="4.9389px" stroke-width=".36916">Negative</tspan></text><rect x="22.385" y="133.69" width="35" height="21.056" rx="2.3807" ry="2.3807" fill="none" stroke="#b3b3b3" stroke-linejoin="bevel" stroke-width=".36916"/><rect x="25.213" y="137.01" width="7.6753" height="3.0558" rx=".60988" ry=".60988" fill="#59f" opacity=".7" stroke="#59f" stroke-linejoin="bevel" stroke-width=".34881"/><rect x="25.213" y="142.45" width="7.6753" height="3.0558" rx=".63809" ry=".63809" fill="#d4aa00" opacity=".7" stroke="#d4aa00" stroke-linejoin="bevel" stroke-width=".34881"/><rect x="25.213" y="148.23" width="7.6753" height="3.0558" rx=".60992" ry=".60992" fill="#a00" opacity=".7" stroke="#a00" stroke-linejoin="bevel" stroke-width=".34881"/><rect x="25.213" y="137.01" width="7.6753" height="3.0558" rx=".60988" ry=".60988" fill="none" stroke="#59f" stroke-linejoin="bevel" stroke-width=".34881"/><rect x="25.213" y="142.45" width="7.6753" height="3.0558" rx=".63809" ry=".63809" fill="none" stroke="#d4aa00" stroke-linejoin="bevel" stroke-width=".34881"/><rect x="25.213" y="148.23" width="7.6753" height="3.0558" rx=".60992" ry=".60992" fill="none" stroke="#a00" stroke-linejoin="bevel" stroke-width=".34881"/></g></g><text x="176.15837" y="192.97003" fill="#000000" font-family="Arial" font-size="4.9389px" stroke-width=".36916" style="line-height:1.25" xml:space="preserve"><tspan x="176.15837" y="192.97003" font-size="4.9389px" stroke-width=".36916">ncRNA?</tspan></text><text x="65.191032" y="206.26129" fill="#000000" font-family="Arial" font-size="4.9389px" stroke-width=".36916" style="line-height:1.25" xml:space="preserve"><tspan x="65.191032" y="206.26129" font-size="4.9389px" stroke-width=".36916">Segment</tspan></text></g><text transform="translate(-8.1513 -14.372)" fill="#000000" font-family="Arial" font-size="4.9389px" stroke-linejoin="round" stroke-width="1.1955" text-align="justify" style="line-height:1.25;shape-inside:url(#rect7675-2);white-space:pre" xml:space="preserve"><tspan x="23.177734" y="223.44287"><tspan dx="0 0 0 0 0 0 0.39255142 0 0 0 0 0 0 0 0 0 0 0 0 0 0 0.39255047 0 0 0.39255047 0 0 0 0 0 0 0 0 0.3925581 0 0 0 0 0.3925581 0 0 0 0 0 0 0 0 0 0 0.39255047 0 0 0 0 0 0.39255047 0 0 0 0 0 0 0 0 0.39254284 0 0 0 0 0 0 0 0.39254284 0 0 0.3925581 0 0 0 0 0 0 0 0.39254284 0 0 0 0 0.3925581 0 0 0 0 0 0.3925581 0 0 0 0 0 0 0 0.3925581 0 0 0.3925581 0 0 0 0.39254284 0 0 0 0 0 0 0 0.3925581 0 0 0.3925581 0 0 0 0 0 0 0 0 0 0.3925581 0 0 0 0 0 0 0 0 0 0 0.3925581">Left: Identification of segments with 'Specific' (i.e. positive control or mutant) cDNA reads depends on the setting of indicated parameters (bold, </tspan></tspan><tspan x="23.177734" y="229.61648">capitalized). <tspan dx="0.40943241" font-weight="bold">UNSPECLOG10</tspan><tspan dx="0 0.40943432 0 0 0 0 0.40943432 0 0.40942669 0 0 0 0 0 0 0 0 0 0.40943432 0 0 0 0.40943432 0 0 0 0 0 0.40943432 0 0 0 0 0.40944195 0 0 0 0 0.40942669 0 0 0 0 0 0 0 0.40943432 0 0 0.40941906 0 0 0 0 0 0.40942669 0 0 0.40943432 0 0 0 0.40943432 0 0 0 0 0 0 0 0 0.40943432 0 0 0 0 0 0 0 0 0.40942895 0 0 0 0.40943432 0 0 0 0 0 0 0 0 0 0 0 0.40944958 0 0 0.40941906 0 0 0 0 0.40944958"> sets a threshold for reads with some overlap to reads in the negative control; The demarcation of read segments </tspan></tspan><tspan x="23.177734" y="235.7901"><tspan dx="0 0 0 0 0 0 0 0 0 0 0.78798962 0 0 0 0 0.78798962 0 0 0 0 0 0 0 0 0 0 0.7879858 0 0 0 0 0 0 0.78798199 0 0 0 0 0 0 0.78798962">(clusters with contiguous reads) relies on </tspan><tspan dx="0.78798962" font-weight="bold">LOG2BG</tspan><tspan dx="0 0.78798962 0 0 0 0.78798199"> and the </tspan><tspan dx="0.78798962" font-weight="bold">USEGAP</tspan><tspan dx="0 0.78798962 0 0 0 0 0.78798962 0 0 0 0 0 0 0 0.78798962 0 0 0 0 0 0.78800488 0 0 0 0 0 0 0 0 0 0.78797436 0 0 0 0 0 0.78800488 0 0 0 0 0 0 0 0 0 0.78797436 0 0 0 0 0 0 0 0 0 0 0 0 0.78797436 0 0 0 0 0 0 0.78800488"> that bridges peaks remaining after filtering 'unspecific' reads. Obvious </tspan></tspan><tspan x="23.177734" y="241.96371">peaks shared by all samples could indicate a ncRNA. 
</tspan><tspan x="23.177734" y="248.13733"><tspan dx="0 0 0 0 0 0 0 0.79281044 0 0 0 0 0 0.79280949 0 0 0 0 0 0.79281139 0 0 0 0 0.79281139 0 0 0 0.79281139 0 0 0 0 0.79281139 0 0 0.79281139 0 0 0 0 0 0 0 0.79281139 0 0 0 0 0 0 0 0 0 0 0.79280376 0 0 0.79281139 0 0.79281139 0 0 0 0 0 0 0 0 0 0 0 0.79281139 0 0 0 0 0 0 0 0.79279613 0 0 0 0 0 0.79281139 0 0 0 0.79281139 0 0 0 0 0 0 0.79281139 0 0 0 0 0 0.79281139 0 0 0 0.79281139 0 0 0 0 0 0 0 0.79279613 0 0 0 0 0 0.79282665 0 0 0 0.79279613 0 0 0 0 0 0.79279613">Right: Munro reads form the bulk of siRNAs, anti-sense to a transcript; Corbett reads are sense. Munro and Corbett reads are mixed when </tspan></tspan><tspan x="23.177734" y="254.32294">transcripts from opposite strands overlap and are both targeted by RNAi (e.g. transposon T3 in <tspan font-style="italic">Cryptococcus deneoformans</tspan>).</tspan></text><g transform="matrix(.85695 0 0 .85674 159.9 -90.606)" stroke-linejoin="round" stroke-width="1.3952"><g transform="translate(.8207 -7.8364)"><rect x="21.219" y="260.92" width="181.48" height="86.75" rx="1.7407" ry="1.7407" fill="#fff" stroke="#333" stroke-linejoin="bevel" stroke-width=".5581"/><g transform="translate(-1.5847 4.8822)" stroke-linejoin="round" stroke-width="1.3952"><g transform="translate(1.5875)"><g transform="matrix(0 -.56758 .8211 0 -66.232 349.07)" stroke-linejoin="round" stroke-width=".51095"><rect x="54.85" y="111.81" width="17.767" height="129.96" fill="#f2f2f2" stroke="#ccc"/><rect x="53.851" y="107.67" width="20.288" height="6.9318" fill="#fff" stroke="#fff"/><rect x="54.774" y="233.53" width="20.004" height="11.59" fill="#fff" stroke="#fff"/></g><g transform="matrix(0 -2.3957 .8211 0 -65.789 435.59)" stroke-linejoin="round" stroke-width=".2487"><rect x="54.85" y="111.81" width="17.767" height="129.96" fill="#f2f2f2" stroke="#ccc"/><rect x="53.851" y="107.67" width="20.288" height="6.9318" fill="#fff" stroke="#fff"/><rect x="54.774" y="233.53" width="20.004" height="11.59" fill="#fff" stroke="#fff"/></g><path d="m27.086 307.58 11.217 3.9466 18.256-3.9466h0.16115l6.9419 0.65143 7.1245-0.65143 10.965 9.5422 20.636-9.5422h0.20937l10.966 2.683 10.156-2.683h0.79536" fill="none" stroke="#59f" stroke-linejoin="bevel" stroke-width="1.6743"/><path d="m27.086 307.58 10.225 1.994 19.471-1.994h-0.06166l7.9375 1.1771 6.1289-1.1771 11.232 5.9477 20.203-5.9477h0.37514l10.98 1.2114 10.142-1.2114h0.36552" fill="none" stroke="#d4aa00" stroke-linejoin="bevel" stroke-width="1.5348"/><path d="m28.274 304.14 10.346-21.553 19.408 21.553h-0.12003l6.9419-5.2669 7.1245 5.2669 10.876-42.4 20.946 42.4h-0.0117l10.783-12.13 10.339 12.13h0.26656" fill="none" stroke="#59f" stroke-linejoin="bevel" stroke-width="1.6743"/><path d="m28.274 304.14 10.225-15.786 19.35 15.786h0.05981l7.0479-7.9371 7.0184 7.9371 10.491-22.704 21.397 22.704h-0.0781l10.98-9.6542 10.142 9.6542h0.12979" fill="none" stroke="#d4aa00" stroke-linejoin="bevel" stroke-width="1.5348"/><rect x="24.208" y="304.83" width="177.26" height=".43028" fill="#999" stroke="#fff" stroke-linejoin="round" stroke-width=".34881"/><rect x="24.366" y="306.39" width="177.26" height=".43028" fill="#999" stroke="#fff" stroke-linejoin="round" stroke-width=".34881"/><path d="m27.086 307.55 15.425 22.127 14.049-22.127h0.16115l8.9801 8.4487 5.0862-8.4487 12.734 30.265 18.867-30.265h0.20937l17.641 19.656 3.4812-19.656h0.79536l40.601 18.325 34.928-15.989" fill="none" stroke="#000" stroke-linejoin="bevel" stroke-width=".69762"/></g><text x="150.46632" y="327.69141" font-family="Arial" font-size="4.9389px" letter-spacing="0px" stroke-linejoin="round" stroke-width=".36916" text-align="center" text-anchor="middle" word-spacing="0px" style="line-height:1.25" xml:space="preserve"><tspan x="150.46632" y="327.69141" text-align="center">Transcript</tspan><tspan x="150.46632" y="333.86502" text-align="center">(RNAseq trace)</tspan></text><text x="93.075974" y="270.94617" font-family="Arial" font-size="4.9389px" letter-spacing="0px" stroke-linejoin="round" stroke-width=".36916" word-spacing="0px" style="line-height:1.25" xml:space="preserve"><tspan x="93.075974" y="270.94617" font-size="4.9389px" stroke-width=".36916">Anti-sense to transcript</tspan></text><text x="60.599953" y="251.20529" fill="#000000" font-family="Arial" font-size="8.4667px" stroke-linejoin="round" stroke-width=".36916" style="line-height:1.25" xml:space="preserve"><tspan x="60.599953" y="251.20529" font-size="8.4667px" stroke-width=".36916">siRNAs &amp; Target transcripts</tspan></text><text x="159.38936" y="303.25772" font-family="Arial" font-size="4.9389px" letter-spacing="0px" stroke-linejoin="round" stroke-width=".36916" word-spacing="0px" style="line-height:1.25" xml:space="preserve"><tspan x="159.38936" y="303.25772" font-size="4.9389px" stroke-width=".36916">DNA template</tspan></text><text x="35.775108" y="270.97025" fill="#000000" font-family="Arial" font-size="4.2333px" font-weight="bold" stroke-linejoin="round" stroke-width=".36916" style="line-height:1.25" xml:space="preserve"><tspan x="35.775108" y="270.97025" font-family="Arial" font-size="4.2333px" font-weight="bold" stroke-width=".36916"><tspan>Munro</tspan> <tspan>siRNAs</tspan></tspan></text><rect x="30.57" y="312.06" width="31.485" height="4.9862" fill="#f2f2f2"/><text x="30.694275" y="316.3725" fill="#000000" font-family="Arial" font-size="4.2333px" font-weight="bold" stroke-linejoin="round" stroke-width=".36916" style="line-height:1.25" xml:space="preserve"><tspan x="30.694275" y="316.3725" font-family="Arial" font-size="4.2333px" font-weight="bold" stroke-width=".36916"><tspan>Corbett</tspan> <tspan>siRNAs</tspan></tspan></text><text x="99.075256" y="323.79736" font-family="Arial" font-size="4.9389px" letter-spacing="0px" stroke-linejoin="round" stroke-width=".36916" word-spacing="0px" style="line-height:1.25" xml:space="preserve"><tspan x="99.075256" y="323.79736" font-size="4.9389px" stroke-width=".36916">Intron</tspan></text></g></g></g></g></g></g></svg>
