<svg width="17.175mm" height="8.3644mm" version="1.1" viewBox="0 0 17.175 8.3644" xmlns="http://www.w3.org/2000/svg"><g transform="translate(-11.004 -120.42)"><g transform="matrix(.90466 0 0 .90466 -32.526 13.085)" stroke-linejoin="round" stroke-width="1.1054"><g transform="matrix(.099287 0 0 .082979 46.492 107.8)" fill="#f9f9f9"><rect x="16.769" y="131.03" width="190.41" height="110.62" ry="5.3703" stroke="#666" stroke-width=".80563"/><path d="m113.19 131.48-0.55574 109.66" stroke="#999" stroke-width=".78574"/></g><g transform="matrix(.11017 0 0 .073315 42.527 85.699)" fill="none" stroke-width="5.9946"><path d="m60.531 562.9 11.112-55.271 10.243 55.271h10.474l7.456-13.545 7.6522 13.545 11.681-103.99 9.3542 103.99h13.13l11.581-31.13 11.105 31.13h22.965l12.488-42.148 14.112 42.148" stroke="#59f"/><path d="m60.531 562.9 10.982-40.493 10.373 40.493h10.474l7.5699-20.384 7.5383 20.384 11.268-58.219 9.768 58.219h13.13l11.794-24.783 10.893 24.783h22.965l12.25-67.913 14.35 67.913" stroke="#d4aa00"/><path d="m60.97 562.91 10.367-6.7424 11.007 6.7424h26.708l9.7122-14.011 9.0295 14.011h14.011l11.255-14.011 11.053 14.011 11.211-20.907 11.857 20.907 12.47-54.099 14.464 54.099" stroke="#a00"/></g><g font-family="sans-serif" font-size="2.2926px" font-weight="bold" letter-spacing="0px" stroke-width="1.6871" word-spacing="0px"><text x="61.321953" y="121.32294" fill="#aa0000" style="line-height:1.25" xml:space="preserve"><tspan x="61.321953" y="121.32294" fill="#aa0000" font-family="sans-serif" font-size="2.2926px" font-weight="bold" stroke-width="1.6871">U</tspan></text><text x="52.305805" y="121.33414" fill="#d4aa00" style="line-height:1.25" xml:space="preserve"><tspan x="52.305805" y="121.33414" fill="#d4aa00" font-family="sans-serif" font-size="2.2926px" font-weight="bold" stroke-width="1.6871">M</tspan></text><text x="49.554718" y="121.3347" fill="#5599ff" style="line-height:1.25" xml:space="preserve"><tspan x="49.554718" y="121.3347" fill="#5599ff" font-family="sans-serif" font-size="2.2926px" font-weight="bold" stroke-width="1.6871">S</tspan></text></g></g></g></svg>
