<svg xmlns="http://www.w3.org/2000/svg" id="Calque_1" data-name="Calque 1" viewBox="0 0 245.73 189.77"><defs><radialGradient id="Dégradé_sans_nom_8" cx="128" cy="94.88" r="76" gradientUnits="userSpaceOnUse"><stop offset="0" stop-color="#0178bc"/><stop offset="1" stop-color="#005894"/></radialGradient><style>.cls-1{fill:#dbdbdb}.cls-9{fill:#ffd941}</style></defs><path d="M43.73 133.08C26 131.88 0 118.73 0 118.73V92.15l37 15.73Z" class="cls-1"/><path d="M35.64 122.87C0 104 0 100 0 100v34.85A95.81 95.81 0 0 0 38 149" style="fill:#00569c" transform="translate(0 -33.12)"/><path d="M55.94 152.88c-11.94 0-32.94-3-32.94-3l5 16s18.37 5.61 41.68.8M219.35 80.28c13.65.6 20.65 2.6 20.65 2.6l5.57 18.85s-14.57-4.85-25.09-4.85" class="cls-1"/><path d="M220.24 121c15.76 8 25.49 24.25 25.49 24.25L238 167l-20.53-15.44" style="fill:#a8acad" transform="translate(0 -33.12)"/><path d="M218.88 145.29C236 158 238 167 238 167l-15 39s-12-19-18.49-26c0 0 11.47-14.11 13.48-28.55s.89-6.16.89-6.16Z" style="fill:#004f91" transform="translate(0 -33.12)"/><circle cx="128" cy="94.88" r="76" style="stroke-width:5px;fill:url(#Dégradé_sans_nom_8);stroke:#1d4156;stroke-miterlimit:10"/><circle cx="128" cy="94.88" r="92.5" style="fill:none;stroke-width:4.77px;stroke:#1d4156;stroke-miterlimit:10"/><text style="font-size:32px;fill:#fff;font-family:Arial-BoldMT,Arial;font-weight:700" transform="rotate(-9.55 733.2 -471.458)">EUP<tspan x="65.8" y="0" style="letter-spacing:-.02em">L</tspan></text><path d="m128 27.18 2.18 6.7h7.05l-5.7 4.15 2.18 6.71-5.71-4.15-5.71 4.15 2.18-6.71-5.7-4.15h7.05l2.18-6.7zM159 36.18l2.18 6.7h7.05l-5.7 4.15 2.18 6.71-5.71-4.15-5.71 4.15 2.18-6.71-5.7-4.15h7.05l2.18-6.7zM181 59.18l2.18 6.7h7.05l-5.7 4.15 2.18 6.71-5.71-4.15-5.71 4.15 2.18-6.71-5.7-4.15h7.05l2.18-6.7zM186 84.18l2.18 6.7h7.05l-5.7 4.15 2.18 6.71-5.71-4.15-5.71 4.15 2.18-6.71-5.7-4.15h7.05l2.18-6.7zM181 112.18l2.18 6.7h7.05l-5.7 4.15 2.18 6.71-5.71-4.15-5.71 4.15 2.18-6.71-5.7-4.15h7.05l2.18-6.7zM160 134.18l2.18 6.7h7.05l-5.7 4.15 2.18 6.71-5.71-4.15-5.71 4.15 2.18-6.71-5.7-4.15h7.05l2.18-6.7zM128 143.18l2.18 6.7h7.05l-5.7 4.15 2.18 6.71-5.71-4.15-5.71 4.15 2.18-6.71-5.7-4.15h7.05l2.18-6.7zM94 134.18l2.18 6.7h7.05l-5.7 4.15 2.18 6.71-5.71-4.15-5.71 4.15 2.18-6.71-5.7-4.15h7.05l2.18-6.7zM74 112.18l2.18 6.7h7.05l-5.7 4.15 2.18 6.71-5.71-4.15-5.71 4.15 2.18-6.71-5.7-4.15h7.05l2.18-6.7zM69 84.18l2.18 6.7h7.05l-5.7 4.15 2.18 6.71L69 97.59l-5.71 4.15 2.18-6.71-5.7-4.15h7.05l2.18-6.7zM74 57.18l2.18 6.7h7.05l-5.7 4.15 2.18 6.71L74 70.59l-5.71 4.15 2.18-6.71-5.7-4.15h7.05l2.18-6.7zM95 35.18l2.18 6.7h7.05l-5.7 4.15 2.18 6.71L95 48.59l-5.71 4.15 2.18-6.71-5.7-4.15h7.05l2.18-6.7z" class="cls-9"/></svg>
